[{"backend": ["l"], "composition_time": [9237], "country": ["us"], "feedback": ["2"], "input_sequence": [{"notes": [{"endTime": 2.0, "pitch": 64, "pitchName": "E", "quantizedEndStep": "8", "quantizedStartStep": "4", "startTime": 1.0, "velocity": 100}, {"endTime": 3.0, "pitch": 71, "pitchName": "B", "quantizedEndStep": "12", "quantizedStartStep": "8", "startTime": 2.0, "velocity": 100}, {"endTime": 4.0, "pitch": 65, "pitchName": "F", "quantizedEndStep": "16", "quantizedStartStep": "12", "startTime": 3.0, "velocity": 100}, {"endTime": 5.0, "pitch": 72, "pitchName": "C", "quantizedEndStep": "20", "quantizedStartStep": "16", "startTime": 4.0, "velocity": 100}, {"endTime": 6.0, "pitch": 69, "pitchName": "A", "quantizedEndStep": "24", "quantizedStartStep": "20", "startTime": 5.0, "velocity": 100}, {"endTime": 7.0, "pitch": 74, "pitchName": "D", "quantizedEndStep": "28", "quantizedStartStep": "24", "startTime": 6.0, "velocity": 100}], "quantizationInfo": {"stepsPerQuarter": 4}, "tempos": [{"qpm": 60.0}], "ticksPerQuarter": 220, "timeSignatures": [{"denominator": 4, "numerator": 4}], "totalQuantizedSteps": "28", "totalTime": 7.0}], "key_sig": [""], "loops_listened": [2], "output_sequence": [{"notes": [{"endTime": 1.0, "pitch": 65, "quantizedEndStep": "4", "velocity": 100}, {"endTime": 2.0, "pitch": 64, "quantizedEndStep": "8", "quantizedStartStep": "4", "startTime": 1.0, "velocity": 100}, {"endTime": 3.0, "pitch": 71, "quantizedEndStep": "12", "quantizedStartStep": "8", "startTime": 2.0, "velocity": 100}, {"endTime": 4.0, "pitch": 65, "quantizedEndStep": "16", "quantizedStartStep": "12", "startTime": 3.0, "velocity": 100}, {"endTime": 5.0, "pitch": 72, "quantizedEndStep": "20", "quantizedStartStep": "16", "startTime": 4.0, "velocity": 100}, {"endTime": 6.0, "pitch": 69, "quantizedEndStep": "24", "quantizedStartStep": "20", "startTime": 5.0, "velocity": 100}, {"endTime": 7.0, "pitch": 74, "quantizedEndStep": "28", "quantizedStartStep": "24", "startTime": 6.0, "velocity": 100}, {"endTime": 8.0, "pitch": 72, "quantizedEndStep": "32", "quantizedStartStep": "28", "startTime": 7.0, "velocity": 100}, {"endTime": 1.0, "instrument": 1, "pitch": 62, "quantizedEndStep": "4", "velocity": 100}, {"endTime": 2.0, "instrument": 1, "pitch": 60, "quantizedEndStep": "8", "quantizedStartStep": "4", "startTime": 1.0, "velocity": 100}, {"endTime": 2.5, "instrument": 1, "pitch": 59, "quantizedEndStep": "10", "quantizedStartStep": "8", "startTime": 2.0, "velocity": 100}, {"endTime": 3.0, "instrument": 1, "pitch": 60, "quantizedEndStep": "12", "quantizedStartStep": "10", "startTime": 2.5, "velocity": 100}, {"endTime": 4.0, "instrument": 1, "pitch": 62, "quantizedEndStep": "16", "quantizedStartStep": "12", "startTime": 3.0, "velocity": 100}, {"endTime": 6.0, "instrument": 1, "pitch": 60, "quantizedEndStep": "24", "quantizedStartStep": "16", "startTime": 4.0, "velocity": 100}, {"endTime": 7.0, "instrument": 1, "pitch": 62, "quantizedEndStep": "28", "quantizedStartStep": "24", "startTime": 6.0, "velocity": 100}, {"endTime": 8.0, "instrument": 1, "pitch": 64, "quantizedEndStep": "32", "quantizedStartStep": "28", "startTime": 7.0, "velocity": 100}, {"endTime": 2.0, "instrument": 2, "pitch": 57, "quantizedEndStep": "8", "velocity": 100}, {"endTime": 3.0, "instrument": 2, "pitch": 55, "quantizedEndStep": "12", "quantizedStartStep": "8", "startTime": 2.0, "velocity": 100}, {"endTime": 3.5, "instrument": 2, "pitch": 57, "quantizedEndStep": "14", "quantizedStartStep": "12", "startTime": 3.0, "velocity": 100}, {"endTime": 4.0, "instrument": 2, "pitch": 59, "quantizedEndStep": "16", "quantizedStartStep": "14", "startTime": 3.5, "velocity": 100}, {"endTime": 6.0, "instrument": 2, "pitch": 60, "quantizedEndStep": "24", "quantizedStartStep": "16", "startTime": 4.0, "velocity": 100}, {"endTime": 6.5, "instrument": 2, "pitch": 59, "quantizedEndStep": "26", "quantizedStartStep": "24", "startTime": 6.0, "velocity": 100}, {"endTime": 7.0, "instrument": 2, "pitch": 57, "quantizedEndStep": "28", "quantizedStartStep": "26", "startTime": 6.5, "velocity": 100}, {"endTime": 8.0, "instrument": 2, "pitch": 55, "quantizedEndStep": "32", "quantizedStartStep": "28", "startTime": 7.0, "velocity": 100}, {"endTime": 1.0, "instrument": 3, "pitch": 50, "quantizedEndStep": "4", "velocity": 100}, {"endTime": 2.0, "instrument": 3, "pitch": 45, "quantizedEndStep": "8", "quantizedStartStep": "4", "startTime": 1.0, "velocity": 100}, {"endTime": 3.0, "instrument": 3, "pitch": 55, "quantizedEndStep": "12", "quantizedStartStep": "8", "startTime": 2.0, "velocity": 100}, {"endTime": 3.5, "instrument": 3, "pitch": 53, "quantizedEndStep": "14", "quantizedStartStep": "12", "startTime": 3.0, "velocity": 100}, {"endTime": 4.0, "instrument": 3, "pitch": 55, "quantizedEndStep": "16", "quantizedStartStep": "14", "startTime": 3.5, "velocity": 100}, {"endTime": 4.5, "instrument": 3, "pitch": 57, "quantizedEndStep": "18", "quantizedStartStep": "16", "startTime": 4.0, "velocity": 100}, {"endTime": 5.0, "instrument": 3, "pitch": 52, "quantizedEndStep": "20", "quantizedStartStep": "18", "startTime": 4.5, "velocity": 100}, {"endTime": 7.0, "instrument": 3, "pitch": 53, "quantizedEndStep": "28", "quantizedStartStep": "20", "startTime": 5.0, "velocity": 100}, {"endTime": 8.0, "instrument": 3, "pitch": 52, "quantizedEndStep": "32", "quantizedStartStep": "28", "startTime": 7.0, "velocity": 100}], "quantizationInfo": {"stepsPerQuarter": 4}, "tempos": [{"qpm": 60.0}], "ticksPerQuarter": 220, "timeSignatures": [{"denominator": 4, "numerator": 4}], "totalQuantizedSteps": "32", "totalTime": 8.0}], "request_id": [0], "session_id": "28ab9a4b29ce459fb208a129d0e417df"}
,{"backend": ["l", "l", "l", "l"], "composition_time": [22215, 58864, 19722, 43249], "country": ["us", "us", "us", "us"], "feedback": ["0", "2", "2", "2"], "input_sequence": [{"notes": [{"endTime": 0.5, "pitch": 72, "pitchName": "C", "quantizedEndStep": "2", "velocity": 100}, {"endTime": 1.0, "pitch": 69, "pitchName": "A", "quantizedEndStep": "4", "quantizedStartStep": "2", "startTime": 0.5, "velocity": 100}, {"endTime": 1.5, "pitch": 72, "pitchName": "C", "quantizedEndStep": "6", "quantizedStartStep": "4", "startTime": 1.0, "velocity": 100}, {"endTime": 2.0, "pitch": 65, "pitchName": "F", "quantizedEndStep": "8", "quantizedStartStep": "6", "startTime": 1.5, "velocity": 100}, {"endTime": 2.5, "pitch": 69, "pitchName": "A", "quantizedEndStep": "10", "quantizedStartStep": "8", "startTime": 2.0, "velocity": 100}, {"endTime": 3.0, "pitch": 65, "pitchName": "F", "quantizedEndStep": "12", "quantizedStartStep": "10", "startTime": 2.5, "velocity": 100}, {"endTime": 4.0, "pitch": 65, "pitchName": "F", "quantizedEndStep": "16", "quantizedStartStep": "12", "startTime": 3.0, "velocity": 100}, {"endTime": 4.5, "pitch": 65, "pitchName": "F", "quantizedEndStep": "18", "quantizedStartStep": "16", "startTime": 4.0, "velocity": 100}, {"endTime": 5.0, "pitch": 65, "pitchName": "F", "quantizedEndStep": "20", "quantizedStartStep": "18", "startTime": 4.5, "velocity": 100}, {"endTime": 6.0, "pitch": 69, "pitchName": "A", "quantizedEndStep": "24", "quantizedStartStep": "20", "startTime": 5.0, "velocity": 100}, {"endTime": 6.5, "pitch": 72, "pitchName": "C", "quantizedEndStep": "26", "quantizedStartStep": "24", "startTime": 6.0, "velocity": 100}, {"endTime": 7.0, "pitch": 69, "pitchName": "A", "quantizedEndStep": "28", "quantizedStartStep": "26", "startTime": 6.5, "velocity": 100}, {"endTime": 7.5, "pitch": 72, "pitchName": "C", "quantizedEndStep": "30", "quantizedStartStep": "28", "startTime": 7.0, "velocity": 100}, {"endTime": 8.0, "pitch": 69, "pitchName": "A", "quantizedEndStep": "32", "quantizedStartStep": "30", "startTime": 7.5, "velocity": 100}], "quantizationInfo": {"stepsPerQuarter": 4}, "tempos": [{"qpm": 60.0}], "ticksPerQuarter": 220, "timeSignatures": [{"denominator": 4, "numerator": 4}], "totalQuantizedSteps": "32", "totalTime": 8.0}, {"notes": [{"endTime": 0.125, "pitch": 72, "pitchName": "C", "quantizedEndStep": "1", "velocity": 100}, {"endTime": 0.25, "pitch": 71, "pitchName": "B", "quantizedEndStep": "2", "quantizedStartStep": "1", "startTime": 0.125, "velocity": 100}, {"endTime": 0.375, "pitch": 69, "pitchName": "A", "quantizedEndStep": "3", "quantizedStartStep": "2", "startTime": 0.25, "velocity": 100}, {"endTime": 0.5, "pitch": 79, "pitchName": "G", "quantizedEndStep": "4", "quantizedStartStep": "3", "startTime": 0.375, "velocity": 100}, {"endTime": 0.75, "pitch": 72, "pitchName": "C", "quantizedEndStep": "6", "quantizedStartStep": "4", "startTime": 0.5, "velocity": 100}, {"endTime": 1.0, "pitch": 65, "pitchName": "F", "quantizedEndStep": "8", "quantizedStartStep": "6", "startTime": 0.75, "velocity": 100}, {"endTime": 1.25, "pitch": 69, "pitchName": "A", "quantizedEndStep": "10", "quantizedStartStep": "8", "startTime": 1.0, "velocity": 100}, {"endTime": 1.5, "pitch": 65, "pitchName": "F", "quantizedEndStep": "12", "quantizedStartStep": "10", "startTime": 1.25, "velocity": 100}, {"endTime": 2.0, "pitch": 65, "pitchName": "F", "quantizedEndStep": "16", "quantizedStartStep": "12", "startTime": 1.5, "velocity": 100}, {"endTime": 2.125, "pitch": 72, "pitchName": "C", "quantizedEndStep": "17", "quantizedStartStep": "16", "startTime": 2.0, "velocity": 100}, {"endTime": 2.25, "pitch": 71, "pitchName": "B", "quantizedEndStep": "18", "quantizedStartStep": "17", "startTime": 2.125, "velocity": 100}, {"endTime": 2.375, "pitch": 69, "pitchName": "A", "quantizedEndStep": "19", "quantizedStartStep": "18", "startTime": 2.25, "velocity": 100}, {"endTime": 2.5, "pitch": 79, "pitchName": "G", "quantizedEndStep": "20", "quantizedStartStep": "19", "startTime": 2.375, "velocity": 100}, {"endTime": 3.0, "pitch": 69, "pitchName": "A", "quantizedEndStep": "24", "quantizedStartStep": "20", "startTime": 2.5, "velocity": 100}, {"endTime": 3.25, "pitch": 72, "pitchName": "C", "quantizedEndStep": "26", "quantizedStartStep": "24", "startTime": 3.0, "velocity": 100}, {"endTime": 3.5, "pitch": 69, "pitchName": "A", "quantizedEndStep": "28", "quantizedStartStep": "26", "startTime": 3.25, "velocity": 100}, {"endTime": 3.75, "pitch": 72, "pitchName": "C", "quantizedEndStep": "30", "quantizedStartStep": "28", "startTime": 3.5, "velocity": 100}, {"endTime": 4.0, "pitch": 69, "pitchName": "A", "quantizedEndStep": "32", "quantizedStartStep": "30", "startTime": 3.75, "velocity": 100}], "quantizationInfo": {"stepsPerQuarter": 4}, "tempos": [{"qpm": 120.0}], "ticksPerQuarter": 220, "timeSignatures": [{"denominator": 4, "numerator": 4}], "totalQuantizedSteps": "32", "totalTime": 4.0}, {"notes": [{"endTime": 0.125, "pitch": 72, "pitchName": "C", "quantizedEndStep": "1", "velocity": 100}, {"endTime": 0.25, "pitch": 71, "pitchName": "B", "quantizedEndStep": "2", "quantizedStartStep": "1", "startTime": 0.125, "velocity": 100}, {"endTime": 0.375, "pitch": 69, "pitchName": "A", "quantizedEndStep": "3", "quantizedStartStep": "2", "startTime": 0.25, "velocity": 100}, {"endTime": 0.5, "pitch": 79, "pitchName": "G", "quantizedEndStep": "4", "quantizedStartStep": "3", "startTime": 0.375, "velocity": 100}, {"endTime": 0.75, "pitch": 72, "pitchName": "C", "quantizedEndStep": "6", "quantizedStartStep": "4", "startTime": 0.5, "velocity": 100}, {"endTime": 1.0, "pitch": 65, "pitchName": "F", "quantizedEndStep": "8", "quantizedStartStep": "6", "startTime": 0.75, "velocity": 100}, {"endTime": 1.25, "pitch": 69, "pitchName": "A", "quantizedEndStep": "10", "quantizedStartStep": "8", "startTime": 1.0, "velocity": 100}, {"endTime": 1.5, "pitch": 65, "pitchName": "F", "quantizedEndStep": "12", "quantizedStartStep": "10", "startTime": 1.25, "velocity": 100}, {"endTime": 1.75, "pitch": 65, "pitchName": "F", "quantizedEndStep": "14", "quantizedStartStep": "12", "startTime": 1.5, "velocity": 100}, {"endTime": 2.0, "pitch": 69, "pitchName": "A", "quantizedEndStep": "16", "quantizedStartStep": "14", "startTime": 1.75, "velocity": 100}, {"endTime": 2.125, "pitch": 72, "pitchName": "C", "quantizedEndStep": "17", "quantizedStartStep": "16", "startTime": 2.0, "velocity": 100}, {"endTime": 2.25, "pitch": 71, "pitchName": "B", "quantizedEndStep": "18", "quantizedStartStep": "17", "startTime": 2.125, "velocity": 100}, {"endTime": 2.375, "pitch": 69, "pitchName": "A", "quantizedEndStep": "19", "quantizedStartStep": "18", "startTime": 2.25, "velocity": 100}, {"endTime": 2.5, "pitch": 79, "pitchName": "G", "quantizedEndStep": "20", "quantizedStartStep": "19", "startTime": 2.375, "velocity": 100}, {"endTime": 3.0, "pitch": 69, "pitchName": "A", "quantizedEndStep": "24", "quantizedStartStep": "20", "startTime": 2.5, "velocity": 100}, {"endTime": 3.25, "pitch": 72, "pitchName": "C", "quantizedEndStep": "26", "quantizedStartStep": "24", "startTime": 3.0, "velocity": 100}, {"endTime": 3.5, "pitch": 69, "pitchName": "A", "quantizedEndStep": "28", "quantizedStartStep": "26", "startTime": 3.25, "velocity": 100}, {"endTime": 3.75, "pitch": 72, "pitchName": "C", "quantizedEndStep": "30", "quantizedStartStep": "28", "startTime": 3.5, "velocity": 100}, {"endTime": 4.0, "pitch": 69, "pitchName": "A", "quantizedEndStep": "32", "quantizedStartStep": "30", "startTime": 3.75, "velocity": 100}], "quantizationInfo": {"stepsPerQuarter": 4}, "tempos": [{"qpm": 120.0}], "ticksPerQuarter": 220, "timeSignatures": [{"denominator": 4, "numerator": 4}], "totalQuantizedSteps": "32", "totalTime": 4.0}, {"notes": [{"endTime": 0.125, "pitch": 72, "pitchName": "C", "quantizedEndStep": "1", "velocity": 100}, {"endTime": 0.25, "pitch": 71, "pitchName": "B", "quantizedEndStep": "2", "quantizedStartStep": "1", "startTime": 0.125, "velocity": 100}, {"endTime": 0.375, "pitch": 69, "pitchName": "A", "quantizedEndStep": "3", "quantizedStartStep": "2", "startTime": 0.25, "velocity": 100}, {"endTime": 0.5, "pitch": 79, "pitchName": "G", "quantizedEndStep": "4", "quantizedStartStep": "3", "startTime": 0.375, "velocity": 100}, {"endTime": 0.75, "pitch": 72, "pitchName": "C", "quantizedEndStep": "6", "quantizedStartStep": "4", "startTime": 0.5, "velocity": 100}, {"endTime": 1.0, "pitch": 65, "pitchName": "F", "quantizedEndStep": "8", "quantizedStartStep": "6", "startTime": 0.75, "velocity": 100}, {"endTime": 1.25, "pitch": 69, "pitchName": "A", "quantizedEndStep": "10", "quantizedStartStep": "8", "startTime": 1.0, "velocity": 100}, {"endTime": 1.5, "pitch": 65, "pitchName": "F", "quantizedEndStep": "12", "quantizedStartStep": "10", "startTime": 1.25, "velocity": 100}, {"endTime": 1.75, "pitch": 65, "pitchName": "F", "quantizedEndStep": "14", "quantizedStartStep": "12", "startTime": 1.5, "velocity": 100}, {"endTime": 2.0, "pitch": 69, "pitchName": "A", "quantizedEndStep": "16", "quantizedStartStep": "14", "startTime": 1.75, "velocity": 100}, {"endTime": 2.125, "pitch": 72, "pitchName": "C", "quantizedEndStep": "17", "quantizedStartStep": "16", "startTime": 2.0, "velocity": 100}, {"endTime": 2.25, "pitch": 71, "pitchName": "B", "quantizedEndStep": "18", "quantizedStartStep": "17", "startTime": 2.125, "velocity": 100}, {"endTime": 2.375, "pitch": 69, "pitchName": "A", "quantizedEndStep": "19", "quantizedStartStep": "18", "startTime": 2.25, "velocity": 100}, {"endTime": 2.5, "pitch": 79, "pitchName": "G", "quantizedEndStep": "20", "quantizedStartStep": "19", "startTime": 2.375, "velocity": 100}, {"endTime": 3.0, "pitch": 79, "pitchName": "G", "quantizedEndStep": "24", "quantizedStartStep": "22", "startTime": 2.75, "velocity": 100}, {"endTime": 3.125, "pitch": 81, "pitchName": "A", "quantizedEndStep": "25", "quantizedStartStep": "24", "startTime": 3.0, "velocity": 100}, {"endTime": 3.25, "pitch": 76, "pitchName": "E", "quantizedEndStep": "26", "quantizedStartStep": "25", "startTime": 3.125, "velocity": 100}, {"endTime": 3.375, "pitch": 71, "pitchName": "B", "quantizedEndStep": "27", "quantizedStartStep": "26", "startTime": 3.25, "velocity": 100}, {"endTime": 3.5, "pitch": 76, "pitchName": "E", "quantizedEndStep": "28", "quantizedStartStep": "27", "startTime": 3.375, "velocity": 100}], "quantizationInfo": {"stepsPerQuarter": 4}, "tempos": [{"qpm": 120.0}], "ticksPerQuarter": 220, "timeSignatures": [{"denominator": 4, "numerator": 4}], "totalQuantizedSteps": "28", "totalTime": 3.5}], "key_sig": ["", "", "", ""], "loops_listened": [0, 5, 5, 2], "output_sequence": [{"notes": [{"endTime": 0.5, "pitch": 72, "quantizedEndStep": "2", "velocity": 100}, {"endTime": 1.0, "pitch": 69, "quantizedEndStep": "4", "quantizedStartStep": "2", "startTime": 0.5, "velocity": 100}, {"endTime": 1.5, "pitch": 72, "quantizedEndStep": "6", "quantizedStartStep": "4", "startTime": 1.0, "velocity": 100}, {"endTime": 2.0, "pitch": 65, "quantizedEndStep": "8", "quantizedStartStep": "6", "startTime": 1.5, "velocity": 100}, {"endTime": 2.5, "pitch": 69, "quantizedEndStep": "10", "quantizedStartStep": "8", "startTime": 2.0, "velocity": 100}, {"endTime": 4.0, "pitch": 65, "quantizedEndStep": "16", "quantizedStartStep": "10", "startTime": 2.5, "velocity": 100}, {"endTime": 5.0, "pitch": 65, "quantizedEndStep": "20", "quantizedStartStep": "16", "startTime": 4.0, "velocity": 100}, {"endTime": 6.0, "pitch": 69, "quantizedEndStep": "24", "quantizedStartStep": "20", "startTime": 5.0, "velocity": 100}, {"endTime": 6.5, "pitch": 72, "quantizedEndStep": "26", "quantizedStartStep": "24", "startTime": 6.0, "velocity": 100}, {"endTime": 7.0, "pitch": 69, "quantizedEndStep": "28", "quantizedStartStep": "26", "startTime": 6.5, "velocity": 100}, {"endTime": 7.5, "pitch": 72, "quantizedEndStep": "30", "quantizedStartStep": "28", "startTime": 7.0, "velocity": 100}, {"endTime": 8.0, "pitch": 69, "quantizedEndStep": "32", "quantizedStartStep": "30", "startTime": 7.5, "velocity": 100}, {"endTime": 0.5, "instrument": 1, "pitch": 64, "quantizedEndStep": "2", "velocity": 100}, {"endTime": 1.5, "instrument": 1, "pitch": 65, "quantizedEndStep": "6", "quantizedStartStep": "2", "startTime": 0.5, "velocity": 100}, {"endTime": 2.0, "instrument": 1, "pitch": 62, "quantizedEndStep": "8", "quantizedStartStep": "6", "startTime": 1.5, "velocity": 100}, {"endTime": 2.5, "instrument": 1, "pitch": 64, "quantizedEndStep": "10", "quantizedStartStep": "8", "startTime": 2.0, "velocity": 100}, {"endTime": 4.0, "instrument": 1, "pitch": 62, "quantizedEndStep": "16", "quantizedStartStep": "10", "startTime": 2.5, "velocity": 100}, {"endTime": 4.5, "instrument": 1, "pitch": 62, "quantizedEndStep": "18", "quantizedStartStep": "16", "startTime": 4.0, "velocity": 100}, {"endTime": 5.5, "instrument": 1, "pitch": 65, "quantizedEndStep": "22", "quantizedStartStep": "18", "startTime": 4.5, "velocity": 100}, {"endTime": 6.5, "instrument": 1, "pitch": 67, "quantizedEndStep": "26", "quantizedStartStep": "22", "startTime": 5.5, "velocity": 100}, {"endTime": 8.0, "instrument": 1, "pitch": 65, "quantizedEndStep": "32", "quantizedStartStep": "26", "startTime": 6.5, "velocity": 100}, {"endTime": 3.5, "instrument": 2, "pitch": 57, "quantizedEndStep": "14", "velocity": 100}, {"endTime": 4.0, "instrument": 2, "pitch": 58, "quantizedEndStep": "16", "quantizedStartStep": "14", "startTime": 3.5, "velocity": 100}, {"endTime": 4.5, "instrument": 2, "pitch": 60, "quantizedEndStep": "18", "quantizedStartStep": "16", "startTime": 4.0, "velocity": 100}, {"endTime": 5.0, "instrument": 2, "pitch": 62, "quantizedEndStep": "20", "quantizedStartStep": "18", "startTime": 4.5, "velocity": 100}, {"endTime": 5.5, "instrument": 2, "pitch": 58, "quantizedEndStep": "22", "quantizedStartStep": "20", "startTime": 5.0, "velocity": 100}, {"endTime": 8.0, "instrument": 2, "pitch": 60, "quantizedEndStep": "32", "quantizedStartStep": "22", "startTime": 5.5, "velocity": 100}, {"endTime": 0.5, "instrument": 3, "pitch": 57, "quantizedEndStep": "2", "velocity": 100}, {"endTime": 1.0, "instrument": 3, "pitch": 53, "quantizedEndStep": "4", "quantizedStartStep": "2", "startTime": 0.5, "velocity": 100}, {"endTime": 1.5, "instrument": 3, "pitch": 52, "quantizedEndStep": "6", "quantizedStartStep": "4", "startTime": 1.0, "velocity": 100}, {"endTime": 2.0, "instrument": 3, "pitch": 50, "quantizedEndStep": "8", "quantizedStartStep": "6", "startTime": 1.5, "velocity": 100}, {"endTime": 2.5, "instrument": 3, "pitch": 49, "quantizedEndStep": "10", "quantizedStartStep": "8", "startTime": 2.0, "velocity": 100}, {"endTime": 3.5, "instrument": 3, "pitch": 50, "quantizedEndStep": "14", "quantizedStartStep": "10", "startTime": 2.5, "velocity": 100}, {"endTime": 4.0, "instrument": 3, "pitch": 48, "quantizedEndStep": "16", "quantizedStartStep": "14", "startTime": 3.5, "velocity": 100}, {"endTime": 4.5, "instrument": 3, "pitch": 46, "quantizedEndStep": "18", "quantizedStartStep": "16", "startTime": 4.0, "velocity": 100}, {"endTime": 4.75, "instrument": 3, "pitch": 48, "quantizedEndStep": "19", "quantizedStartStep": "18", "startTime": 4.5, "velocity": 100}, {"endTime": 5.5, "instrument": 3, "pitch": 50, "quantizedEndStep": "22", "quantizedStartStep": "19", "startTime": 4.75, "velocity": 100}, {"endTime": 6.5, "instrument": 3, "pitch": 52, "quantizedEndStep": "26", "quantizedStartStep": "22", "startTime": 5.5, "velocity": 100}, {"endTime": 8.0, "instrument": 3, "pitch": 53, "quantizedEndStep": "32", "quantizedStartStep": "26", "startTime": 6.5, "velocity": 100}], "quantizationInfo": {"stepsPerQuarter": 4}, "tempos": [{"qpm": 60.0}], "ticksPerQuarter": 220, "timeSignatures": [{"denominator": 4, "numerator": 4}], "totalQuantizedSteps": "32", "totalTime": 8.0}, {"notes": [{"endTime": 0.125, "pitch": 72, "quantizedEndStep": "1", "velocity": 100}, {"endTime": 0.25, "pitch": 71, "quantizedEndStep": "2", "quantizedStartStep": "1", "startTime": 0.125, "velocity": 100}, {"endTime": 0.375, "pitch": 69, "quantizedEndStep": "3", "quantizedStartStep": "2", "startTime": 0.25, "velocity": 100}, {"endTime": 0.5, "pitch": 79, "quantizedEndStep": "4", "quantizedStartStep": "3", "startTime": 0.375, "velocity": 100}, {"endTime": 0.75, "pitch": 72, "quantizedEndStep": "6", "quantizedStartStep": "4", "startTime": 0.5, "velocity": 100}, {"endTime": 1.0, "pitch": 65, "quantizedEndStep": "8", "quantizedStartStep": "6", "startTime": 0.75, "velocity": 100}, {"endTime": 1.25, "pitch": 69, "quantizedEndStep": "10", "quantizedStartStep": "8", "startTime": 1.0, "velocity": 100}, {"endTime": 2.0, "pitch": 65, "quantizedEndStep": "16", "quantizedStartStep": "10", "startTime": 1.25, "velocity": 100}, {"endTime": 2.125, "pitch": 72, "quantizedEndStep": "17", "quantizedStartStep": "16", "startTime": 2.0, "velocity": 100}, {"endTime": 2.25, "pitch": 71, "quantizedEndStep": "18", "quantizedStartStep": "17", "startTime": 2.125, "velocity": 100}, {"endTime": 2.375, "pitch": 69, "quantizedEndStep": "19", "quantizedStartStep": "18", "startTime": 2.25, "velocity": 100}, {"endTime": 2.5, "pitch": 79, "quantizedEndStep": "20", "quantizedStartStep": "19", "startTime": 2.375, "velocity": 100}, {"endTime": 3.0, "pitch": 69, "quantizedEndStep": "24", "quantizedStartStep": "20", "startTime": 2.5, "velocity": 100}, {"endTime": 3.25, "pitch": 72, "quantizedEndStep": "26", "quantizedStartStep": "24", "startTime": 3.0, "velocity": 100}, {"endTime": 3.5, "pitch": 69, "quantizedEndStep": "28", "quantizedStartStep": "26", "startTime": 3.25, "velocity": 100}, {"endTime": 3.75, "pitch": 72, "quantizedEndStep": "30", "quantizedStartStep": "28", "startTime": 3.5, "velocity": 100}, {"endTime": 4.0, "pitch": 69, "quantizedEndStep": "32", "quantizedStartStep": "30", "startTime": 3.75, "velocity": 100}, {"endTime": 0.25, "instrument": 1, "pitch": 67, "quantizedEndStep": "2", "velocity": 100}, {"endTime": 0.5, "instrument": 1, "pitch": 65, "quantizedEndStep": "4", "quantizedStartStep": "2", "startTime": 0.25, "velocity": 100}, {"endTime": 0.75, "instrument": 1, "pitch": 64, "quantizedEndStep": "6", "quantizedStartStep": "4", "startTime": 0.5, "velocity": 100}, {"endTime": 1.0, "instrument": 1, "pitch": 62, "quantizedEndStep": "8", "quantizedStartStep": "6", "startTime": 0.75, "velocity": 100}, {"endTime": 1.25, "instrument": 1, "pitch": 61, "quantizedEndStep": "10", "quantizedStartStep": "8", "startTime": 1.0, "velocity": 100}, {"endTime": 1.5, "instrument": 1, "pitch": 62, "quantizedEndStep": "12", "quantizedStartStep": "10", "startTime": 1.25, "velocity": 100}, {"endTime": 2.0, "instrument": 1, "pitch": 60, "quantizedEndStep": "16", "quantizedStartStep": "12", "startTime": 1.5, "velocity": 100}, {"endTime": 2.25, "instrument": 1, "pitch": 62, "quantizedEndStep": "18", "quantizedStartStep": "16", "startTime": 2.0, "velocity": 100}, {"endTime": 2.75, "instrument": 1, "pitch": 64, "quantizedEndStep": "22", "quantizedStartStep": "18", "startTime": 2.25, "velocity": 100}, {"endTime": 3.0, "instrument": 1, "pitch": 65, "quantizedEndStep": "24", "quantizedStartStep": "22", "startTime": 2.75, "velocity": 100}, {"endTime": 3.25, "instrument": 1, "pitch": 67, "quantizedEndStep": "26", "quantizedStartStep": "24", "startTime": 3.0, "velocity": 100}, {"endTime": 3.5, "instrument": 1, "pitch": 65, "quantizedEndStep": "28", "quantizedStartStep": "26", "startTime": 3.25, "velocity": 100}, {"endTime": 3.75, "instrument": 1, "pitch": 64, "quantizedEndStep": "30", "quantizedStartStep": "28", "startTime": 3.5, "velocity": 100}, {"endTime": 4.0, "instrument": 1, "pitch": 62, "quantizedEndStep": "32", "quantizedStartStep": "30", "startTime": 3.75, "velocity": 100}, {"endTime": 0.25, "instrument": 2, "pitch": 62, "quantizedEndStep": "2", "velocity": 100}, {"endTime": 1.0, "instrument": 2, "pitch": 57, "quantizedEndStep": "8", "quantizedStartStep": "2", "startTime": 0.25, "velocity": 100}, {"endTime": 1.25, "instrument": 2, "pitch": 55, "quantizedEndStep": "10", "quantizedStartStep": "8", "startTime": 1.0, "velocity": 100}, {"endTime": 1.5, "instrument": 2, "pitch": 53, "quantizedEndStep": "12", "quantizedStartStep": "10", "startTime": 1.25, "velocity": 100}, {"endTime": 1.75, "instrument": 2, "pitch": 55, "quantizedEndStep": "14", "quantizedStartStep": "12", "startTime": 1.5, "velocity": 100}, {"endTime": 2.0, "instrument": 2, "pitch": 57, "quantizedEndStep": "16", "quantizedStartStep": "14", "startTime": 1.75, "velocity": 100}, {"endTime": 2.25, "instrument": 2, "pitch": 59, "quantizedEndStep": "18", "quantizedStartStep": "16", "startTime": 2.0, "velocity": 100}, {"endTime": 2.75, "instrument": 2, "pitch": 60, "quantizedEndStep": "22", "quantizedStartStep": "18", "startTime": 2.25, "velocity": 100}, {"endTime": 3.25, "instrument": 2, "pitch": 62, "quantizedEndStep": "26", "quantizedStartStep": "22", "startTime": 2.75, "velocity": 100}, {"endTime": 3.75, "instrument": 2, "pitch": 60, "quantizedEndStep": "30", "quantizedStartStep": "26", "startTime": 3.25, "velocity": 100}, {"endTime": 4.0, "instrument": 2, "pitch": 62, "quantizedEndStep": "32", "quantizedStartStep": "30", "startTime": 3.75, "velocity": 100}, {"endTime": 0.25, "instrument": 3, "pitch": 55, "quantizedEndStep": "2", "velocity": 100}, {"endTime": 0.5, "instrument": 3, "pitch": 57, "quantizedEndStep": "4", "quantizedStartStep": "2", "startTime": 0.25, "velocity": 100}, {"endTime": 0.75, "instrument": 3, "pitch": 55, "quantizedEndStep": "6", "quantizedStartStep": "4", "startTime": 0.5, "velocity": 100}, {"endTime": 1.0, "instrument": 3, "pitch": 53, "quantizedEndStep": "8", "quantizedStartStep": "6", "startTime": 0.75, "velocity": 100}, {"endTime": 1.25, "instrument": 3, "pitch": 52, "quantizedEndStep": "10", "quantizedStartStep": "8", "startTime": 1.0, "velocity": 100}, {"endTime": 1.5, "instrument": 3, "pitch": 50, "quantizedEndStep": "12", "quantizedStartStep": "10", "startTime": 1.25, "velocity": 100}, {"endTime": 1.75, "instrument": 3, "pitch": 52, "quantizedEndStep": "14", "quantizedStartStep": "12", "startTime": 1.5, "velocity": 100}, {"endTime": 2.0, "instrument": 3, "pitch": 57, "quantizedEndStep": "16", "quantizedStartStep": "14", "startTime": 1.75, "velocity": 100}, {"endTime": 2.5, "instrument": 3, "pitch": 55, "quantizedEndStep": "20", "quantizedStartStep": "16", "startTime": 2.0, "velocity": 100}, {"endTime": 2.75, "instrument": 3, "pitch": 48, "quantizedEndStep": "22", "quantizedStartStep": "20", "startTime": 2.5, "velocity": 100}, {"endTime": 3.0, "instrument": 3, "pitch": 50, "quantizedEndStep": "24", "quantizedStartStep": "22", "startTime": 2.75, "velocity": 100}, {"endTime": 3.25, "instrument": 3, "pitch": 52, "quantizedEndStep": "26", "quantizedStartStep": "24", "startTime": 3.0, "velocity": 100}, {"endTime": 3.75, "instrument": 3, "pitch": 53, "quantizedEndStep": "30", "quantizedStartStep": "26", "startTime": 3.25, "velocity": 100}, {"endTime": 4.0, "instrument": 3, "pitch": 54, "quantizedEndStep": "32", "quantizedStartStep": "30", "startTime": 3.75, "velocity": 100}], "quantizationInfo": {"stepsPerQuarter": 4}, "tempos": [{"qpm": 120.0}], "ticksPerQuarter": 220, "timeSignatures": [{"denominator": 4, "numerator": 4}], "totalQuantizedSteps": "32", "totalTime": 4.0}, {"notes": [{"endTime": 0.125, "pitch": 72, "quantizedEndStep": "1", "velocity": 100}, {"endTime": 0.25, "pitch": 71, "quantizedEndStep": "2", "quantizedStartStep": "1", "startTime": 0.125, "velocity": 100}, {"endTime": 0.375, "pitch": 69, "quantizedEndStep": "3", "quantizedStartStep": "2", "startTime": 0.25, "velocity": 100}, {"endTime": 0.5, "pitch": 79, "quantizedEndStep": "4", "quantizedStartStep": "3", "startTime": 0.375, "velocity": 100}, {"endTime": 0.75, "pitch": 72, "quantizedEndStep": "6", "quantizedStartStep": "4", "startTime": 0.5, "velocity": 100}, {"endTime": 1.0, "pitch": 65, "quantizedEndStep": "8", "quantizedStartStep": "6", "startTime": 0.75, "velocity": 100}, {"endTime": 1.25, "pitch": 69, "quantizedEndStep": "10", "quantizedStartStep": "8", "startTime": 1.0, "velocity": 100}, {"endTime": 1.75, "pitch": 65, "quantizedEndStep": "14", "quantizedStartStep": "10", "startTime": 1.25, "velocity": 100}, {"endTime": 2.0, "pitch": 69, "quantizedEndStep": "16", "quantizedStartStep": "14", "startTime": 1.75, "velocity": 100}, {"endTime": 2.125, "pitch": 72, "quantizedEndStep": "17", "quantizedStartStep": "16", "startTime": 2.0, "velocity": 100}, {"endTime": 2.25, "pitch": 71, "quantizedEndStep": "18", "quantizedStartStep": "17", "startTime": 2.125, "velocity": 100}, {"endTime": 2.375, "pitch": 69, "quantizedEndStep": "19", "quantizedStartStep": "18", "startTime": 2.25, "velocity": 100}, {"endTime": 2.5, "pitch": 79, "quantizedEndStep": "20", "quantizedStartStep": "19", "startTime": 2.375, "velocity": 100}, {"endTime": 3.0, "pitch": 69, "quantizedEndStep": "24", "quantizedStartStep": "20", "startTime": 2.5, "velocity": 100}, {"endTime": 3.25, "pitch": 72, "quantizedEndStep": "26", "quantizedStartStep": "24", "startTime": 3.0, "velocity": 100}, {"endTime": 3.5, "pitch": 69, "quantizedEndStep": "28", "quantizedStartStep": "26", "startTime": 3.25, "velocity": 100}, {"endTime": 3.75, "pitch": 72, "quantizedEndStep": "30", "quantizedStartStep": "28", "startTime": 3.5, "velocity": 100}, {"endTime": 4.0, "pitch": 69, "quantizedEndStep": "32", "quantizedStartStep": "30", "startTime": 3.75, "velocity": 100}, {"endTime": 0.25, "instrument": 1, "pitch": 65, "quantizedEndStep": "2", "velocity": 100}, {"endTime": 0.5, "instrument": 1, "pitch": 60, "quantizedEndStep": "4", "quantizedStartStep": "2", "startTime": 0.25, "velocity": 100}, {"endTime": 0.75, "instrument": 1, "pitch": 64, "quantizedEndStep": "6", "quantizedStartStep": "4", "startTime": 0.5, "velocity": 100}, {"endTime": 2.0, "instrument": 1, "pitch": 60, "quantizedEndStep": "16", "quantizedStartStep": "6", "startTime": 0.75, "velocity": 100}, {"endTime": 2.25, "instrument": 1, "pitch": 62, "quantizedEndStep": "18", "quantizedStartStep": "16", "startTime": 2.0, "velocity": 100}, {"endTime": 2.5, "instrument": 1, "pitch": 64, "quantizedEndStep": "20", "quantizedStartStep": "18", "startTime": 2.25, "velocity": 100}, {"endTime": 2.75, "instrument": 1, "pitch": 69, "quantizedEndStep": "22", "quantizedStartStep": "20", "startTime": 2.5, "velocity": 100}, {"endTime": 3.25, "instrument": 1, "pitch": 62, "quantizedEndStep": "26", "quantizedStartStep": "22", "startTime": 2.75, "velocity": 100}, {"endTime": 3.75, "instrument": 1, "pitch": 64, "quantizedEndStep": "30", "quantizedStartStep": "26", "startTime": 3.25, "velocity": 100}, {"endTime": 4.0, "instrument": 1, "pitch": 62, "quantizedEndStep": "32", "quantizedStartStep": "30", "startTime": 3.75, "velocity": 100}, {"endTime": 1.5, "instrument": 2, "pitch": 57, "quantizedEndStep": "12", "velocity": 100}, {"endTime": 1.75, "instrument": 2, "pitch": 55, "quantizedEndStep": "14", "quantizedStartStep": "12", "startTime": 1.5, "velocity": 100}, {"endTime": 2.0, "instrument": 2, "pitch": 53, "quantizedEndStep": "16", "quantizedStartStep": "14", "startTime": 1.75, "velocity": 100}, {"endTime": 2.25, "instrument": 2, "pitch": 53, "quantizedEndStep": "18", "quantizedStartStep": "16", "startTime": 2.0, "velocity": 100}, {"endTime": 3.0, "instrument": 2, "pitch": 60, "quantizedEndStep": "24", "quantizedStartStep": "18", "startTime": 2.25, "velocity": 100}, {"endTime": 3.25, "instrument": 2, "pitch": 62, "quantizedEndStep": "26", "quantizedStartStep": "24", "startTime": 3.0, "velocity": 100}, {"endTime": 3.75, "instrument": 2, "pitch": 60, "quantizedEndStep": "30", "quantizedStartStep": "26", "startTime": 3.25, "velocity": 100}, {"endTime": 4.0, "instrument": 2, "pitch": 57, "quantizedEndStep": "32", "quantizedStartStep": "30", "startTime": 3.75, "velocity": 100}, {"endTime": 0.75, "instrument": 3, "pitch": 45, "quantizedEndStep": "6", "velocity": 100}, {"endTime": 1.25, "instrument": 3, "pitch": 41, "quantizedEndStep": "10", "quantizedStartStep": "6", "startTime": 0.75, "velocity": 100}, {"endTime": 1.5, "instrument": 3, "pitch": 53, "quantizedEndStep": "12", "quantizedStartStep": "10", "startTime": 1.25, "velocity": 100}, {"endTime": 1.75, "instrument": 3, "pitch": 52, "quantizedEndStep": "14", "quantizedStartStep": "12", "startTime": 1.5, "velocity": 100}, {"endTime": 2.0, "instrument": 3, "pitch": 50, "quantizedEndStep": "16", "quantizedStartStep": "14", "startTime": 1.75, "velocity": 100}, {"endTime": 2.5, "instrument": 3, "pitch": 52, "quantizedEndStep": "20", "quantizedStartStep": "16", "startTime": 2.0, "velocity": 100}, {"endTime": 2.75, "instrument": 3, "pitch": 48, "quantizedEndStep": "22", "quantizedStartStep": "20", "startTime": 2.5, "velocity": 100}, {"endTime": 3.0, "instrument": 3, "pitch": 53, "quantizedEndStep": "24", "quantizedStartStep": "22", "startTime": 2.75, "velocity": 100}, {"endTime": 3.125, "instrument": 3, "pitch": 45, "quantizedEndStep": "25", "quantizedStartStep": "24", "startTime": 3.0, "velocity": 100}, {"endTime": 3.25, "instrument": 3, "pitch": 53, "quantizedEndStep": "26", "quantizedStartStep": "25", "startTime": 3.125, "velocity": 100}, {"endTime": 3.5, "instrument": 3, "pitch": 45, "quantizedEndStep": "28", "quantizedStartStep": "26", "startTime": 3.25, "velocity": 100}, {"endTime": 3.75, "instrument": 3, "pitch": 55, "quantizedEndStep": "30", "quantizedStartStep": "28", "startTime": 3.5, "velocity": 100}, {"endTime": 4.0, "instrument": 3, "pitch": 53, "quantizedEndStep": "32", "quantizedStartStep": "30", "startTime": 3.75, "velocity": 100}], "quantizationInfo": {"stepsPerQuarter": 4}, "tempos": [{"qpm": 120.0}], "ticksPerQuarter": 220, "timeSignatures": [{"denominator": 4, "numerator": 4}], "totalQuantizedSteps": "32", "totalTime": 4.0}, {"notes": [{"endTime": 0.125, "pitch": 72, "quantizedEndStep": "1", "velocity": 100}, {"endTime": 0.25, "pitch": 71, "quantizedEndStep": "2", "quantizedStartStep": "1", "startTime": 0.125, "velocity": 100}, {"endTime": 0.375, "pitch": 69, "quantizedEndStep": "3", "quantizedStartStep": "2", "startTime": 0.25, "velocity": 100}, {"endTime": 0.5, "pitch": 79, "quantizedEndStep": "4", "quantizedStartStep": "3", "startTime": 0.375, "velocity": 100}, {"endTime": 0.75, "pitch": 72, "quantizedEndStep": "6", "quantizedStartStep": "4", "startTime": 0.5, "velocity": 100}, {"endTime": 1.0, "pitch": 65, "quantizedEndStep": "8", "quantizedStartStep": "6", "startTime": 0.75, "velocity": 100}, {"endTime": 1.25, "pitch": 69, "quantizedEndStep": "10", "quantizedStartStep": "8", "startTime": 1.0, "velocity": 100}, {"endTime": 1.75, "pitch": 65, "quantizedEndStep": "14", "quantizedStartStep": "10", "startTime": 1.25, "velocity": 100}, {"endTime": 2.0, "pitch": 69, "quantizedEndStep": "16", "quantizedStartStep": "14", "startTime": 1.75, "velocity": 100}, {"endTime": 2.125, "pitch": 72, "quantizedEndStep": "17", "quantizedStartStep": "16", "startTime": 2.0, "velocity": 100}, {"endTime": 2.25, "pitch": 71, "quantizedEndStep": "18", "quantizedStartStep": "17", "startTime": 2.125, "velocity": 100}, {"endTime": 2.375, "pitch": 69, "quantizedEndStep": "19", "quantizedStartStep": "18", "startTime": 2.25, "velocity": 100}, {"endTime": 3.0, "pitch": 79, "quantizedEndStep": "24", "quantizedStartStep": "19", "startTime": 2.375, "velocity": 100}, {"endTime": 3.125, "pitch": 81, "quantizedEndStep": "25", "quantizedStartStep": "24", "startTime": 3.0, "velocity": 100}, {"endTime": 3.25, "pitch": 76, "quantizedEndStep": "26", "quantizedStartStep": "25", "startTime": 3.125, "velocity": 100}, {"endTime": 3.375, "pitch": 71, "quantizedEndStep": "27", "quantizedStartStep": "26", "startTime": 3.25, "velocity": 100}, {"endTime": 3.5, "pitch": 76, "quantizedEndStep": "28", "quantizedStartStep": "27", "startTime": 3.375, "velocity": 100}, {"endTime": 4.0, "pitch": 71, "quantizedEndStep": "32", "quantizedStartStep": "28", "startTime": 3.5, "velocity": 100}, {"endTime": 0.25, "instrument": 1, "pitch": 65, "quantizedEndStep": "2", "velocity": 100}, {"endTime": 1.5, "instrument": 1, "pitch": 64, "quantizedEndStep": "12", "quantizedStartStep": "2", "startTime": 0.25, "velocity": 100}, {"endTime": 1.625, "instrument": 1, "pitch": 65, "quantizedEndStep": "13", "quantizedStartStep": "12", "startTime": 1.5, "velocity": 100}, {"endTime": 1.75, "instrument": 1, "pitch": 62, "quantizedEndStep": "14", "quantizedStartStep": "13", "startTime": 1.625, "velocity": 100}, {"endTime": 2.0, "instrument": 1, "pitch": 65, "quantizedEndStep": "16", "quantizedStartStep": "14", "startTime": 1.75, "velocity": 100}, {"endTime": 2.125, "instrument": 1, "pitch": 67, "quantizedEndStep": "17", "quantizedStartStep": "16", "startTime": 2.0, "velocity": 100}, {"endTime": 2.25, "instrument": 1, "pitch": 68, "quantizedEndStep": "18", "quantizedStartStep": "17", "startTime": 2.125, "velocity": 100}, {"endTime": 3.25, "instrument": 1, "pitch": 69, "quantizedEndStep": "26", "quantizedStartStep": "18", "startTime": 2.25, "velocity": 100}, {"endTime": 4.0, "instrument": 1, "pitch": 68, "quantizedEndStep": "32", "quantizedStartStep": "26", "startTime": 3.25, "velocity": 100}, {"endTime": 0.25, "instrument": 2, "pitch": 62, "quantizedEndStep": "2", "velocity": 100}, {"endTime": 0.5, "instrument": 2, "pitch": 60, "quantizedEndStep": "4", "quantizedStartStep": "2", "startTime": 0.25, "velocity": 100}, {"endTime": 0.75, "instrument": 2, "pitch": 58, "quantizedEndStep": "6", "quantizedStartStep": "4", "startTime": 0.5, "velocity": 100}, {"endTime": 1.75, "instrument": 2, "pitch": 57, "quantizedEndStep": "14", "quantizedStartStep": "6", "startTime": 0.75, "velocity": 100}, {"endTime": 2.0, "instrument": 2, "pitch": 62, "quantizedEndStep": "16", "quantizedStartStep": "14", "startTime": 1.75, "velocity": 100}, {"endTime": 2.125, "instrument": 2, "pitch": 60, "quantizedEndStep": "17", "quantizedStartStep": "16", "startTime": 2.0, "velocity": 100}, {"endTime": 2.25, "instrument": 2, "pitch": 62, "quantizedEndStep": "18", "quantizedStartStep": "17", "startTime": 2.125, "velocity": 100}, {"endTime": 2.5, "instrument": 2, "pitch": 60, "quantizedEndStep": "20", "quantizedStartStep": "18", "startTime": 2.25, "velocity": 100}, {"endTime": 2.75, "instrument": 2, "pitch": 62, "quantizedEndStep": "22", "quantizedStartStep": "20", "startTime": 2.5, "velocity": 100}, {"endTime": 3.0, "instrument": 2, "pitch": 64, "quantizedEndStep": "24", "quantizedStartStep": "22", "startTime": 2.75, "velocity": 100}, {"endTime": 3.25, "instrument": 2, "pitch": 65, "quantizedEndStep": "26", "quantizedStartStep": "24", "startTime": 3.0, "velocity": 100}, {"endTime": 4.0, "instrument": 2, "pitch": 64, "quantizedEndStep": "32", "quantizedStartStep": "26", "startTime": 3.25, "velocity": 100}, {"endTime": 0.25, "instrument": 3, "pitch": 50, "quantizedEndStep": "2", "velocity": 100}, {"endTime": 0.5, "instrument": 3, "pitch": 48, "quantizedEndStep": "4", "quantizedStartStep": "2", "startTime": 0.25, "velocity": 100}, {"endTime": 0.75, "instrument": 3, "pitch": 47, "quantizedEndStep": "6", "quantizedStartStep": "4", "startTime": 0.5, "velocity": 100}, {"endTime": 1.25, "instrument": 3, "pitch": 49, "quantizedEndStep": "10", "quantizedStartStep": "6", "startTime": 0.75, "velocity": 100}, {"endTime": 2.0, "instrument": 3, "pitch": 50, "quantizedEndStep": "16", "quantizedStartStep": "10", "startTime": 1.25, "velocity": 100}, {"endTime": 2.25, "instrument": 3, "pitch": 52, "quantizedEndStep": "18", "quantizedStartStep": "16", "startTime": 2.0, "velocity": 100}, {"endTime": 2.75, "instrument": 3, "pitch": 53, "quantizedEndStep": "22", "quantizedStartStep": "18", "startTime": 2.25, "velocity": 100}, {"endTime": 4.0, "instrument": 3, "pitch": 52, "quantizedEndStep": "32", "quantizedStartStep": "22", "startTime": 2.75, "velocity": 100}], "quantizationInfo": {"stepsPerQuarter": 4}, "tempos": [{"qpm": 120.0}], "ticksPerQuarter": 220, "timeSignatures": [{"denominator": 4, "numerator": 4}], "totalQuantizedSteps": "32", "totalTime": 4.0}], "request_id": [0, 1, 2, 3], "session_id": "70bcd7cdb6b847df9aeb13318a54ec68"}
,{"backend": ["r"], "composition_time": [23481], "country": ["mx"], "feedback": ["2"], "input_sequence": [{"notes": [{"endTime": 1.0, "pitch": 74, "pitchName": "D", "quantizedEndStep": "4", "velocity": 100}, {"endTime": 2.0, "pitch": 71, "pitchName": "B", "quantizedEndStep": "8", "quantizedStartStep": "4", "startTime": 1.0, "velocity": 100}, {"endTime": 3.0, "pitch": 77, "pitchName": "F", "quantizedEndStep": "12", "quantizedStartStep": "8", "startTime": 2.0, "velocity": 100}, {"endTime": 4.0, "pitch": 64, "pitchName": "E", "quantizedEndStep": "16", "quantizedStartStep": "12", "startTime": 3.0, "velocity": 100}, {"endTime": 4.5, "pitch": 67, "pitchName": "G", "quantizedEndStep": "18", "quantizedStartStep": "16", "startTime": 4.0, "velocity": 100}, {"endTime": 5.0, "pitch": 72, "pitchName": "C", "quantizedEndStep": "20", "quantizedStartStep": "18", "startTime": 4.5, "velocity": 100}, {"endTime": 5.5, "pitch": 72, "pitchName": "C", "quantizedEndStep": "22", "quantizedStartStep": "20", "startTime": 5.0, "velocity": 100}, {"endTime": 6.0, "pitch": 77, "pitchName": "F", "quantizedEndStep": "24", "quantizedStartStep": "22", "startTime": 5.5, "velocity": 100}, {"endTime": 7.0, "pitch": 67, "pitchName": "G", "quantizedEndStep": "28", "quantizedStartStep": "24", "startTime": 6.0, "velocity": 100}, {"endTime": 8.0, "pitch": 79, "pitchName": "G", "quantizedEndStep": "32", "quantizedStartStep": "28", "startTime": 7.0, "velocity": 100}], "quantizationInfo": {"stepsPerQuarter": 4}, "tempos": [{"qpm": 60.0}], "ticksPerQuarter": 220, "timeSignatures": [{"denominator": 4, "numerator": 4}], "totalQuantizedSteps": "32", "totalTime": 8.0}], "key_sig": [""], "loops_listened": [4], "output_sequence": [{"notes": [{"endTime": 1.0, "pitch": 74, "quantizedEndStep": "4", "velocity": 100}, {"endTime": 2.0, "pitch": 71, "quantizedEndStep": "8", "quantizedStartStep": "4", "startTime": 1.0, "velocity": 100}, {"endTime": 3.0, "pitch": 77, "quantizedEndStep": "12", "quantizedStartStep": "8", "startTime": 2.0, "velocity": 100}, {"endTime": 4.0, "pitch": 64, "quantizedEndStep": "16", "quantizedStartStep": "12", "startTime": 3.0, "velocity": 100}, {"endTime": 4.5, "pitch": 67, "quantizedEndStep": "18", "quantizedStartStep": "16", "startTime": 4.0, "velocity": 100}, {"endTime": 5.5, "pitch": 72, "quantizedEndStep": "22", "quantizedStartStep": "18", "startTime": 4.5, "velocity": 100}, {"endTime": 6.0, "pitch": 77, "quantizedEndStep": "24", "quantizedStartStep": "22", "startTime": 5.5, "velocity": 100}, {"endTime": 7.0, "pitch": 67, "quantizedEndStep": "28", "quantizedStartStep": "24", "startTime": 6.0, "velocity": 100}, {"endTime": 8.0, "pitch": 79, "quantizedEndStep": "32", "quantizedStartStep": "28", "startTime": 7.0, "velocity": 100}, {"endTime": 1.0, "instrument": 1, "pitch": 62, "quantizedEndStep": "4", "velocity": 100}, {"endTime": 2.25, "instrument": 1, "pitch": 67, "quantizedEndStep": "9", "quantizedStartStep": "4", "startTime": 1.0, "velocity": 100}, {"endTime": 2.5, "instrument": 1, "pitch": 72, "quantizedEndStep": "10", "quantizedStartStep": "9", "startTime": 2.25, "velocity": 100}, {"endTime": 3.0, "instrument": 1, "pitch": 67, "quantizedEndStep": "12", "quantizedStartStep": "10", "startTime": 2.5, "velocity": 100}, {"endTime": 4.0, "instrument": 1, "pitch": 60, "quantizedEndStep": "16", "quantizedStartStep": "12", "startTime": 3.0, "velocity": 100}, {"endTime": 5.0, "instrument": 1, "pitch": 64, "quantizedEndStep": "20", "quantizedStartStep": "16", "startTime": 4.0, "velocity": 100}, {"endTime": 6.0, "instrument": 1, "pitch": 67, "quantizedEndStep": "24", "quantizedStartStep": "20", "startTime": 5.0, "velocity": 100}, {"endTime": 8.0, "instrument": 1, "pitch": 64, "quantizedEndStep": "32", "quantizedStartStep": "24", "startTime": 6.0, "velocity": 100}, {"endTime": 0.5, "instrument": 2, "pitch": 55, "quantizedEndStep": "2", "velocity": 100}, {"endTime": 0.75, "instrument": 2, "pitch": 67, "quantizedEndStep": "3", "quantizedStartStep": "2", "startTime": 0.5, "velocity": 100}, {"endTime": 1.0, "instrument": 2, "pitch": 65, "quantizedEndStep": "4", "quantizedStartStep": "3", "startTime": 0.75, "velocity": 100}, {"endTime": 1.5, "instrument": 2, "pitch": 64, "quantizedEndStep": "6", "quantizedStartStep": "4", "startTime": 1.0, "velocity": 100}, {"endTime": 2.0, "instrument": 2, "pitch": 62, "quantizedEndStep": "8", "quantizedStartStep": "6", "startTime": 1.5, "velocity": 100}, {"endTime": 3.0, "instrument": 2, "pitch": 60, "quantizedEndStep": "12", "quantizedStartStep": "8", "startTime": 2.0, "velocity": 100}, {"endTime": 4.0, "instrument": 2, "pitch": 55, "quantizedEndStep": "16", "quantizedStartStep": "12", "startTime": 3.0, "velocity": 100}, {"endTime": 5.5, "instrument": 2, "pitch": 60, "quantizedEndStep": "22", "quantizedStartStep": "16", "startTime": 4.0, "velocity": 100}, {"endTime": 5.75, "instrument": 2, "pitch": 62, "quantizedEndStep": "23", "quantizedStartStep": "22", "startTime": 5.5, "velocity": 100}, {"endTime": 8.0, "instrument": 2, "pitch": 60, "quantizedEndStep": "32", "quantizedStartStep": "23", "startTime": 5.75, "velocity": 100}, {"endTime": 1.0, "instrument": 3, "pitch": 55, "quantizedEndStep": "4", "velocity": 100}, {"endTime": 4.0, "instrument": 3, "pitch": 48, "quantizedEndStep": "16", "quantizedStartStep": "4", "startTime": 1.0, "velocity": 100}, {"endTime": 5.0, "instrument": 3, "pitch": 48, "quantizedEndStep": "20", "quantizedStartStep": "16", "startTime": 4.0, "velocity": 100}, {"endTime": 6.0, "instrument": 3, "pitch": 60, "quantizedEndStep": "24", "quantizedStartStep": "20", "startTime": 5.0, "velocity": 100}, {"endTime": 8.0, "instrument": 3, "pitch": 48, "quantizedEndStep": "32", "quantizedStartStep": "24", "startTime": 6.0, "velocity": 100}], "quantizationInfo": {"stepsPerQuarter": 4}, "tempos": [{"qpm": 60.0}], "ticksPerQuarter": 220, "timeSignatures": [{"denominator": 4, "numerator": 4}], "totalQuantizedSteps": "32", "totalTime": 8.0}], "request_id": [0], "session_id": "3c5eea127c504517b6db7a957903b9c8"}
,{"backend": ["l"], "composition_time": [58015], "country": ["cl"], "feedback": ["0"], "input_sequence": [{"notes": [{"endTime": 0.5, "pitch": 67, "pitchName": "G", "quantizedEndStep": "2", "velocity": 100}, {"endTime": 1.0, "pitch": 69, "pitchName": "A", "quantizedEndStep": "4", "quantizedStartStep": "2", "startTime": 0.5, "velocity": 100}, {"endTime": 1.5, "pitch": 69, "pitchName": "A", "quantizedEndStep": "6", "quantizedStartStep": "4", "startTime": 1.0, "velocity": 100}, {"endTime": 2.0, "pitch": 65, "pitchName": "F", "quantizedEndStep": "8", "quantizedStartStep": "6", "startTime": 1.5, "velocity": 100}, {"endTime": 2.5, "pitch": 65, "pitchName": "F", "quantizedEndStep": "10", "quantizedStartStep": "8", "startTime": 2.0, "velocity": 100}, {"endTime": 3.0, "pitch": 69, "pitchName": "A", "quantizedEndStep": "12", "quantizedStartStep": "10", "startTime": 2.5, "velocity": 100}, {"endTime": 3.5, "pitch": 67, "pitchName": "G", "quantizedEndStep": "14", "quantizedStartStep": "12", "startTime": 3.0, "velocity": 100}, {"endTime": 4.0, "pitch": 67, "pitchName": "G", "quantizedEndStep": "16", "quantizedStartStep": "14", "startTime": 3.5, "velocity": 100}, {"endTime": 4.5, "pitch": 69, "pitchName": "A", "quantizedEndStep": "18", "quantizedStartStep": "16", "startTime": 4.0, "velocity": 100}, {"endTime": 5.0, "pitch": 69, "pitchName": "A", "quantizedEndStep": "20", "quantizedStartStep": "18", "startTime": 4.5, "velocity": 100}, {"endTime": 5.5, "pitch": 79, "pitchName": "G", "quantizedEndStep": "22", "quantizedStartStep": "20", "startTime": 5.0, "velocity": 100}, {"endTime": 6.0, "pitch": 71, "pitchName": "B", "quantizedEndStep": "24", "quantizedStartStep": "22", "startTime": 5.5, "velocity": 100}, {"endTime": 7.0, "pitch": 65, "pitchName": "F", "quantizedEndStep": "28", "quantizedStartStep": "24", "startTime": 6.0, "velocity": 100}, {"endTime": 7.5, "pitch": 71, "pitchName": "B", "quantizedEndStep": "30", "quantizedStartStep": "28", "startTime": 7.0, "velocity": 100}, {"endTime": 8.0, "pitch": 65, "pitchName": "F", "quantizedEndStep": "32", "quantizedStartStep": "30", "startTime": 7.5, "velocity": 100}], "quantizationInfo": {"stepsPerQuarter": 4}, "tempos": [{"qpm": 60.0}], "ticksPerQuarter": 220, "timeSignatures": [{"denominator": 4, "numerator": 4}], "totalQuantizedSteps": "32", "totalTime": 8.0}], "key_sig": [""], "loops_listened": [2], "output_sequence": [{"notes": [{"endTime": 0.5, "pitch": 67, "quantizedEndStep": "2", "velocity": 100}, {"endTime": 1.5, "pitch": 69, "quantizedEndStep": "6", "quantizedStartStep": "2", "startTime": 0.5, "velocity": 100}, {"endTime": 2.5, "pitch": 65, "quantizedEndStep": "10", "quantizedStartStep": "6", "startTime": 1.5, "velocity": 100}, {"endTime": 3.0, "pitch": 69, "quantizedEndStep": "12", "quantizedStartStep": "10", "startTime": 2.5, "velocity": 100}, {"endTime": 4.0, "pitch": 67, "quantizedEndStep": "16", "quantizedStartStep": "12", "startTime": 3.0, "velocity": 100}, {"endTime": 5.0, "pitch": 69, "quantizedEndStep": "20", "quantizedStartStep": "16", "startTime": 4.0, "velocity": 100}, {"endTime": 5.5, "pitch": 79, "quantizedEndStep": "22", "quantizedStartStep": "20", "startTime": 5.0, "velocity": 100}, {"endTime": 6.0, "pitch": 71, "quantizedEndStep": "24", "quantizedStartStep": "22", "startTime": 5.5, "velocity": 100}, {"endTime": 7.0, "pitch": 65, "quantizedEndStep": "28", "quantizedStartStep": "24", "startTime": 6.0, "velocity": 100}, {"endTime": 7.5, "pitch": 71, "quantizedEndStep": "30", "quantizedStartStep": "28", "startTime": 7.0, "velocity": 100}, {"endTime": 8.0, "pitch": 65, "quantizedEndStep": "32", "quantizedStartStep": "30", "startTime": 7.5, "velocity": 100}, {"endTime": 2.0, "instrument": 1, "pitch": 64, "quantizedEndStep": "8", "velocity": 100}, {"endTime": 3.0, "instrument": 1, "pitch": 65, "quantizedEndStep": "12", "quantizedStartStep": "8", "startTime": 2.0, "velocity": 100}, {"endTime": 4.0, "instrument": 1, "pitch": 67, "quantizedEndStep": "16", "quantizedStartStep": "12", "startTime": 3.0, "velocity": 100}, {"endTime": 4.5, "instrument": 1, "pitch": 67, "quantizedEndStep": "18", "quantizedStartStep": "16", "startTime": 4.0, "velocity": 100}, {"endTime": 5.0, "instrument": 1, "pitch": 65, "quantizedEndStep": "20", "quantizedStartStep": "18", "startTime": 4.5, "velocity": 100}, {"endTime": 6.0, "instrument": 1, "pitch": 64, "quantizedEndStep": "24", "quantizedStartStep": "20", "startTime": 5.0, "velocity": 100}, {"endTime": 8.0, "instrument": 1, "pitch": 62, "quantizedEndStep": "32", "quantizedStartStep": "24", "startTime": 6.0, "velocity": 100}, {"endTime": 0.5, "instrument": 2, "pitch": 58, "quantizedEndStep": "2", "velocity": 100}, {"endTime": 2.0, "instrument": 2, "pitch": 57, "quantizedEndStep": "8", "quantizedStartStep": "2", "startTime": 0.5, "velocity": 100}, {"endTime": 3.5, "instrument": 2, "pitch": 62, "quantizedEndStep": "14", "quantizedStartStep": "8", "startTime": 2.0, "velocity": 100}, {"endTime": 4.0, "instrument": 2, "pitch": 60, "quantizedEndStep": "16", "quantizedStartStep": "14", "startTime": 3.5, "velocity": 100}, {"endTime": 6.0, "instrument": 2, "pitch": 60, "quantizedEndStep": "24", "quantizedStartStep": "16", "startTime": 4.0, "velocity": 100}, {"endTime": 6.5, "instrument": 2, "pitch": 59, "quantizedEndStep": "26", "quantizedStartStep": "24", "startTime": 6.0, "velocity": 100}, {"endTime": 7.0, "instrument": 2, "pitch": 57, "quantizedEndStep": "28", "quantizedStartStep": "26", "startTime": 6.5, "velocity": 100}, {"endTime": 8.0, "instrument": 2, "pitch": 56, "quantizedEndStep": "32", "quantizedStartStep": "28", "startTime": 7.0, "velocity": 100}, {"endTime": 1.0, "instrument": 3, "pitch": 49, "quantizedEndStep": "4", "velocity": 100}, {"endTime": 3.0, "instrument": 3, "pitch": 50, "quantizedEndStep": "12", "quantizedStartStep": "4", "startTime": 1.0, "velocity": 100}, {"endTime": 4.0, "instrument": 3, "pitch": 52, "quantizedEndStep": "16", "quantizedStartStep": "12", "startTime": 3.0, "velocity": 100}, {"endTime": 5.0, "instrument": 3, "pitch": 53, "quantizedEndStep": "20", "quantizedStartStep": "16", "startTime": 4.0, "velocity": 100}, {"endTime": 6.0, "instrument": 3, "pitch": 52, "quantizedEndStep": "24", "quantizedStartStep": "20", "startTime": 5.0, "velocity": 100}, {"endTime": 8.0, "instrument": 3, "pitch": 50, "quantizedEndStep": "32", "quantizedStartStep": "24", "startTime": 6.0, "velocity": 100}], "quantizationInfo": {"stepsPerQuarter": 4}, "tempos": [{"qpm": 60.0}], "ticksPerQuarter": 220, "timeSignatures": [{"denominator": 4, "numerator": 4}], "totalQuantizedSteps": "32", "totalTime": 8.0}], "request_id": [0], "session_id": "7d209c6b39d940fdbbf3dd2316d43e2e"}
,{"backend": ["l", "l", "l"], "composition_time": [262490, 1978, 3326], "country": ["us", "us", "us"], "feedback": ["2", "2", "2"], "input_sequence": [{"notes": [{"endTime": 0.33333333333333337, "pitch": 72, "pitchName": "C", "quantizedEndStep": "2", "velocity": 100}, {"endTime": 0.6666666666666667, "pitch": 69, "pitchName": "A", "quantizedEndStep": "4", "quantizedStartStep": "2", "startTime": 0.33333333333333337, "velocity": 100}, {"endTime": 1.0, "pitch": 72, "pitchName": "C", "quantizedEndStep": "6", "quantizedStartStep": "4", "startTime": 0.6666666666666667, "velocity": 100}, {"endTime": 1.3333333333333335, "pitch": 76, "pitchName": "E", "quantizedEndStep": "8", "quantizedStartStep": "6", "startTime": 1.0, "velocity": 100}, {"endTime": 1.666666666666667, "pitch": 79, "pitchName": "G", "quantizedEndStep": "10", "quantizedStartStep": "8", "startTime": 1.3333333333333335, "velocity": 100}, {"endTime": 2.0000000000000004, "pitch": 81, "pitchName": "A", "quantizedEndStep": "12", "quantizedStartStep": "10", "startTime": 1.666666666666667, "velocity": 100}, {"endTime": 2.3333333333333335, "pitch": 79, "pitchName": "G", "quantizedEndStep": "14", "quantizedStartStep": "12", "startTime": 2.0, "velocity": 100}, {"endTime": 2.666666666666667, "pitch": 71, "pitchName": "B", "quantizedEndStep": "16", "quantizedStartStep": "14", "startTime": 2.3333333333333335, "velocity": 100}, {"endTime": 3.0000000000000004, "pitch": 72, "pitchName": "C", "quantizedEndStep": "18", "quantizedStartStep": "16", "startTime": 2.666666666666667, "velocity": 100}, {"endTime": 3.333333333333334, "pitch": 76, "pitchName": "E", "quantizedEndStep": "20", "quantizedStartStep": "18", "startTime": 3.0000000000000004, "velocity": 100}, {"endTime": 3.6666666666666674, "pitch": 74, "pitchName": "D", "quantizedEndStep": "22", "quantizedStartStep": "20", "startTime": 3.333333333333334, "velocity": 100}, {"endTime": 4.0, "pitch": 79, "pitchName": "G", "quantizedEndStep": "24", "quantizedStartStep": "22", "startTime": 3.666666666666667, "velocity": 100}, {"endTime": 4.333333333333333, "pitch": 77, "pitchName": "F", "quantizedEndStep": "26", "quantizedStartStep": "24", "startTime": 4.0, "velocity": 100}, {"endTime": 4.666666666666667, "pitch": 76, "pitchName": "E", "quantizedEndStep": "28", "quantizedStartStep": "26", "startTime": 4.333333333333334, "velocity": 100}, {"endTime": 5.0, "pitch": 74, "pitchName": "D", "quantizedEndStep": "30", "quantizedStartStep": "28", "startTime": 4.666666666666667, "velocity": 100}, {"endTime": 5.333333333333334, "pitch": 71, "pitchName": "B", "quantizedEndStep": "32", "quantizedStartStep": "30", "startTime": 5.000000000000001, "velocity": 100}], "quantizationInfo": {"stepsPerQuarter": 4}, "tempos": [{"qpm": 90.0}], "ticksPerQuarter": 220, "timeSignatures": [{"denominator": 4, "numerator": 4}], "totalQuantizedSteps": "32", "totalTime": 5.333333333333334}, {"notes": [{"endTime": 0.33333333333333337, "pitch": 72, "pitchName": "C", "quantizedEndStep": "2", "velocity": 100}, {"endTime": 0.6666666666666667, "pitch": 69, "pitchName": "A", "quantizedEndStep": "4", "quantizedStartStep": "2", "startTime": 0.33333333333333337, "velocity": 100}, {"endTime": 1.0, "pitch": 72, "pitchName": "C", "quantizedEndStep": "6", "quantizedStartStep": "4", "startTime": 0.6666666666666667, "velocity": 100}, {"endTime": 1.3333333333333335, "pitch": 76, "pitchName": "E", "quantizedEndStep": "8", "quantizedStartStep": "6", "startTime": 1.0, "velocity": 100}, {"endTime": 1.666666666666667, "pitch": 79, "pitchName": "G", "quantizedEndStep": "10", "quantizedStartStep": "8", "startTime": 1.3333333333333335, "velocity": 100}, {"endTime": 2.0000000000000004, "pitch": 81, "pitchName": "A", "quantizedEndStep": "12", "quantizedStartStep": "10", "startTime": 1.666666666666667, "velocity": 100}, {"endTime": 2.3333333333333335, "pitch": 79, "pitchName": "G", "quantizedEndStep": "14", "quantizedStartStep": "12", "startTime": 2.0, "velocity": 100}, {"endTime": 2.666666666666667, "pitch": 71, "pitchName": "B", "quantizedEndStep": "16", "quantizedStartStep": "14", "startTime": 2.3333333333333335, "velocity": 100}, {"endTime": 3.0000000000000004, "pitch": 72, "pitchName": "C", "quantizedEndStep": "18", "quantizedStartStep": "16", "startTime": 2.666666666666667, "velocity": 100}, {"endTime": 3.333333333333334, "pitch": 76, "pitchName": "E", "quantizedEndStep": "20", "quantizedStartStep": "18", "startTime": 3.0000000000000004, "velocity": 100}, {"endTime": 3.6666666666666674, "pitch": 74, "pitchName": "D", "quantizedEndStep": "22", "quantizedStartStep": "20", "startTime": 3.333333333333334, "velocity": 100}, {"endTime": 4.0, "pitch": 79, "pitchName": "G", "quantizedEndStep": "24", "quantizedStartStep": "22", "startTime": 3.666666666666667, "velocity": 100}, {"endTime": 4.333333333333333, "pitch": 77, "pitchName": "F", "quantizedEndStep": "26", "quantizedStartStep": "24", "startTime": 4.0, "velocity": 100}, {"endTime": 4.666666666666667, "pitch": 76, "pitchName": "E", "quantizedEndStep": "28", "quantizedStartStep": "26", "startTime": 4.333333333333334, "velocity": 100}, {"endTime": 5.0, "pitch": 74, "pitchName": "D", "quantizedEndStep": "30", "quantizedStartStep": "28", "startTime": 4.666666666666667, "velocity": 100}, {"endTime": 5.333333333333334, "pitch": 71, "pitchName": "B", "quantizedEndStep": "32", "quantizedStartStep": "30", "startTime": 5.000000000000001, "velocity": 100}], "quantizationInfo": {"stepsPerQuarter": 4}, "tempos": [{"qpm": 90.0}], "ticksPerQuarter": 220, "timeSignatures": [{"denominator": 4, "numerator": 4}], "totalQuantizedSteps": "32", "totalTime": 5.333333333333334}, {"notes": [{"endTime": 0.3157894736842105, "pitch": 72, "pitchName": "C", "quantizedEndStep": "2", "velocity": 100}, {"endTime": 0.631578947368421, "pitch": 69, "pitchName": "A", "quantizedEndStep": "4", "quantizedStartStep": "2", "startTime": 0.3157894736842105, "velocity": 100}, {"endTime": 0.9473684210526315, "pitch": 72, "pitchName": "C", "quantizedEndStep": "6", "quantizedStartStep": "4", "startTime": 0.631578947368421, "velocity": 100}, {"endTime": 1.263157894736842, "pitch": 76, "pitchName": "E", "quantizedEndStep": "8", "quantizedStartStep": "6", "startTime": 0.9473684210526315, "velocity": 100}, {"endTime": 1.5789473684210527, "pitch": 79, "pitchName": "G", "quantizedEndStep": "10", "quantizedStartStep": "8", "startTime": 1.263157894736842, "velocity": 100}, {"endTime": 1.8947368421052633, "pitch": 81, "pitchName": "A", "quantizedEndStep": "12", "quantizedStartStep": "10", "startTime": 1.5789473684210527, "velocity": 100}, {"endTime": 2.2105263157894735, "pitch": 79, "pitchName": "G", "quantizedEndStep": "14", "quantizedStartStep": "12", "startTime": 1.894736842105263, "velocity": 100}, {"endTime": 2.526315789473684, "pitch": 71, "pitchName": "B", "quantizedEndStep": "16", "quantizedStartStep": "14", "startTime": 2.2105263157894735, "velocity": 100}, {"endTime": 2.8421052631578947, "pitch": 72, "pitchName": "C", "quantizedEndStep": "18", "quantizedStartStep": "16", "startTime": 2.526315789473684, "velocity": 100}, {"endTime": 3.1578947368421053, "pitch": 76, "pitchName": "E", "quantizedEndStep": "20", "quantizedStartStep": "18", "startTime": 2.8421052631578947, "velocity": 100}, {"endTime": 3.473684210526316, "pitch": 74, "pitchName": "D", "quantizedEndStep": "22", "quantizedStartStep": "20", "startTime": 3.1578947368421053, "velocity": 100}, {"endTime": 3.789473684210526, "pitch": 79, "pitchName": "G", "quantizedEndStep": "24", "quantizedStartStep": "22", "startTime": 3.4736842105263155, "velocity": 100}, {"endTime": 4.105263157894736, "pitch": 77, "pitchName": "F", "quantizedEndStep": "26", "quantizedStartStep": "24", "startTime": 3.789473684210526, "velocity": 100}, {"endTime": 4.421052631578947, "pitch": 76, "pitchName": "E", "quantizedEndStep": "28", "quantizedStartStep": "26", "startTime": 4.105263157894736, "velocity": 100}, {"endTime": 4.7368421052631575, "pitch": 74, "pitchName": "D", "quantizedEndStep": "30", "quantizedStartStep": "28", "startTime": 4.421052631578947, "velocity": 100}, {"endTime": 5.052631578947368, "pitch": 71, "pitchName": "B", "quantizedEndStep": "32", "quantizedStartStep": "30", "startTime": 4.7368421052631575, "velocity": 100}], "quantizationInfo": {"stepsPerQuarter": 4}, "tempos": [{"qpm": 95.0}], "ticksPerQuarter": 220, "timeSignatures": [{"denominator": 4, "numerator": 4}], "totalQuantizedSteps": "32", "totalTime": 5.052631578947368}], "key_sig": ["", "", ""], "loops_listened": [4, 4, 2], "output_sequence": [{"notes": [{"endTime": 0.33333333333333337, "pitch": 72, "quantizedEndStep": "2", "velocity": 100}, {"endTime": 0.6666666666666667, "pitch": 69, "quantizedEndStep": "4", "quantizedStartStep": "2", "startTime": 0.33333333333333337, "velocity": 100}, {"endTime": 1.0, "pitch": 72, "quantizedEndStep": "6", "quantizedStartStep": "4", "startTime": 0.6666666666666667, "velocity": 100}, {"endTime": 1.3333333333333335, "pitch": 76, "quantizedEndStep": "8", "quantizedStartStep": "6", "startTime": 1.0, "velocity": 100}, {"endTime": 1.666666666666667, "pitch": 79, "quantizedEndStep": "10", "quantizedStartStep": "8", "startTime": 1.3333333333333335, "velocity": 100}, {"endTime": 2.0000000000000004, "pitch": 81, "quantizedEndStep": "12", "quantizedStartStep": "10", "startTime": 1.666666666666667, "velocity": 100}, {"endTime": 2.3333333333333335, "pitch": 79, "quantizedEndStep": "14", "quantizedStartStep": "12", "startTime": 2.0, "velocity": 100}, {"endTime": 2.666666666666667, "pitch": 71, "quantizedEndStep": "16", "quantizedStartStep": "14", "startTime": 2.3333333333333335, "velocity": 100}, {"endTime": 3.0000000000000004, "pitch": 72, "quantizedEndStep": "18", "quantizedStartStep": "16", "startTime": 2.666666666666667, "velocity": 100}, {"endTime": 3.333333333333334, "pitch": 76, "quantizedEndStep": "20", "quantizedStartStep": "18", "startTime": 3.0000000000000004, "velocity": 100}, {"endTime": 3.6666666666666674, "pitch": 74, "quantizedEndStep": "22", "quantizedStartStep": "20", "startTime": 3.333333333333334, "velocity": 100}, {"endTime": 4.0, "pitch": 79, "quantizedEndStep": "24", "quantizedStartStep": "22", "startTime": 3.666666666666667, "velocity": 100}, {"endTime": 4.333333333333333, "pitch": 77, "quantizedEndStep": "26", "quantizedStartStep": "24", "startTime": 4.0, "velocity": 100}, {"endTime": 4.666666666666667, "pitch": 76, "quantizedEndStep": "28", "quantizedStartStep": "26", "startTime": 4.333333333333334, "velocity": 100}, {"endTime": 5.0, "pitch": 74, "quantizedEndStep": "30", "quantizedStartStep": "28", "startTime": 4.666666666666667, "velocity": 100}, {"endTime": 5.333333333333334, "pitch": 71, "quantizedEndStep": "32", "quantizedStartStep": "30", "startTime": 5.000000000000001, "velocity": 100}, {"endTime": 0.6666666666666667, "instrument": 1, "pitch": 64, "quantizedEndStep": "4", "velocity": 100}, {"endTime": 1.3333333333333335, "instrument": 1, "pitch": 69, "quantizedEndStep": "8", "quantizedStartStep": "4", "startTime": 0.6666666666666667, "velocity": 100}, {"endTime": 2.0, "instrument": 1, "pitch": 62, "quantizedEndStep": "12", "quantizedStartStep": "8", "startTime": 1.3333333333333335, "velocity": 100}, {"endTime": 2.666666666666667, "instrument": 1, "pitch": 64, "quantizedEndStep": "16", "quantizedStartStep": "12", "startTime": 2.0, "velocity": 100}, {"endTime": 3.333333333333334, "instrument": 1, "pitch": 67, "quantizedEndStep": "20", "quantizedStartStep": "16", "startTime": 2.666666666666667, "velocity": 100}, {"endTime": 3.6666666666666674, "instrument": 1, "pitch": 65, "quantizedEndStep": "22", "quantizedStartStep": "20", "startTime": 3.333333333333334, "velocity": 100}, {"endTime": 4.666666666666667, "instrument": 1, "pitch": 69, "quantizedEndStep": "28", "quantizedStartStep": "22", "startTime": 3.666666666666667, "velocity": 100}, {"endTime": 5.333333333333334, "instrument": 1, "pitch": 67, "quantizedEndStep": "32", "quantizedStartStep": "28", "startTime": 4.666666666666667, "velocity": 100}, {"endTime": 1.3333333333333335, "instrument": 2, "pitch": 60, "quantizedEndStep": "8", "velocity": 100}, {"endTime": 2.0, "instrument": 2, "pitch": 57, "quantizedEndStep": "12", "quantizedStartStep": "8", "startTime": 1.3333333333333335, "velocity": 100}, {"endTime": 2.666666666666667, "instrument": 2, "pitch": 55, "quantizedEndStep": "16", "quantizedStartStep": "12", "startTime": 2.0, "velocity": 100}, {"endTime": 3.333333333333334, "instrument": 2, "pitch": 64, "quantizedEndStep": "20", "quantizedStartStep": "16", "startTime": 2.666666666666667, "velocity": 100}, {"endTime": 5.333333333333334, "instrument": 2, "pitch": 62, "quantizedEndStep": "32", "quantizedStartStep": "20", "startTime": 3.333333333333334, "velocity": 100}, {"endTime": 0.6666666666666667, "instrument": 3, "pitch": 45, "quantizedEndStep": "4", "velocity": 100}, {"endTime": 1.0, "instrument": 3, "pitch": 57, "quantizedEndStep": "6", "quantizedStartStep": "4", "startTime": 0.6666666666666667, "velocity": 100}, {"endTime": 1.3333333333333335, "instrument": 3, "pitch": 55, "quantizedEndStep": "8", "quantizedStartStep": "6", "startTime": 1.0, "velocity": 100}, {"endTime": 1.666666666666667, "instrument": 3, "pitch": 54, "quantizedEndStep": "10", "quantizedStartStep": "8", "startTime": 1.3333333333333335, "velocity": 100}, {"endTime": 2.0000000000000004, "instrument": 3, "pitch": 53, "quantizedEndStep": "12", "quantizedStartStep": "10", "startTime": 1.666666666666667, "velocity": 100}, {"endTime": 2.3333333333333335, "instrument": 3, "pitch": 52, "quantizedEndStep": "14", "quantizedStartStep": "12", "startTime": 2.0, "velocity": 100}, {"endTime": 2.666666666666667, "instrument": 3, "pitch": 50, "quantizedEndStep": "16", "quantizedStartStep": "14", "startTime": 2.3333333333333335, "velocity": 100}, {"endTime": 3.333333333333334, "instrument": 3, "pitch": 48, "quantizedEndStep": "20", "quantizedStartStep": "16", "startTime": 2.666666666666667, "velocity": 100}, {"endTime": 4.000000000000001, "instrument": 3, "pitch": 50, "quantizedEndStep": "24", "quantizedStartStep": "20", "startTime": 3.333333333333334, "velocity": 100}, {"endTime": 4.333333333333333, "instrument": 3, "pitch": 62, "quantizedEndStep": "26", "quantizedStartStep": "24", "startTime": 4.0, "velocity": 100}, {"endTime": 4.666666666666667, "instrument": 3, "pitch": 60, "quantizedEndStep": "28", "quantizedStartStep": "26", "startTime": 4.333333333333334, "velocity": 100}, {"endTime": 5.333333333333334, "instrument": 3, "pitch": 59, "quantizedEndStep": "32", "quantizedStartStep": "28", "startTime": 4.666666666666667, "velocity": 100}], "quantizationInfo": {"stepsPerQuarter": 4}, "tempos": [{"qpm": 90.0}], "ticksPerQuarter": 220, "timeSignatures": [{"denominator": 4, "numerator": 4}], "totalQuantizedSteps": "32", "totalTime": 5.333333333333334}, {"notes": [{"endTime": 0.33333333333333337, "pitch": 72, "quantizedEndStep": "2", "velocity": 100}, {"endTime": 0.6666666666666667, "pitch": 69, "quantizedEndStep": "4", "quantizedStartStep": "2", "startTime": 0.33333333333333337, "velocity": 100}, {"endTime": 1.0, "pitch": 72, "quantizedEndStep": "6", "quantizedStartStep": "4", "startTime": 0.6666666666666667, "velocity": 100}, {"endTime": 1.3333333333333335, "pitch": 76, "quantizedEndStep": "8", "quantizedStartStep": "6", "startTime": 1.0, "velocity": 100}, {"endTime": 1.666666666666667, "pitch": 79, "quantizedEndStep": "10", "quantizedStartStep": "8", "startTime": 1.3333333333333335, "velocity": 100}, {"endTime": 2.0000000000000004, "pitch": 81, "quantizedEndStep": "12", "quantizedStartStep": "10", "startTime": 1.666666666666667, "velocity": 100}, {"endTime": 2.3333333333333335, "pitch": 79, "quantizedEndStep": "14", "quantizedStartStep": "12", "startTime": 2.0, "velocity": 100}, {"endTime": 2.666666666666667, "pitch": 71, "quantizedEndStep": "16", "quantizedStartStep": "14", "startTime": 2.3333333333333335, "velocity": 100}, {"endTime": 3.0000000000000004, "pitch": 72, "quantizedEndStep": "18", "quantizedStartStep": "16", "startTime": 2.666666666666667, "velocity": 100}, {"endTime": 3.333333333333334, "pitch": 76, "quantizedEndStep": "20", "quantizedStartStep": "18", "startTime": 3.0000000000000004, "velocity": 100}, {"endTime": 3.6666666666666674, "pitch": 74, "quantizedEndStep": "22", "quantizedStartStep": "20", "startTime": 3.333333333333334, "velocity": 100}, {"endTime": 4.0, "pitch": 79, "quantizedEndStep": "24", "quantizedStartStep": "22", "startTime": 3.666666666666667, "velocity": 100}, {"endTime": 4.333333333333333, "pitch": 77, "quantizedEndStep": "26", "quantizedStartStep": "24", "startTime": 4.0, "velocity": 100}, {"endTime": 4.666666666666667, "pitch": 76, "quantizedEndStep": "28", "quantizedStartStep": "26", "startTime": 4.333333333333334, "velocity": 100}, {"endTime": 5.0, "pitch": 74, "quantizedEndStep": "30", "quantizedStartStep": "28", "startTime": 4.666666666666667, "velocity": 100}, {"endTime": 5.333333333333334, "pitch": 71, "quantizedEndStep": "32", "quantizedStartStep": "30", "startTime": 5.000000000000001, "velocity": 100}, {"endTime": 1.3333333333333335, "instrument": 1, "pitch": 64, "quantizedEndStep": "8", "velocity": 100}, {"endTime": 2.666666666666667, "instrument": 1, "pitch": 67, "quantizedEndStep": "16", "quantizedStartStep": "8", "startTime": 1.3333333333333335, "velocity": 100}, {"endTime": 3.333333333333334, "instrument": 1, "pitch": 67, "quantizedEndStep": "20", "quantizedStartStep": "16", "startTime": 2.666666666666667, "velocity": 100}, {"endTime": 3.6666666666666674, "instrument": 1, "pitch": 65, "quantizedEndStep": "22", "quantizedStartStep": "20", "startTime": 3.333333333333334, "velocity": 100}, {"endTime": 4.0, "instrument": 1, "pitch": 67, "quantizedEndStep": "24", "quantizedStartStep": "22", "startTime": 3.666666666666667, "velocity": 100}, {"endTime": 4.666666666666667, "instrument": 1, "pitch": 69, "quantizedEndStep": "28", "quantizedStartStep": "24", "startTime": 4.0, "velocity": 100}, {"endTime": 5.333333333333334, "instrument": 1, "pitch": 65, "quantizedEndStep": "32", "quantizedStartStep": "28", "startTime": 4.666666666666667, "velocity": 100}, {"endTime": 0.33333333333333337, "instrument": 2, "pitch": 60, "quantizedEndStep": "2", "velocity": 100}, {"endTime": 0.6666666666666667, "instrument": 2, "pitch": 62, "quantizedEndStep": "4", "quantizedStartStep": "2", "startTime": 0.33333333333333337, "velocity": 100}, {"endTime": 1.3333333333333335, "instrument": 2, "pitch": 60, "quantizedEndStep": "8", "quantizedStartStep": "4", "startTime": 0.6666666666666667, "velocity": 100}, {"endTime": 2.0, "instrument": 2, "pitch": 59, "quantizedEndStep": "12", "quantizedStartStep": "8", "startTime": 1.3333333333333335, "velocity": 100}, {"endTime": 2.3333333333333335, "instrument": 2, "pitch": 64, "quantizedEndStep": "14", "quantizedStartStep": "12", "startTime": 2.0, "velocity": 100}, {"endTime": 2.666666666666667, "instrument": 2, "pitch": 65, "quantizedEndStep": "16", "quantizedStartStep": "14", "startTime": 2.3333333333333335, "velocity": 100}, {"endTime": 3.0000000000000004, "instrument": 2, "pitch": 64, "quantizedEndStep": "18", "quantizedStartStep": "16", "startTime": 2.666666666666667, "velocity": 100}, {"endTime": 3.666666666666667, "instrument": 2, "pitch": 60, "quantizedEndStep": "22", "quantizedStartStep": "18", "startTime": 3.0000000000000004, "velocity": 100}, {"endTime": 4.0, "instrument": 2, "pitch": 57, "quantizedEndStep": "24", "quantizedStartStep": "22", "startTime": 3.666666666666667, "velocity": 100}, {"endTime": 4.333333333333333, "instrument": 2, "pitch": 62, "quantizedEndStep": "26", "quantizedStartStep": "24", "startTime": 4.0, "velocity": 100}, {"endTime": 4.666666666666667, "instrument": 2, "pitch": 60, "quantizedEndStep": "28", "quantizedStartStep": "26", "startTime": 4.333333333333334, "velocity": 100}, {"endTime": 5.333333333333334, "instrument": 2, "pitch": 59, "quantizedEndStep": "32", "quantizedStartStep": "28", "startTime": 4.666666666666667, "velocity": 100}, {"endTime": 1.3333333333333335, "instrument": 3, "pitch": 45, "quantizedEndStep": "8", "velocity": 100}, {"endTime": 1.666666666666667, "instrument": 3, "pitch": 40, "quantizedEndStep": "10", "quantizedStartStep": "8", "startTime": 1.3333333333333335, "velocity": 100}, {"endTime": 2.0000000000000004, "instrument": 3, "pitch": 53, "quantizedEndStep": "12", "quantizedStartStep": "10", "startTime": 1.666666666666667, "velocity": 100}, {"endTime": 2.3333333333333335, "instrument": 3, "pitch": 52, "quantizedEndStep": "14", "quantizedStartStep": "12", "startTime": 2.0, "velocity": 100}, {"endTime": 2.666666666666667, "instrument": 3, "pitch": 50, "quantizedEndStep": "16", "quantizedStartStep": "14", "startTime": 2.3333333333333335, "velocity": 100}, {"endTime": 3.333333333333334, "instrument": 3, "pitch": 48, "quantizedEndStep": "20", "quantizedStartStep": "16", "startTime": 2.666666666666667, "velocity": 100}, {"endTime": 3.6666666666666674, "instrument": 3, "pitch": 53, "quantizedEndStep": "22", "quantizedStartStep": "20", "startTime": 3.333333333333334, "velocity": 100}, {"endTime": 4.0, "instrument": 3, "pitch": 52, "quantizedEndStep": "24", "quantizedStartStep": "22", "startTime": 3.666666666666667, "velocity": 100}, {"endTime": 4.333333333333333, "instrument": 3, "pitch": 53, "quantizedEndStep": "26", "quantizedStartStep": "24", "startTime": 4.0, "velocity": 100}, {"endTime": 4.666666666666667, "instrument": 3, "pitch": 48, "quantizedEndStep": "28", "quantizedStartStep": "26", "startTime": 4.333333333333334, "velocity": 100}, {"endTime": 5.0, "instrument": 3, "pitch": 47, "quantizedEndStep": "30", "quantizedStartStep": "28", "startTime": 4.666666666666667, "velocity": 100}, {"endTime": 5.333333333333334, "instrument": 3, "pitch": 51, "quantizedEndStep": "32", "quantizedStartStep": "30", "startTime": 5.000000000000001, "velocity": 100}], "quantizationInfo": {"stepsPerQuarter": 4}, "tempos": [{"qpm": 90.0}], "ticksPerQuarter": 220, "timeSignatures": [{"denominator": 4, "numerator": 4}], "totalQuantizedSteps": "32", "totalTime": 5.333333333333334}, {"notes": [{"endTime": 0.3157894736842105, "pitch": 72, "quantizedEndStep": "2", "velocity": 100}, {"endTime": 0.631578947368421, "pitch": 69, "quantizedEndStep": "4", "quantizedStartStep": "2", "startTime": 0.3157894736842105, "velocity": 100}, {"endTime": 0.9473684210526315, "pitch": 72, "quantizedEndStep": "6", "quantizedStartStep": "4", "startTime": 0.631578947368421, "velocity": 100}, {"endTime": 1.263157894736842, "pitch": 76, "quantizedEndStep": "8", "quantizedStartStep": "6", "startTime": 0.9473684210526315, "velocity": 100}, {"endTime": 1.5789473684210527, "pitch": 79, "quantizedEndStep": "10", "quantizedStartStep": "8", "startTime": 1.263157894736842, "velocity": 100}, {"endTime": 1.8947368421052633, "pitch": 81, "quantizedEndStep": "12", "quantizedStartStep": "10", "startTime": 1.5789473684210527, "velocity": 100}, {"endTime": 2.2105263157894735, "pitch": 79, "quantizedEndStep": "14", "quantizedStartStep": "12", "startTime": 1.894736842105263, "velocity": 100}, {"endTime": 2.526315789473684, "pitch": 71, "quantizedEndStep": "16", "quantizedStartStep": "14", "startTime": 2.2105263157894735, "velocity": 100}, {"endTime": 2.8421052631578947, "pitch": 72, "quantizedEndStep": "18", "quantizedStartStep": "16", "startTime": 2.526315789473684, "velocity": 100}, {"endTime": 3.1578947368421053, "pitch": 76, "quantizedEndStep": "20", "quantizedStartStep": "18", "startTime": 2.8421052631578947, "velocity": 100}, {"endTime": 3.473684210526316, "pitch": 74, "quantizedEndStep": "22", "quantizedStartStep": "20", "startTime": 3.1578947368421053, "velocity": 100}, {"endTime": 3.789473684210526, "pitch": 79, "quantizedEndStep": "24", "quantizedStartStep": "22", "startTime": 3.4736842105263155, "velocity": 100}, {"endTime": 4.105263157894736, "pitch": 77, "quantizedEndStep": "26", "quantizedStartStep": "24", "startTime": 3.789473684210526, "velocity": 100}, {"endTime": 4.421052631578947, "pitch": 76, "quantizedEndStep": "28", "quantizedStartStep": "26", "startTime": 4.105263157894736, "velocity": 100}, {"endTime": 4.7368421052631575, "pitch": 74, "quantizedEndStep": "30", "quantizedStartStep": "28", "startTime": 4.421052631578947, "velocity": 100}, {"endTime": 5.052631578947368, "pitch": 71, "quantizedEndStep": "32", "quantizedStartStep": "30", "startTime": 4.7368421052631575, "velocity": 100}, {"endTime": 0.631578947368421, "instrument": 1, "pitch": 64, "quantizedEndStep": "4", "velocity": 100}, {"endTime": 0.9473684210526315, "instrument": 1, "pitch": 69, "quantizedEndStep": "6", "quantizedStartStep": "4", "startTime": 0.631578947368421, "velocity": 100}, {"endTime": 1.263157894736842, "instrument": 1, "pitch": 72, "quantizedEndStep": "8", "quantizedStartStep": "6", "startTime": 0.9473684210526315, "velocity": 100}, {"endTime": 1.5789473684210527, "instrument": 1, "pitch": 71, "quantizedEndStep": "10", "quantizedStartStep": "8", "startTime": 1.263157894736842, "velocity": 100}, {"endTime": 1.8947368421052633, "instrument": 1, "pitch": 69, "quantizedEndStep": "12", "quantizedStartStep": "10", "startTime": 1.5789473684210527, "velocity": 100}, {"endTime": 2.2105263157894735, "instrument": 1, "pitch": 67, "quantizedEndStep": "14", "quantizedStartStep": "12", "startTime": 1.894736842105263, "velocity": 100}, {"endTime": 2.526315789473684, "instrument": 1, "pitch": 65, "quantizedEndStep": "16", "quantizedStartStep": "14", "startTime": 2.2105263157894735, "velocity": 100}, {"endTime": 3.1578947368421053, "instrument": 1, "pitch": 64, "quantizedEndStep": "20", "quantizedStartStep": "16", "startTime": 2.526315789473684, "velocity": 100}, {"endTime": 3.473684210526316, "instrument": 1, "pitch": 69, "quantizedEndStep": "22", "quantizedStartStep": "20", "startTime": 3.1578947368421053, "velocity": 100}, {"endTime": 3.789473684210526, "instrument": 1, "pitch": 67, "quantizedEndStep": "24", "quantizedStartStep": "22", "startTime": 3.4736842105263155, "velocity": 100}, {"endTime": 4.105263157894736, "instrument": 1, "pitch": 65, "quantizedEndStep": "26", "quantizedStartStep": "24", "startTime": 3.789473684210526, "velocity": 100}, {"endTime": 4.421052631578947, "instrument": 1, "pitch": 69, "quantizedEndStep": "28", "quantizedStartStep": "26", "startTime": 4.105263157894736, "velocity": 100}, {"endTime": 5.052631578947368, "instrument": 1, "pitch": 67, "quantizedEndStep": "32", "quantizedStartStep": "28", "startTime": 4.421052631578947, "velocity": 100}, {"endTime": 0.631578947368421, "instrument": 2, "pitch": 60, "quantizedEndStep": "4", "velocity": 100}, {"endTime": 0.9473684210526315, "instrument": 2, "pitch": 64, "quantizedEndStep": "6", "quantizedStartStep": "4", "startTime": 0.631578947368421, "velocity": 100}, {"endTime": 1.1052631578947367, "instrument": 2, "pitch": 62, "quantizedEndStep": "7", "quantizedStartStep": "6", "startTime": 0.9473684210526315, "velocity": 100}, {"endTime": 1.263157894736842, "instrument": 2, "pitch": 64, "quantizedEndStep": "8", "quantizedStartStep": "7", "startTime": 1.1052631578947367, "velocity": 100}, {"endTime": 1.5789473684210527, "instrument": 2, "pitch": 59, "quantizedEndStep": "10", "quantizedStartStep": "8", "startTime": 1.263157894736842, "velocity": 100}, {"endTime": 2.2105263157894735, "instrument": 2, "pitch": 60, "quantizedEndStep": "14", "quantizedStartStep": "10", "startTime": 1.5789473684210527, "velocity": 100}, {"endTime": 2.526315789473684, "instrument": 2, "pitch": 62, "quantizedEndStep": "16", "quantizedStartStep": "14", "startTime": 2.2105263157894735, "velocity": 100}, {"endTime": 3.1578947368421053, "instrument": 2, "pitch": 55, "quantizedEndStep": "20", "quantizedStartStep": "16", "startTime": 2.526315789473684, "velocity": 100}, {"endTime": 3.473684210526316, "instrument": 2, "pitch": 57, "quantizedEndStep": "22", "quantizedStartStep": "20", "startTime": 3.1578947368421053, "velocity": 100}, {"endTime": 3.789473684210526, "instrument": 2, "pitch": 59, "quantizedEndStep": "24", "quantizedStartStep": "22", "startTime": 3.4736842105263155, "velocity": 100}, {"endTime": 4.421052631578947, "instrument": 2, "pitch": 60, "quantizedEndStep": "28", "quantizedStartStep": "24", "startTime": 3.789473684210526, "velocity": 100}, {"endTime": 5.052631578947368, "instrument": 2, "pitch": 62, "quantizedEndStep": "32", "quantizedStartStep": "28", "startTime": 4.421052631578947, "velocity": 100}, {"endTime": 1.263157894736842, "instrument": 3, "pitch": 57, "quantizedEndStep": "8", "velocity": 100}, {"endTime": 1.5789473684210527, "instrument": 3, "pitch": 55, "quantizedEndStep": "10", "quantizedStartStep": "8", "startTime": 1.263157894736842, "velocity": 100}, {"endTime": 1.8947368421052633, "instrument": 3, "pitch": 53, "quantizedEndStep": "12", "quantizedStartStep": "10", "startTime": 1.5789473684210527, "velocity": 100}, {"endTime": 2.2105263157894735, "instrument": 3, "pitch": 52, "quantizedEndStep": "14", "quantizedStartStep": "12", "startTime": 1.894736842105263, "velocity": 100}, {"endTime": 2.526315789473684, "instrument": 3, "pitch": 50, "quantizedEndStep": "16", "quantizedStartStep": "14", "startTime": 2.2105263157894735, "velocity": 100}, {"endTime": 3.1578947368421053, "instrument": 3, "pitch": 48, "quantizedEndStep": "20", "quantizedStartStep": "16", "startTime": 2.526315789473684, "velocity": 100}, {"endTime": 3.473684210526316, "instrument": 3, "pitch": 53, "quantizedEndStep": "22", "quantizedStartStep": "20", "startTime": 3.1578947368421053, "velocity": 100}, {"endTime": 3.789473684210526, "instrument": 3, "pitch": 55, "quantizedEndStep": "24", "quantizedStartStep": "22", "startTime": 3.4736842105263155, "velocity": 100}, {"endTime": 4.105263157894736, "instrument": 3, "pitch": 57, "quantizedEndStep": "26", "quantizedStartStep": "24", "startTime": 3.789473684210526, "velocity": 100}, {"endTime": 4.421052631578947, "instrument": 3, "pitch": 43, "quantizedEndStep": "28", "quantizedStartStep": "26", "startTime": 4.105263157894736, "velocity": 100}, {"endTime": 5.052631578947368, "instrument": 3, "pitch": 55, "quantizedEndStep": "32", "quantizedStartStep": "28", "startTime": 4.421052631578947, "velocity": 100}], "quantizationInfo": {"stepsPerQuarter": 4}, "tempos": [{"qpm": 95.0}], "ticksPerQuarter": 220, "timeSignatures": [{"denominator": 4, "numerator": 4}], "totalQuantizedSteps": "32", "totalTime": 5.052631578947368}], "request_id": [0, 1, 2], "session_id": "88f13e1e38fe4aa9b28c9c7eb5276127"}
,{"backend": ["l"], "composition_time": [8143], "country": ["us"], "feedback": ["2"], "input_sequence": [{"notes": [{"endTime": 0.5, "pitch": 67, "pitchName": "G", "quantizedEndStep": "2", "velocity": 100}, {"endTime": 1.0, "pitch": 74, "pitchName": "D", "quantizedEndStep": "4", "quantizedStartStep": "2", "startTime": 0.5, "velocity": 100}, {"endTime": 2.0, "pitch": 74, "pitchName": "D", "quantizedEndStep": "8", "quantizedStartStep": "4", "startTime": 1.0, "velocity": 100}, {"endTime": 3.0, "pitch": 72, "pitchName": "C", "quantizedEndStep": "12", "quantizedStartStep": "8", "startTime": 2.0, "velocity": 100}], "quantizationInfo": {"stepsPerQuarter": 4}, "tempos": [{"qpm": 60.0}], "ticksPerQuarter": 220, "timeSignatures": [{"denominator": 4, "numerator": 4}], "totalQuantizedSteps": "12", "totalTime": 3.0}], "key_sig": [""], "loops_listened": [3], "output_sequence": [{"notes": [{"endTime": 0.5, "pitch": 67, "quantizedEndStep": "2", "velocity": 100}, {"endTime": 2.0, "pitch": 74, "quantizedEndStep": "8", "quantizedStartStep": "2", "startTime": 0.5, "velocity": 100}, {"endTime": 3.0, "pitch": 72, "quantizedEndStep": "12", "quantizedStartStep": "8", "startTime": 2.0, "velocity": 100}, {"endTime": 4.0, "pitch": 71, "quantizedEndStep": "16", "quantizedStartStep": "12", "startTime": 3.0, "velocity": 100}, {"endTime": 5.0, "pitch": 71, "quantizedEndStep": "20", "quantizedStartStep": "16", "startTime": 4.0, "velocity": 100}, {"endTime": 6.0, "pitch": 69, "quantizedEndStep": "24", "quantizedStartStep": "20", "startTime": 5.0, "velocity": 100}, {"endTime": 8.0, "pitch": 71, "quantizedEndStep": "32", "quantizedStartStep": "24", "startTime": 6.0, "velocity": 100}, {"endTime": 1.0, "instrument": 1, "pitch": 62, "quantizedEndStep": "4", "velocity": 100}, {"endTime": 1.5, "instrument": 1, "pitch": 67, "quantizedEndStep": "6", "quantizedStartStep": "4", "startTime": 1.0, "velocity": 100}, {"endTime": 2.0, "instrument": 1, "pitch": 66, "quantizedEndStep": "8", "quantizedStartStep": "6", "startTime": 1.5, "velocity": 100}, {"endTime": 2.5, "instrument": 1, "pitch": 69, "quantizedEndStep": "10", "quantizedStartStep": "8", "startTime": 2.0, "velocity": 100}, {"endTime": 2.75, "instrument": 1, "pitch": 67, "quantizedEndStep": "11", "quantizedStartStep": "10", "startTime": 2.5, "velocity": 100}, {"endTime": 3.0, "instrument": 1, "pitch": 61, "quantizedEndStep": "12", "quantizedStartStep": "11", "startTime": 2.75, "velocity": 100}, {"endTime": 4.0, "instrument": 1, "pitch": 63, "quantizedEndStep": "16", "quantizedStartStep": "12", "startTime": 3.0, "velocity": 100}, {"endTime": 6.0, "instrument": 1, "pitch": 67, "quantizedEndStep": "24", "quantizedStartStep": "16", "startTime": 4.0, "velocity": 100}, {"endTime": 7.0, "instrument": 1, "pitch": 66, "quantizedEndStep": "28", "quantizedStartStep": "24", "startTime": 6.0, "velocity": 100}, {"endTime": 8.0, "instrument": 1, "pitch": 67, "quantizedEndStep": "32", "quantizedStartStep": "28", "startTime": 7.0, "velocity": 100}, {"endTime": 2.0, "instrument": 2, "pitch": 59, "quantizedEndStep": "8", "velocity": 100}, {"endTime": 3.0, "instrument": 2, "pitch": 64, "quantizedEndStep": "12", "quantizedStartStep": "8", "startTime": 2.0, "velocity": 100}, {"endTime": 4.0, "instrument": 2, "pitch": 54, "quantizedEndStep": "16", "quantizedStartStep": "12", "startTime": 3.0, "velocity": 100}, {"endTime": 6.0, "instrument": 2, "pitch": 64, "quantizedEndStep": "24", "quantizedStartStep": "16", "startTime": 4.0, "velocity": 100}, {"endTime": 7.0, "instrument": 2, "pitch": 59, "quantizedEndStep": "28", "quantizedStartStep": "24", "startTime": 6.0, "velocity": 100}, {"endTime": 8.0, "instrument": 2, "pitch": 64, "quantizedEndStep": "32", "quantizedStartStep": "28", "startTime": 7.0, "velocity": 100}, {"endTime": 1.0, "instrument": 3, "pitch": 43, "quantizedEndStep": "4", "velocity": 100}, {"endTime": 2.0, "instrument": 3, "pitch": 52, "quantizedEndStep": "8", "quantizedStartStep": "4", "startTime": 1.0, "velocity": 100}, {"endTime": 3.0, "instrument": 3, "pitch": 45, "quantizedEndStep": "12", "quantizedStartStep": "8", "startTime": 2.0, "velocity": 100}, {"endTime": 4.0, "instrument": 3, "pitch": 47, "quantizedEndStep": "16", "quantizedStartStep": "12", "startTime": 3.0, "velocity": 100}, {"endTime": 5.0, "instrument": 3, "pitch": 52, "quantizedEndStep": "20", "quantizedStartStep": "16", "startTime": 4.0, "velocity": 100}, {"endTime": 6.0, "instrument": 3, "pitch": 49, "quantizedEndStep": "24", "quantizedStartStep": "20", "startTime": 5.0, "velocity": 100}, {"endTime": 7.0, "instrument": 3, "pitch": 51, "quantizedEndStep": "28", "quantizedStartStep": "24", "startTime": 6.0, "velocity": 100}, {"endTime": 8.0, "instrument": 3, "pitch": 52, "quantizedEndStep": "32", "quantizedStartStep": "28", "startTime": 7.0, "velocity": 100}], "quantizationInfo": {"stepsPerQuarter": 4}, "tempos": [{"qpm": 60.0}], "ticksPerQuarter": 220, "timeSignatures": [{"denominator": 4, "numerator": 4}], "totalQuantizedSteps": "32", "totalTime": 8.0}], "request_id": [0], "session_id": "0a4364d17f444ee482c91e4feb65e1e1"}
,{"backend": ["l"], "composition_time": [21838], "country": ["in"], "feedback": ["2"], "input_sequence": [{"notes": [{"endTime": 0.5, "pitch": 71, "pitchName": "B", "quantizedEndStep": "2", "velocity": 100}, {"endTime": 1.0, "pitch": 67, "pitchName": "G", "quantizedEndStep": "4", "quantizedStartStep": "2", "startTime": 0.5, "velocity": 100}, {"endTime": 1.5, "pitch": 72, "pitchName": "C", "quantizedEndStep": "6", "quantizedStartStep": "4", "startTime": 1.0, "velocity": 100}, {"endTime": 2.0, "pitch": 67, "pitchName": "G", "quantizedEndStep": "8", "quantizedStartStep": "6", "startTime": 1.5, "velocity": 100}, {"endTime": 3.0, "pitch": 69, "pitchName": "A", "quantizedEndStep": "12", "quantizedStartStep": "8", "startTime": 2.0, "velocity": 100}, {"endTime": 3.5, "pitch": 69, "pitchName": "A", "quantizedEndStep": "14", "quantizedStartStep": "12", "startTime": 3.0, "velocity": 100}, {"endTime": 4.0, "pitch": 77, "pitchName": "F", "quantizedEndStep": "16", "quantizedStartStep": "14", "startTime": 3.5, "velocity": 100}, {"endTime": 4.5, "pitch": 71, "pitchName": "B", "quantizedEndStep": "18", "quantizedStartStep": "16", "startTime": 4.0, "velocity": 100}, {"endTime": 5.0, "pitch": 77, "pitchName": "F", "quantizedEndStep": "20", "quantizedStartStep": "18", "startTime": 4.5, "velocity": 100}, {"endTime": 5.5, "pitch": 67, "pitchName": "G", "quantizedEndStep": "22", "quantizedStartStep": "20", "startTime": 5.0, "velocity": 100}, {"endTime": 6.0, "pitch": 74, "pitchName": "D", "quantizedEndStep": "24", "quantizedStartStep": "22", "startTime": 5.5, "velocity": 100}, {"endTime": 7.0, "pitch": 72, "pitchName": "C", "quantizedEndStep": "28", "quantizedStartStep": "24", "startTime": 6.0, "velocity": 100}, {"endTime": 8.0, "pitch": 71, "pitchName": "B", "quantizedEndStep": "32", "quantizedStartStep": "28", "startTime": 7.0, "velocity": 100}], "quantizationInfo": {"stepsPerQuarter": 4}, "tempos": [{"qpm": 60.0}], "ticksPerQuarter": 220, "timeSignatures": [{"denominator": 4, "numerator": 4}], "totalQuantizedSteps": "32", "totalTime": 8.0}], "key_sig": [""], "loops_listened": [4], "output_sequence": [{"notes": [{"endTime": 0.5, "pitch": 71, "quantizedEndStep": "2", "velocity": 100}, {"endTime": 1.0, "pitch": 67, "quantizedEndStep": "4", "quantizedStartStep": "2", "startTime": 0.5, "velocity": 100}, {"endTime": 1.5, "pitch": 72, "quantizedEndStep": "6", "quantizedStartStep": "4", "startTime": 1.0, "velocity": 100}, {"endTime": 2.0, "pitch": 67, "quantizedEndStep": "8", "quantizedStartStep": "6", "startTime": 1.5, "velocity": 100}, {"endTime": 3.5, "pitch": 69, "quantizedEndStep": "14", "quantizedStartStep": "8", "startTime": 2.0, "velocity": 100}, {"endTime": 4.0, "pitch": 77, "quantizedEndStep": "16", "quantizedStartStep": "14", "startTime": 3.5, "velocity": 100}, {"endTime": 4.5, "pitch": 71, "quantizedEndStep": "18", "quantizedStartStep": "16", "startTime": 4.0, "velocity": 100}, {"endTime": 5.0, "pitch": 77, "quantizedEndStep": "20", "quantizedStartStep": "18", "startTime": 4.5, "velocity": 100}, {"endTime": 5.5, "pitch": 67, "quantizedEndStep": "22", "quantizedStartStep": "20", "startTime": 5.0, "velocity": 100}, {"endTime": 6.0, "pitch": 74, "quantizedEndStep": "24", "quantizedStartStep": "22", "startTime": 5.5, "velocity": 100}, {"endTime": 7.0, "pitch": 72, "quantizedEndStep": "28", "quantizedStartStep": "24", "startTime": 6.0, "velocity": 100}, {"endTime": 8.0, "pitch": 71, "quantizedEndStep": "32", "quantizedStartStep": "28", "startTime": 7.0, "velocity": 100}, {"endTime": 0.25, "instrument": 1, "pitch": 62, "quantizedEndStep": "1", "velocity": 100}, {"endTime": 2.0, "instrument": 1, "pitch": 64, "quantizedEndStep": "8", "quantizedStartStep": "1", "startTime": 0.25, "velocity": 100}, {"endTime": 3.0, "instrument": 1, "pitch": 65, "quantizedEndStep": "12", "quantizedStartStep": "8", "startTime": 2.0, "velocity": 100}, {"endTime": 4.0, "instrument": 1, "pitch": 69, "quantizedEndStep": "16", "quantizedStartStep": "12", "startTime": 3.0, "velocity": 100}, {"endTime": 5.5, "instrument": 1, "pitch": 67, "quantizedEndStep": "22", "quantizedStartStep": "16", "startTime": 4.0, "velocity": 100}, {"endTime": 6.0, "instrument": 1, "pitch": 65, "quantizedEndStep": "24", "quantizedStartStep": "22", "startTime": 5.5, "velocity": 100}, {"endTime": 6.25, "instrument": 1, "pitch": 64, "quantizedEndStep": "25", "quantizedStartStep": "24", "startTime": 6.0, "velocity": 100}, {"endTime": 6.5, "instrument": 1, "pitch": 67, "quantizedEndStep": "26", "quantizedStartStep": "25", "startTime": 6.25, "velocity": 100}, {"endTime": 7.0, "instrument": 1, "pitch": 64, "quantizedEndStep": "28", "quantizedStartStep": "26", "startTime": 6.5, "velocity": 100}, {"endTime": 8.0, "instrument": 1, "pitch": 62, "quantizedEndStep": "32", "quantizedStartStep": "28", "startTime": 7.0, "velocity": 100}, {"endTime": 0.75, "instrument": 2, "pitch": 65, "quantizedEndStep": "3", "velocity": 100}, {"endTime": 1.0, "instrument": 2, "pitch": 59, "quantizedEndStep": "4", "quantizedStartStep": "3", "startTime": 0.75, "velocity": 100}, {"endTime": 3.0, "instrument": 2, "pitch": 60, "quantizedEndStep": "12", "quantizedStartStep": "4", "startTime": 1.0, "velocity": 100}, {"endTime": 4.0, "instrument": 2, "pitch": 62, "quantizedEndStep": "16", "quantizedStartStep": "12", "startTime": 3.0, "velocity": 100}, {"endTime": 5.0, "instrument": 2, "pitch": 62, "quantizedEndStep": "20", "quantizedStartStep": "16", "startTime": 4.0, "velocity": 100}, {"endTime": 6.0, "instrument": 2, "pitch": 59, "quantizedEndStep": "24", "quantizedStartStep": "20", "startTime": 5.0, "velocity": 100}, {"endTime": 6.5, "instrument": 2, "pitch": 60, "quantizedEndStep": "26", "quantizedStartStep": "24", "startTime": 6.0, "velocity": 100}, {"endTime": 7.0, "instrument": 2, "pitch": 57, "quantizedEndStep": "28", "quantizedStartStep": "26", "startTime": 6.5, "velocity": 100}, {"endTime": 8.0, "instrument": 2, "pitch": 59, "quantizedEndStep": "32", "quantizedStartStep": "28", "startTime": 7.0, "velocity": 100}, {"endTime": 1.0, "instrument": 3, "pitch": 55, "quantizedEndStep": "4", "velocity": 100}, {"endTime": 2.0, "instrument": 3, "pitch": 48, "quantizedEndStep": "8", "quantizedStartStep": "4", "startTime": 1.0, "velocity": 100}, {"endTime": 2.5, "instrument": 3, "pitch": 53, "quantizedEndStep": "10", "quantizedStartStep": "8", "startTime": 2.0, "velocity": 100}, {"endTime": 3.0, "instrument": 3, "pitch": 52, "quantizedEndStep": "12", "quantizedStartStep": "10", "startTime": 2.5, "velocity": 100}, {"endTime": 3.5, "instrument": 3, "pitch": 50, "quantizedEndStep": "14", "quantizedStartStep": "12", "startTime": 3.0, "velocity": 100}, {"endTime": 4.0, "instrument": 3, "pitch": 48, "quantizedEndStep": "16", "quantizedStartStep": "14", "startTime": 3.5, "velocity": 100}, {"endTime": 4.5, "instrument": 3, "pitch": 47, "quantizedEndStep": "18", "quantizedStartStep": "16", "startTime": 4.0, "velocity": 100}, {"endTime": 5.0, "instrument": 3, "pitch": 48, "quantizedEndStep": "20", "quantizedStartStep": "18", "startTime": 4.5, "velocity": 100}, {"endTime": 5.5, "instrument": 3, "pitch": 52, "quantizedEndStep": "22", "quantizedStartStep": "20", "startTime": 5.0, "velocity": 100}, {"endTime": 6.0, "instrument": 3, "pitch": 50, "quantizedEndStep": "24", "quantizedStartStep": "22", "startTime": 5.5, "velocity": 100}, {"endTime": 6.5, "instrument": 3, "pitch": 52, "quantizedEndStep": "26", "quantizedStartStep": "24", "startTime": 6.0, "velocity": 100}, {"endTime": 6.75, "instrument": 3, "pitch": 54, "quantizedEndStep": "27", "quantizedStartStep": "26", "startTime": 6.5, "velocity": 100}, {"endTime": 7.0, "instrument": 3, "pitch": 53, "quantizedEndStep": "28", "quantizedStartStep": "27", "startTime": 6.75, "velocity": 100}, {"endTime": 7.5, "instrument": 3, "pitch": 55, "quantizedEndStep": "30", "quantizedStartStep": "28", "startTime": 7.0, "velocity": 100}, {"endTime": 8.0, "instrument": 3, "pitch": 53, "quantizedEndStep": "32", "quantizedStartStep": "30", "startTime": 7.5, "velocity": 100}], "quantizationInfo": {"stepsPerQuarter": 4}, "tempos": [{"qpm": 60.0}], "ticksPerQuarter": 220, "timeSignatures": [{"denominator": 4, "numerator": 4}], "totalQuantizedSteps": "32", "totalTime": 8.0}], "request_id": [0], "session_id": "3c8bd457ed9e4b67bdb0beda4fbfebb2"}
,{"backend": ["l"], "composition_time": [36568], "country": ["us"], "feedback": ["2"], "input_sequence": [{"notes": [{"endTime": 0.5, "pitch": 71, "pitchName": "B", "quantizedEndStep": "2", "velocity": 100}, {"endTime": 1.0, "pitch": 77, "pitchName": "F", "quantizedEndStep": "4", "quantizedStartStep": "2", "startTime": 0.5, "velocity": 100}, {"endTime": 1.5, "pitch": 67, "pitchName": "G", "quantizedEndStep": "6", "quantizedStartStep": "4", "startTime": 1.0, "velocity": 100}, {"endTime": 2.0, "pitch": 74, "pitchName": "D", "quantizedEndStep": "8", "quantizedStartStep": "6", "startTime": 1.5, "velocity": 100}, {"endTime": 2.5, "pitch": 64, "pitchName": "E", "quantizedEndStep": "10", "quantizedStartStep": "8", "startTime": 2.0, "velocity": 100}, {"endTime": 3.0, "pitch": 74, "pitchName": "D", "quantizedEndStep": "12", "quantizedStartStep": "10", "startTime": 2.5, "velocity": 100}, {"endTime": 3.5, "pitch": 64, "pitchName": "E", "quantizedEndStep": "14", "quantizedStartStep": "12", "startTime": 3.0, "velocity": 100}, {"endTime": 4.0, "pitch": 71, "pitchName": "B", "quantizedEndStep": "16", "quantizedStartStep": "14", "startTime": 3.5, "velocity": 100}], "quantizationInfo": {"stepsPerQuarter": 4}, "tempos": [{"qpm": 60.0}], "ticksPerQuarter": 220, "timeSignatures": [{"denominator": 4, "numerator": 4}], "totalQuantizedSteps": "16", "totalTime": 4.0}], "key_sig": [""], "loops_listened": [4], "output_sequence": [{"notes": [{"endTime": 0.5, "pitch": 71, "quantizedEndStep": "2", "velocity": 100}, {"endTime": 1.0, "pitch": 77, "quantizedEndStep": "4", "quantizedStartStep": "2", "startTime": 0.5, "velocity": 100}, {"endTime": 1.5, "pitch": 67, "quantizedEndStep": "6", "quantizedStartStep": "4", "startTime": 1.0, "velocity": 100}, {"endTime": 2.0, "pitch": 74, "quantizedEndStep": "8", "quantizedStartStep": "6", "startTime": 1.5, "velocity": 100}, {"endTime": 2.5, "pitch": 64, "quantizedEndStep": "10", "quantizedStartStep": "8", "startTime": 2.0, "velocity": 100}, {"endTime": 3.0, "pitch": 74, "quantizedEndStep": "12", "quantizedStartStep": "10", "startTime": 2.5, "velocity": 100}, {"endTime": 3.5, "pitch": 64, "quantizedEndStep": "14", "quantizedStartStep": "12", "startTime": 3.0, "velocity": 100}, {"endTime": 4.0, "pitch": 71, "quantizedEndStep": "16", "quantizedStartStep": "14", "startTime": 3.5, "velocity": 100}, {"endTime": 4.5, "pitch": 71, "quantizedEndStep": "18", "quantizedStartStep": "16", "startTime": 4.0, "velocity": 100}, {"endTime": 5.5, "pitch": 72, "quantizedEndStep": "22", "quantizedStartStep": "18", "startTime": 4.5, "velocity": 100}, {"endTime": 6.5, "pitch": 74, "quantizedEndStep": "26", "quantizedStartStep": "22", "startTime": 5.5, "velocity": 100}, {"endTime": 7.0, "pitch": 79, "quantizedEndStep": "28", "quantizedStartStep": "26", "startTime": 6.5, "velocity": 100}, {"endTime": 7.5, "pitch": 76, "quantizedEndStep": "30", "quantizedStartStep": "28", "startTime": 7.0, "velocity": 100}, {"endTime": 7.75, "pitch": 74, "quantizedEndStep": "31", "quantizedStartStep": "30", "startTime": 7.5, "velocity": 100}, {"endTime": 8.0, "pitch": 77, "quantizedEndStep": "32", "quantizedStartStep": "31", "startTime": 7.75, "velocity": 100}, {"endTime": 0.5, "instrument": 1, "pitch": 67, "quantizedEndStep": "2", "velocity": 100}, {"endTime": 1.0, "instrument": 1, "pitch": 65, "quantizedEndStep": "4", "quantizedStartStep": "2", "startTime": 0.5, "velocity": 100}, {"endTime": 1.5, "instrument": 1, "pitch": 64, "quantizedEndStep": "6", "quantizedStartStep": "4", "startTime": 1.0, "velocity": 100}, {"endTime": 2.0, "instrument": 1, "pitch": 62, "quantizedEndStep": "8", "quantizedStartStep": "6", "startTime": 1.5, "velocity": 100}, {"endTime": 2.5, "instrument": 1, "pitch": 60, "quantizedEndStep": "10", "quantizedStartStep": "8", "startTime": 2.0, "velocity": 100}, {"endTime": 3.5, "instrument": 1, "pitch": 59, "quantizedEndStep": "14", "quantizedStartStep": "10", "startTime": 2.5, "velocity": 100}, {"endTime": 4.0, "instrument": 1, "pitch": 67, "quantizedEndStep": "16", "quantizedStartStep": "14", "startTime": 3.5, "velocity": 100}, {"endTime": 4.5, "instrument": 1, "pitch": 65, "quantizedEndStep": "18", "quantizedStartStep": "16", "startTime": 4.0, "velocity": 100}, {"endTime": 5.0, "instrument": 1, "pitch": 64, "quantizedEndStep": "20", "quantizedStartStep": "18", "startTime": 4.5, "velocity": 100}, {"endTime": 5.5, "instrument": 1, "pitch": 66, "quantizedEndStep": "22", "quantizedStartStep": "20", "startTime": 5.0, "velocity": 100}, {"endTime": 7.5, "instrument": 1, "pitch": 67, "quantizedEndStep": "30", "quantizedStartStep": "22", "startTime": 5.5, "velocity": 100}, {"endTime": 8.0, "instrument": 1, "pitch": 65, "quantizedEndStep": "32", "quantizedStartStep": "30", "startTime": 7.5, "velocity": 100}, {"endTime": 0.5, "instrument": 2, "pitch": 62, "quantizedEndStep": "2", "velocity": 100}, {"endTime": 1.0, "instrument": 2, "pitch": 57, "quantizedEndStep": "4", "quantizedStartStep": "2", "startTime": 0.5, "velocity": 100}, {"endTime": 1.25, "instrument": 2, "pitch": 59, "quantizedEndStep": "5", "quantizedStartStep": "4", "startTime": 1.0, "velocity": 100}, {"endTime": 1.5, "instrument": 2, "pitch": 60, "quantizedEndStep": "6", "quantizedStartStep": "5", "startTime": 1.25, "velocity": 100}, {"endTime": 2.0, "instrument": 2, "pitch": 57, "quantizedEndStep": "8", "quantizedStartStep": "6", "startTime": 1.5, "velocity": 100}, {"endTime": 4.0, "instrument": 2, "pitch": 55, "quantizedEndStep": "16", "quantizedStartStep": "8", "startTime": 2.0, "velocity": 100}, {"endTime": 5.0, "instrument": 2, "pitch": 55, "quantizedEndStep": "20", "quantizedStartStep": "16", "startTime": 4.0, "velocity": 100}, {"endTime": 5.5, "instrument": 2, "pitch": 57, "quantizedEndStep": "22", "quantizedStartStep": "20", "startTime": 5.0, "velocity": 100}, {"endTime": 8.0, "instrument": 2, "pitch": 59, "quantizedEndStep": "32", "quantizedStartStep": "22", "startTime": 5.5, "velocity": 100}, {"endTime": 0.5, "instrument": 3, "pitch": 52, "quantizedEndStep": "2", "velocity": 100}, {"endTime": 1.0, "instrument": 3, "pitch": 50, "quantizedEndStep": "4", "quantizedStartStep": "2", "startTime": 0.5, "velocity": 100}, {"endTime": 1.5, "instrument": 3, "pitch": 48, "quantizedEndStep": "6", "quantizedStartStep": "4", "startTime": 1.0, "velocity": 100}, {"endTime": 2.0, "instrument": 3, "pitch": 47, "quantizedEndStep": "8", "quantizedStartStep": "6", "startTime": 1.5, "velocity": 100}, {"endTime": 2.5, "instrument": 3, "pitch": 52, "quantizedEndStep": "10", "quantizedStartStep": "8", "startTime": 2.0, "velocity": 100}, {"endTime": 3.5, "instrument": 3, "pitch": 53, "quantizedEndStep": "14", "quantizedStartStep": "10", "startTime": 2.5, "velocity": 100}, {"endTime": 4.0, "instrument": 3, "pitch": 52, "quantizedEndStep": "16", "quantizedStartStep": "14", "startTime": 3.5, "velocity": 100}, {"endTime": 4.5, "instrument": 3, "pitch": 50, "quantizedEndStep": "18", "quantizedStartStep": "16", "startTime": 4.0, "velocity": 100}, {"endTime": 5.5, "instrument": 3, "pitch": 52, "quantizedEndStep": "22", "quantizedStartStep": "18", "startTime": 4.5, "velocity": 100}, {"endTime": 6.0, "instrument": 3, "pitch": 55, "quantizedEndStep": "24", "quantizedStartStep": "22", "startTime": 5.5, "velocity": 100}, {"endTime": 6.5, "instrument": 3, "pitch": 53, "quantizedEndStep": "26", "quantizedStartStep": "24", "startTime": 6.0, "velocity": 100}, {"endTime": 7.5, "instrument": 3, "pitch": 52, "quantizedEndStep": "30", "quantizedStartStep": "26", "startTime": 6.5, "velocity": 100}, {"endTime": 8.0, "instrument": 3, "pitch": 50, "quantizedEndStep": "32", "quantizedStartStep": "30", "startTime": 7.5, "velocity": 100}], "quantizationInfo": {"stepsPerQuarter": 4}, "tempos": [{"qpm": 60.0}], "ticksPerQuarter": 220, "timeSignatures": [{"denominator": 4, "numerator": 4}], "totalQuantizedSteps": "32", "totalTime": 8.0}], "request_id": [0], "session_id": "d7524bd8feda4232896f1c79e7624a58"}
,{"backend": ["l", "l"], "composition_time": [8294, 23895], "country": ["us", "us"], "feedback": ["", "2"], "input_sequence": [{"notes": [{"endTime": 0.5, "pitch": 65, "pitchName": "F", "quantizedEndStep": "2", "velocity": 100}, {"endTime": 1.0, "pitch": 67, "pitchName": "G", "quantizedEndStep": "4", "quantizedStartStep": "2", "startTime": 0.5, "velocity": 100}, {"endTime": 1.5, "pitch": 76, "pitchName": "E", "quantizedEndStep": "6", "quantizedStartStep": "4", "startTime": 1.0, "velocity": 100}, {"endTime": 2.0, "pitch": 64, "pitchName": "E", "quantizedEndStep": "8", "quantizedStartStep": "6", "startTime": 1.5, "velocity": 100}], "quantizationInfo": {"stepsPerQuarter": 4}, "tempos": [{"qpm": 60.0}], "ticksPerQuarter": 220, "timeSignatures": [{"denominator": 4, "numerator": 4}], "totalQuantizedSteps": "8", "totalTime": 2.0}, {"notes": [{"endTime": 0.5, "pitch": 65, "pitchName": "F", "quantizedEndStep": "2", "velocity": 100}, {"endTime": 1.0, "pitch": 67, "pitchName": "G", "quantizedEndStep": "4", "quantizedStartStep": "2", "startTime": 0.5, "velocity": 100}, {"endTime": 1.5, "pitch": 76, "pitchName": "E", "quantizedEndStep": "6", "quantizedStartStep": "4", "startTime": 1.0, "velocity": 100}, {"endTime": 2.0, "pitch": 64, "pitchName": "E", "quantizedEndStep": "8", "quantizedStartStep": "6", "startTime": 1.5, "velocity": 100}, {"endTime": 2.5, "pitch": 69, "pitchName": "A", "quantizedEndStep": "10", "quantizedStartStep": "8", "startTime": 2.0, "velocity": 100}, {"endTime": 3.0, "pitch": 67, "pitchName": "G", "quantizedEndStep": "12", "quantizedStartStep": "10", "startTime": 2.5, "velocity": 100}, {"endTime": 3.5, "pitch": 74, "pitchName": "D", "quantizedEndStep": "14", "quantizedStartStep": "12", "startTime": 3.0, "velocity": 100}, {"endTime": 4.0, "pitch": 64, "pitchName": "E", "quantizedEndStep": "16", "quantizedStartStep": "14", "startTime": 3.5, "velocity": 100}, {"endTime": 4.5, "pitch": 74, "pitchName": "D", "quantizedEndStep": "18", "quantizedStartStep": "16", "startTime": 4.0, "velocity": 100}, {"endTime": 5.0, "pitch": 64, "pitchName": "E", "quantizedEndStep": "20", "quantizedStartStep": "18", "startTime": 4.5, "velocity": 100}, {"endTime": 6.0, "pitch": 65, "pitchName": "F", "quantizedEndStep": "24", "quantizedStartStep": "20", "startTime": 5.0, "velocity": 100}, {"endTime": 6.5, "pitch": 77, "pitchName": "F", "quantizedEndStep": "26", "quantizedStartStep": "24", "startTime": 6.0, "velocity": 100}, {"endTime": 7.0, "pitch": 71, "pitchName": "B", "quantizedEndStep": "28", "quantizedStartStep": "26", "startTime": 6.5, "velocity": 100}, {"endTime": 7.5, "pitch": 71, "pitchName": "B", "quantizedEndStep": "30", "quantizedStartStep": "28", "startTime": 7.0, "velocity": 100}, {"endTime": 8.0, "pitch": 65, "pitchName": "F", "quantizedEndStep": "32", "quantizedStartStep": "30", "startTime": 7.5, "velocity": 100}], "quantizationInfo": {"stepsPerQuarter": 4}, "tempos": [{"qpm": 60.0}], "ticksPerQuarter": 220, "timeSignatures": [{"denominator": 4, "numerator": 4}], "totalQuantizedSteps": "32", "totalTime": 8.0}], "key_sig": ["", ""], "loops_listened": [1, 3], "output_sequence": [{"notes": [{"endTime": 0.5, "pitch": 65, "quantizedEndStep": "2", "velocity": 100}, {"endTime": 1.0, "pitch": 67, "quantizedEndStep": "4", "quantizedStartStep": "2", "startTime": 0.5, "velocity": 100}, {"endTime": 1.5, "pitch": 76, "quantizedEndStep": "6", "quantizedStartStep": "4", "startTime": 1.0, "velocity": 100}, {"endTime": 2.5, "pitch": 64, "quantizedEndStep": "10", "quantizedStartStep": "6", "startTime": 1.5, "velocity": 100}, {"endTime": 3.0, "pitch": 77, "quantizedEndStep": "12", "quantizedStartStep": "10", "startTime": 2.5, "velocity": 100}, {"endTime": 3.5, "pitch": 76, "quantizedEndStep": "14", "quantizedStartStep": "12", "startTime": 3.0, "velocity": 100}, {"endTime": 4.0, "pitch": 74, "quantizedEndStep": "16", "quantizedStartStep": "14", "startTime": 3.5, "velocity": 100}, {"endTime": 4.5, "pitch": 74, "quantizedEndStep": "18", "quantizedStartStep": "16", "startTime": 4.0, "velocity": 100}, {"endTime": 5.0, "pitch": 76, "quantizedEndStep": "20", "quantizedStartStep": "18", "startTime": 4.5, "velocity": 100}, {"endTime": 5.5, "pitch": 74, "quantizedEndStep": "22", "quantizedStartStep": "20", "startTime": 5.0, "velocity": 100}, {"endTime": 6.5, "pitch": 76, "quantizedEndStep": "26", "quantizedStartStep": "22", "startTime": 5.5, "velocity": 100}, {"endTime": 7.5, "pitch": 74, "quantizedEndStep": "30", "quantizedStartStep": "26", "startTime": 6.5, "velocity": 100}, {"endTime": 8.0, "pitch": 76, "quantizedEndStep": "32", "quantizedStartStep": "30", "startTime": 7.5, "velocity": 100}, {"endTime": 0.5, "instrument": 1, "pitch": 62, "quantizedEndStep": "2", "velocity": 100}, {"endTime": 1.0, "instrument": 1, "pitch": 60, "quantizedEndStep": "4", "quantizedStartStep": "2", "startTime": 0.5, "velocity": 100}, {"endTime": 1.5, "instrument": 1, "pitch": 59, "quantizedEndStep": "6", "quantizedStartStep": "4", "startTime": 1.0, "velocity": 100}, {"endTime": 2.5, "instrument": 1, "pitch": 60, "quantizedEndStep": "10", "quantizedStartStep": "6", "startTime": 1.5, "velocity": 100}, {"endTime": 2.75, "instrument": 1, "pitch": 67, "quantizedEndStep": "11", "quantizedStartStep": "10", "startTime": 2.5, "velocity": 100}, {"endTime": 3.0, "instrument": 1, "pitch": 69, "quantizedEndStep": "12", "quantizedStartStep": "11", "startTime": 2.75, "velocity": 100}, {"endTime": 3.5, "instrument": 1, "pitch": 67, "quantizedEndStep": "14", "quantizedStartStep": "12", "startTime": 3.0, "velocity": 100}, {"endTime": 4.0, "instrument": 1, "pitch": 57, "quantizedEndStep": "16", "quantizedStartStep": "14", "startTime": 3.5, "velocity": 100}, {"endTime": 5.5, "instrument": 1, "pitch": 65, "quantizedEndStep": "22", "quantizedStartStep": "16", "startTime": 4.0, "velocity": 100}, {"endTime": 6.0, "instrument": 1, "pitch": 64, "quantizedEndStep": "24", "quantizedStartStep": "22", "startTime": 5.5, "velocity": 100}, {"endTime": 6.5, "instrument": 1, "pitch": 66, "quantizedEndStep": "26", "quantizedStartStep": "24", "startTime": 6.0, "velocity": 100}, {"endTime": 7.0, "instrument": 1, "pitch": 67, "quantizedEndStep": "28", "quantizedStartStep": "26", "startTime": 6.5, "velocity": 100}, {"endTime": 7.5, "instrument": 1, "pitch": 65, "quantizedEndStep": "30", "quantizedStartStep": "28", "startTime": 7.0, "velocity": 100}, {"endTime": 8.0, "instrument": 1, "pitch": 72, "quantizedEndStep": "32", "quantizedStartStep": "30", "startTime": 7.5, "velocity": 100}, {"endTime": 0.5, "instrument": 2, "pitch": 57, "quantizedEndStep": "2", "velocity": 100}, {"endTime": 1.5, "instrument": 2, "pitch": 55, "quantizedEndStep": "6", "quantizedStartStep": "2", "startTime": 0.5, "velocity": 100}, {"endTime": 2.0, "instrument": 2, "pitch": 57, "quantizedEndStep": "8", "quantizedStartStep": "6", "startTime": 1.5, "velocity": 100}, {"endTime": 2.5, "instrument": 2, "pitch": 59, "quantizedEndStep": "10", "quantizedStartStep": "8", "startTime": 2.0, "velocity": 100}, {"endTime": 3.5, "instrument": 2, "pitch": 60, "quantizedEndStep": "14", "quantizedStartStep": "10", "startTime": 2.5, "velocity": 100}, {"endTime": 4.0, "instrument": 2, "pitch": 62, "quantizedEndStep": "16", "quantizedStartStep": "14", "startTime": 3.5, "velocity": 100}, {"endTime": 4.5, "instrument": 2, "pitch": 59, "quantizedEndStep": "18", "quantizedStartStep": "16", "startTime": 4.0, "velocity": 100}, {"endTime": 6.5, "instrument": 2, "pitch": 60, "quantizedEndStep": "26", "quantizedStartStep": "18", "startTime": 4.5, "velocity": 100}, {"endTime": 7.5, "instrument": 2, "pitch": 59, "quantizedEndStep": "30", "quantizedStartStep": "26", "startTime": 6.5, "velocity": 100}, {"endTime": 8.0, "instrument": 2, "pitch": 67, "quantizedEndStep": "32", "quantizedStartStep": "30", "startTime": 7.5, "velocity": 100}, {"endTime": 0.5, "instrument": 3, "pitch": 53, "quantizedEndStep": "2", "velocity": 100}, {"endTime": 1.5, "instrument": 3, "pitch": 52, "quantizedEndStep": "6", "quantizedStartStep": "2", "startTime": 0.5, "velocity": 100}, {"endTime": 2.0, "instrument": 3, "pitch": 57, "quantizedEndStep": "8", "quantizedStartStep": "6", "startTime": 1.5, "velocity": 100}, {"endTime": 2.5, "instrument": 3, "pitch": 55, "quantizedEndStep": "10", "quantizedStartStep": "8", "startTime": 2.0, "velocity": 100}, {"endTime": 3.0, "instrument": 3, "pitch": 53, "quantizedEndStep": "12", "quantizedStartStep": "10", "startTime": 2.5, "velocity": 100}, {"endTime": 3.5, "instrument": 3, "pitch": 52, "quantizedEndStep": "14", "quantizedStartStep": "12", "startTime": 3.0, "velocity": 100}, {"endTime": 4.0, "instrument": 3, "pitch": 53, "quantizedEndStep": "16", "quantizedStartStep": "14", "startTime": 3.5, "velocity": 100}, {"endTime": 4.5, "instrument": 3, "pitch": 50, "quantizedEndStep": "18", "quantizedStartStep": "16", "startTime": 4.0, "velocity": 100}, {"endTime": 5.5, "instrument": 3, "pitch": 57, "quantizedEndStep": "22", "quantizedStartStep": "18", "startTime": 4.5, "velocity": 100}, {"endTime": 7.5, "instrument": 3, "pitch": 55, "quantizedEndStep": "30", "quantizedStartStep": "22", "startTime": 5.5, "velocity": 100}, {"endTime": 8.0, "instrument": 3, "pitch": 48, "quantizedEndStep": "32", "quantizedStartStep": "30", "startTime": 7.5, "velocity": 100}], "quantizationInfo": {"stepsPerQuarter": 4}, "tempos": [{"qpm": 60.0}], "ticksPerQuarter": 220, "timeSignatures": [{"denominator": 4, "numerator": 4}], "totalQuantizedSteps": "32", "totalTime": 8.0}, {"notes": [{"endTime": 0.5, "pitch": 65, "quantizedEndStep": "2", "velocity": 100}, {"endTime": 1.0, "pitch": 67, "quantizedEndStep": "4", "quantizedStartStep": "2", "startTime": 0.5, "velocity": 100}, {"endTime": 1.5, "pitch": 76, "quantizedEndStep": "6", "quantizedStartStep": "4", "startTime": 1.0, "velocity": 100}, {"endTime": 2.0, "pitch": 64, "quantizedEndStep": "8", "quantizedStartStep": "6", "startTime": 1.5, "velocity": 100}, {"endTime": 2.5, "pitch": 69, "quantizedEndStep": "10", "quantizedStartStep": "8", "startTime": 2.0, "velocity": 100}, {"endTime": 3.0, "pitch": 67, "quantizedEndStep": "12", "quantizedStartStep": "10", "startTime": 2.5, "velocity": 100}, {"endTime": 3.5, "pitch": 74, "quantizedEndStep": "14", "quantizedStartStep": "12", "startTime": 3.0, "velocity": 100}, {"endTime": 4.0, "pitch": 64, "quantizedEndStep": "16", "quantizedStartStep": "14", "startTime": 3.5, "velocity": 100}, {"endTime": 4.5, "pitch": 74, "quantizedEndStep": "18", "quantizedStartStep": "16", "startTime": 4.0, "velocity": 100}, {"endTime": 5.0, "pitch": 64, "quantizedEndStep": "20", "quantizedStartStep": "18", "startTime": 4.5, "velocity": 100}, {"endTime": 6.0, "pitch": 65, "quantizedEndStep": "24", "quantizedStartStep": "20", "startTime": 5.0, "velocity": 100}, {"endTime": 6.5, "pitch": 77, "quantizedEndStep": "26", "quantizedStartStep": "24", "startTime": 6.0, "velocity": 100}, {"endTime": 7.5, "pitch": 71, "quantizedEndStep": "30", "quantizedStartStep": "26", "startTime": 6.5, "velocity": 100}, {"endTime": 8.0, "pitch": 65, "quantizedEndStep": "32", "quantizedStartStep": "30", "startTime": 7.5, "velocity": 100}, {"endTime": 1.0, "instrument": 1, "pitch": 62, "quantizedEndStep": "4", "velocity": 100}, {"endTime": 2.5, "instrument": 1, "pitch": 60, "quantizedEndStep": "10", "quantizedStartStep": "4", "startTime": 1.0, "velocity": 100}, {"endTime": 3.5, "instrument": 1, "pitch": 65, "quantizedEndStep": "14", "quantizedStartStep": "10", "startTime": 2.5, "velocity": 100}, {"endTime": 4.0, "instrument": 1, "pitch": 64, "quantizedEndStep": "16", "quantizedStartStep": "14", "startTime": 3.5, "velocity": 100}, {"endTime": 4.5, "instrument": 1, "pitch": 65, "quantizedEndStep": "18", "quantizedStartStep": "16", "startTime": 4.0, "velocity": 100}, {"endTime": 5.5, "instrument": 1, "pitch": 64, "quantizedEndStep": "22", "quantizedStartStep": "18", "startTime": 4.5, "velocity": 100}, {"endTime": 7.0, "instrument": 1, "pitch": 65, "quantizedEndStep": "28", "quantizedStartStep": "22", "startTime": 5.5, "velocity": 100}, {"endTime": 7.5, "instrument": 1, "pitch": 64, "quantizedEndStep": "30", "quantizedStartStep": "28", "startTime": 7.0, "velocity": 100}, {"endTime": 8.0, "instrument": 1, "pitch": 62, "quantizedEndStep": "32", "quantizedStartStep": "30", "startTime": 7.5, "velocity": 100}, {"endTime": 0.5, "instrument": 2, "pitch": 57, "quantizedEndStep": "2", "velocity": 100}, {"endTime": 1.5, "instrument": 2, "pitch": 55, "quantizedEndStep": "6", "quantizedStartStep": "2", "startTime": 0.5, "velocity": 100}, {"endTime": 2.0, "instrument": 2, "pitch": 53, "quantizedEndStep": "8", "quantizedStartStep": "6", "startTime": 1.5, "velocity": 100}, {"endTime": 2.5, "instrument": 2, "pitch": 52, "quantizedEndStep": "10", "quantizedStartStep": "8", "startTime": 2.0, "velocity": 100}, {"endTime": 3.0, "instrument": 2, "pitch": 50, "quantizedEndStep": "12", "quantizedStartStep": "10", "startTime": 2.5, "velocity": 100}, {"endTime": 4.0, "instrument": 2, "pitch": 55, "quantizedEndStep": "16", "quantizedStartStep": "12", "startTime": 3.0, "velocity": 100}, {"endTime": 4.5, "instrument": 2, "pitch": 56, "quantizedEndStep": "18", "quantizedStartStep": "16", "startTime": 4.0, "velocity": 100}, {"endTime": 5.5, "instrument": 2, "pitch": 57, "quantizedEndStep": "22", "quantizedStartStep": "18", "startTime": 4.5, "velocity": 100}, {"endTime": 7.5, "instrument": 2, "pitch": 62, "quantizedEndStep": "30", "quantizedStartStep": "22", "startTime": 5.5, "velocity": 100}, {"endTime": 8.0, "instrument": 2, "pitch": 60, "quantizedEndStep": "32", "quantizedStartStep": "30", "startTime": 7.5, "velocity": 100}, {"endTime": 0.5, "instrument": 3, "pitch": 50, "quantizedEndStep": "2", "velocity": 100}, {"endTime": 1.5, "instrument": 3, "pitch": 47, "quantizedEndStep": "6", "quantizedStartStep": "2", "startTime": 0.5, "velocity": 100}, {"endTime": 2.5, "instrument": 3, "pitch": 45, "quantizedEndStep": "10", "quantizedStartStep": "6", "startTime": 1.5, "velocity": 100}, {"endTime": 3.5, "instrument": 3, "pitch": 47, "quantizedEndStep": "14", "quantizedStartStep": "10", "startTime": 2.5, "velocity": 100}, {"endTime": 4.0, "instrument": 3, "pitch": 48, "quantizedEndStep": "16", "quantizedStartStep": "14", "startTime": 3.5, "velocity": 100}, {"endTime": 4.5, "instrument": 3, "pitch": 47, "quantizedEndStep": "18", "quantizedStartStep": "16", "startTime": 4.0, "velocity": 100}, {"endTime": 5.0, "instrument": 3, "pitch": 48, "quantizedEndStep": "20", "quantizedStartStep": "18", "startTime": 4.5, "velocity": 100}, {"endTime": 5.5, "instrument": 3, "pitch": 45, "quantizedEndStep": "22", "quantizedStartStep": "20", "startTime": 5.0, "velocity": 100}, {"endTime": 6.5, "instrument": 3, "pitch": 50, "quantizedEndStep": "26", "quantizedStartStep": "22", "startTime": 5.5, "velocity": 100}, {"endTime": 7.5, "instrument": 3, "pitch": 43, "quantizedEndStep": "30", "quantizedStartStep": "26", "startTime": 6.5, "velocity": 100}, {"endTime": 8.0, "instrument": 3, "pitch": 45, "quantizedEndStep": "32", "quantizedStartStep": "30", "startTime": 7.5, "velocity": 100}], "quantizationInfo": {"stepsPerQuarter": 4}, "tempos": [{"qpm": 60.0}], "ticksPerQuarter": 220, "timeSignatures": [{"denominator": 4, "numerator": 4}], "totalQuantizedSteps": "32", "totalTime": 8.0}], "request_id": [0, 1], "session_id": "50a24c896f2b4c54a7364abff7a899dd"}
,{"backend": ["r", "r", "r", "r", "r", "r", "r", "r"], "composition_time": [31581, 12086, 73307, 41856, 304197, 114711, 6160, 537232], "country": ["us", "us", "us", "us", "us", "us", "us", "us"], "feedback": ["2", "", "1", "2", "2", "2", "", "2"], "input_sequence": [{"notes": [{"endTime": 0.5, "pitch": 72, "pitchName": "C", "quantizedEndStep": "2", "velocity": 100}, {"endTime": 1.0, "pitch": 69, "pitchName": "A", "quantizedEndStep": "4", "quantizedStartStep": "2", "startTime": 0.5, "velocity": 100}, {"endTime": 1.5, "pitch": 74, "pitchName": "D", "quantizedEndStep": "6", "quantizedStartStep": "4", "startTime": 1.0, "velocity": 100}, {"endTime": 2.0, "pitch": 71, "pitchName": "B", "quantizedEndStep": "8", "quantizedStartStep": "6", "startTime": 1.5, "velocity": 100}, {"endTime": 2.5, "pitch": 74, "pitchName": "D", "quantizedEndStep": "10", "quantizedStartStep": "8", "startTime": 2.0, "velocity": 100}, {"endTime": 3.0, "pitch": 64, "pitchName": "E", "quantizedEndStep": "12", "quantizedStartStep": "10", "startTime": 2.5, "velocity": 100}, {"endTime": 3.5, "pitch": 69, "pitchName": "A", "quantizedEndStep": "14", "quantizedStartStep": "12", "startTime": 3.0, "velocity": 100}, {"endTime": 4.0, "pitch": 72, "pitchName": "C", "quantizedEndStep": "16", "quantizedStartStep": "14", "startTime": 3.5, "velocity": 100}, {"endTime": 4.5, "pitch": 65, "pitchName": "F", "quantizedEndStep": "18", "quantizedStartStep": "16", "startTime": 4.0, "velocity": 100}, {"endTime": 5.0, "pitch": 76, "pitchName": "E", "quantizedEndStep": "20", "quantizedStartStep": "18", "startTime": 4.5, "velocity": 100}, {"endTime": 6.0, "pitch": 69, "pitchName": "A", "quantizedEndStep": "24", "quantizedStartStep": "20", "startTime": 5.0, "velocity": 100}, {"endTime": 7.0, "pitch": 71, "pitchName": "B", "quantizedEndStep": "28", "quantizedStartStep": "24", "startTime": 6.0, "velocity": 100}, {"endTime": 7.5, "pitch": 74, "pitchName": "D", "quantizedEndStep": "30", "quantizedStartStep": "28", "startTime": 7.0, "velocity": 100}, {"endTime": 8.0, "pitch": 69, "pitchName": "A", "quantizedEndStep": "32", "quantizedStartStep": "30", "startTime": 7.5, "velocity": 100}], "quantizationInfo": {"stepsPerQuarter": 4}, "tempos": [{"qpm": 60.0}], "ticksPerQuarter": 220, "timeSignatures": [{"denominator": 4, "numerator": 4}], "totalQuantizedSteps": "32", "totalTime": 8.0}, {"notes": [{"endTime": 0.5, "pitch": 72, "pitchName": "C", "quantizedEndStep": "2", "velocity": 100}, {"endTime": 1.0, "pitch": 69, "pitchName": "A", "quantizedEndStep": "4", "quantizedStartStep": "2", "startTime": 0.5, "velocity": 100}, {"endTime": 1.5, "pitch": 74, "pitchName": "D", "quantizedEndStep": "6", "quantizedStartStep": "4", "startTime": 1.0, "velocity": 100}, {"endTime": 2.0, "pitch": 71, "pitchName": "B", "quantizedEndStep": "8", "quantizedStartStep": "6", "startTime": 1.5, "velocity": 100}, {"endTime": 2.5, "pitch": 74, "pitchName": "D", "quantizedEndStep": "10", "quantizedStartStep": "8", "startTime": 2.0, "velocity": 100}, {"endTime": 3.0, "pitch": 64, "pitchName": "E", "quantizedEndStep": "12", "quantizedStartStep": "10", "startTime": 2.5, "velocity": 100}, {"endTime": 3.5, "pitch": 69, "pitchName": "A", "quantizedEndStep": "14", "quantizedStartStep": "12", "startTime": 3.0, "velocity": 100}, {"endTime": 4.0, "pitch": 72, "pitchName": "C", "quantizedEndStep": "16", "quantizedStartStep": "14", "startTime": 3.5, "velocity": 100}, {"endTime": 4.5, "pitch": 65, "pitchName": "F", "quantizedEndStep": "18", "quantizedStartStep": "16", "startTime": 4.0, "velocity": 100}, {"endTime": 5.0, "pitch": 76, "pitchName": "E", "quantizedEndStep": "20", "quantizedStartStep": "18", "startTime": 4.5, "velocity": 100}, {"endTime": 5.5, "pitch": 81, "pitchName": "A", "quantizedEndStep": "22", "quantizedStartStep": "20", "startTime": 5.0, "velocity": 100}, {"endTime": 6.0, "pitch": 71, "pitchName": "B", "quantizedEndStep": "24", "quantizedStartStep": "22", "startTime": 5.5, "velocity": 100}, {"endTime": 6.5, "pitch": 71, "pitchName": "B", "quantizedEndStep": "26", "quantizedStartStep": "24", "startTime": 6.0, "velocity": 100}, {"endTime": 7.0, "pitch": 81, "pitchName": "A", "quantizedEndStep": "28", "quantizedStartStep": "26", "startTime": 6.5, "velocity": 100}, {"endTime": 7.5, "pitch": 74, "pitchName": "D", "quantizedEndStep": "30", "quantizedStartStep": "28", "startTime": 7.0, "velocity": 100}, {"endTime": 8.0, "pitch": 69, "pitchName": "A", "quantizedEndStep": "32", "quantizedStartStep": "30", "startTime": 7.5, "velocity": 100}], "quantizationInfo": {"stepsPerQuarter": 4}, "tempos": [{"qpm": 60.0}], "ticksPerQuarter": 220, "timeSignatures": [{"denominator": 4, "numerator": 4}], "totalQuantizedSteps": "32", "totalTime": 8.0}, {"keySignatures": [{"mode": "NOT_SPECIFIED"}], "notes": [{"endTime": 0.5, "pitch": 71, "pitchName": "B", "quantizedEndStep": "2", "velocity": 100}, {"endTime": 1.0, "pitch": 71, "pitchName": "B", "quantizedEndStep": "4", "quantizedStartStep": "2", "startTime": 0.5, "velocity": 100}, {"endTime": 1.5, "pitch": 71, "pitchName": "B", "quantizedEndStep": "6", "quantizedStartStep": "4", "startTime": 1.0, "velocity": 100}, {"endTime": 2.0, "pitch": 71, "pitchName": "B", "quantizedEndStep": "8", "quantizedStartStep": "6", "startTime": 1.5, "velocity": 100}, {"endTime": 2.5, "pitch": 71, "pitchName": "B", "quantizedEndStep": "10", "quantizedStartStep": "8", "startTime": 2.0, "velocity": 100}, {"endTime": 3.0, "pitch": 71, "pitchName": "B", "quantizedEndStep": "12", "quantizedStartStep": "10", "startTime": 2.5, "velocity": 100}, {"endTime": 3.5, "pitch": 71, "pitchName": "B", "quantizedEndStep": "14", "quantizedStartStep": "12", "startTime": 3.0, "velocity": 100}, {"endTime": 4.0, "pitch": 71, "pitchName": "B", "quantizedEndStep": "16", "quantizedStartStep": "14", "startTime": 3.5, "velocity": 100}, {"endTime": 4.5, "pitch": 71, "pitchName": "B", "quantizedEndStep": "18", "quantizedStartStep": "16", "startTime": 4.0, "velocity": 100}, {"endTime": 5.0, "pitch": 71, "pitchName": "B", "quantizedEndStep": "20", "quantizedStartStep": "18", "startTime": 4.5, "velocity": 100}, {"endTime": 5.5, "pitch": 71, "pitchName": "B", "quantizedEndStep": "22", "quantizedStartStep": "20", "startTime": 5.0, "velocity": 100}, {"endTime": 6.0, "pitch": 77, "pitchName": "F", "quantizedEndStep": "24", "quantizedStartStep": "22", "startTime": 5.5, "velocity": 100}, {"endTime": 6.5, "pitch": 71, "pitchName": "B", "quantizedEndStep": "26", "quantizedStartStep": "24", "startTime": 6.0, "velocity": 100}, {"endTime": 7.0, "pitch": 71, "pitchName": "B", "quantizedEndStep": "28", "quantizedStartStep": "26", "startTime": 6.5, "velocity": 100}, {"endTime": 7.5, "pitch": 71, "pitchName": "B", "quantizedEndStep": "30", "quantizedStartStep": "28", "startTime": 7.0, "velocity": 100}, {"endTime": 8.0, "pitch": 68, "pitchName": "G_SHARP", "quantizedEndStep": "32", "quantizedStartStep": "30", "startTime": 7.5, "velocity": 100}], "quantizationInfo": {"stepsPerQuarter": 4}, "tempos": [{"qpm": 60.0}], "ticksPerQuarter": 220, "timeSignatures": [{"denominator": 4, "numerator": 4}], "totalQuantizedSteps": "32", "totalTime": 8.0}, {"keySignatures": [{"mode": "NOT_SPECIFIED"}], "notes": [{"endTime": 0.5, "pitch": 71, "pitchName": "B", "quantizedEndStep": "2", "velocity": 100}, {"endTime": 1.0, "pitch": 71, "pitchName": "B", "quantizedEndStep": "4", "quantizedStartStep": "2", "startTime": 0.5, "velocity": 100}, {"endTime": 1.5, "pitch": 81, "pitchName": "A", "quantizedEndStep": "6", "quantizedStartStep": "4", "startTime": 1.0, "velocity": 100}, {"endTime": 2.0, "pitch": 57, "pitchName": "A", "quantizedEndStep": "8", "quantizedStartStep": "6", "startTime": 1.5, "velocity": 100}, {"endTime": 2.5, "pitch": 57, "pitchName": "A", "quantizedEndStep": "10", "quantizedStartStep": "8", "startTime": 2.0, "velocity": 100}, {"endTime": 3.0, "pitch": 81, "pitchName": "A", "quantizedEndStep": "12", "quantizedStartStep": "10", "startTime": 2.5, "velocity": 100}, {"endTime": 3.5, "pitch": 71, "pitchName": "B", "quantizedEndStep": "14", "quantizedStartStep": "12", "startTime": 3.0, "velocity": 100}, {"endTime": 4.0, "pitch": 70, "pitchName": "B_FLAT", "quantizedEndStep": "16", "quantizedStartStep": "14", "startTime": 3.5, "velocity": 100}, {"endTime": 4.5, "pitch": 70, "pitchName": "B_FLAT", "quantizedEndStep": "18", "quantizedStartStep": "16", "startTime": 4.0, "velocity": 100}, {"endTime": 5.0, "pitch": 67, "pitchName": "G", "quantizedEndStep": "20", "quantizedStartStep": "18", "startTime": 4.5, "velocity": 100}, {"endTime": 5.5, "pitch": 71, "pitchName": "B", "quantizedEndStep": "22", "quantizedStartStep": "20", "startTime": 5.0, "velocity": 100}, {"endTime": 6.0, "pitch": 77, "pitchName": "F", "quantizedEndStep": "24", "quantizedStartStep": "22", "startTime": 5.5, "velocity": 100}, {"endTime": 6.5, "pitch": 71, "pitchName": "B", "quantizedEndStep": "26", "quantizedStartStep": "24", "startTime": 6.0, "velocity": 100}, {"endTime": 7.0, "pitch": 71, "pitchName": "B", "quantizedEndStep": "28", "quantizedStartStep": "26", "startTime": 6.5, "velocity": 100}, {"endTime": 7.5, "pitch": 71, "pitchName": "B", "quantizedEndStep": "30", "quantizedStartStep": "28", "startTime": 7.0, "velocity": 100}, {"endTime": 8.0, "pitch": 68, "pitchName": "G_SHARP", "quantizedEndStep": "32", "quantizedStartStep": "30", "startTime": 7.5, "velocity": 100}], "quantizationInfo": {"stepsPerQuarter": 4}, "tempos": [{"qpm": 60.0}], "ticksPerQuarter": 220, "timeSignatures": [{"denominator": 4, "numerator": 4}], "totalQuantizedSteps": "32", "totalTime": 8.0}, {"keySignatures": [{"mode": "NOT_SPECIFIED"}], "notes": [{"endTime": 0.25, "pitch": 62, "pitchName": "D", "quantizedEndStep": "2", "velocity": 100}, {"endTime": 0.5, "pitch": 62, "pitchName": "D", "quantizedEndStep": "4", "quantizedStartStep": "2", "startTime": 0.25, "velocity": 100}, {"endTime": 1.0, "pitch": 74, "pitchName": "D", "quantizedEndStep": "8", "quantizedStartStep": "4", "startTime": 0.5, "velocity": 100}, {"endTime": 1.25, "pitch": 69, "pitchName": "A", "quantizedEndStep": "10", "quantizedStartStep": "8", "startTime": 1.0, "velocity": 100}, {"endTime": 1.5, "pitch": 69, "pitchName": "A", "quantizedEndStep": "12", "quantizedStartStep": "10", "startTime": 1.25, "velocity": 100}, {"endTime": 1.75, "pitch": 67, "pitchName": "G", "quantizedEndStep": "14", "quantizedStartStep": "12", "startTime": 1.5, "velocity": 100}, {"endTime": 2.0, "pitch": 65, "pitchName": "F", "quantizedEndStep": "16", "quantizedStartStep": "14", "startTime": 1.75, "velocity": 100}, {"endTime": 2.25, "pitch": 65, "pitchName": "F", "quantizedEndStep": "18", "quantizedStartStep": "16", "startTime": 2.0, "velocity": 100}, {"endTime": 2.5, "pitch": 62, "pitchName": "D", "quantizedEndStep": "20", "quantizedStartStep": "18", "startTime": 2.25, "velocity": 100}, {"endTime": 2.75, "pitch": 65, "pitchName": "F", "quantizedEndStep": "22", "quantizedStartStep": "20", "startTime": 2.5, "velocity": 100}, {"endTime": 3.0, "pitch": 67, "pitchName": "G", "quantizedEndStep": "24", "quantizedStartStep": "22", "startTime": 2.75, "velocity": 100}, {"endTime": 3.25, "pitch": 60, "pitchName": "C", "quantizedEndStep": "26", "quantizedStartStep": "24", "startTime": 3.0, "velocity": 100}, {"endTime": 3.5, "pitch": 60, "pitchName": "C", "quantizedEndStep": "28", "quantizedStartStep": "26", "startTime": 3.25, "velocity": 100}, {"endTime": 4.0, "pitch": 74, "pitchName": "D", "quantizedEndStep": "32", "quantizedStartStep": "28", "startTime": 3.5, "velocity": 100}], "quantizationInfo": {"stepsPerQuarter": 4}, "tempos": [{"qpm": 120.0}], "ticksPerQuarter": 220, "timeSignatures": [{"denominator": 4, "numerator": 4}], "totalQuantizedSteps": "32", "totalTime": 4.0}, {"keySignatures": [{"key": "F", "mode": "NOT_SPECIFIED"}], "notes": [{"endTime": 0.25, "pitch": 62, "pitchName": "D", "quantizedEndStep": "2", "velocity": 100}, {"endTime": 0.5, "pitch": 62, "pitchName": "D", "quantizedEndStep": "4", "quantizedStartStep": "2", "startTime": 0.25, "velocity": 100}, {"endTime": 1.0, "pitch": 74, "pitchName": "D", "quantizedEndStep": "8", "quantizedStartStep": "4", "startTime": 0.5, "velocity": 100}, {"endTime": 1.25, "pitch": 69, "pitchName": "A", "quantizedEndStep": "10", "quantizedStartStep": "8", "startTime": 1.0, "velocity": 100}, {"endTime": 1.5, "pitch": 69, "pitchName": "A", "quantizedEndStep": "12", "quantizedStartStep": "10", "startTime": 1.25, "velocity": 100}, {"endTime": 1.75, "pitch": 67, "pitchName": "G", "quantizedEndStep": "14", "quantizedStartStep": "12", "startTime": 1.5, "velocity": 100}, {"endTime": 2.0, "pitch": 65, "pitchName": "F", "quantizedEndStep": "16", "quantizedStartStep": "14", "startTime": 1.75, "velocity": 100}, {"endTime": 2.25, "pitch": 65, "pitchName": "F", "quantizedEndStep": "18", "quantizedStartStep": "16", "startTime": 2.0, "velocity": 100}, {"endTime": 2.5, "pitch": 62, "pitchName": "D", "quantizedEndStep": "20", "quantizedStartStep": "18", "startTime": 2.25, "velocity": 100}, {"endTime": 2.75, "pitch": 65, "pitchName": "F", "quantizedEndStep": "22", "quantizedStartStep": "20", "startTime": 2.5, "velocity": 100}, {"endTime": 3.0, "pitch": 67, "pitchName": "G", "quantizedEndStep": "24", "quantizedStartStep": "22", "startTime": 2.75, "velocity": 100}, {"endTime": 3.25, "pitch": 60, "pitchName": "C", "quantizedEndStep": "26", "quantizedStartStep": "24", "startTime": 3.0, "velocity": 100}, {"endTime": 3.5, "pitch": 60, "pitchName": "C", "quantizedEndStep": "28", "quantizedStartStep": "26", "startTime": 3.25, "velocity": 100}, {"endTime": 4.0, "pitch": 74, "pitchName": "D", "quantizedEndStep": "32", "quantizedStartStep": "28", "startTime": 3.5, "velocity": 100}], "quantizationInfo": {"stepsPerQuarter": 4}, "tempos": [{"qpm": 120.0}], "ticksPerQuarter": 220, "timeSignatures": [{"denominator": 4, "numerator": 4}], "totalQuantizedSteps": "32", "totalTime": 4.0}, {"keySignatures": [{"mode": "NOT_SPECIFIED"}], "notes": [{"endTime": 0.25, "pitch": 72, "pitchName": "C", "quantizedEndStep": "2", "velocity": 100}, {"endTime": 0.5, "pitch": 72, "pitchName": "C", "quantizedEndStep": "4", "quantizedStartStep": "2", "startTime": 0.25, "velocity": 100}, {"endTime": 1.0, "pitch": 79, "pitchName": "G", "quantizedEndStep": "8", "quantizedStartStep": "4", "startTime": 0.5, "velocity": 100}, {"endTime": 1.25, "pitch": 81, "pitchName": "A", "quantizedEndStep": "10", "quantizedStartStep": "8", "startTime": 1.0, "velocity": 100}, {"endTime": 1.5, "pitch": 81, "pitchName": "A", "quantizedEndStep": "12", "quantizedStartStep": "10", "startTime": 1.25, "velocity": 100}, {"endTime": 2.0, "pitch": 79, "pitchName": "G", "quantizedEndStep": "16", "quantizedStartStep": "12", "startTime": 1.5, "velocity": 100}, {"endTime": 2.25, "pitch": 77, "pitchName": "F", "quantizedEndStep": "18", "quantizedStartStep": "16", "startTime": 2.0, "velocity": 100}, {"endTime": 2.5, "pitch": 77, "pitchName": "F", "quantizedEndStep": "20", "quantizedStartStep": "18", "startTime": 2.25, "velocity": 100}, {"endTime": 2.75, "pitch": 76, "pitchName": "E", "quantizedEndStep": "22", "quantizedStartStep": "20", "startTime": 2.5, "velocity": 100}, {"endTime": 3.0, "pitch": 76, "pitchName": "E", "quantizedEndStep": "24", "quantizedStartStep": "22", "startTime": 2.75, "velocity": 100}, {"endTime": 3.25, "pitch": 74, "pitchName": "D", "quantizedEndStep": "26", "quantizedStartStep": "24", "startTime": 3.0, "velocity": 100}, {"endTime": 3.5, "pitch": 74, "pitchName": "D", "quantizedEndStep": "28", "quantizedStartStep": "26", "startTime": 3.25, "velocity": 100}, {"endTime": 4.0, "pitch": 72, "pitchName": "C", "quantizedEndStep": "32", "quantizedStartStep": "28", "startTime": 3.5, "velocity": 100}], "quantizationInfo": {"stepsPerQuarter": 4}, "tempos": [{"qpm": 120.0}], "ticksPerQuarter": 220, "timeSignatures": [{"denominator": 4, "numerator": 4}], "totalQuantizedSteps": "32", "totalTime": 4.0}, {"keySignatures": [{"key": "F", "mode": "NOT_SPECIFIED"}], "notes": [{"endTime": 0.125, "pitch": 62, "pitchName": "D", "quantizedEndStep": "1", "velocity": 100}, {"endTime": 0.25, "pitch": 62, "pitchName": "D", "quantizedEndStep": "2", "quantizedStartStep": "1", "startTime": 0.125, "velocity": 100}, {"endTime": 0.5, "pitch": 74, "pitchName": "D", "quantizedEndStep": "4", "quantizedStartStep": "2", "startTime": 0.25, "velocity": 100}, {"endTime": 0.875, "pitch": 69, "pitchName": "A", "quantizedEndStep": "7", "quantizedStartStep": "4", "startTime": 0.5, "velocity": 100}, {"endTime": 1.0, "pitch": 69, "pitchName": "A", "quantizedEndStep": "8", "quantizedStartStep": "7", "startTime": 0.875, "velocity": 100}, {"endTime": 1.25, "pitch": 67, "pitchName": "G", "quantizedEndStep": "10", "quantizedStartStep": "9", "startTime": 1.125, "velocity": 100}, {"endTime": 1.5, "pitch": 65, "pitchName": "F", "quantizedEndStep": "12", "quantizedStartStep": "11", "startTime": 1.375, "velocity": 100}, {"endTime": 1.625, "pitch": 65, "pitchName": "F", "quantizedEndStep": "13", "quantizedStartStep": "12", "startTime": 1.5, "velocity": 100}, {"endTime": 1.75, "pitch": 62, "pitchName": "D", "quantizedEndStep": "14", "quantizedStartStep": "13", "startTime": 1.625, "velocity": 100}, {"endTime": 1.875, "pitch": 65, "pitchName": "F", "quantizedEndStep": "15", "quantizedStartStep": "14", "startTime": 1.75, "velocity": 100}, {"endTime": 2.0, "pitch": 67, "pitchName": "G", "quantizedEndStep": "16", "quantizedStartStep": "15", "startTime": 1.875, "velocity": 100}, {"endTime": 2.125, "pitch": 60, "pitchName": "C", "quantizedEndStep": "17", "quantizedStartStep": "16", "startTime": 2.0, "velocity": 100}, {"endTime": 2.25, "pitch": 60, "pitchName": "C", "quantizedEndStep": "18", "quantizedStartStep": "17", "startTime": 2.125, "velocity": 100}, {"endTime": 2.5, "pitch": 74, "pitchName": "D", "quantizedEndStep": "20", "quantizedStartStep": "18", "startTime": 2.25, "velocity": 100}, {"endTime": 2.875, "pitch": 69, "pitchName": "A", "quantizedEndStep": "23", "quantizedStartStep": "20", "startTime": 2.5, "velocity": 100}, {"endTime": 3.0, "pitch": 69, "pitchName": "A", "quantizedEndStep": "24", "quantizedStartStep": "23", "startTime": 2.875, "velocity": 100}, {"endTime": 3.375, "pitch": 67, "pitchName": "G", "quantizedEndStep": "27", "quantizedStartStep": "24", "startTime": 3.0, "velocity": 100}, {"endTime": 3.5, "pitch": 65, "pitchName": "F", "quantizedEndStep": "28", "quantizedStartStep": "27", "startTime": 3.375, "velocity": 100}, {"endTime": 3.625, "pitch": 65, "pitchName": "F", "quantizedEndStep": "29", "quantizedStartStep": "28", "startTime": 3.5, "velocity": 100}, {"endTime": 3.75, "pitch": 62, "pitchName": "D", "quantizedEndStep": "30", "quantizedStartStep": "29", "startTime": 3.625, "velocity": 100}, {"endTime": 3.875, "pitch": 65, "pitchName": "F", "quantizedEndStep": "31", "quantizedStartStep": "30", "startTime": 3.75, "velocity": 100}, {"endTime": 4.0, "pitch": 67, "pitchName": "G", "quantizedEndStep": "32", "quantizedStartStep": "31", "startTime": 3.875, "velocity": 100}], "quantizationInfo": {"stepsPerQuarter": 4}, "tempos": [{"qpm": 120.0}], "ticksPerQuarter": 220, "timeSignatures": [{"denominator": 4, "numerator": 4}], "totalQuantizedSteps": "32", "totalTime": 4.0}], "key_sig": ["", "", "0", "0", "0", "11", "0", "-1"], "loops_listened": [5, 2, 3, 4, 19, 9, 5, 13], "output_sequence": [{"notes": [{"endTime": 0.5, "pitch": 72, "quantizedEndStep": "2", "velocity": 100}, {"endTime": 1.0, "pitch": 69, "quantizedEndStep": "4", "quantizedStartStep": "2", "startTime": 0.5, "velocity": 100}, {"endTime": 1.5, "pitch": 74, "quantizedEndStep": "6", "quantizedStartStep": "4", "startTime": 1.0, "velocity": 100}, {"endTime": 2.0, "pitch": 71, "quantizedEndStep": "8", "quantizedStartStep": "6", "startTime": 1.5, "velocity": 100}, {"endTime": 2.5, "pitch": 74, "quantizedEndStep": "10", "quantizedStartStep": "8", "startTime": 2.0, "velocity": 100}, {"endTime": 3.0, "pitch": 64, "quantizedEndStep": "12", "quantizedStartStep": "10", "startTime": 2.5, "velocity": 100}, {"endTime": 3.5, "pitch": 69, "quantizedEndStep": "14", "quantizedStartStep": "12", "startTime": 3.0, "velocity": 100}, {"endTime": 4.0, "pitch": 72, "quantizedEndStep": "16", "quantizedStartStep": "14", "startTime": 3.5, "velocity": 100}, {"endTime": 4.5, "pitch": 65, "quantizedEndStep": "18", "quantizedStartStep": "16", "startTime": 4.0, "velocity": 100}, {"endTime": 5.0, "pitch": 76, "quantizedEndStep": "20", "quantizedStartStep": "18", "startTime": 4.5, "velocity": 100}, {"endTime": 6.0, "pitch": 69, "quantizedEndStep": "24", "quantizedStartStep": "20", "startTime": 5.0, "velocity": 100}, {"endTime": 7.0, "pitch": 71, "quantizedEndStep": "28", "quantizedStartStep": "24", "startTime": 6.0, "velocity": 100}, {"endTime": 7.5, "pitch": 74, "quantizedEndStep": "30", "quantizedStartStep": "28", "startTime": 7.0, "velocity": 100}, {"endTime": 8.0, "pitch": 69, "quantizedEndStep": "32", "quantizedStartStep": "30", "startTime": 7.5, "velocity": 100}, {"endTime": 1.0, "instrument": 1, "pitch": 69, "quantizedEndStep": "4", "velocity": 100}, {"endTime": 2.0, "instrument": 1, "pitch": 65, "quantizedEndStep": "8", "quantizedStartStep": "4", "startTime": 1.0, "velocity": 100}, {"endTime": 4.0, "instrument": 1, "pitch": 64, "quantizedEndStep": "16", "quantizedStartStep": "8", "startTime": 2.0, "velocity": 100}, {"endTime": 5.0, "instrument": 1, "pitch": 64, "quantizedEndStep": "20", "quantizedStartStep": "16", "startTime": 4.0, "velocity": 100}, {"endTime": 6.0, "instrument": 1, "pitch": 69, "quantizedEndStep": "24", "quantizedStartStep": "20", "startTime": 5.0, "velocity": 100}, {"endTime": 7.0, "instrument": 1, "pitch": 67, "quantizedEndStep": "28", "quantizedStartStep": "24", "startTime": 6.0, "velocity": 100}, {"endTime": 8.0, "instrument": 1, "pitch": 66, "quantizedEndStep": "32", "quantizedStartStep": "28", "startTime": 7.0, "velocity": 100}, {"endTime": 1.0, "instrument": 2, "pitch": 65, "quantizedEndStep": "4", "velocity": 100}, {"endTime": 1.5, "instrument": 2, "pitch": 59, "quantizedEndStep": "6", "quantizedStartStep": "4", "startTime": 1.0, "velocity": 100}, {"endTime": 2.0, "instrument": 2, "pitch": 60, "quantizedEndStep": "8", "quantizedStartStep": "6", "startTime": 1.5, "velocity": 100}, {"endTime": 3.0, "instrument": 2, "pitch": 62, "quantizedEndStep": "12", "quantizedStartStep": "8", "startTime": 2.0, "velocity": 100}, {"endTime": 4.0, "instrument": 2, "pitch": 60, "quantizedEndStep": "16", "quantizedStartStep": "12", "startTime": 3.0, "velocity": 100}, {"endTime": 4.5, "instrument": 2, "pitch": 60, "quantizedEndStep": "18", "quantizedStartStep": "16", "startTime": 4.0, "velocity": 100}, {"endTime": 5.0, "instrument": 2, "pitch": 59, "quantizedEndStep": "20", "quantizedStartStep": "18", "startTime": 4.5, "velocity": 100}, {"endTime": 5.5, "instrument": 2, "pitch": 60, "quantizedEndStep": "22", "quantizedStartStep": "20", "startTime": 5.0, "velocity": 100}, {"endTime": 8.0, "instrument": 2, "pitch": 62, "quantizedEndStep": "32", "quantizedStartStep": "22", "startTime": 5.5, "velocity": 100}, {"endTime": 0.5, "instrument": 3, "pitch": 53, "quantizedEndStep": "2", "velocity": 100}, {"endTime": 1.0, "instrument": 3, "pitch": 54, "quantizedEndStep": "4", "quantizedStartStep": "2", "startTime": 0.5, "velocity": 100}, {"endTime": 3.0, "instrument": 3, "pitch": 56, "quantizedEndStep": "12", "quantizedStartStep": "4", "startTime": 1.0, "velocity": 100}, {"endTime": 4.0, "instrument": 3, "pitch": 57, "quantizedEndStep": "16", "quantizedStartStep": "12", "startTime": 3.0, "velocity": 100}, {"endTime": 4.5, "instrument": 3, "pitch": 57, "quantizedEndStep": "18", "quantizedStartStep": "16", "startTime": 4.0, "velocity": 100}, {"endTime": 5.0, "instrument": 3, "pitch": 55, "quantizedEndStep": "20", "quantizedStartStep": "18", "startTime": 4.5, "velocity": 100}, {"endTime": 5.5, "instrument": 3, "pitch": 54, "quantizedEndStep": "22", "quantizedStartStep": "20", "startTime": 5.0, "velocity": 100}, {"endTime": 6.0, "instrument": 3, "pitch": 50, "quantizedEndStep": "24", "quantizedStartStep": "22", "startTime": 5.5, "velocity": 100}, {"endTime": 7.0, "instrument": 3, "pitch": 55, "quantizedEndStep": "28", "quantizedStartStep": "24", "startTime": 6.0, "velocity": 100}, {"endTime": 8.0, "instrument": 3, "pitch": 50, "quantizedEndStep": "32", "quantizedStartStep": "28", "startTime": 7.0, "velocity": 100}], "quantizationInfo": {"stepsPerQuarter": 4}, "tempos": [{"qpm": 60.0}], "ticksPerQuarter": 220, "timeSignatures": [{"denominator": 4, "numerator": 4}], "totalQuantizedSteps": "32", "totalTime": 8.0}, {"notes": [{"endTime": 0.5, "pitch": 72, "quantizedEndStep": "2", "velocity": 100}, {"endTime": 1.0, "pitch": 69, "quantizedEndStep": "4", "quantizedStartStep": "2", "startTime": 0.5, "velocity": 100}, {"endTime": 1.5, "pitch": 74, "quantizedEndStep": "6", "quantizedStartStep": "4", "startTime": 1.0, "velocity": 100}, {"endTime": 2.0, "pitch": 71, "quantizedEndStep": "8", "quantizedStartStep": "6", "startTime": 1.5, "velocity": 100}, {"endTime": 2.5, "pitch": 74, "quantizedEndStep": "10", "quantizedStartStep": "8", "startTime": 2.0, "velocity": 100}, {"endTime": 3.0, "pitch": 64, "quantizedEndStep": "12", "quantizedStartStep": "10", "startTime": 2.5, "velocity": 100}, {"endTime": 3.5, "pitch": 69, "quantizedEndStep": "14", "quantizedStartStep": "12", "startTime": 3.0, "velocity": 100}, {"endTime": 4.0, "pitch": 72, "quantizedEndStep": "16", "quantizedStartStep": "14", "startTime": 3.5, "velocity": 100}, {"endTime": 4.5, "pitch": 65, "quantizedEndStep": "18", "quantizedStartStep": "16", "startTime": 4.0, "velocity": 100}, {"endTime": 5.0, "pitch": 76, "quantizedEndStep": "20", "quantizedStartStep": "18", "startTime": 4.5, "velocity": 100}, {"endTime": 5.5, "pitch": 81, "quantizedEndStep": "22", "quantizedStartStep": "20", "startTime": 5.0, "velocity": 100}, {"endTime": 6.5, "pitch": 71, "quantizedEndStep": "26", "quantizedStartStep": "22", "startTime": 5.5, "velocity": 100}, {"endTime": 7.0, "pitch": 81, "quantizedEndStep": "28", "quantizedStartStep": "26", "startTime": 6.5, "velocity": 100}, {"endTime": 7.5, "pitch": 74, "quantizedEndStep": "30", "quantizedStartStep": "28", "startTime": 7.0, "velocity": 100}, {"endTime": 8.0, "pitch": 69, "quantizedEndStep": "32", "quantizedStartStep": "30", "startTime": 7.5, "velocity": 100}, {"endTime": 1.5, "instrument": 1, "pitch": 60, "quantizedEndStep": "6", "velocity": 100}, {"endTime": 2.5, "instrument": 1, "pitch": 62, "quantizedEndStep": "10", "quantizedStartStep": "6", "startTime": 1.5, "velocity": 100}, {"endTime": 4.0, "instrument": 1, "pitch": 60, "quantizedEndStep": "16", "quantizedStartStep": "10", "startTime": 2.5, "velocity": 100}, {"endTime": 4.5, "instrument": 1, "pitch": 62, "quantizedEndStep": "18", "quantizedStartStep": "16", "startTime": 4.0, "velocity": 100}, {"endTime": 6.5, "instrument": 1, "pitch": 67, "quantizedEndStep": "26", "quantizedStartStep": "18", "startTime": 4.5, "velocity": 100}, {"endTime": 8.0, "instrument": 1, "pitch": 69, "quantizedEndStep": "32", "quantizedStartStep": "26", "startTime": 6.5, "velocity": 100}, {"endTime": 0.5, "instrument": 2, "pitch": 67, "quantizedEndStep": "2", "velocity": 100}, {"endTime": 1.5, "instrument": 2, "pitch": 65, "quantizedEndStep": "6", "quantizedStartStep": "2", "startTime": 0.5, "velocity": 100}, {"endTime": 2.5, "instrument": 2, "pitch": 67, "quantizedEndStep": "10", "quantizedStartStep": "6", "startTime": 1.5, "velocity": 100}, {"endTime": 3.5, "instrument": 2, "pitch": 55, "quantizedEndStep": "14", "quantizedStartStep": "10", "startTime": 2.5, "velocity": 100}, {"endTime": 4.0, "instrument": 2, "pitch": 57, "quantizedEndStep": "16", "quantizedStartStep": "14", "startTime": 3.5, "velocity": 100}, {"endTime": 4.25, "instrument": 2, "pitch": 59, "quantizedEndStep": "17", "quantizedStartStep": "16", "startTime": 4.0, "velocity": 100}, {"endTime": 4.5, "instrument": 2, "pitch": 57, "quantizedEndStep": "18", "quantizedStartStep": "17", "startTime": 4.25, "velocity": 100}, {"endTime": 5.0, "instrument": 2, "pitch": 60, "quantizedEndStep": "20", "quantizedStartStep": "18", "startTime": 4.5, "velocity": 100}, {"endTime": 5.5, "instrument": 2, "pitch": 62, "quantizedEndStep": "22", "quantizedStartStep": "20", "startTime": 5.0, "velocity": 100}, {"endTime": 6.0, "instrument": 2, "pitch": 64, "quantizedEndStep": "24", "quantizedStartStep": "22", "startTime": 5.5, "velocity": 100}, {"endTime": 6.25, "instrument": 2, "pitch": 62, "quantizedEndStep": "25", "quantizedStartStep": "24", "startTime": 6.0, "velocity": 100}, {"endTime": 7.0, "instrument": 2, "pitch": 60, "quantizedEndStep": "28", "quantizedStartStep": "25", "startTime": 6.25, "velocity": 100}, {"endTime": 7.5, "instrument": 2, "pitch": 64, "quantizedEndStep": "30", "quantizedStartStep": "28", "startTime": 7.0, "velocity": 100}, {"endTime": 8.0, "instrument": 2, "pitch": 63, "quantizedEndStep": "32", "quantizedStartStep": "30", "startTime": 7.5, "velocity": 100}, {"endTime": 0.5, "instrument": 3, "pitch": 36, "quantizedEndStep": "2", "velocity": 100}, {"endTime": 1.5, "instrument": 3, "pitch": 53, "quantizedEndStep": "6", "quantizedStartStep": "2", "startTime": 0.5, "velocity": 100}, {"endTime": 2.5, "instrument": 3, "pitch": 47, "quantizedEndStep": "10", "quantizedStartStep": "6", "startTime": 1.5, "velocity": 100}, {"endTime": 3.5, "instrument": 3, "pitch": 48, "quantizedEndStep": "14", "quantizedStartStep": "10", "startTime": 2.5, "velocity": 100}, {"endTime": 4.0, "instrument": 3, "pitch": 53, "quantizedEndStep": "16", "quantizedStartStep": "14", "startTime": 3.5, "velocity": 100}, {"endTime": 4.5, "instrument": 3, "pitch": 53, "quantizedEndStep": "18", "quantizedStartStep": "16", "startTime": 4.0, "velocity": 100}, {"endTime": 6.5, "instrument": 3, "pitch": 52, "quantizedEndStep": "26", "quantizedStartStep": "18", "startTime": 4.5, "velocity": 100}, {"endTime": 8.0, "instrument": 3, "pitch": 54, "quantizedEndStep": "32", "quantizedStartStep": "26", "startTime": 6.5, "velocity": 100}], "quantizationInfo": {"stepsPerQuarter": 4}, "tempos": [{"qpm": 60.0}], "ticksPerQuarter": 220, "timeSignatures": [{"denominator": 4, "numerator": 4}], "totalQuantizedSteps": "32", "totalTime": 8.0}, {"keySignatures": [{"mode": "NOT_SPECIFIED"}], "notes": [{"endTime": 4.0, "pitch": 71, "quantizedEndStep": "16", "velocity": 100}, {"endTime": 5.5, "pitch": 71, "quantizedEndStep": "22", "quantizedStartStep": "16", "startTime": 4.0, "velocity": 100}, {"endTime": 6.0, "pitch": 77, "quantizedEndStep": "24", "quantizedStartStep": "22", "startTime": 5.5, "velocity": 100}, {"endTime": 7.5, "pitch": 71, "quantizedEndStep": "30", "quantizedStartStep": "24", "startTime": 6.0, "velocity": 100}, {"endTime": 8.0, "pitch": 68, "quantizedEndStep": "32", "quantizedStartStep": "30", "startTime": 7.5, "velocity": 100}, {"endTime": 4.0, "instrument": 1, "pitch": 68, "quantizedEndStep": "16", "velocity": 100}, {"endTime": 5.0, "instrument": 1, "pitch": 68, "quantizedEndStep": "20", "quantizedStartStep": "16", "startTime": 4.0, "velocity": 100}, {"endTime": 5.5, "instrument": 1, "pitch": 69, "quantizedEndStep": "22", "quantizedStartStep": "20", "startTime": 5.0, "velocity": 100}, {"endTime": 6.5, "instrument": 1, "pitch": 71, "quantizedEndStep": "26", "quantizedStartStep": "22", "startTime": 5.5, "velocity": 100}, {"endTime": 7.0, "instrument": 1, "pitch": 64, "quantizedEndStep": "28", "quantizedStartStep": "26", "startTime": 6.5, "velocity": 100}, {"endTime": 7.5, "instrument": 1, "pitch": 66, "quantizedEndStep": "30", "quantizedStartStep": "28", "startTime": 7.0, "velocity": 100}, {"endTime": 8.0, "instrument": 1, "pitch": 64, "quantizedEndStep": "32", "quantizedStartStep": "30", "startTime": 7.5, "velocity": 100}, {"endTime": 4.0, "instrument": 2, "pitch": 64, "quantizedEndStep": "16", "velocity": 100}, {"endTime": 5.5, "instrument": 2, "pitch": 64, "quantizedEndStep": "22", "quantizedStartStep": "16", "startTime": 4.0, "velocity": 100}, {"endTime": 6.5, "instrument": 2, "pitch": 66, "quantizedEndStep": "26", "quantizedStartStep": "22", "startTime": 5.5, "velocity": 100}, {"endTime": 7.0, "instrument": 2, "pitch": 68, "quantizedEndStep": "28", "quantizedStartStep": "26", "startTime": 6.5, "velocity": 100}, {"endTime": 7.5, "instrument": 2, "pitch": 56, "quantizedEndStep": "30", "quantizedStartStep": "28", "startTime": 7.0, "velocity": 100}, {"endTime": 8.0, "instrument": 2, "pitch": 61, "quantizedEndStep": "32", "quantizedStartStep": "30", "startTime": 7.5, "velocity": 100}, {"endTime": 4.0, "instrument": 3, "pitch": 52, "quantizedEndStep": "16", "velocity": 100}, {"endTime": 4.5, "instrument": 3, "pitch": 52, "quantizedEndStep": "18", "quantizedStartStep": "16", "startTime": 4.0, "velocity": 100}, {"endTime": 5.0, "instrument": 3, "pitch": 51, "quantizedEndStep": "20", "quantizedStartStep": "18", "startTime": 4.5, "velocity": 100}, {"endTime": 5.5, "instrument": 3, "pitch": 49, "quantizedEndStep": "22", "quantizedStartStep": "20", "startTime": 5.0, "velocity": 100}, {"endTime": 6.5, "instrument": 3, "pitch": 51, "quantizedEndStep": "26", "quantizedStartStep": "22", "startTime": 5.5, "velocity": 100}, {"endTime": 7.5, "instrument": 3, "pitch": 52, "quantizedEndStep": "30", "quantizedStartStep": "26", "startTime": 6.5, "velocity": 100}, {"endTime": 8.0, "instrument": 3, "pitch": 49, "quantizedEndStep": "32", "quantizedStartStep": "30", "startTime": 7.5, "velocity": 100}], "quantizationInfo": {"stepsPerQuarter": 4}, "tempos": [{"qpm": 60.0}], "ticksPerQuarter": 220, "timeSignatures": [{"denominator": 4, "numerator": 4}], "totalQuantizedSteps": "32", "totalTime": 8.0}, {"keySignatures": [{"mode": "NOT_SPECIFIED"}], "notes": [{"endTime": 1.0, "pitch": 71, "quantizedEndStep": "4", "velocity": 100}, {"endTime": 1.5, "pitch": 81, "quantizedEndStep": "6", "quantizedStartStep": "4", "startTime": 1.0, "velocity": 100}, {"endTime": 2.5, "pitch": 57, "quantizedEndStep": "10", "quantizedStartStep": "6", "startTime": 1.5, "velocity": 100}, {"endTime": 2.75, "pitch": 81, "quantizedEndStep": "11", "quantizedStartStep": "10", "startTime": 2.5, "velocity": 100}, {"endTime": 3.5, "pitch": 71, "quantizedEndStep": "14", "quantizedStartStep": "11", "startTime": 2.75, "velocity": 100}, {"endTime": 4.0, "pitch": 70, "quantizedEndStep": "16", "quantizedStartStep": "14", "startTime": 3.5, "velocity": 100}, {"endTime": 4.5, "pitch": 70, "quantizedEndStep": "18", "quantizedStartStep": "16", "startTime": 4.0, "velocity": 100}, {"endTime": 5.0, "pitch": 67, "quantizedEndStep": "20", "quantizedStartStep": "18", "startTime": 4.5, "velocity": 100}, {"endTime": 5.5, "pitch": 71, "quantizedEndStep": "22", "quantizedStartStep": "20", "startTime": 5.0, "velocity": 100}, {"endTime": 6.0, "pitch": 77, "quantizedEndStep": "24", "quantizedStartStep": "22", "startTime": 5.5, "velocity": 100}, {"endTime": 7.5, "pitch": 71, "quantizedEndStep": "30", "quantizedStartStep": "24", "startTime": 6.0, "velocity": 100}, {"endTime": 8.0, "pitch": 68, "quantizedEndStep": "32", "quantizedStartStep": "30", "startTime": 7.5, "velocity": 100}, {"endTime": 1.5, "instrument": 1, "pitch": 67, "quantizedEndStep": "6", "velocity": 100}, {"endTime": 2.5, "instrument": 1, "pitch": 66, "quantizedEndStep": "10", "quantizedStartStep": "6", "startTime": 1.5, "velocity": 100}, {"endTime": 3.5, "instrument": 1, "pitch": 67, "quantizedEndStep": "14", "quantizedStartStep": "10", "startTime": 2.5, "velocity": 100}, {"endTime": 4.0, "instrument": 1, "pitch": 66, "quantizedEndStep": "16", "quantizedStartStep": "14", "startTime": 3.5, "velocity": 100}, {"endTime": 5.5, "instrument": 1, "pitch": 66, "quantizedEndStep": "22", "quantizedStartStep": "16", "startTime": 4.0, "velocity": 100}, {"endTime": 6.5, "instrument": 1, "pitch": 64, "quantizedEndStep": "26", "quantizedStartStep": "22", "startTime": 5.5, "velocity": 100}, {"endTime": 7.5, "instrument": 1, "pitch": 66, "quantizedEndStep": "30", "quantizedStartStep": "26", "startTime": 6.5, "velocity": 100}, {"endTime": 8.0, "instrument": 1, "pitch": 64, "quantizedEndStep": "32", "quantizedStartStep": "30", "startTime": 7.5, "velocity": 100}, {"endTime": 0.5, "instrument": 2, "pitch": 62, "quantizedEndStep": "2", "velocity": 100}, {"endTime": 1.5, "instrument": 2, "pitch": 64, "quantizedEndStep": "6", "quantizedStartStep": "2", "startTime": 0.5, "velocity": 100}, {"endTime": 2.0, "instrument": 2, "pitch": 62, "quantizedEndStep": "8", "quantizedStartStep": "6", "startTime": 1.5, "velocity": 100}, {"endTime": 2.5, "instrument": 2, "pitch": 64, "quantizedEndStep": "10", "quantizedStartStep": "8", "startTime": 2.0, "velocity": 100}, {"endTime": 3.5, "instrument": 2, "pitch": 62, "quantizedEndStep": "14", "quantizedStartStep": "10", "startTime": 2.5, "velocity": 100}, {"endTime": 4.0, "instrument": 2, "pitch": 61, "quantizedEndStep": "16", "quantizedStartStep": "14", "startTime": 3.5, "velocity": 100}, {"endTime": 4.5, "instrument": 2, "pitch": 61, "quantizedEndStep": "18", "quantizedStartStep": "16", "startTime": 4.0, "velocity": 100}, {"endTime": 6.5, "instrument": 2, "pitch": 62, "quantizedEndStep": "26", "quantizedStartStep": "18", "startTime": 4.5, "velocity": 100}, {"endTime": 8.0, "instrument": 2, "pitch": 59, "quantizedEndStep": "32", "quantizedStartStep": "26", "startTime": 6.5, "velocity": 100}, {"endTime": 0.5, "instrument": 3, "pitch": 54, "quantizedEndStep": "2", "velocity": 100}, {"endTime": 1.5, "instrument": 3, "pitch": 48, "quantizedEndStep": "6", "quantizedStartStep": "2", "startTime": 0.5, "velocity": 100}, {"endTime": 2.5, "instrument": 3, "pitch": 50, "quantizedEndStep": "10", "quantizedStartStep": "6", "startTime": 1.5, "velocity": 100}, {"endTime": 3.5, "instrument": 3, "pitch": 47, "quantizedEndStep": "14", "quantizedStartStep": "10", "startTime": 2.5, "velocity": 100}, {"endTime": 4.0, "instrument": 3, "pitch": 54, "quantizedEndStep": "16", "quantizedStartStep": "14", "startTime": 3.5, "velocity": 100}, {"endTime": 4.5, "instrument": 3, "pitch": 54, "quantizedEndStep": "18", "quantizedStartStep": "16", "startTime": 4.0, "velocity": 100}, {"endTime": 5.0, "instrument": 3, "pitch": 59, "quantizedEndStep": "20", "quantizedStartStep": "18", "startTime": 4.5, "velocity": 100}, {"endTime": 5.5, "instrument": 3, "pitch": 57, "quantizedEndStep": "22", "quantizedStartStep": "20", "startTime": 5.0, "velocity": 100}, {"endTime": 6.5, "instrument": 3, "pitch": 56, "quantizedEndStep": "26", "quantizedStartStep": "22", "startTime": 5.5, "velocity": 100}, {"endTime": 7.5, "instrument": 3, "pitch": 51, "quantizedEndStep": "30", "quantizedStartStep": "26", "startTime": 6.5, "velocity": 100}, {"endTime": 8.0, "instrument": 3, "pitch": 52, "quantizedEndStep": "32", "quantizedStartStep": "30", "startTime": 7.5, "velocity": 100}], "quantizationInfo": {"stepsPerQuarter": 4}, "tempos": [{"qpm": 60.0}], "ticksPerQuarter": 220, "timeSignatures": [{"denominator": 4, "numerator": 4}], "totalQuantizedSteps": "32", "totalTime": 8.0}, {"keySignatures": [{"mode": "NOT_SPECIFIED"}], "notes": [{"endTime": 0.5, "pitch": 62, "quantizedEndStep": "4", "velocity": 100}, {"endTime": 1.0, "pitch": 74, "quantizedEndStep": "8", "quantizedStartStep": "4", "startTime": 0.5, "velocity": 100}, {"endTime": 1.5, "pitch": 69, "quantizedEndStep": "12", "quantizedStartStep": "8", "startTime": 1.0, "velocity": 100}, {"endTime": 1.75, "pitch": 67, "quantizedEndStep": "14", "quantizedStartStep": "12", "startTime": 1.5, "velocity": 100}, {"endTime": 2.0, "pitch": 65, "quantizedEndStep": "16", "quantizedStartStep": "14", "startTime": 1.75, "velocity": 100}, {"endTime": 2.25, "pitch": 65, "quantizedEndStep": "18", "quantizedStartStep": "16", "startTime": 2.0, "velocity": 100}, {"endTime": 2.5, "pitch": 62, "quantizedEndStep": "20", "quantizedStartStep": "18", "startTime": 2.25, "velocity": 100}, {"endTime": 2.75, "pitch": 65, "quantizedEndStep": "22", "quantizedStartStep": "20", "startTime": 2.5, "velocity": 100}, {"endTime": 3.0, "pitch": 67, "quantizedEndStep": "24", "quantizedStartStep": "22", "startTime": 2.75, "velocity": 100}, {"endTime": 3.5, "pitch": 60, "quantizedEndStep": "28", "quantizedStartStep": "24", "startTime": 3.0, "velocity": 100}, {"endTime": 4.0, "pitch": 74, "quantizedEndStep": "32", "quantizedStartStep": "28", "startTime": 3.5, "velocity": 100}, {"endTime": 0.5, "instrument": 1, "pitch": 57, "quantizedEndStep": "4", "velocity": 100}, {"endTime": 1.0, "instrument": 1, "pitch": 66, "quantizedEndStep": "8", "quantizedStartStep": "4", "startTime": 0.5, "velocity": 100}, {"endTime": 1.25, "instrument": 1, "pitch": 64, "quantizedEndStep": "10", "quantizedStartStep": "8", "startTime": 1.0, "velocity": 100}, {"endTime": 1.375, "instrument": 1, "pitch": 62, "quantizedEndStep": "11", "quantizedStartStep": "10", "startTime": 1.25, "velocity": 100}, {"endTime": 1.5, "instrument": 1, "pitch": 64, "quantizedEndStep": "12", "quantizedStartStep": "11", "startTime": 1.375, "velocity": 100}, {"endTime": 2.0, "instrument": 1, "pitch": 62, "quantizedEndStep": "16", "quantizedStartStep": "12", "startTime": 1.5, "velocity": 100}, {"endTime": 2.25, "instrument": 1, "pitch": 62, "quantizedEndStep": "18", "quantizedStartStep": "16", "startTime": 2.0, "velocity": 100}, {"endTime": 2.5, "instrument": 1, "pitch": 60, "quantizedEndStep": "20", "quantizedStartStep": "18", "startTime": 2.25, "velocity": 100}, {"endTime": 2.875, "instrument": 1, "pitch": 58, "quantizedEndStep": "23", "quantizedStartStep": "20", "startTime": 2.5, "velocity": 100}, {"endTime": 3.0, "instrument": 1, "pitch": 60, "quantizedEndStep": "24", "quantizedStartStep": "23", "startTime": 2.875, "velocity": 100}, {"endTime": 4.0, "instrument": 1, "pitch": 65, "quantizedEndStep": "32", "quantizedStartStep": "24", "startTime": 3.0, "velocity": 100}, {"endTime": 0.5, "instrument": 2, "pitch": 54, "quantizedEndStep": "4", "velocity": 100}, {"endTime": 1.5, "instrument": 2, "pitch": 57, "quantizedEndStep": "12", "quantizedStartStep": "4", "startTime": 0.5, "velocity": 100}, {"endTime": 1.75, "instrument": 2, "pitch": 58, "quantizedEndStep": "14", "quantizedStartStep": "12", "startTime": 1.5, "velocity": 100}, {"endTime": 2.0, "instrument": 2, "pitch": 55, "quantizedEndStep": "16", "quantizedStartStep": "14", "startTime": 1.75, "velocity": 100}, {"endTime": 2.25, "instrument": 2, "pitch": 57, "quantizedEndStep": "18", "quantizedStartStep": "16", "startTime": 2.0, "velocity": 100}, {"endTime": 2.375, "instrument": 2, "pitch": 58, "quantizedEndStep": "19", "quantizedStartStep": "18", "startTime": 2.25, "velocity": 100}, {"endTime": 2.5, "instrument": 2, "pitch": 57, "quantizedEndStep": "20", "quantizedStartStep": "19", "startTime": 2.375, "velocity": 100}, {"endTime": 2.75, "instrument": 2, "pitch": 55, "quantizedEndStep": "22", "quantizedStartStep": "20", "startTime": 2.5, "velocity": 100}, {"endTime": 3.0, "instrument": 2, "pitch": 57, "quantizedEndStep": "24", "quantizedStartStep": "22", "startTime": 2.75, "velocity": 100}, {"endTime": 3.25, "instrument": 2, "pitch": 58, "quantizedEndStep": "26", "quantizedStartStep": "24", "startTime": 3.0, "velocity": 100}, {"endTime": 3.5, "instrument": 2, "pitch": 55, "quantizedEndStep": "28", "quantizedStartStep": "26", "startTime": 3.25, "velocity": 100}, {"endTime": 3.75, "instrument": 2, "pitch": 57, "quantizedEndStep": "30", "quantizedStartStep": "28", "startTime": 3.5, "velocity": 100}, {"endTime": 4.0, "instrument": 2, "pitch": 59, "quantizedEndStep": "32", "quantizedStartStep": "30", "startTime": 3.75, "velocity": 100}, {"endTime": 1.0, "instrument": 3, "pitch": 50, "quantizedEndStep": "8", "velocity": 100}, {"endTime": 1.5, "instrument": 3, "pitch": 48, "quantizedEndStep": "12", "quantizedStartStep": "8", "startTime": 1.0, "velocity": 100}, {"endTime": 2.0, "instrument": 3, "pitch": 46, "quantizedEndStep": "16", "quantizedStartStep": "12", "startTime": 1.5, "velocity": 100}, {"endTime": 2.5, "instrument": 3, "pitch": 45, "quantizedEndStep": "20", "quantizedStartStep": "16", "startTime": 2.0, "velocity": 100}, {"endTime": 2.75, "instrument": 3, "pitch": 43, "quantizedEndStep": "22", "quantizedStartStep": "20", "startTime": 2.5, "velocity": 100}, {"endTime": 3.0, "instrument": 3, "pitch": 41, "quantizedEndStep": "24", "quantizedStartStep": "22", "startTime": 2.75, "velocity": 100}, {"endTime": 3.5, "instrument": 3, "pitch": 40, "quantizedEndStep": "28", "quantizedStartStep": "24", "startTime": 3.0, "velocity": 100}, {"endTime": 3.75, "instrument": 3, "pitch": 41, "quantizedEndStep": "30", "quantizedStartStep": "28", "startTime": 3.5, "velocity": 100}, {"endTime": 4.0, "instrument": 3, "pitch": 43, "quantizedEndStep": "32", "quantizedStartStep": "30", "startTime": 3.75, "velocity": 100}], "quantizationInfo": {"stepsPerQuarter": 4}, "tempos": [{"qpm": 120.0}], "ticksPerQuarter": 220, "timeSignatures": [{"denominator": 4, "numerator": 4}], "totalQuantizedSteps": "32", "totalTime": 4.0}, {"keySignatures": [{"key": "F", "mode": "NOT_SPECIFIED"}], "notes": [{"endTime": 0.5, "pitch": 62, "quantizedEndStep": "4", "velocity": 100}, {"endTime": 1.0, "pitch": 74, "quantizedEndStep": "8", "quantizedStartStep": "4", "startTime": 0.5, "velocity": 100}, {"endTime": 1.5, "pitch": 69, "quantizedEndStep": "12", "quantizedStartStep": "8", "startTime": 1.0, "velocity": 100}, {"endTime": 1.75, "pitch": 67, "quantizedEndStep": "14", "quantizedStartStep": "12", "startTime": 1.5, "velocity": 100}, {"endTime": 2.0, "pitch": 65, "quantizedEndStep": "16", "quantizedStartStep": "14", "startTime": 1.75, "velocity": 100}, {"endTime": 2.25, "pitch": 65, "quantizedEndStep": "18", "quantizedStartStep": "16", "startTime": 2.0, "velocity": 100}, {"endTime": 2.5, "pitch": 62, "quantizedEndStep": "20", "quantizedStartStep": "18", "startTime": 2.25, "velocity": 100}, {"endTime": 2.75, "pitch": 65, "quantizedEndStep": "22", "quantizedStartStep": "20", "startTime": 2.5, "velocity": 100}, {"endTime": 3.0, "pitch": 67, "quantizedEndStep": "24", "quantizedStartStep": "22", "startTime": 2.75, "velocity": 100}, {"endTime": 3.5, "pitch": 60, "quantizedEndStep": "28", "quantizedStartStep": "24", "startTime": 3.0, "velocity": 100}, {"endTime": 4.0, "pitch": 74, "quantizedEndStep": "32", "quantizedStartStep": "28", "startTime": 3.5, "velocity": 100}, {"endTime": 0.25, "instrument": 1, "pitch": 58, "quantizedEndStep": "2", "velocity": 100}, {"endTime": 0.5, "instrument": 1, "pitch": 60, "quantizedEndStep": "4", "quantizedStartStep": "2", "startTime": 0.25, "velocity": 100}, {"endTime": 0.75, "instrument": 1, "pitch": 62, "quantizedEndStep": "6", "quantizedStartStep": "4", "startTime": 0.5, "velocity": 100}, {"endTime": 1.0, "instrument": 1, "pitch": 64, "quantizedEndStep": "8", "quantizedStartStep": "6", "startTime": 0.75, "velocity": 100}, {"endTime": 1.5, "instrument": 1, "pitch": 65, "quantizedEndStep": "12", "quantizedStartStep": "8", "startTime": 1.0, "velocity": 100}, {"endTime": 2.0, "instrument": 1, "pitch": 64, "quantizedEndStep": "16", "quantizedStartStep": "12", "startTime": 1.5, "velocity": 100}, {"endTime": 2.5, "instrument": 1, "pitch": 60, "quantizedEndStep": "20", "quantizedStartStep": "16", "startTime": 2.0, "velocity": 100}, {"endTime": 3.0, "instrument": 1, "pitch": 59, "quantizedEndStep": "24", "quantizedStartStep": "20", "startTime": 2.5, "velocity": 100}, {"endTime": 3.25, "instrument": 1, "pitch": 57, "quantizedEndStep": "26", "quantizedStartStep": "24", "startTime": 3.0, "velocity": 100}, {"endTime": 3.5, "instrument": 1, "pitch": 55, "quantizedEndStep": "28", "quantizedStartStep": "26", "startTime": 3.25, "velocity": 100}, {"endTime": 4.0, "instrument": 1, "pitch": 53, "quantizedEndStep": "32", "quantizedStartStep": "28", "startTime": 3.5, "velocity": 100}, {"endTime": 0.5, "instrument": 2, "pitch": 55, "quantizedEndStep": "4", "velocity": 100}, {"endTime": 0.75, "instrument": 2, "pitch": 57, "quantizedEndStep": "6", "quantizedStartStep": "4", "startTime": 0.5, "velocity": 100}, {"endTime": 1.0, "instrument": 2, "pitch": 58, "quantizedEndStep": "8", "quantizedStartStep": "6", "startTime": 0.75, "velocity": 100}, {"endTime": 1.875, "instrument": 2, "pitch": 60, "quantizedEndStep": "15", "quantizedStartStep": "8", "startTime": 1.0, "velocity": 100}, {"endTime": 2.0, "instrument": 2, "pitch": 58, "quantizedEndStep": "16", "quantizedStartStep": "15", "startTime": 1.875, "velocity": 100}, {"endTime": 2.25, "instrument": 2, "pitch": 60, "quantizedEndStep": "18", "quantizedStartStep": "16", "startTime": 2.0, "velocity": 100}, {"endTime": 2.5, "instrument": 2, "pitch": 57, "quantizedEndStep": "20", "quantizedStartStep": "18", "startTime": 2.25, "velocity": 100}, {"endTime": 2.75, "instrument": 2, "pitch": 55, "quantizedEndStep": "22", "quantizedStartStep": "20", "startTime": 2.5, "velocity": 100}, {"endTime": 3.0, "instrument": 2, "pitch": 53, "quantizedEndStep": "24", "quantizedStartStep": "22", "startTime": 2.75, "velocity": 100}, {"endTime": 3.5, "instrument": 2, "pitch": 52, "quantizedEndStep": "28", "quantizedStartStep": "24", "startTime": 3.0, "velocity": 100}, {"endTime": 4.0, "instrument": 2, "pitch": 50, "quantizedEndStep": "32", "quantizedStartStep": "28", "startTime": 3.5, "velocity": 100}, {"endTime": 0.5, "instrument": 3, "pitch": 43, "quantizedEndStep": "4", "velocity": 100}, {"endTime": 1.0, "instrument": 3, "pitch": 50, "quantizedEndStep": "8", "quantizedStartStep": "4", "startTime": 0.5, "velocity": 100}, {"endTime": 1.25, "instrument": 3, "pitch": 45, "quantizedEndStep": "10", "quantizedStartStep": "8", "startTime": 1.0, "velocity": 100}, {"endTime": 1.5, "instrument": 3, "pitch": 46, "quantizedEndStep": "12", "quantizedStartStep": "10", "startTime": 1.25, "velocity": 100}, {"endTime": 2.0, "instrument": 3, "pitch": 48, "quantizedEndStep": "16", "quantizedStartStep": "12", "startTime": 1.5, "velocity": 100}, {"endTime": 2.5, "instrument": 3, "pitch": 41, "quantizedEndStep": "20", "quantizedStartStep": "16", "startTime": 2.0, "velocity": 100}, {"endTime": 3.0, "instrument": 3, "pitch": 43, "quantizedEndStep": "24", "quantizedStartStep": "20", "startTime": 2.5, "velocity": 100}, {"endTime": 3.5, "instrument": 3, "pitch": 45, "quantizedEndStep": "28", "quantizedStartStep": "24", "startTime": 3.0, "velocity": 100}, {"endTime": 4.0, "instrument": 3, "pitch": 47, "quantizedEndStep": "32", "quantizedStartStep": "28", "startTime": 3.5, "velocity": 100}], "quantizationInfo": {"stepsPerQuarter": 4}, "tempos": [{"qpm": 120.0}], "ticksPerQuarter": 220, "timeSignatures": [{"denominator": 4, "numerator": 4}], "totalQuantizedSteps": "32", "totalTime": 4.0}, {"keySignatures": [{"mode": "NOT_SPECIFIED"}], "notes": [{"endTime": 0.5, "pitch": 72, "quantizedEndStep": "4", "velocity": 100}, {"endTime": 1.0, "pitch": 79, "quantizedEndStep": "8", "quantizedStartStep": "4", "startTime": 0.5, "velocity": 100}, {"endTime": 1.5, "pitch": 81, "quantizedEndStep": "12", "quantizedStartStep": "8", "startTime": 1.0, "velocity": 100}, {"endTime": 2.0, "pitch": 79, "quantizedEndStep": "16", "quantizedStartStep": "12", "startTime": 1.5, "velocity": 100}, {"endTime": 2.5, "pitch": 77, "quantizedEndStep": "20", "quantizedStartStep": "16", "startTime": 2.0, "velocity": 100}, {"endTime": 3.0, "pitch": 76, "quantizedEndStep": "24", "quantizedStartStep": "20", "startTime": 2.5, "velocity": 100}, {"endTime": 3.5, "pitch": 74, "quantizedEndStep": "28", "quantizedStartStep": "24", "startTime": 3.0, "velocity": 100}, {"endTime": 4.0, "pitch": 72, "quantizedEndStep": "32", "quantizedStartStep": "28", "startTime": 3.5, "velocity": 100}, {"endTime": 0.5, "instrument": 1, "pitch": 67, "quantizedEndStep": "4", "velocity": 100}, {"endTime": 1.0, "instrument": 1, "pitch": 70, "quantizedEndStep": "8", "quantizedStartStep": "4", "startTime": 0.5, "velocity": 100}, {"endTime": 1.5, "instrument": 1, "pitch": 65, "quantizedEndStep": "12", "quantizedStartStep": "8", "startTime": 1.0, "velocity": 100}, {"endTime": 2.0, "instrument": 1, "pitch": 70, "quantizedEndStep": "16", "quantizedStartStep": "12", "startTime": 1.5, "velocity": 100}, {"endTime": 2.5, "instrument": 1, "pitch": 69, "quantizedEndStep": "20", "quantizedStartStep": "16", "startTime": 2.0, "velocity": 100}, {"endTime": 3.5, "instrument": 1, "pitch": 67, "quantizedEndStep": "28", "quantizedStartStep": "20", "startTime": 2.5, "velocity": 100}, {"endTime": 3.75, "instrument": 1, "pitch": 64, "quantizedEndStep": "30", "quantizedStartStep": "28", "startTime": 3.5, "velocity": 100}, {"endTime": 4.0, "instrument": 1, "pitch": 66, "quantizedEndStep": "32", "quantizedStartStep": "30", "startTime": 3.75, "velocity": 100}, {"endTime": 1.0, "instrument": 2, "pitch": 64, "quantizedEndStep": "8", "velocity": 100}, {"endTime": 1.5, "instrument": 2, "pitch": 60, "quantizedEndStep": "12", "quantizedStartStep": "8", "startTime": 1.0, "velocity": 100}, {"endTime": 2.0, "instrument": 2, "pitch": 62, "quantizedEndStep": "16", "quantizedStartStep": "12", "startTime": 1.5, "velocity": 100}, {"endTime": 2.5, "instrument": 2, "pitch": 62, "quantizedEndStep": "20", "quantizedStartStep": "16", "startTime": 2.0, "velocity": 100}, {"endTime": 3.0, "instrument": 2, "pitch": 60, "quantizedEndStep": "24", "quantizedStartStep": "20", "startTime": 2.5, "velocity": 100}, {"endTime": 3.25, "instrument": 2, "pitch": 62, "quantizedEndStep": "26", "quantizedStartStep": "24", "startTime": 3.0, "velocity": 100}, {"endTime": 3.5, "instrument": 2, "pitch": 59, "quantizedEndStep": "28", "quantizedStartStep": "26", "startTime": 3.25, "velocity": 100}, {"endTime": 4.0, "instrument": 2, "pitch": 60, "quantizedEndStep": "32", "quantizedStartStep": "28", "startTime": 3.5, "velocity": 100}, {"endTime": 0.5, "instrument": 3, "pitch": 60, "quantizedEndStep": "4", "velocity": 100}, {"endTime": 1.0, "instrument": 3, "pitch": 61, "quantizedEndStep": "8", "quantizedStartStep": "4", "startTime": 0.5, "velocity": 100}, {"endTime": 1.25, "instrument": 3, "pitch": 60, "quantizedEndStep": "10", "quantizedStartStep": "8", "startTime": 1.0, "velocity": 100}, {"endTime": 1.5, "instrument": 3, "pitch": 57, "quantizedEndStep": "12", "quantizedStartStep": "10", "startTime": 1.25, "velocity": 100}, {"endTime": 2.0, "instrument": 3, "pitch": 55, "quantizedEndStep": "16", "quantizedStartStep": "12", "startTime": 1.5, "velocity": 100}, {"endTime": 2.25, "instrument": 3, "pitch": 53, "quantizedEndStep": "18", "quantizedStartStep": "16", "startTime": 2.0, "velocity": 100}, {"endTime": 2.5, "instrument": 3, "pitch": 55, "quantizedEndStep": "20", "quantizedStartStep": "18", "startTime": 2.25, "velocity": 100}, {"endTime": 3.0, "instrument": 3, "pitch": 57, "quantizedEndStep": "24", "quantizedStartStep": "20", "startTime": 2.5, "velocity": 100}, {"endTime": 3.25, "instrument": 3, "pitch": 59, "quantizedEndStep": "26", "quantizedStartStep": "24", "startTime": 3.0, "velocity": 100}, {"endTime": 3.5, "instrument": 3, "pitch": 55, "quantizedEndStep": "28", "quantizedStartStep": "26", "startTime": 3.25, "velocity": 100}, {"endTime": 4.0, "instrument": 3, "pitch": 57, "quantizedEndStep": "32", "quantizedStartStep": "28", "startTime": 3.5, "velocity": 100}], "quantizationInfo": {"stepsPerQuarter": 4}, "tempos": [{"qpm": 120.0}], "ticksPerQuarter": 220, "timeSignatures": [{"denominator": 4, "numerator": 4}], "totalQuantizedSteps": "32", "totalTime": 4.0}, {"keySignatures": [{"key": "F", "mode": "NOT_SPECIFIED"}], "notes": [{"endTime": 0.25, "pitch": 62, "quantizedEndStep": "2", "velocity": 100}, {"endTime": 0.5, "pitch": 74, "quantizedEndStep": "4", "quantizedStartStep": "2", "startTime": 0.25, "velocity": 100}, {"endTime": 1.125, "pitch": 69, "quantizedEndStep": "9", "quantizedStartStep": "4", "startTime": 0.5, "velocity": 100}, {"endTime": 1.375, "pitch": 67, "quantizedEndStep": "11", "quantizedStartStep": "9", "startTime": 1.125, "velocity": 100}, {"endTime": 1.625, "pitch": 65, "quantizedEndStep": "13", "quantizedStartStep": "11", "startTime": 1.375, "velocity": 100}, {"endTime": 1.75, "pitch": 62, "quantizedEndStep": "14", "quantizedStartStep": "13", "startTime": 1.625, "velocity": 100}, {"endTime": 1.875, "pitch": 65, "quantizedEndStep": "15", "quantizedStartStep": "14", "startTime": 1.75, "velocity": 100}, {"endTime": 2.0, "pitch": 67, "quantizedEndStep": "16", "quantizedStartStep": "15", "startTime": 1.875, "velocity": 100}, {"endTime": 2.25, "pitch": 60, "quantizedEndStep": "18", "quantizedStartStep": "16", "startTime": 2.0, "velocity": 100}, {"endTime": 2.5, "pitch": 74, "quantizedEndStep": "20", "quantizedStartStep": "18", "startTime": 2.25, "velocity": 100}, {"endTime": 3.0, "pitch": 69, "quantizedEndStep": "24", "quantizedStartStep": "20", "startTime": 2.5, "velocity": 100}, {"endTime": 3.375, "pitch": 67, "quantizedEndStep": "27", "quantizedStartStep": "24", "startTime": 3.0, "velocity": 100}, {"endTime": 3.875, "pitch": 65, "quantizedEndStep": "31", "quantizedStartStep": "27", "startTime": 3.375, "velocity": 100}, {"endTime": 4.0, "pitch": 67, "quantizedEndStep": "32", "quantizedStartStep": "31", "startTime": 3.875, "velocity": 100}, {"endTime": 0.125, "instrument": 1, "pitch": 67, "quantizedEndStep": "1", "velocity": 100}, {"endTime": 0.375, "instrument": 1, "pitch": 65, "quantizedEndStep": "3", "quantizedStartStep": "1", "startTime": 0.125, "velocity": 100}, {"endTime": 0.875, "instrument": 1, "pitch": 64, "quantizedEndStep": "7", "quantizedStartStep": "3", "startTime": 0.375, "velocity": 100}, {"endTime": 1.375, "instrument": 1, "pitch": 62, "quantizedEndStep": "11", "quantizedStartStep": "7", "startTime": 0.875, "velocity": 100}, {"endTime": 1.875, "instrument": 1, "pitch": 65, "quantizedEndStep": "15", "quantizedStartStep": "11", "startTime": 1.375, "velocity": 100}, {"endTime": 2.0, "instrument": 1, "pitch": 60, "quantizedEndStep": "16", "quantizedStartStep": "15", "startTime": 1.875, "velocity": 100}, {"endTime": 2.125, "instrument": 1, "pitch": 60, "quantizedEndStep": "17", "quantizedStartStep": "16", "startTime": 2.0, "velocity": 100}, {"endTime": 2.375, "instrument": 1, "pitch": 67, "quantizedEndStep": "19", "quantizedStartStep": "17", "startTime": 2.125, "velocity": 100}, {"endTime": 2.875, "instrument": 1, "pitch": 65, "quantizedEndStep": "23", "quantizedStartStep": "19", "startTime": 2.375, "velocity": 100}, {"endTime": 3.375, "instrument": 1, "pitch": 64, "quantizedEndStep": "27", "quantizedStartStep": "23", "startTime": 2.875, "velocity": 100}, {"endTime": 4.0, "instrument": 1, "pitch": 60, "quantizedEndStep": "32", "quantizedStartStep": "27", "startTime": 3.375, "velocity": 100}, {"endTime": 0.125, "instrument": 2, "pitch": 58, "quantizedEndStep": "1", "velocity": 100}, {"endTime": 0.625, "instrument": 2, "pitch": 60, "quantizedEndStep": "5", "quantizedStartStep": "1", "startTime": 0.125, "velocity": 100}, {"endTime": 0.875, "instrument": 2, "pitch": 58, "quantizedEndStep": "7", "quantizedStartStep": "5", "startTime": 0.625, "velocity": 100}, {"endTime": 1.625, "instrument": 2, "pitch": 57, "quantizedEndStep": "13", "quantizedStartStep": "7", "startTime": 0.875, "velocity": 100}, {"endTime": 1.875, "instrument": 2, "pitch": 56, "quantizedEndStep": "15", "quantizedStartStep": "13", "startTime": 1.625, "velocity": 100}, {"endTime": 2.0, "instrument": 2, "pitch": 57, "quantizedEndStep": "16", "quantizedStartStep": "15", "startTime": 1.875, "velocity": 100}, {"endTime": 2.125, "instrument": 2, "pitch": 57, "quantizedEndStep": "17", "quantizedStartStep": "16", "startTime": 2.0, "velocity": 100}, {"endTime": 2.375, "instrument": 2, "pitch": 58, "quantizedEndStep": "19", "quantizedStartStep": "17", "startTime": 2.125, "velocity": 100}, {"endTime": 2.625, "instrument": 2, "pitch": 60, "quantizedEndStep": "21", "quantizedStartStep": "19", "startTime": 2.375, "velocity": 100}, {"endTime": 2.875, "instrument": 2, "pitch": 62, "quantizedEndStep": "23", "quantizedStartStep": "21", "startTime": 2.625, "velocity": 100}, {"endTime": 3.125, "instrument": 2, "pitch": 60, "quantizedEndStep": "25", "quantizedStartStep": "23", "startTime": 2.875, "velocity": 100}, {"endTime": 3.375, "instrument": 2, "pitch": 58, "quantizedEndStep": "27", "quantizedStartStep": "25", "startTime": 3.125, "velocity": 100}, {"endTime": 3.875, "instrument": 2, "pitch": 57, "quantizedEndStep": "31", "quantizedStartStep": "27", "startTime": 3.375, "velocity": 100}, {"endTime": 4.0, "instrument": 2, "pitch": 58, "quantizedEndStep": "32", "quantizedStartStep": "31", "startTime": 3.875, "velocity": 100}, {"endTime": 0.375, "instrument": 3, "pitch": 58, "quantizedEndStep": "3", "velocity": 100}, {"endTime": 0.625, "instrument": 3, "pitch": 57, "quantizedEndStep": "5", "quantizedStartStep": "3", "startTime": 0.375, "velocity": 100}, {"endTime": 0.875, "instrument": 3, "pitch": 55, "quantizedEndStep": "7", "quantizedStartStep": "5", "startTime": 0.625, "velocity": 100}, {"endTime": 1.125, "instrument": 3, "pitch": 53, "quantizedEndStep": "9", "quantizedStartStep": "7", "startTime": 0.875, "velocity": 100}, {"endTime": 1.375, "instrument": 3, "pitch": 52, "quantizedEndStep": "11", "quantizedStartStep": "9", "startTime": 1.125, "velocity": 100}, {"endTime": 1.875, "instrument": 3, "pitch": 50, "quantizedEndStep": "15", "quantizedStartStep": "11", "startTime": 1.375, "velocity": 100}, {"endTime": 2.0, "instrument": 3, "pitch": 45, "quantizedEndStep": "16", "quantizedStartStep": "15", "startTime": 1.875, "velocity": 100}, {"endTime": 2.375, "instrument": 3, "pitch": 45, "quantizedEndStep": "19", "quantizedStartStep": "16", "startTime": 2.0, "velocity": 100}, {"endTime": 2.625, "instrument": 3, "pitch": 57, "quantizedEndStep": "21", "quantizedStartStep": "19", "startTime": 2.375, "velocity": 100}, {"endTime": 2.875, "instrument": 3, "pitch": 58, "quantizedEndStep": "23", "quantizedStartStep": "21", "startTime": 2.625, "velocity": 100}, {"endTime": 3.375, "instrument": 3, "pitch": 60, "quantizedEndStep": "27", "quantizedStartStep": "23", "startTime": 2.875, "velocity": 100}, {"endTime": 4.0, "instrument": 3, "pitch": 53, "quantizedEndStep": "32", "quantizedStartStep": "27", "startTime": 3.375, "velocity": 100}], "quantizationInfo": {"stepsPerQuarter": 4}, "tempos": [{"qpm": 120.0}], "ticksPerQuarter": 220, "timeSignatures": [{"denominator": 4, "numerator": 4}], "totalQuantizedSteps": "32", "totalTime": 4.0}], "request_id": [0, 1, 2, 3, 4, 5, 6, 7], "session_id": "cfdbc2fa21eb4e578e474cffac8e35cf"}
,{"backend": ["l"], "composition_time": [75324], "country": ["us"], "feedback": ["2"], "input_sequence": [{"notes": [{"endTime": 0.5, "pitch": 65, "pitchName": "F", "quantizedEndStep": "2", "velocity": 100}, {"endTime": 1.0, "pitch": 69, "pitchName": "A", "quantizedEndStep": "4", "quantizedStartStep": "2", "startTime": 0.5, "velocity": 100}, {"endTime": 1.5, "pitch": 72, "pitchName": "C", "quantizedEndStep": "6", "quantizedStartStep": "4", "startTime": 1.0, "velocity": 100}, {"endTime": 2.0, "pitch": 69, "pitchName": "A", "quantizedEndStep": "8", "quantizedStartStep": "6", "startTime": 1.5, "velocity": 100}, {"endTime": 3.0, "pitch": 76, "pitchName": "E", "quantizedEndStep": "12", "quantizedStartStep": "8", "startTime": 2.0, "velocity": 100}, {"endTime": 3.5, "pitch": 76, "pitchName": "E", "quantizedEndStep": "14", "quantizedStartStep": "12", "startTime": 3.0, "velocity": 100}, {"endTime": 4.0, "pitch": 72, "pitchName": "C", "quantizedEndStep": "16", "quantizedStartStep": "14", "startTime": 3.5, "velocity": 100}, {"endTime": 4.5, "pitch": 71, "pitchName": "B", "quantizedEndStep": "18", "quantizedStartStep": "16", "startTime": 4.0, "velocity": 100}, {"endTime": 5.0, "pitch": 74, "pitchName": "D", "quantizedEndStep": "20", "quantizedStartStep": "18", "startTime": 4.5, "velocity": 100}, {"endTime": 5.5, "pitch": 76, "pitchName": "E", "quantizedEndStep": "22", "quantizedStartStep": "20", "startTime": 5.0, "velocity": 100}, {"endTime": 6.0, "pitch": 65, "pitchName": "F", "quantizedEndStep": "24", "quantizedStartStep": "22", "startTime": 5.5, "velocity": 100}, {"endTime": 6.5, "pitch": 67, "pitchName": "G", "quantizedEndStep": "26", "quantizedStartStep": "24", "startTime": 6.0, "velocity": 100}, {"endTime": 7.0, "pitch": 71, "pitchName": "B", "quantizedEndStep": "28", "quantizedStartStep": "26", "startTime": 6.5, "velocity": 100}, {"endTime": 7.5, "pitch": 76, "pitchName": "E", "quantizedEndStep": "30", "quantizedStartStep": "28", "startTime": 7.0, "velocity": 100}, {"endTime": 8.0, "pitch": 69, "pitchName": "A", "quantizedEndStep": "32", "quantizedStartStep": "30", "startTime": 7.5, "velocity": 100}], "quantizationInfo": {"stepsPerQuarter": 4}, "tempos": [{"qpm": 60.0}], "ticksPerQuarter": 220, "timeSignatures": [{"denominator": 4, "numerator": 4}], "totalQuantizedSteps": "32", "totalTime": 8.0}], "key_sig": [""], "loops_listened": [5], "output_sequence": [{"notes": [{"endTime": 0.5, "pitch": 65, "quantizedEndStep": "2", "velocity": 100}, {"endTime": 1.0, "pitch": 69, "quantizedEndStep": "4", "quantizedStartStep": "2", "startTime": 0.5, "velocity": 100}, {"endTime": 1.5, "pitch": 72, "quantizedEndStep": "6", "quantizedStartStep": "4", "startTime": 1.0, "velocity": 100}, {"endTime": 2.0, "pitch": 69, "quantizedEndStep": "8", "quantizedStartStep": "6", "startTime": 1.5, "velocity": 100}, {"endTime": 3.5, "pitch": 76, "quantizedEndStep": "14", "quantizedStartStep": "8", "startTime": 2.0, "velocity": 100}, {"endTime": 4.0, "pitch": 72, "quantizedEndStep": "16", "quantizedStartStep": "14", "startTime": 3.5, "velocity": 100}, {"endTime": 4.5, "pitch": 71, "quantizedEndStep": "18", "quantizedStartStep": "16", "startTime": 4.0, "velocity": 100}, {"endTime": 5.0, "pitch": 74, "quantizedEndStep": "20", "quantizedStartStep": "18", "startTime": 4.5, "velocity": 100}, {"endTime": 5.5, "pitch": 76, "quantizedEndStep": "22", "quantizedStartStep": "20", "startTime": 5.0, "velocity": 100}, {"endTime": 6.0, "pitch": 65, "quantizedEndStep": "24", "quantizedStartStep": "22", "startTime": 5.5, "velocity": 100}, {"endTime": 6.5, "pitch": 67, "quantizedEndStep": "26", "quantizedStartStep": "24", "startTime": 6.0, "velocity": 100}, {"endTime": 7.0, "pitch": 71, "quantizedEndStep": "28", "quantizedStartStep": "26", "startTime": 6.5, "velocity": 100}, {"endTime": 7.5, "pitch": 76, "quantizedEndStep": "30", "quantizedStartStep": "28", "startTime": 7.0, "velocity": 100}, {"endTime": 8.0, "pitch": 69, "quantizedEndStep": "32", "quantizedStartStep": "30", "startTime": 7.5, "velocity": 100}, {"endTime": 1.0, "instrument": 1, "pitch": 62, "quantizedEndStep": "4", "velocity": 100}, {"endTime": 3.0, "instrument": 1, "pitch": 64, "quantizedEndStep": "12", "quantizedStartStep": "4", "startTime": 1.0, "velocity": 100}, {"endTime": 3.5, "instrument": 1, "pitch": 69, "quantizedEndStep": "14", "quantizedStartStep": "12", "startTime": 3.0, "velocity": 100}, {"endTime": 4.0, "instrument": 1, "pitch": 67, "quantizedEndStep": "16", "quantizedStartStep": "14", "startTime": 3.5, "velocity": 100}, {"endTime": 5.0, "instrument": 1, "pitch": 65, "quantizedEndStep": "20", "quantizedStartStep": "16", "startTime": 4.0, "velocity": 100}, {"endTime": 5.5, "instrument": 1, "pitch": 64, "quantizedEndStep": "22", "quantizedStartStep": "20", "startTime": 5.0, "velocity": 100}, {"endTime": 6.0, "instrument": 1, "pitch": 65, "quantizedEndStep": "24", "quantizedStartStep": "22", "startTime": 5.5, "velocity": 100}, {"endTime": 6.5, "instrument": 1, "pitch": 64, "quantizedEndStep": "26", "quantizedStartStep": "24", "startTime": 6.0, "velocity": 100}, {"endTime": 7.0, "instrument": 1, "pitch": 62, "quantizedEndStep": "28", "quantizedStartStep": "26", "startTime": 6.5, "velocity": 100}, {"endTime": 8.0, "instrument": 1, "pitch": 64, "quantizedEndStep": "32", "quantizedStartStep": "28", "startTime": 7.0, "velocity": 100}, {"endTime": 0.5, "instrument": 2, "pitch": 57, "quantizedEndStep": "2", "velocity": 100}, {"endTime": 1.0, "instrument": 2, "pitch": 59, "quantizedEndStep": "4", "quantizedStartStep": "2", "startTime": 0.5, "velocity": 100}, {"endTime": 2.5, "instrument": 2, "pitch": 60, "quantizedEndStep": "10", "quantizedStartStep": "4", "startTime": 1.0, "velocity": 100}, {"endTime": 3.0, "instrument": 2, "pitch": 59, "quantizedEndStep": "12", "quantizedStartStep": "10", "startTime": 2.5, "velocity": 100}, {"endTime": 4.0, "instrument": 2, "pitch": 57, "quantizedEndStep": "16", "quantizedStartStep": "12", "startTime": 3.0, "velocity": 100}, {"endTime": 5.0, "instrument": 2, "pitch": 62, "quantizedEndStep": "20", "quantizedStartStep": "16", "startTime": 4.0, "velocity": 100}, {"endTime": 6.5, "instrument": 2, "pitch": 60, "quantizedEndStep": "26", "quantizedStartStep": "20", "startTime": 5.0, "velocity": 100}, {"endTime": 8.0, "instrument": 2, "pitch": 55, "quantizedEndStep": "32", "quantizedStartStep": "26", "startTime": 6.5, "velocity": 100}, {"endTime": 1.0, "instrument": 3, "pitch": 50, "quantizedEndStep": "4", "velocity": 100}, {"endTime": 1.5, "instrument": 3, "pitch": 45, "quantizedEndStep": "6", "quantizedStartStep": "4", "startTime": 1.0, "velocity": 100}, {"endTime": 2.5, "instrument": 3, "pitch": 57, "quantizedEndStep": "10", "quantizedStartStep": "6", "startTime": 1.5, "velocity": 100}, {"endTime": 3.0, "instrument": 3, "pitch": 56, "quantizedEndStep": "12", "quantizedStartStep": "10", "startTime": 2.5, "velocity": 100}, {"endTime": 3.5, "instrument": 3, "pitch": 53, "quantizedEndStep": "14", "quantizedStartStep": "12", "startTime": 3.0, "velocity": 100}, {"endTime": 4.0, "instrument": 3, "pitch": 52, "quantizedEndStep": "16", "quantizedStartStep": "14", "startTime": 3.5, "velocity": 100}, {"endTime": 4.5, "instrument": 3, "pitch": 50, "quantizedEndStep": "18", "quantizedStartStep": "16", "startTime": 4.0, "velocity": 100}, {"endTime": 5.0, "instrument": 3, "pitch": 47, "quantizedEndStep": "20", "quantizedStartStep": "18", "startTime": 4.5, "velocity": 100}, {"endTime": 5.5, "instrument": 3, "pitch": 48, "quantizedEndStep": "22", "quantizedStartStep": "20", "startTime": 5.0, "velocity": 100}, {"endTime": 6.0, "instrument": 3, "pitch": 50, "quantizedEndStep": "24", "quantizedStartStep": "22", "startTime": 5.5, "velocity": 100}, {"endTime": 6.5, "instrument": 3, "pitch": 52, "quantizedEndStep": "26", "quantizedStartStep": "24", "startTime": 6.0, "velocity": 100}, {"endTime": 7.0, "instrument": 3, "pitch": 50, "quantizedEndStep": "28", "quantizedStartStep": "26", "startTime": 6.5, "velocity": 100}, {"endTime": 8.0, "instrument": 3, "pitch": 48, "quantizedEndStep": "32", "quantizedStartStep": "28", "startTime": 7.0, "velocity": 100}], "quantizationInfo": {"stepsPerQuarter": 4}, "tempos": [{"qpm": 60.0}], "ticksPerQuarter": 220, "timeSignatures": [{"denominator": 4, "numerator": 4}], "totalQuantizedSteps": "32", "totalTime": 8.0}], "request_id": [0], "session_id": "dce1db3149954381b0468cb7b316ea00"}
,{"backend": ["r"], "composition_time": [40746], "country": ["tr"], "feedback": ["2"], "input_sequence": [{"notes": [{"endTime": 1.0, "pitch": 76, "pitchName": "E", "quantizedEndStep": "4", "quantizedStartStep": "2", "startTime": 0.5, "velocity": 100}, {"endTime": 1.5, "pitch": 67, "pitchName": "G", "quantizedEndStep": "6", "quantizedStartStep": "4", "startTime": 1.0, "velocity": 100}, {"endTime": 2.0, "pitch": 67, "pitchName": "G", "quantizedEndStep": "8", "quantizedStartStep": "6", "startTime": 1.5, "velocity": 100}, {"endTime": 2.5, "pitch": 64, "pitchName": "F_FLAT", "quantizedEndStep": "10", "quantizedStartStep": "8", "startTime": 2.0, "velocity": 100}, {"endTime": 3.0, "pitch": 76, "pitchName": "E", "quantizedEndStep": "12", "quantizedStartStep": "10", "startTime": 2.5, "velocity": 100}, {"endTime": 3.5, "pitch": 69, "pitchName": "A", "quantizedEndStep": "14", "quantizedStartStep": "12", "startTime": 3.0, "velocity": 100}, {"endTime": 4.0, "pitch": 67, "pitchName": "G", "quantizedEndStep": "16", "quantizedStartStep": "14", "startTime": 3.5, "velocity": 100}, {"endTime": 5.0, "pitch": 71, "pitchName": "B", "quantizedEndStep": "20", "quantizedStartStep": "16", "startTime": 4.0, "velocity": 100}, {"endTime": 5.5, "pitch": 67, "pitchName": "G", "quantizedEndStep": "22", "quantizedStartStep": "20", "startTime": 5.0, "velocity": 100}, {"endTime": 6.0, "pitch": 74, "pitchName": "D", "quantizedEndStep": "24", "quantizedStartStep": "22", "startTime": 5.5, "velocity": 100}, {"endTime": 6.5, "pitch": 64, "pitchName": "E", "quantizedEndStep": "26", "quantizedStartStep": "24", "startTime": 6.0, "velocity": 100}, {"endTime": 7.0, "pitch": 76, "pitchName": "E", "quantizedEndStep": "28", "quantizedStartStep": "26", "startTime": 6.5, "velocity": 100}, {"endTime": 8.0, "pitch": 77, "pitchName": "F", "quantizedEndStep": "32", "quantizedStartStep": "28", "startTime": 7.0, "velocity": 100}], "quantizationInfo": {"stepsPerQuarter": 4}, "tempos": [{"qpm": 60.0}], "ticksPerQuarter": 220, "timeSignatures": [{"denominator": 4, "numerator": 4}], "totalQuantizedSteps": "32", "totalTime": 8.0}], "key_sig": [""], "loops_listened": [3], "output_sequence": [{"notes": [{"endTime": 1.0, "pitch": 76, "quantizedEndStep": "4", "velocity": 100}, {"endTime": 2.0, "pitch": 67, "quantizedEndStep": "8", "quantizedStartStep": "4", "startTime": 1.0, "velocity": 100}, {"endTime": 2.5, "pitch": 64, "quantizedEndStep": "10", "quantizedStartStep": "8", "startTime": 2.0, "velocity": 100}, {"endTime": 3.0, "pitch": 76, "quantizedEndStep": "12", "quantizedStartStep": "10", "startTime": 2.5, "velocity": 100}, {"endTime": 3.5, "pitch": 69, "quantizedEndStep": "14", "quantizedStartStep": "12", "startTime": 3.0, "velocity": 100}, {"endTime": 4.0, "pitch": 67, "quantizedEndStep": "16", "quantizedStartStep": "14", "startTime": 3.5, "velocity": 100}, {"endTime": 5.0, "pitch": 71, "quantizedEndStep": "20", "quantizedStartStep": "16", "startTime": 4.0, "velocity": 100}, {"endTime": 5.5, "pitch": 67, "quantizedEndStep": "22", "quantizedStartStep": "20", "startTime": 5.0, "velocity": 100}, {"endTime": 6.0, "pitch": 74, "quantizedEndStep": "24", "quantizedStartStep": "22", "startTime": 5.5, "velocity": 100}, {"endTime": 6.5, "pitch": 64, "quantizedEndStep": "26", "quantizedStartStep": "24", "startTime": 6.0, "velocity": 100}, {"endTime": 7.0, "pitch": 76, "quantizedEndStep": "28", "quantizedStartStep": "26", "startTime": 6.5, "velocity": 100}, {"endTime": 8.0, "pitch": 77, "quantizedEndStep": "32", "quantizedStartStep": "28", "startTime": 7.0, "velocity": 100}, {"endTime": 1.5, "instrument": 1, "pitch": 64, "quantizedEndStep": "6", "velocity": 100}, {"endTime": 2.0, "instrument": 1, "pitch": 62, "quantizedEndStep": "8", "quantizedStartStep": "6", "startTime": 1.5, "velocity": 100}, {"endTime": 3.0, "instrument": 1, "pitch": 64, "quantizedEndStep": "12", "quantizedStartStep": "8", "startTime": 2.0, "velocity": 100}, {"endTime": 4.0, "instrument": 1, "pitch": 66, "quantizedEndStep": "16", "quantizedStartStep": "12", "startTime": 3.0, "velocity": 100}, {"endTime": 4.5, "instrument": 1, "pitch": 67, "quantizedEndStep": "18", "quantizedStartStep": "16", "startTime": 4.0, "velocity": 100}, {"endTime": 5.0, "instrument": 1, "pitch": 65, "quantizedEndStep": "20", "quantizedStartStep": "18", "startTime": 4.5, "velocity": 100}, {"endTime": 5.5, "instrument": 1, "pitch": 64, "quantizedEndStep": "22", "quantizedStartStep": "20", "startTime": 5.0, "velocity": 100}, {"endTime": 6.0, "instrument": 1, "pitch": 62, "quantizedEndStep": "24", "quantizedStartStep": "22", "startTime": 5.5, "velocity": 100}, {"endTime": 7.0, "instrument": 1, "pitch": 67, "quantizedEndStep": "28", "quantizedStartStep": "24", "startTime": 6.0, "velocity": 100}, {"endTime": 8.0, "instrument": 1, "pitch": 69, "quantizedEndStep": "32", "quantizedStartStep": "28", "startTime": 7.0, "velocity": 100}, {"endTime": 0.5, "instrument": 2, "pitch": 55, "quantizedEndStep": "2", "velocity": 100}, {"endTime": 1.0, "instrument": 2, "pitch": 57, "quantizedEndStep": "4", "quantizedStartStep": "2", "startTime": 0.5, "velocity": 100}, {"endTime": 2.0, "instrument": 2, "pitch": 59, "quantizedEndStep": "8", "quantizedStartStep": "4", "startTime": 1.0, "velocity": 100}, {"endTime": 3.0, "instrument": 2, "pitch": 60, "quantizedEndStep": "12", "quantizedStartStep": "8", "startTime": 2.0, "velocity": 100}, {"endTime": 4.0, "instrument": 2, "pitch": 62, "quantizedEndStep": "16", "quantizedStartStep": "12", "startTime": 3.0, "velocity": 100}, {"endTime": 5.0, "instrument": 2, "pitch": 62, "quantizedEndStep": "20", "quantizedStartStep": "16", "startTime": 4.0, "velocity": 100}, {"endTime": 6.0, "instrument": 2, "pitch": 59, "quantizedEndStep": "24", "quantizedStartStep": "20", "startTime": 5.0, "velocity": 100}, {"endTime": 8.0, "instrument": 2, "pitch": 60, "quantizedEndStep": "32", "quantizedStartStep": "24", "startTime": 6.0, "velocity": 100}, {"endTime": 1.0, "instrument": 3, "pitch": 48, "quantizedEndStep": "4", "velocity": 100}, {"endTime": 1.5, "instrument": 3, "pitch": 52, "quantizedEndStep": "6", "quantizedStartStep": "4", "startTime": 1.0, "velocity": 100}, {"endTime": 2.0, "instrument": 3, "pitch": 50, "quantizedEndStep": "8", "quantizedStartStep": "6", "startTime": 1.5, "velocity": 100}, {"endTime": 3.0, "instrument": 3, "pitch": 48, "quantizedEndStep": "12", "quantizedStartStep": "8", "startTime": 2.0, "velocity": 100}, {"endTime": 4.0, "instrument": 3, "pitch": 50, "quantizedEndStep": "16", "quantizedStartStep": "12", "startTime": 3.0, "velocity": 100}, {"endTime": 6.0, "instrument": 3, "pitch": 43, "quantizedEndStep": "24", "quantizedStartStep": "16", "startTime": 4.0, "velocity": 100}, {"endTime": 7.0, "instrument": 3, "pitch": 48, "quantizedEndStep": "28", "quantizedStartStep": "24", "startTime": 6.0, "velocity": 100}, {"endTime": 8.0, "instrument": 3, "pitch": 53, "quantizedEndStep": "32", "quantizedStartStep": "28", "startTime": 7.0, "velocity": 100}], "quantizationInfo": {"stepsPerQuarter": 4}, "tempos": [{"qpm": 60.0}], "ticksPerQuarter": 220, "timeSignatures": [{"denominator": 4, "numerator": 4}], "totalQuantizedSteps": "32", "totalTime": 8.0}], "request_id": [0], "session_id": "be5eb8182184451ea435ae81a07f62d5"}
,{"backend": ["r", "r", "r"], "composition_time": [15889, 20342, 14328], "country": ["ca", "ca", "ca"], "feedback": ["0", "", ""], "input_sequence": [{"notes": [{"endTime": 0.5, "pitch": 77, "pitchName": "F", "quantizedEndStep": "2", "velocity": 100}, {"endTime": 1.0, "pitch": 74, "pitchName": "D", "quantizedEndStep": "4", "quantizedStartStep": "2", "startTime": 0.5, "velocity": 100}, {"endTime": 2.5, "pitch": 67, "pitchName": "G", "quantizedEndStep": "10", "quantizedStartStep": "8", "startTime": 2.0, "velocity": 100}, {"endTime": 3.0, "pitch": 67, "pitchName": "G", "quantizedEndStep": "12", "quantizedStartStep": "10", "startTime": 2.5, "velocity": 100}, {"endTime": 3.5, "pitch": 71, "pitchName": "B", "quantizedEndStep": "14", "quantizedStartStep": "12", "startTime": 3.0, "velocity": 100}, {"endTime": 4.0, "pitch": 74, "pitchName": "D", "quantizedEndStep": "16", "quantizedStartStep": "14", "startTime": 3.5, "velocity": 100}, {"endTime": 5.0, "pitch": 74, "pitchName": "D", "quantizedEndStep": "20", "quantizedStartStep": "16", "startTime": 4.0, "velocity": 100}], "quantizationInfo": {"stepsPerQuarter": 4}, "tempos": [{"qpm": 60.0}], "ticksPerQuarter": 220, "timeSignatures": [{"denominator": 4, "numerator": 4}], "totalQuantizedSteps": "20", "totalTime": 5.0}, {"notes": [{"endTime": 0.5, "pitch": 77, "pitchName": "F", "quantizedEndStep": "2", "velocity": 100}, {"endTime": 1.0, "pitch": 74, "pitchName": "D", "quantizedEndStep": "4", "quantizedStartStep": "2", "startTime": 0.5, "velocity": 100}, {"endTime": 1.5, "pitch": 67, "pitchName": "G", "quantizedEndStep": "6", "quantizedStartStep": "4", "startTime": 1.0, "velocity": 100}, {"endTime": 2.0, "pitch": 81, "pitchName": "A", "quantizedEndStep": "8", "quantizedStartStep": "6", "startTime": 1.5, "velocity": 100}, {"endTime": 2.5, "pitch": 67, "pitchName": "G", "quantizedEndStep": "10", "quantizedStartStep": "8", "startTime": 2.0, "velocity": 100}, {"endTime": 3.0, "pitch": 67, "pitchName": "G", "quantizedEndStep": "12", "quantizedStartStep": "10", "startTime": 2.5, "velocity": 100}, {"endTime": 3.5, "pitch": 71, "pitchName": "B", "quantizedEndStep": "14", "quantizedStartStep": "12", "startTime": 3.0, "velocity": 100}, {"endTime": 4.0, "pitch": 74, "pitchName": "D", "quantizedEndStep": "16", "quantizedStartStep": "14", "startTime": 3.5, "velocity": 100}, {"endTime": 5.0, "pitch": 74, "pitchName": "D", "quantizedEndStep": "20", "quantizedStartStep": "16", "startTime": 4.0, "velocity": 100}, {"endTime": 6.5, "pitch": 64, "pitchName": "E", "quantizedEndStep": "26", "quantizedStartStep": "24", "startTime": 6.0, "velocity": 100}, {"endTime": 7.0, "pitch": 57, "pitchName": "A", "quantizedEndStep": "28", "quantizedStartStep": "26", "startTime": 6.5, "velocity": 100}, {"endTime": 7.5, "pitch": 57, "pitchName": "A", "quantizedEndStep": "30", "quantizedStartStep": "28", "startTime": 7.0, "velocity": 100}, {"endTime": 8.0, "pitch": 79, "pitchName": "G", "quantizedEndStep": "32", "quantizedStartStep": "30", "startTime": 7.5, "velocity": 100}], "quantizationInfo": {"stepsPerQuarter": 4}, "tempos": [{"qpm": 60.0}], "ticksPerQuarter": 220, "timeSignatures": [{"denominator": 4, "numerator": 4}], "totalQuantizedSteps": "32", "totalTime": 8.0}, {"notes": [{"endTime": 0.5, "pitch": 69, "pitchName": "A", "quantizedEndStep": "2", "velocity": 100}, {"endTime": 1.0, "pitch": 69, "pitchName": "A", "quantizedEndStep": "4", "quantizedStartStep": "2", "startTime": 0.5, "velocity": 100}, {"endTime": 1.5, "pitch": 69, "pitchName": "A", "quantizedEndStep": "6", "quantizedStartStep": "4", "startTime": 1.0, "velocity": 100}, {"endTime": 2.0, "pitch": 69, "pitchName": "A", "quantizedEndStep": "8", "quantizedStartStep": "6", "startTime": 1.5, "velocity": 100}, {"endTime": 2.5, "pitch": 69, "pitchName": "A", "quantizedEndStep": "10", "quantizedStartStep": "8", "startTime": 2.0, "velocity": 100}, {"endTime": 3.0, "pitch": 69, "pitchName": "A", "quantizedEndStep": "12", "quantizedStartStep": "10", "startTime": 2.5, "velocity": 100}, {"endTime": 3.5, "pitch": 69, "pitchName": "A", "quantizedEndStep": "14", "quantizedStartStep": "12", "startTime": 3.0, "velocity": 100}, {"endTime": 4.0, "pitch": 69, "pitchName": "A", "quantizedEndStep": "16", "quantizedStartStep": "14", "startTime": 3.5, "velocity": 100}, {"endTime": 4.5, "pitch": 69, "pitchName": "A", "quantizedEndStep": "18", "quantizedStartStep": "16", "startTime": 4.0, "velocity": 100}, {"endTime": 5.0, "pitch": 67, "pitchName": "G", "quantizedEndStep": "20", "quantizedStartStep": "18", "startTime": 4.5, "velocity": 100}, {"endTime": 6.0, "pitch": 69, "pitchName": "A", "quantizedEndStep": "24", "quantizedStartStep": "20", "startTime": 5.0, "velocity": 100}], "quantizationInfo": {"stepsPerQuarter": 4}, "tempos": [{"qpm": 60.0}], "ticksPerQuarter": 220, "timeSignatures": [{"denominator": 4, "numerator": 4}], "totalQuantizedSteps": "24", "totalTime": 6.0}], "key_sig": ["", "", ""], "loops_listened": [1, 1, 1], "output_sequence": [{"notes": [{"endTime": 0.5, "pitch": 77, "quantizedEndStep": "2", "velocity": 100}, {"endTime": 1.0, "pitch": 74, "quantizedEndStep": "4", "quantizedStartStep": "2", "startTime": 0.5, "velocity": 100}, {"endTime": 2.0, "pitch": 76, "quantizedEndStep": "8", "quantizedStartStep": "4", "startTime": 1.0, "velocity": 100}, {"endTime": 3.0, "pitch": 67, "quantizedEndStep": "12", "quantizedStartStep": "8", "startTime": 2.0, "velocity": 100}, {"endTime": 3.5, "pitch": 71, "quantizedEndStep": "14", "quantizedStartStep": "12", "startTime": 3.0, "velocity": 100}, {"endTime": 4.0, "pitch": 74, "quantizedEndStep": "16", "quantizedStartStep": "14", "startTime": 3.5, "velocity": 100}, {"endTime": 5.0, "pitch": 74, "quantizedEndStep": "20", "quantizedStartStep": "16", "startTime": 4.0, "velocity": 100}, {"endTime": 6.0, "pitch": 72, "quantizedEndStep": "24", "quantizedStartStep": "20", "startTime": 5.0, "velocity": 100}, {"endTime": 7.0, "pitch": 74, "quantizedEndStep": "28", "quantizedStartStep": "24", "startTime": 6.0, "velocity": 100}, {"endTime": 8.0, "pitch": 75, "quantizedEndStep": "32", "quantizedStartStep": "28", "startTime": 7.0, "velocity": 100}, {"endTime": 1.0, "instrument": 1, "pitch": 67, "quantizedEndStep": "4", "velocity": 100}, {"endTime": 2.0, "instrument": 1, "pitch": 65, "quantizedEndStep": "8", "quantizedStartStep": "4", "startTime": 1.0, "velocity": 100}, {"endTime": 3.0, "instrument": 1, "pitch": 64, "quantizedEndStep": "12", "quantizedStartStep": "8", "startTime": 2.0, "velocity": 100}, {"endTime": 4.0, "instrument": 1, "pitch": 62, "quantizedEndStep": "16", "quantizedStartStep": "12", "startTime": 3.0, "velocity": 100}, {"endTime": 5.0, "instrument": 1, "pitch": 67, "quantizedEndStep": "20", "quantizedStartStep": "16", "startTime": 4.0, "velocity": 100}, {"endTime": 6.0, "instrument": 1, "pitch": 69, "quantizedEndStep": "24", "quantizedStartStep": "20", "startTime": 5.0, "velocity": 100}, {"endTime": 6.75, "instrument": 1, "pitch": 67, "quantizedEndStep": "27", "quantizedStartStep": "24", "startTime": 6.0, "velocity": 100}, {"endTime": 7.0, "instrument": 1, "pitch": 65, "quantizedEndStep": "28", "quantizedStartStep": "27", "startTime": 6.75, "velocity": 100}, {"endTime": 7.5, "instrument": 1, "pitch": 63, "quantizedEndStep": "30", "quantizedStartStep": "28", "startTime": 7.0, "velocity": 100}, {"endTime": 8.0, "instrument": 1, "pitch": 67, "quantizedEndStep": "32", "quantizedStartStep": "30", "startTime": 7.5, "velocity": 100}, {"endTime": 1.0, "instrument": 2, "pitch": 62, "quantizedEndStep": "4", "velocity": 100}, {"endTime": 3.0, "instrument": 2, "pitch": 60, "quantizedEndStep": "12", "quantizedStartStep": "4", "startTime": 1.0, "velocity": 100}, {"endTime": 4.0, "instrument": 2, "pitch": 67, "quantizedEndStep": "16", "quantizedStartStep": "12", "startTime": 3.0, "velocity": 100}, {"endTime": 5.0, "instrument": 2, "pitch": 59, "quantizedEndStep": "20", "quantizedStartStep": "16", "startTime": 4.0, "velocity": 100}, {"endTime": 5.5, "instrument": 2, "pitch": 60, "quantizedEndStep": "22", "quantizedStartStep": "20", "startTime": 5.0, "velocity": 100}, {"endTime": 6.0, "instrument": 2, "pitch": 62, "quantizedEndStep": "24", "quantizedStartStep": "22", "startTime": 5.5, "velocity": 100}, {"endTime": 7.0, "instrument": 2, "pitch": 59, "quantizedEndStep": "28", "quantizedStartStep": "24", "startTime": 6.0, "velocity": 100}, {"endTime": 7.5, "instrument": 2, "pitch": 60, "quantizedEndStep": "30", "quantizedStartStep": "28", "startTime": 7.0, "velocity": 100}, {"endTime": 8.0, "instrument": 2, "pitch": 62, "quantizedEndStep": "32", "quantizedStartStep": "30", "startTime": 7.5, "velocity": 100}, {"endTime": 1.0, "instrument": 3, "pitch": 59, "quantizedEndStep": "4", "velocity": 100}, {"endTime": 1.5, "instrument": 3, "pitch": 57, "quantizedEndStep": "6", "quantizedStartStep": "4", "startTime": 1.0, "velocity": 100}, {"endTime": 2.0, "instrument": 3, "pitch": 59, "quantizedEndStep": "8", "quantizedStartStep": "6", "startTime": 1.5, "velocity": 100}, {"endTime": 3.0, "instrument": 3, "pitch": 60, "quantizedEndStep": "12", "quantizedStartStep": "8", "startTime": 2.0, "velocity": 100}, {"endTime": 4.0, "instrument": 3, "pitch": 55, "quantizedEndStep": "16", "quantizedStartStep": "12", "startTime": 3.0, "velocity": 100}, {"endTime": 5.0, "instrument": 3, "pitch": 52, "quantizedEndStep": "20", "quantizedStartStep": "16", "startTime": 4.0, "velocity": 100}, {"endTime": 6.0, "instrument": 3, "pitch": 54, "quantizedEndStep": "24", "quantizedStartStep": "20", "startTime": 5.0, "velocity": 100}, {"endTime": 7.0, "instrument": 3, "pitch": 55, "quantizedEndStep": "28", "quantizedStartStep": "24", "startTime": 6.0, "velocity": 100}, {"endTime": 8.0, "instrument": 3, "pitch": 48, "quantizedEndStep": "32", "quantizedStartStep": "28", "startTime": 7.0, "velocity": 100}], "quantizationInfo": {"stepsPerQuarter": 4}, "tempos": [{"qpm": 60.0}], "ticksPerQuarter": 220, "timeSignatures": [{"denominator": 4, "numerator": 4}], "totalQuantizedSteps": "32", "totalTime": 8.0}, {"notes": [{"endTime": 0.5, "pitch": 77, "quantizedEndStep": "2", "velocity": 100}, {"endTime": 1.0, "pitch": 74, "quantizedEndStep": "4", "quantizedStartStep": "2", "startTime": 0.5, "velocity": 100}, {"endTime": 1.5, "pitch": 67, "quantizedEndStep": "6", "quantizedStartStep": "4", "startTime": 1.0, "velocity": 100}, {"endTime": 2.0, "pitch": 69, "quantizedEndStep": "8", "quantizedStartStep": "6", "startTime": 1.5, "velocity": 100}, {"endTime": 3.0, "pitch": 67, "quantizedEndStep": "12", "quantizedStartStep": "8", "startTime": 2.0, "velocity": 100}, {"endTime": 3.5, "pitch": 71, "quantizedEndStep": "14", "quantizedStartStep": "12", "startTime": 3.0, "velocity": 100}, {"endTime": 4.0, "pitch": 74, "quantizedEndStep": "16", "quantizedStartStep": "14", "startTime": 3.5, "velocity": 100}, {"endTime": 5.5, "pitch": 74, "quantizedEndStep": "22", "quantizedStartStep": "16", "startTime": 4.0, "velocity": 100}, {"endTime": 6.5, "pitch": 64, "quantizedEndStep": "26", "quantizedStartStep": "22", "startTime": 5.5, "velocity": 100}, {"endTime": 7.5, "pitch": 57, "quantizedEndStep": "30", "quantizedStartStep": "26", "startTime": 6.5, "velocity": 100}, {"endTime": 8.0, "pitch": 79, "quantizedEndStep": "32", "quantizedStartStep": "30", "startTime": 7.5, "velocity": 100}, {"endTime": 2.5, "instrument": 1, "pitch": 62, "quantizedEndStep": "10", "velocity": 100}, {"endTime": 3.5, "instrument": 1, "pitch": 61, "quantizedEndStep": "14", "quantizedStartStep": "10", "startTime": 2.5, "velocity": 100}, {"endTime": 4.0, "instrument": 1, "pitch": 62, "quantizedEndStep": "16", "quantizedStartStep": "14", "startTime": 3.5, "velocity": 100}, {"endTime": 5.5, "instrument": 1, "pitch": 62, "quantizedEndStep": "22", "quantizedStartStep": "16", "startTime": 4.0, "velocity": 100}, {"endTime": 6.5, "instrument": 1, "pitch": 61, "quantizedEndStep": "26", "quantizedStartStep": "22", "startTime": 5.5, "velocity": 100}, {"endTime": 7.5, "instrument": 1, "pitch": 71, "quantizedEndStep": "30", "quantizedStartStep": "26", "startTime": 6.5, "velocity": 100}, {"endTime": 8.0, "instrument": 1, "pitch": 70, "quantizedEndStep": "32", "quantizedStartStep": "30", "startTime": 7.5, "velocity": 100}, {"endTime": 0.5, "instrument": 2, "pitch": 57, "quantizedEndStep": "2", "velocity": 100}, {"endTime": 1.5, "instrument": 2, "pitch": 59, "quantizedEndStep": "6", "quantizedStartStep": "2", "startTime": 0.5, "velocity": 100}, {"endTime": 2.0, "instrument": 2, "pitch": 55, "quantizedEndStep": "8", "quantizedStartStep": "6", "startTime": 1.5, "velocity": 100}, {"endTime": 2.5, "instrument": 2, "pitch": 54, "quantizedEndStep": "10", "quantizedStartStep": "8", "startTime": 2.0, "velocity": 100}, {"endTime": 3.0, "instrument": 2, "pitch": 55, "quantizedEndStep": "12", "quantizedStartStep": "10", "startTime": 2.5, "velocity": 100}, {"endTime": 3.5, "instrument": 2, "pitch": 52, "quantizedEndStep": "14", "quantizedStartStep": "12", "startTime": 3.0, "velocity": 100}, {"endTime": 4.0, "instrument": 2, "pitch": 57, "quantizedEndStep": "16", "quantizedStartStep": "14", "startTime": 3.5, "velocity": 100}, {"endTime": 6.5, "instrument": 2, "pitch": 57, "quantizedEndStep": "26", "quantizedStartStep": "16", "startTime": 4.0, "velocity": 100}, {"endTime": 7.0, "instrument": 2, "pitch": 64, "quantizedEndStep": "28", "quantizedStartStep": "26", "startTime": 6.5, "velocity": 100}, {"endTime": 7.5, "instrument": 2, "pitch": 66, "quantizedEndStep": "30", "quantizedStartStep": "28", "startTime": 7.0, "velocity": 100}, {"endTime": 8.0, "instrument": 2, "pitch": 61, "quantizedEndStep": "32", "quantizedStartStep": "30", "startTime": 7.5, "velocity": 100}, {"endTime": 0.5, "instrument": 3, "pitch": 60, "quantizedEndStep": "2", "velocity": 100}, {"endTime": 1.5, "instrument": 3, "pitch": 59, "quantizedEndStep": "6", "quantizedStartStep": "2", "startTime": 0.5, "velocity": 100}, {"endTime": 2.5, "instrument": 3, "pitch": 57, "quantizedEndStep": "10", "quantizedStartStep": "6", "startTime": 1.5, "velocity": 100}, {"endTime": 3.5, "instrument": 3, "pitch": 55, "quantizedEndStep": "14", "quantizedStartStep": "10", "startTime": 2.5, "velocity": 100}, {"endTime": 4.0, "instrument": 3, "pitch": 54, "quantizedEndStep": "16", "quantizedStartStep": "14", "startTime": 3.5, "velocity": 100}, {"endTime": 4.5, "instrument": 3, "pitch": 52, "quantizedEndStep": "18", "quantizedStartStep": "16", "startTime": 4.0, "velocity": 100}, {"endTime": 5.0, "instrument": 3, "pitch": 57, "quantizedEndStep": "20", "quantizedStartStep": "18", "startTime": 4.5, "velocity": 100}, {"endTime": 5.5, "instrument": 3, "pitch": 56, "quantizedEndStep": "22", "quantizedStartStep": "20", "startTime": 5.0, "velocity": 100}, {"endTime": 6.5, "instrument": 3, "pitch": 57, "quantizedEndStep": "26", "quantizedStartStep": "22", "startTime": 5.5, "velocity": 100}, {"endTime": 8.0, "instrument": 3, "pitch": 64, "quantizedEndStep": "32", "quantizedStartStep": "26", "startTime": 6.5, "velocity": 100}], "quantizationInfo": {"stepsPerQuarter": 4}, "tempos": [{"qpm": 60.0}], "ticksPerQuarter": 220, "timeSignatures": [{"denominator": 4, "numerator": 4}], "totalQuantizedSteps": "32", "totalTime": 8.0}, {"notes": [{"endTime": 4.0, "pitch": 69, "quantizedEndStep": "16", "velocity": 100}, {"endTime": 4.5, "pitch": 69, "quantizedEndStep": "18", "quantizedStartStep": "16", "startTime": 4.0, "velocity": 100}, {"endTime": 5.0, "pitch": 67, "quantizedEndStep": "20", "quantizedStartStep": "18", "startTime": 4.5, "velocity": 100}, {"endTime": 7.0, "pitch": 69, "quantizedEndStep": "28", "quantizedStartStep": "20", "startTime": 5.0, "velocity": 100}, {"endTime": 8.0, "pitch": 67, "quantizedEndStep": "32", "quantizedStartStep": "28", "startTime": 7.0, "velocity": 100}, {"endTime": 2.0, "instrument": 1, "pitch": 64, "quantizedEndStep": "8", "velocity": 100}, {"endTime": 3.0, "instrument": 1, "pitch": 69, "quantizedEndStep": "12", "quantizedStartStep": "8", "startTime": 2.0, "velocity": 100}, {"endTime": 4.0, "instrument": 1, "pitch": 64, "quantizedEndStep": "16", "quantizedStartStep": "12", "startTime": 3.0, "velocity": 100}, {"endTime": 4.5, "instrument": 1, "pitch": 64, "quantizedEndStep": "18", "quantizedStartStep": "16", "startTime": 4.0, "velocity": 100}, {"endTime": 4.75, "instrument": 1, "pitch": 62, "quantizedEndStep": "19", "quantizedStartStep": "18", "startTime": 4.5, "velocity": 100}, {"endTime": 5.0, "instrument": 1, "pitch": 61, "quantizedEndStep": "20", "quantizedStartStep": "19", "startTime": 4.75, "velocity": 100}, {"endTime": 6.5, "instrument": 1, "pitch": 62, "quantizedEndStep": "26", "quantizedStartStep": "20", "startTime": 5.0, "velocity": 100}, {"endTime": 7.0, "instrument": 1, "pitch": 60, "quantizedEndStep": "28", "quantizedStartStep": "26", "startTime": 6.5, "velocity": 100}, {"endTime": 8.0, "instrument": 1, "pitch": 59, "quantizedEndStep": "32", "quantizedStartStep": "28", "startTime": 7.0, "velocity": 100}, {"endTime": 2.0, "instrument": 2, "pitch": 61, "quantizedEndStep": "8", "velocity": 100}, {"endTime": 3.0, "instrument": 2, "pitch": 64, "quantizedEndStep": "12", "quantizedStartStep": "8", "startTime": 2.0, "velocity": 100}, {"endTime": 4.0, "instrument": 2, "pitch": 61, "quantizedEndStep": "16", "quantizedStartStep": "12", "startTime": 3.0, "velocity": 100}, {"endTime": 5.0, "instrument": 2, "pitch": 57, "quantizedEndStep": "20", "quantizedStartStep": "16", "startTime": 4.0, "velocity": 100}, {"endTime": 7.0, "instrument": 2, "pitch": 54, "quantizedEndStep": "28", "quantizedStartStep": "20", "startTime": 5.0, "velocity": 100}, {"endTime": 8.0, "instrument": 2, "pitch": 50, "quantizedEndStep": "32", "quantizedStartStep": "28", "startTime": 7.0, "velocity": 100}, {"endTime": 1.5, "instrument": 3, "pitch": 45, "quantizedEndStep": "6", "velocity": 100}, {"endTime": 2.0, "instrument": 3, "pitch": 47, "quantizedEndStep": "8", "quantizedStartStep": "6", "startTime": 1.5, "velocity": 100}, {"endTime": 2.5, "instrument": 3, "pitch": 45, "quantizedEndStep": "10", "quantizedStartStep": "8", "startTime": 2.0, "velocity": 100}, {"endTime": 2.75, "instrument": 3, "pitch": 44, "quantizedEndStep": "11", "quantizedStartStep": "10", "startTime": 2.5, "velocity": 100}, {"endTime": 3.5, "instrument": 3, "pitch": 45, "quantizedEndStep": "14", "quantizedStartStep": "11", "startTime": 2.75, "velocity": 100}, {"endTime": 4.0, "instrument": 3, "pitch": 47, "quantizedEndStep": "16", "quantizedStartStep": "14", "startTime": 3.5, "velocity": 100}, {"endTime": 4.5, "instrument": 3, "pitch": 49, "quantizedEndStep": "18", "quantizedStartStep": "16", "startTime": 4.0, "velocity": 100}, {"endTime": 5.0, "instrument": 3, "pitch": 45, "quantizedEndStep": "20", "quantizedStartStep": "18", "startTime": 4.5, "velocity": 100}, {"endTime": 5.5, "instrument": 3, "pitch": 50, "quantizedEndStep": "22", "quantizedStartStep": "20", "startTime": 5.0, "velocity": 100}, {"endTime": 6.0, "instrument": 3, "pitch": 48, "quantizedEndStep": "24", "quantizedStartStep": "22", "startTime": 5.5, "velocity": 100}, {"endTime": 6.5, "instrument": 3, "pitch": 47, "quantizedEndStep": "26", "quantizedStartStep": "24", "startTime": 6.0, "velocity": 100}, {"endTime": 7.0, "instrument": 3, "pitch": 45, "quantizedEndStep": "28", "quantizedStartStep": "26", "startTime": 6.5, "velocity": 100}, {"endTime": 7.5, "instrument": 3, "pitch": 43, "quantizedEndStep": "30", "quantizedStartStep": "28", "startTime": 7.0, "velocity": 100}, {"endTime": 8.0, "instrument": 3, "pitch": 41, "quantizedEndStep": "32", "quantizedStartStep": "30", "startTime": 7.5, "velocity": 100}], "quantizationInfo": {"stepsPerQuarter": 4}, "tempos": [{"qpm": 60.0}], "ticksPerQuarter": 220, "timeSignatures": [{"denominator": 4, "numerator": 4}], "totalQuantizedSteps": "32", "totalTime": 8.0}], "request_id": [0, 1, 2], "session_id": "48f173b55bff4b628f534559060c4f6f"}
,{"backend": ["r"], "composition_time": [5635], "country": ["tr"], "feedback": ["2"], "input_sequence": [{"notes": [{"endTime": 0.5, "pitch": 67, "pitchName": "G", "quantizedEndStep": "2", "velocity": 100}, {"endTime": 1.0, "pitch": 71, "pitchName": "B", "quantizedEndStep": "4", "quantizedStartStep": "2", "startTime": 0.5, "velocity": 100}, {"endTime": 1.5, "pitch": 71, "pitchName": "B", "quantizedEndStep": "6", "quantizedStartStep": "4", "startTime": 1.0, "velocity": 100}, {"endTime": 2.0, "pitch": 67, "pitchName": "G", "quantizedEndStep": "8", "quantizedStartStep": "6", "startTime": 1.5, "velocity": 100}, {"endTime": 3.0, "pitch": 67, "pitchName": "G", "quantizedEndStep": "12", "quantizedStartStep": "8", "startTime": 2.0, "velocity": 100}, {"endTime": 3.5, "pitch": 64, "pitchName": "E", "quantizedEndStep": "14", "quantizedStartStep": "12", "startTime": 3.0, "velocity": 100}, {"endTime": 4.0, "pitch": 62, "pitchName": "D", "quantizedEndStep": "16", "quantizedStartStep": "14", "startTime": 3.5, "velocity": 100}, {"endTime": 5.5, "pitch": 67, "pitchName": "G", "quantizedEndStep": "22", "quantizedStartStep": "20", "startTime": 5.0, "velocity": 100}, {"endTime": 6.0, "pitch": 72, "pitchName": "C", "quantizedEndStep": "24", "quantizedStartStep": "22", "startTime": 5.5, "velocity": 100}], "quantizationInfo": {"stepsPerQuarter": 4}, "tempos": [{"qpm": 60.0}], "ticksPerQuarter": 220, "timeSignatures": [{"denominator": 4, "numerator": 4}], "totalQuantizedSteps": "24", "totalTime": 6.0}], "key_sig": [""], "loops_listened": [2], "output_sequence": [{"notes": [{"endTime": 0.5, "pitch": 67, "quantizedEndStep": "2", "velocity": 100}, {"endTime": 1.5, "pitch": 71, "quantizedEndStep": "6", "quantizedStartStep": "2", "startTime": 0.5, "velocity": 100}, {"endTime": 3.0, "pitch": 67, "quantizedEndStep": "12", "quantizedStartStep": "6", "startTime": 1.5, "velocity": 100}, {"endTime": 3.5, "pitch": 64, "quantizedEndStep": "14", "quantizedStartStep": "12", "startTime": 3.0, "velocity": 100}, {"endTime": 4.0, "pitch": 62, "quantizedEndStep": "16", "quantizedStartStep": "14", "startTime": 3.5, "velocity": 100}, {"endTime": 4.5, "pitch": 62, "quantizedEndStep": "18", "quantizedStartStep": "16", "startTime": 4.0, "velocity": 100}, {"endTime": 5.5, "pitch": 67, "quantizedEndStep": "22", "quantizedStartStep": "18", "startTime": 4.5, "velocity": 100}, {"endTime": 6.5, "pitch": 72, "quantizedEndStep": "26", "quantizedStartStep": "22", "startTime": 5.5, "velocity": 100}, {"endTime": 8.0, "pitch": 71, "quantizedEndStep": "32", "quantizedStartStep": "26", "startTime": 6.5, "velocity": 100}, {"endTime": 3.0, "instrument": 1, "pitch": 62, "quantizedEndStep": "12", "velocity": 100}, {"endTime": 3.5, "instrument": 1, "pitch": 61, "quantizedEndStep": "14", "quantizedStartStep": "12", "startTime": 3.0, "velocity": 100}, {"endTime": 4.0, "instrument": 1, "pitch": 57, "quantizedEndStep": "16", "quantizedStartStep": "14", "startTime": 3.5, "velocity": 100}, {"endTime": 4.5, "instrument": 1, "pitch": 57, "quantizedEndStep": "18", "quantizedStartStep": "16", "startTime": 4.0, "velocity": 100}, {"endTime": 5.5, "instrument": 1, "pitch": 64, "quantizedEndStep": "22", "quantizedStartStep": "18", "startTime": 4.5, "velocity": 100}, {"endTime": 7.0, "instrument": 1, "pitch": 62, "quantizedEndStep": "28", "quantizedStartStep": "22", "startTime": 5.5, "velocity": 100}, {"endTime": 7.5, "instrument": 1, "pitch": 60, "quantizedEndStep": "30", "quantizedStartStep": "28", "startTime": 7.0, "velocity": 100}, {"endTime": 8.0, "instrument": 1, "pitch": 59, "quantizedEndStep": "32", "quantizedStartStep": "30", "startTime": 7.5, "velocity": 100}, {"endTime": 2.5, "instrument": 2, "pitch": 59, "quantizedEndStep": "10", "velocity": 100}, {"endTime": 3.0, "instrument": 2, "pitch": 57, "quantizedEndStep": "12", "quantizedStartStep": "10", "startTime": 2.5, "velocity": 100}, {"endTime": 3.5, "instrument": 2, "pitch": 55, "quantizedEndStep": "14", "quantizedStartStep": "12", "startTime": 3.0, "velocity": 100}, {"endTime": 4.0, "instrument": 2, "pitch": 54, "quantizedEndStep": "16", "quantizedStartStep": "14", "startTime": 3.5, "velocity": 100}, {"endTime": 4.5, "instrument": 2, "pitch": 54, "quantizedEndStep": "18", "quantizedStartStep": "16", "startTime": 4.0, "velocity": 100}, {"endTime": 5.5, "instrument": 2, "pitch": 59, "quantizedEndStep": "22", "quantizedStartStep": "18", "startTime": 4.5, "velocity": 100}, {"endTime": 6.5, "instrument": 2, "pitch": 57, "quantizedEndStep": "26", "quantizedStartStep": "22", "startTime": 5.5, "velocity": 100}, {"endTime": 8.0, "instrument": 2, "pitch": 55, "quantizedEndStep": "32", "quantizedStartStep": "26", "startTime": 6.5, "velocity": 100}, {"endTime": 0.5, "instrument": 3, "pitch": 43, "quantizedEndStep": "2", "velocity": 100}, {"endTime": 1.0, "instrument": 3, "pitch": 55, "quantizedEndStep": "4", "quantizedStartStep": "2", "startTime": 0.5, "velocity": 100}, {"endTime": 1.5, "instrument": 3, "pitch": 54, "quantizedEndStep": "6", "quantizedStartStep": "4", "startTime": 1.0, "velocity": 100}, {"endTime": 2.5, "instrument": 3, "pitch": 52, "quantizedEndStep": "10", "quantizedStartStep": "6", "startTime": 1.5, "velocity": 100}, {"endTime": 3.25, "instrument": 3, "pitch": 50, "quantizedEndStep": "13", "quantizedStartStep": "10", "startTime": 2.5, "velocity": 100}, {"endTime": 3.5, "instrument": 3, "pitch": 45, "quantizedEndStep": "14", "quantizedStartStep": "13", "startTime": 3.25, "velocity": 100}, {"endTime": 4.0, "instrument": 3, "pitch": 50, "quantizedEndStep": "16", "quantizedStartStep": "14", "startTime": 3.5, "velocity": 100}, {"endTime": 4.5, "instrument": 3, "pitch": 50, "quantizedEndStep": "18", "quantizedStartStep": "16", "startTime": 4.0, "velocity": 100}, {"endTime": 5.5, "instrument": 3, "pitch": 52, "quantizedEndStep": "22", "quantizedStartStep": "18", "startTime": 4.5, "velocity": 100}, {"endTime": 6.5, "instrument": 3, "pitch": 54, "quantizedEndStep": "26", "quantizedStartStep": "22", "startTime": 5.5, "velocity": 100}, {"endTime": 7.5, "instrument": 3, "pitch": 55, "quantizedEndStep": "30", "quantizedStartStep": "26", "startTime": 6.5, "velocity": 100}, {"endTime": 8.0, "instrument": 3, "pitch": 50, "quantizedEndStep": "32", "quantizedStartStep": "30", "startTime": 7.5, "velocity": 100}], "quantizationInfo": {"stepsPerQuarter": 4}, "tempos": [{"qpm": 60.0}], "ticksPerQuarter": 220, "timeSignatures": [{"denominator": 4, "numerator": 4}], "totalQuantizedSteps": "32", "totalTime": 8.0}], "request_id": [0], "session_id": "058d477057a44caaaa18a3162ab470b9"}
,{"backend": ["l", "l", "l", "l"], "composition_time": [23392, 34762, 4757, 30044], "country": ["mx", "mx", "mx", "mx"], "feedback": ["2", "", "2", "0"], "input_sequence": [{"notes": [{"endTime": 0.5, "pitch": 76, "pitchName": "E", "quantizedEndStep": "2", "velocity": 100}, {"endTime": 1.0, "pitch": 76, "pitchName": "E", "quantizedEndStep": "4", "quantizedStartStep": "2", "startTime": 0.5, "velocity": 100}, {"endTime": 1.5, "pitch": 76, "pitchName": "E", "quantizedEndStep": "6", "quantizedStartStep": "4", "startTime": 1.0, "velocity": 100}, {"endTime": 2.0, "pitch": 74, "pitchName": "D", "quantizedEndStep": "8", "quantizedStartStep": "6", "startTime": 1.5, "velocity": 100}, {"endTime": 3.0, "pitch": 72, "pitchName": "C", "quantizedEndStep": "12", "quantizedStartStep": "8", "startTime": 2.0, "velocity": 100}, {"endTime": 4.0, "pitch": 72, "pitchName": "C", "quantizedEndStep": "16", "quantizedStartStep": "12", "startTime": 3.0, "velocity": 100}, {"endTime": 4.5, "pitch": 77, "pitchName": "F", "quantizedEndStep": "18", "quantizedStartStep": "16", "startTime": 4.0, "velocity": 100}, {"endTime": 5.0, "pitch": 77, "pitchName": "F", "quantizedEndStep": "20", "quantizedStartStep": "18", "startTime": 4.5, "velocity": 100}, {"endTime": 5.5, "pitch": 77, "pitchName": "F", "quantizedEndStep": "22", "quantizedStartStep": "20", "startTime": 5.0, "velocity": 100}, {"endTime": 6.0, "pitch": 76, "pitchName": "E", "quantizedEndStep": "24", "quantizedStartStep": "22", "startTime": 5.5, "velocity": 100}, {"endTime": 7.0, "pitch": 74, "pitchName": "D", "quantizedEndStep": "28", "quantizedStartStep": "24", "startTime": 6.0, "velocity": 100}, {"endTime": 8.0, "pitch": 74, "pitchName": "D", "quantizedEndStep": "32", "quantizedStartStep": "28", "startTime": 7.0, "velocity": 100}], "quantizationInfo": {"stepsPerQuarter": 4}, "tempos": [{"qpm": 60.0}], "ticksPerQuarter": 220, "timeSignatures": [{"denominator": 4, "numerator": 4}], "totalQuantizedSteps": "32", "totalTime": 8.0}, {"notes": [{"endTime": 1.0, "pitch": 76, "pitchName": "E", "quantizedEndStep": "4", "velocity": 100}, {"endTime": 2.0, "pitch": 72, "pitchName": "C", "quantizedEndStep": "8", "quantizedStartStep": "4", "startTime": 1.0, "velocity": 100}, {"endTime": 2.5, "pitch": 76, "pitchName": "E", "quantizedEndStep": "10", "quantizedStartStep": "8", "startTime": 2.0, "velocity": 100}, {"endTime": 3.0, "pitch": 76, "pitchName": "E", "quantizedEndStep": "12", "quantizedStartStep": "10", "startTime": 2.5, "velocity": 100}, {"endTime": 4.0, "pitch": 72, "pitchName": "C", "quantizedEndStep": "16", "quantizedStartStep": "12", "startTime": 3.0, "velocity": 100}, {"endTime": 5.0, "pitch": 76, "pitchName": "E", "quantizedEndStep": "20", "quantizedStartStep": "16", "startTime": 4.0, "velocity": 100}, {"endTime": 6.0, "pitch": 72, "pitchName": "C", "quantizedEndStep": "24", "quantizedStartStep": "20", "startTime": 5.0, "velocity": 100}, {"endTime": 6.5, "pitch": 76, "pitchName": "E", "quantizedEndStep": "26", "quantizedStartStep": "24", "startTime": 6.0, "velocity": 100}, {"endTime": 7.0, "pitch": 76, "pitchName": "E", "quantizedEndStep": "28", "quantizedStartStep": "26", "startTime": 6.5, "velocity": 100}, {"endTime": 8.0, "pitch": 72, "pitchName": "C", "quantizedEndStep": "32", "quantizedStartStep": "28", "startTime": 7.0, "velocity": 100}], "quantizationInfo": {"stepsPerQuarter": 4}, "tempos": [{"qpm": 60.0}], "ticksPerQuarter": 220, "timeSignatures": [{"denominator": 4, "numerator": 4}], "totalQuantizedSteps": "32", "totalTime": 8.0}, {"notes": [{"endTime": 1.0, "pitch": 76, "pitchName": "E", "quantizedEndStep": "4", "velocity": 100}, {"endTime": 2.0, "pitch": 72, "pitchName": "C", "quantizedEndStep": "8", "quantizedStartStep": "4", "startTime": 1.0, "velocity": 100}, {"endTime": 2.5, "pitch": 76, "pitchName": "E", "quantizedEndStep": "10", "quantizedStartStep": "8", "startTime": 2.0, "velocity": 100}, {"endTime": 3.0, "pitch": 76, "pitchName": "E", "quantizedEndStep": "12", "quantizedStartStep": "10", "startTime": 2.5, "velocity": 100}, {"endTime": 4.0, "pitch": 72, "pitchName": "C", "quantizedEndStep": "16", "quantizedStartStep": "12", "startTime": 3.0, "velocity": 100}, {"endTime": 5.0, "pitch": 76, "pitchName": "E", "quantizedEndStep": "20", "quantizedStartStep": "16", "startTime": 4.0, "velocity": 100}, {"endTime": 6.0, "pitch": 72, "pitchName": "C", "quantizedEndStep": "24", "quantizedStartStep": "20", "startTime": 5.0, "velocity": 100}, {"endTime": 6.5, "pitch": 76, "pitchName": "E", "quantizedEndStep": "26", "quantizedStartStep": "24", "startTime": 6.0, "velocity": 100}, {"endTime": 7.0, "pitch": 76, "pitchName": "E", "quantizedEndStep": "28", "quantizedStartStep": "26", "startTime": 6.5, "velocity": 100}, {"endTime": 8.0, "pitch": 72, "pitchName": "C", "quantizedEndStep": "32", "quantizedStartStep": "28", "startTime": 7.0, "velocity": 100}], "quantizationInfo": {"stepsPerQuarter": 4}, "tempos": [{"qpm": 60.0}], "ticksPerQuarter": 220, "timeSignatures": [{"denominator": 4, "numerator": 4}], "totalQuantizedSteps": "32", "totalTime": 8.0}, {"notes": [{"endTime": 0.5, "pitch": 81, "pitchName": "A", "quantizedEndStep": "2", "velocity": 100}, {"endTime": 1.0, "pitch": 57, "pitchName": "A", "quantizedEndStep": "4", "quantizedStartStep": "2", "startTime": 0.5, "velocity": 100}, {"endTime": 1.5, "pitch": 81, "pitchName": "A", "quantizedEndStep": "6", "quantizedStartStep": "4", "startTime": 1.0, "velocity": 100}, {"endTime": 2.0, "pitch": 57, "pitchName": "A", "quantizedEndStep": "8", "quantizedStartStep": "6", "startTime": 1.5, "velocity": 100}, {"endTime": 2.5, "pitch": 57, "pitchName": "A", "quantizedEndStep": "10", "quantizedStartStep": "8", "startTime": 2.0, "velocity": 100}, {"endTime": 3.0, "pitch": 81, "pitchName": "A", "quantizedEndStep": "12", "quantizedStartStep": "10", "startTime": 2.5, "velocity": 100}, {"endTime": 3.5, "pitch": 81, "pitchName": "A", "quantizedEndStep": "14", "quantizedStartStep": "12", "startTime": 3.0, "velocity": 100}, {"endTime": 4.0, "pitch": 57, "pitchName": "A", "quantizedEndStep": "16", "quantizedStartStep": "14", "startTime": 3.5, "velocity": 100}, {"endTime": 4.5, "pitch": 57, "pitchName": "A", "quantizedEndStep": "18", "quantizedStartStep": "16", "startTime": 4.0, "velocity": 100}, {"endTime": 5.0, "pitch": 57, "pitchName": "A", "quantizedEndStep": "20", "quantizedStartStep": "18", "startTime": 4.5, "velocity": 100}, {"endTime": 5.5, "pitch": 72, "pitchName": "C", "quantizedEndStep": "22", "quantizedStartStep": "20", "startTime": 5.0, "velocity": 100}, {"endTime": 6.0, "pitch": 77, "pitchName": "F", "quantizedEndStep": "24", "quantizedStartStep": "22", "startTime": 5.5, "velocity": 100}, {"endTime": 6.5, "pitch": 76, "pitchName": "E", "quantizedEndStep": "26", "quantizedStartStep": "24", "startTime": 6.0, "velocity": 100}, {"endTime": 7.0, "pitch": 76, "pitchName": "E", "quantizedEndStep": "28", "quantizedStartStep": "26", "startTime": 6.5, "velocity": 100}, {"endTime": 7.5, "pitch": 77, "pitchName": "F", "quantizedEndStep": "30", "quantizedStartStep": "28", "startTime": 7.0, "velocity": 100}, {"endTime": 8.0, "pitch": 67, "pitchName": "G", "quantizedEndStep": "32", "quantizedStartStep": "30", "startTime": 7.5, "velocity": 100}], "quantizationInfo": {"stepsPerQuarter": 4}, "tempos": [{"qpm": 60.0}], "ticksPerQuarter": 220, "timeSignatures": [{"denominator": 4, "numerator": 4}], "totalQuantizedSteps": "32", "totalTime": 8.0}], "key_sig": ["", "", "", ""], "loops_listened": [31, 5, 15, 3], "output_sequence": [{"notes": [{"endTime": 1.5, "pitch": 76, "quantizedEndStep": "6", "velocity": 100}, {"endTime": 2.0, "pitch": 74, "quantizedEndStep": "8", "quantizedStartStep": "6", "startTime": 1.5, "velocity": 100}, {"endTime": 4.0, "pitch": 72, "quantizedEndStep": "16", "quantizedStartStep": "8", "startTime": 2.0, "velocity": 100}, {"endTime": 5.5, "pitch": 77, "quantizedEndStep": "22", "quantizedStartStep": "16", "startTime": 4.0, "velocity": 100}, {"endTime": 6.0, "pitch": 76, "quantizedEndStep": "24", "quantizedStartStep": "22", "startTime": 5.5, "velocity": 100}, {"endTime": 8.0, "pitch": 74, "quantizedEndStep": "32", "quantizedStartStep": "24", "startTime": 6.0, "velocity": 100}, {"endTime": 1.0, "instrument": 1, "pitch": 72, "quantizedEndStep": "4", "velocity": 100}, {"endTime": 3.0, "instrument": 1, "pitch": 70, "quantizedEndStep": "12", "quantizedStartStep": "4", "startTime": 1.0, "velocity": 100}, {"endTime": 4.0, "instrument": 1, "pitch": 69, "quantizedEndStep": "16", "quantizedStartStep": "12", "startTime": 3.0, "velocity": 100}, {"endTime": 6.0, "instrument": 1, "pitch": 69, "quantizedEndStep": "24", "quantizedStartStep": "16", "startTime": 4.0, "velocity": 100}, {"endTime": 6.5, "instrument": 1, "pitch": 70, "quantizedEndStep": "26", "quantizedStartStep": "24", "startTime": 6.0, "velocity": 100}, {"endTime": 7.0, "instrument": 1, "pitch": 69, "quantizedEndStep": "28", "quantizedStartStep": "26", "startTime": 6.5, "velocity": 100}, {"endTime": 7.5, "instrument": 1, "pitch": 70, "quantizedEndStep": "30", "quantizedStartStep": "28", "startTime": 7.0, "velocity": 100}, {"endTime": 8.0, "instrument": 1, "pitch": 69, "quantizedEndStep": "32", "quantizedStartStep": "30", "startTime": 7.5, "velocity": 100}, {"endTime": 0.5, "instrument": 2, "pitch": 67, "quantizedEndStep": "2", "velocity": 100}, {"endTime": 1.0, "instrument": 2, "pitch": 65, "quantizedEndStep": "4", "quantizedStartStep": "2", "startTime": 0.5, "velocity": 100}, {"endTime": 3.0, "instrument": 2, "pitch": 67, "quantizedEndStep": "12", "quantizedStartStep": "4", "startTime": 1.0, "velocity": 100}, {"endTime": 3.5, "instrument": 2, "pitch": 60, "quantizedEndStep": "14", "quantizedStartStep": "12", "startTime": 3.0, "velocity": 100}, {"endTime": 4.0, "instrument": 2, "pitch": 65, "quantizedEndStep": "16", "quantizedStartStep": "14", "startTime": 3.5, "velocity": 100}, {"endTime": 5.5, "instrument": 2, "pitch": 65, "quantizedEndStep": "22", "quantizedStartStep": "16", "startTime": 4.0, "velocity": 100}, {"endTime": 5.75, "instrument": 2, "pitch": 64, "quantizedEndStep": "23", "quantizedStartStep": "22", "startTime": 5.5, "velocity": 100}, {"endTime": 7.0, "instrument": 2, "pitch": 65, "quantizedEndStep": "28", "quantizedStartStep": "23", "startTime": 5.75, "velocity": 100}, {"endTime": 7.5, "instrument": 2, "pitch": 64, "quantizedEndStep": "30", "quantizedStartStep": "28", "startTime": 7.0, "velocity": 100}, {"endTime": 8.0, "instrument": 2, "pitch": 65, "quantizedEndStep": "32", "quantizedStartStep": "30", "startTime": 7.5, "velocity": 100}, {"endTime": 0.5, "instrument": 3, "pitch": 58, "quantizedEndStep": "2", "velocity": 100}, {"endTime": 1.0, "instrument": 3, "pitch": 57, "quantizedEndStep": "4", "quantizedStartStep": "2", "startTime": 0.5, "velocity": 100}, {"endTime": 1.5, "instrument": 3, "pitch": 55, "quantizedEndStep": "6", "quantizedStartStep": "4", "startTime": 1.0, "velocity": 100}, {"endTime": 2.0, "instrument": 3, "pitch": 53, "quantizedEndStep": "8", "quantizedStartStep": "6", "startTime": 1.5, "velocity": 100}, {"endTime": 2.5, "instrument": 3, "pitch": 52, "quantizedEndStep": "10", "quantizedStartStep": "8", "startTime": 2.0, "velocity": 100}, {"endTime": 3.0, "instrument": 3, "pitch": 48, "quantizedEndStep": "12", "quantizedStartStep": "10", "startTime": 2.5, "velocity": 100}, {"endTime": 4.0, "instrument": 3, "pitch": 53, "quantizedEndStep": "16", "quantizedStartStep": "12", "startTime": 3.0, "velocity": 100}, {"endTime": 5.0, "instrument": 3, "pitch": 50, "quantizedEndStep": "20", "quantizedStartStep": "16", "startTime": 4.0, "velocity": 100}, {"endTime": 5.5, "instrument": 3, "pitch": 62, "quantizedEndStep": "22", "quantizedStartStep": "20", "startTime": 5.0, "velocity": 100}, {"endTime": 6.0, "instrument": 3, "pitch": 60, "quantizedEndStep": "24", "quantizedStartStep": "22", "startTime": 5.5, "velocity": 100}, {"endTime": 6.5, "instrument": 3, "pitch": 58, "quantizedEndStep": "26", "quantizedStartStep": "24", "startTime": 6.0, "velocity": 100}, {"endTime": 7.0, "instrument": 3, "pitch": 57, "quantizedEndStep": "28", "quantizedStartStep": "26", "startTime": 6.5, "velocity": 100}, {"endTime": 7.5, "instrument": 3, "pitch": 55, "quantizedEndStep": "30", "quantizedStartStep": "28", "startTime": 7.0, "velocity": 100}, {"endTime": 8.0, "instrument": 3, "pitch": 53, "quantizedEndStep": "32", "quantizedStartStep": "30", "startTime": 7.5, "velocity": 100}], "quantizationInfo": {"stepsPerQuarter": 4}, "tempos": [{"qpm": 60.0}], "ticksPerQuarter": 220, "timeSignatures": [{"denominator": 4, "numerator": 4}], "totalQuantizedSteps": "32", "totalTime": 8.0}, {"notes": [{"endTime": 1.0, "pitch": 76, "quantizedEndStep": "4", "velocity": 100}, {"endTime": 2.0, "pitch": 72, "quantizedEndStep": "8", "quantizedStartStep": "4", "startTime": 1.0, "velocity": 100}, {"endTime": 3.0, "pitch": 76, "quantizedEndStep": "12", "quantizedStartStep": "8", "startTime": 2.0, "velocity": 100}, {"endTime": 4.0, "pitch": 72, "quantizedEndStep": "16", "quantizedStartStep": "12", "startTime": 3.0, "velocity": 100}, {"endTime": 5.0, "pitch": 76, "quantizedEndStep": "20", "quantizedStartStep": "16", "startTime": 4.0, "velocity": 100}, {"endTime": 6.0, "pitch": 72, "quantizedEndStep": "24", "quantizedStartStep": "20", "startTime": 5.0, "velocity": 100}, {"endTime": 7.0, "pitch": 76, "quantizedEndStep": "28", "quantizedStartStep": "24", "startTime": 6.0, "velocity": 100}, {"endTime": 8.0, "pitch": 72, "quantizedEndStep": "32", "quantizedStartStep": "28", "startTime": 7.0, "velocity": 100}, {"endTime": 2.0, "instrument": 1, "pitch": 69, "quantizedEndStep": "8", "velocity": 100}, {"endTime": 3.0, "instrument": 1, "pitch": 67, "quantizedEndStep": "12", "quantizedStartStep": "8", "startTime": 2.0, "velocity": 100}, {"endTime": 4.0, "instrument": 1, "pitch": 69, "quantizedEndStep": "16", "quantizedStartStep": "12", "startTime": 3.0, "velocity": 100}, {"endTime": 5.5, "instrument": 1, "pitch": 67, "quantizedEndStep": "22", "quantizedStartStep": "16", "startTime": 4.0, "velocity": 100}, {"endTime": 6.0, "instrument": 1, "pitch": 65, "quantizedEndStep": "24", "quantizedStartStep": "22", "startTime": 5.5, "velocity": 100}, {"endTime": 7.0, "instrument": 1, "pitch": 67, "quantizedEndStep": "28", "quantizedStartStep": "24", "startTime": 6.0, "velocity": 100}, {"endTime": 8.0, "instrument": 1, "pitch": 65, "quantizedEndStep": "32", "quantizedStartStep": "28", "startTime": 7.0, "velocity": 100}, {"endTime": 4.0, "instrument": 2, "pitch": 60, "quantizedEndStep": "16", "velocity": 100}, {"endTime": 5.0, "instrument": 2, "pitch": 59, "quantizedEndStep": "20", "quantizedStartStep": "16", "startTime": 4.0, "velocity": 100}, {"endTime": 5.5, "instrument": 2, "pitch": 64, "quantizedEndStep": "22", "quantizedStartStep": "20", "startTime": 5.0, "velocity": 100}, {"endTime": 6.0, "instrument": 2, "pitch": 62, "quantizedEndStep": "24", "quantizedStartStep": "22", "startTime": 5.5, "velocity": 100}, {"endTime": 7.0, "instrument": 2, "pitch": 60, "quantizedEndStep": "28", "quantizedStartStep": "24", "startTime": 6.0, "velocity": 100}, {"endTime": 8.0, "instrument": 2, "pitch": 57, "quantizedEndStep": "32", "quantizedStartStep": "28", "startTime": 7.0, "velocity": 100}, {"endTime": 2.0, "instrument": 3, "pitch": 57, "quantizedEndStep": "8", "velocity": 100}, {"endTime": 3.0, "instrument": 3, "pitch": 52, "quantizedEndStep": "12", "quantizedStartStep": "8", "startTime": 2.0, "velocity": 100}, {"endTime": 4.0, "instrument": 3, "pitch": 53, "quantizedEndStep": "16", "quantizedStartStep": "12", "startTime": 3.0, "velocity": 100}, {"endTime": 4.5, "instrument": 3, "pitch": 55, "quantizedEndStep": "18", "quantizedStartStep": "16", "startTime": 4.0, "velocity": 100}, {"endTime": 5.0, "instrument": 3, "pitch": 53, "quantizedEndStep": "20", "quantizedStartStep": "18", "startTime": 4.5, "velocity": 100}, {"endTime": 5.5, "instrument": 3, "pitch": 52, "quantizedEndStep": "22", "quantizedStartStep": "20", "startTime": 5.0, "velocity": 100}, {"endTime": 6.0, "instrument": 3, "pitch": 50, "quantizedEndStep": "24", "quantizedStartStep": "22", "startTime": 5.5, "velocity": 100}, {"endTime": 6.5, "instrument": 3, "pitch": 48, "quantizedEndStep": "26", "quantizedStartStep": "24", "startTime": 6.0, "velocity": 100}, {"endTime": 7.0, "instrument": 3, "pitch": 52, "quantizedEndStep": "28", "quantizedStartStep": "26", "startTime": 6.5, "velocity": 100}, {"endTime": 8.0, "instrument": 3, "pitch": 53, "quantizedEndStep": "32", "quantizedStartStep": "28", "startTime": 7.0, "velocity": 100}], "quantizationInfo": {"stepsPerQuarter": 4}, "tempos": [{"qpm": 60.0}], "ticksPerQuarter": 220, "timeSignatures": [{"denominator": 4, "numerator": 4}], "totalQuantizedSteps": "32", "totalTime": 8.0}, {"notes": [{"endTime": 1.0, "pitch": 76, "quantizedEndStep": "4", "velocity": 100}, {"endTime": 2.0, "pitch": 72, "quantizedEndStep": "8", "quantizedStartStep": "4", "startTime": 1.0, "velocity": 100}, {"endTime": 3.0, "pitch": 76, "quantizedEndStep": "12", "quantizedStartStep": "8", "startTime": 2.0, "velocity": 100}, {"endTime": 4.0, "pitch": 72, "quantizedEndStep": "16", "quantizedStartStep": "12", "startTime": 3.0, "velocity": 100}, {"endTime": 5.0, "pitch": 76, "quantizedEndStep": "20", "quantizedStartStep": "16", "startTime": 4.0, "velocity": 100}, {"endTime": 6.0, "pitch": 72, "quantizedEndStep": "24", "quantizedStartStep": "20", "startTime": 5.0, "velocity": 100}, {"endTime": 7.0, "pitch": 76, "quantizedEndStep": "28", "quantizedStartStep": "24", "startTime": 6.0, "velocity": 100}, {"endTime": 8.0, "pitch": 72, "quantizedEndStep": "32", "quantizedStartStep": "28", "startTime": 7.0, "velocity": 100}, {"endTime": 1.0, "instrument": 1, "pitch": 67, "quantizedEndStep": "4", "velocity": 100}, {"endTime": 2.0, "instrument": 1, "pitch": 69, "quantizedEndStep": "8", "quantizedStartStep": "4", "startTime": 1.0, "velocity": 100}, {"endTime": 4.0, "instrument": 1, "pitch": 67, "quantizedEndStep": "16", "quantizedStartStep": "8", "startTime": 2.0, "velocity": 100}, {"endTime": 6.0, "instrument": 1, "pitch": 69, "quantizedEndStep": "24", "quantizedStartStep": "16", "startTime": 4.0, "velocity": 100}, {"endTime": 6.5, "instrument": 1, "pitch": 71, "quantizedEndStep": "26", "quantizedStartStep": "24", "startTime": 6.0, "velocity": 100}, {"endTime": 7.0, "instrument": 1, "pitch": 68, "quantizedEndStep": "28", "quantizedStartStep": "26", "startTime": 6.5, "velocity": 100}, {"endTime": 8.0, "instrument": 1, "pitch": 69, "quantizedEndStep": "32", "quantizedStartStep": "28", "startTime": 7.0, "velocity": 100}, {"endTime": 1.5, "instrument": 2, "pitch": 60, "quantizedEndStep": "6", "velocity": 100}, {"endTime": 1.75, "instrument": 2, "pitch": 59, "quantizedEndStep": "7", "quantizedStartStep": "6", "startTime": 1.5, "velocity": 100}, {"endTime": 2.0, "instrument": 2, "pitch": 57, "quantizedEndStep": "8", "quantizedStartStep": "7", "startTime": 1.75, "velocity": 100}, {"endTime": 2.5, "instrument": 2, "pitch": 59, "quantizedEndStep": "10", "quantizedStartStep": "8", "startTime": 2.0, "velocity": 100}, {"endTime": 2.75, "instrument": 2, "pitch": 57, "quantizedEndStep": "11", "quantizedStartStep": "10", "startTime": 2.5, "velocity": 100}, {"endTime": 4.0, "instrument": 2, "pitch": 59, "quantizedEndStep": "16", "quantizedStartStep": "11", "startTime": 2.75, "velocity": 100}, {"endTime": 4.5, "instrument": 2, "pitch": 60, "quantizedEndStep": "18", "quantizedStartStep": "16", "startTime": 4.0, "velocity": 100}, {"endTime": 5.0, "instrument": 2, "pitch": 62, "quantizedEndStep": "20", "quantizedStartStep": "18", "startTime": 4.5, "velocity": 100}, {"endTime": 8.0, "instrument": 2, "pitch": 64, "quantizedEndStep": "32", "quantizedStartStep": "20", "startTime": 5.0, "velocity": 100}, {"endTime": 1.0, "instrument": 3, "pitch": 48, "quantizedEndStep": "4", "velocity": 100}, {"endTime": 2.0, "instrument": 3, "pitch": 53, "quantizedEndStep": "8", "quantizedStartStep": "4", "startTime": 1.0, "velocity": 100}, {"endTime": 3.0, "instrument": 3, "pitch": 55, "quantizedEndStep": "12", "quantizedStartStep": "8", "startTime": 2.0, "velocity": 100}, {"endTime": 4.0, "instrument": 3, "pitch": 43, "quantizedEndStep": "16", "quantizedStartStep": "12", "startTime": 3.0, "velocity": 100}, {"endTime": 6.0, "instrument": 3, "pitch": 45, "quantizedEndStep": "24", "quantizedStartStep": "16", "startTime": 4.0, "velocity": 100}, {"endTime": 7.0, "instrument": 3, "pitch": 52, "quantizedEndStep": "28", "quantizedStartStep": "24", "startTime": 6.0, "velocity": 100}, {"endTime": 8.0, "instrument": 3, "pitch": 57, "quantizedEndStep": "32", "quantizedStartStep": "28", "startTime": 7.0, "velocity": 100}], "quantizationInfo": {"stepsPerQuarter": 4}, "tempos": [{"qpm": 60.0}], "ticksPerQuarter": 220, "timeSignatures": [{"denominator": 4, "numerator": 4}], "totalQuantizedSteps": "32", "totalTime": 8.0}, {"notes": [{"endTime": 0.5, "pitch": 81, "quantizedEndStep": "2", "velocity": 100}, {"endTime": 1.0, "pitch": 57, "quantizedEndStep": "4", "quantizedStartStep": "2", "startTime": 0.5, "velocity": 100}, {"endTime": 1.5, "pitch": 81, "quantizedEndStep": "6", "quantizedStartStep": "4", "startTime": 1.0, "velocity": 100}, {"endTime": 2.5, "pitch": 57, "quantizedEndStep": "10", "quantizedStartStep": "6", "startTime": 1.5, "velocity": 100}, {"endTime": 3.5, "pitch": 81, "quantizedEndStep": "14", "quantizedStartStep": "10", "startTime": 2.5, "velocity": 100}, {"endTime": 4.0, "pitch": 57, "quantizedEndStep": "16", "quantizedStartStep": "14", "startTime": 3.5, "velocity": 100}, {"endTime": 5.0, "pitch": 57, "quantizedEndStep": "20", "quantizedStartStep": "16", "startTime": 4.0, "velocity": 100}, {"endTime": 5.5, "pitch": 72, "quantizedEndStep": "22", "quantizedStartStep": "20", "startTime": 5.0, "velocity": 100}, {"endTime": 6.0, "pitch": 77, "quantizedEndStep": "24", "quantizedStartStep": "22", "startTime": 5.5, "velocity": 100}, {"endTime": 7.0, "pitch": 76, "quantizedEndStep": "28", "quantizedStartStep": "24", "startTime": 6.0, "velocity": 100}, {"endTime": 7.5, "pitch": 77, "quantizedEndStep": "30", "quantizedStartStep": "28", "startTime": 7.0, "velocity": 100}, {"endTime": 8.0, "pitch": 67, "quantizedEndStep": "32", "quantizedStartStep": "30", "startTime": 7.5, "velocity": 100}, {"endTime": 1.5, "instrument": 1, "pitch": 71, "quantizedEndStep": "6", "velocity": 100}, {"endTime": 2.5, "instrument": 1, "pitch": 72, "quantizedEndStep": "10", "quantizedStartStep": "6", "startTime": 1.5, "velocity": 100}, {"endTime": 3.5, "instrument": 1, "pitch": 71, "quantizedEndStep": "14", "quantizedStartStep": "10", "startTime": 2.5, "velocity": 100}, {"endTime": 4.0, "instrument": 1, "pitch": 69, "quantizedEndStep": "16", "quantizedStartStep": "14", "startTime": 3.5, "velocity": 100}, {"endTime": 6.5, "instrument": 1, "pitch": 69, "quantizedEndStep": "26", "quantizedStartStep": "16", "startTime": 4.0, "velocity": 100}, {"endTime": 7.5, "instrument": 1, "pitch": 67, "quantizedEndStep": "30", "quantizedStartStep": "26", "startTime": 6.5, "velocity": 100}, {"endTime": 8.0, "instrument": 1, "pitch": 62, "quantizedEndStep": "32", "quantizedStartStep": "30", "startTime": 7.5, "velocity": 100}, {"endTime": 0.5, "instrument": 2, "pitch": 65, "quantizedEndStep": "2", "velocity": 100}, {"endTime": 4.0, "instrument": 2, "pitch": 64, "quantizedEndStep": "16", "quantizedStartStep": "2", "startTime": 0.5, "velocity": 100}, {"endTime": 5.5, "instrument": 2, "pitch": 64, "quantizedEndStep": "22", "quantizedStartStep": "16", "startTime": 4.0, "velocity": 100}, {"endTime": 6.5, "instrument": 2, "pitch": 60, "quantizedEndStep": "26", "quantizedStartStep": "22", "startTime": 5.5, "velocity": 100}, {"endTime": 7.5, "instrument": 2, "pitch": 57, "quantizedEndStep": "30", "quantizedStartStep": "26", "startTime": 6.5, "velocity": 100}, {"endTime": 8.0, "instrument": 2, "pitch": 58, "quantizedEndStep": "32", "quantizedStartStep": "30", "startTime": 7.5, "velocity": 100}, {"endTime": 1.25, "instrument": 3, "pitch": 50, "quantizedEndStep": "5", "velocity": 100}, {"endTime": 2.5, "instrument": 3, "pitch": 57, "quantizedEndStep": "10", "quantizedStartStep": "5", "startTime": 1.25, "velocity": 100}, {"endTime": 3.5, "instrument": 3, "pitch": 52, "quantizedEndStep": "14", "quantizedStartStep": "10", "startTime": 2.5, "velocity": 100}, {"endTime": 4.0, "instrument": 3, "pitch": 57, "quantizedEndStep": "16", "quantizedStartStep": "14", "startTime": 3.5, "velocity": 100}, {"endTime": 5.5, "instrument": 3, "pitch": 57, "quantizedEndStep": "22", "quantizedStartStep": "16", "startTime": 4.0, "velocity": 100}, {"endTime": 6.5, "instrument": 3, "pitch": 45, "quantizedEndStep": "26", "quantizedStartStep": "22", "startTime": 5.5, "velocity": 100}, {"endTime": 7.0, "instrument": 3, "pitch": 50, "quantizedEndStep": "28", "quantizedStartStep": "26", "startTime": 6.5, "velocity": 100}, {"endTime": 7.5, "instrument": 3, "pitch": 48, "quantizedEndStep": "30", "quantizedStartStep": "28", "startTime": 7.0, "velocity": 100}, {"endTime": 8.0, "instrument": 3, "pitch": 50, "quantizedEndStep": "32", "quantizedStartStep": "30", "startTime": 7.5, "velocity": 100}], "quantizationInfo": {"stepsPerQuarter": 4}, "tempos": [{"qpm": 60.0}], "ticksPerQuarter": 220, "timeSignatures": [{"denominator": 4, "numerator": 4}], "totalQuantizedSteps": "32", "totalTime": 8.0}], "request_id": [0, 1, 2, 3], "session_id": "bdbb4d559b6a45c9bfea2b25cd542f4b"}
,{"backend": ["l", "l", "l", "l", "l", "l", "l", "l"], "composition_time": [67973, 45444, 93138, 826, 826, 46407, 5226, 61059], "country": ["us", "us", "us", "us", "us", "us", "us", "us"], "feedback": ["0", "0", "2", "", "", "2", "2", ""], "input_sequence": [{"keySignatures": [{"key": "G_SHARP", "mode": "NOT_SPECIFIED"}], "notes": [{"endTime": 0.5, "pitch": 73, "pitchName": "D_FLAT", "quantizedEndStep": "2", "velocity": 100}, {"endTime": 1.0, "pitch": 72, "pitchName": "C", "quantizedEndStep": "4", "quantizedStartStep": "2", "startTime": 0.5, "velocity": 100}, {"endTime": 2.0, "pitch": 70, "pitchName": "B_FLAT", "quantizedEndStep": "8", "quantizedStartStep": "4", "startTime": 1.0, "velocity": 100}, {"endTime": 3.0, "pitch": 67, "pitchName": "G", "quantizedEndStep": "12", "quantizedStartStep": "8", "startTime": 2.0, "velocity": 100}, {"endTime": 4.0, "pitch": 73, "pitchName": "D_FLAT", "quantizedEndStep": "16", "quantizedStartStep": "12", "startTime": 3.0, "velocity": 100}, {"endTime": 4.5, "pitch": 72, "pitchName": "C", "quantizedEndStep": "18", "quantizedStartStep": "16", "startTime": 4.0, "velocity": 100}, {"endTime": 5.0, "pitch": 63, "pitchName": "E_FLAT", "quantizedEndStep": "20", "quantizedStartStep": "18", "startTime": 4.5, "velocity": 100}, {"endTime": 5.5, "pitch": 68, "pitchName": "A_FLAT", "quantizedEndStep": "22", "quantizedStartStep": "20", "startTime": 5.0, "velocity": 100}, {"endTime": 6.0, "pitch": 75, "pitchName": "E_FLAT", "quantizedEndStep": "24", "quantizedStartStep": "22", "startTime": 5.5, "velocity": 100}, {"endTime": 7.0, "pitch": 70, "pitchName": "B_FLAT", "quantizedEndStep": "28", "quantizedStartStep": "24", "startTime": 6.0, "velocity": 100}, {"endTime": 7.5, "pitch": 67, "pitchName": "G", "quantizedEndStep": "30", "quantizedStartStep": "28", "startTime": 7.0, "velocity": 100}, {"endTime": 8.0, "pitch": 70, "pitchName": "B_FLAT", "quantizedEndStep": "32", "quantizedStartStep": "30", "startTime": 7.5, "velocity": 100}], "quantizationInfo": {"stepsPerQuarter": 4}, "tempos": [{"qpm": 60.0}], "ticksPerQuarter": 220, "timeSignatures": [{"denominator": 4, "numerator": 4}], "totalQuantizedSteps": "32", "totalTime": 8.0}, {"keySignatures": [{"key": "F", "mode": "NOT_SPECIFIED"}], "notes": [{"endTime": 0.25, "pitch": 81, "pitchName": "A", "quantizedEndStep": "1", "velocity": 100}, {"endTime": 0.5, "pitch": 79, "pitchName": "G", "quantizedEndStep": "2", "quantizedStartStep": "1", "startTime": 0.25, "velocity": 100}, {"endTime": 1.0, "pitch": 81, "pitchName": "A", "quantizedEndStep": "4", "quantizedStartStep": "2", "startTime": 0.5, "velocity": 100}, {"endTime": 1.75, "pitch": 79, "pitchName": "G", "quantizedEndStep": "7", "quantizedStartStep": "6", "startTime": 1.5, "velocity": 100}, {"endTime": 2.0, "pitch": 77, "pitchName": "F", "quantizedEndStep": "8", "quantizedStartStep": "7", "startTime": 1.75, "velocity": 100}, {"endTime": 2.25, "pitch": 76, "pitchName": "E", "quantizedEndStep": "9", "quantizedStartStep": "8", "startTime": 2.0, "velocity": 100}, {"endTime": 2.5, "pitch": 74, "pitchName": "D", "quantizedEndStep": "10", "quantizedStartStep": "9", "startTime": 2.25, "velocity": 100}, {"endTime": 3.0, "pitch": 73, "pitchName": "C_SHARP", "quantizedEndStep": "12", "quantizedStartStep": "10", "startTime": 2.5, "velocity": 100}, {"endTime": 4.0, "pitch": 74, "pitchName": "D", "quantizedEndStep": "16", "quantizedStartStep": "12", "startTime": 3.0, "velocity": 100}, {"endTime": 4.25, "pitch": 69, "pitchName": "A", "quantizedEndStep": "17", "quantizedStartStep": "16", "startTime": 4.0, "velocity": 100}, {"endTime": 4.5, "pitch": 67, "pitchName": "G", "quantizedEndStep": "18", "quantizedStartStep": "17", "startTime": 4.25, "velocity": 100}, {"endTime": 5.0, "pitch": 69, "pitchName": "A", "quantizedEndStep": "20", "quantizedStartStep": "18", "startTime": 4.5, "velocity": 100}, {"endTime": 6.0, "pitch": 64, "pitchName": "E", "quantizedEndStep": "24", "quantizedStartStep": "22", "startTime": 5.5, "velocity": 100}, {"endTime": 6.5, "pitch": 65, "pitchName": "F", "quantizedEndStep": "26", "quantizedStartStep": "24", "startTime": 6.0, "velocity": 100}, {"endTime": 7.0, "pitch": 61, "pitchName": "C_SHARP", "quantizedEndStep": "28", "quantizedStartStep": "26", "startTime": 6.5, "velocity": 100}, {"endTime": 8.0, "pitch": 62, "pitchName": "D", "quantizedEndStep": "32", "quantizedStartStep": "28", "startTime": 7.0, "velocity": 100}], "quantizationInfo": {"stepsPerQuarter": 4}, "tempos": [{"qpm": 60.0}], "ticksPerQuarter": 220, "timeSignatures": [{"denominator": 4, "numerator": 4}], "totalQuantizedSteps": "32", "totalTime": 8.0}, {"keySignatures": [{"key": "F", "mode": "NOT_SPECIFIED"}], "notes": [{"endTime": 0.125, "pitch": 69, "pitchName": "A", "quantizedEndStep": "1", "velocity": 100}, {"endTime": 0.25, "pitch": 69, "pitchName": "A", "quantizedEndStep": "2", "quantizedStartStep": "1", "startTime": 0.125, "velocity": 100}, {"endTime": 0.375, "pitch": 69, "pitchName": "A", "quantizedEndStep": "3", "quantizedStartStep": "2", "startTime": 0.25, "velocity": 100}, {"endTime": 0.5, "pitch": 69, "pitchName": "A", "quantizedEndStep": "4", "quantizedStartStep": "3", "startTime": 0.375, "velocity": 100}, {"endTime": 0.625, "pitch": 69, "pitchName": "A", "quantizedEndStep": "5", "quantizedStartStep": "4", "startTime": 0.5, "velocity": 100}, {"endTime": 0.75, "pitch": 67, "pitchName": "G", "quantizedEndStep": "6", "quantizedStartStep": "5", "startTime": 0.625, "velocity": 100}, {"endTime": 1.0, "pitch": 64, "pitchName": "E", "quantizedEndStep": "8", "quantizedStartStep": "7", "startTime": 0.875, "velocity": 100}, {"endTime": 1.25, "pitch": 65, "pitchName": "F", "quantizedEndStep": "10", "quantizedStartStep": "9", "startTime": 1.125, "velocity": 100}, {"endTime": 1.875, "pitch": 58, "pitchName": "B_FLAT", "quantizedEndStep": "15", "quantizedStartStep": "14", "startTime": 1.75, "velocity": 100}, {"endTime": 2.0, "pitch": 67, "pitchName": "G", "quantizedEndStep": "16", "quantizedStartStep": "15", "startTime": 1.875, "velocity": 100}, {"endTime": 2.5, "pitch": 67, "pitchName": "G", "quantizedEndStep": "20", "quantizedStartStep": "19", "startTime": 2.375, "velocity": 100}, {"endTime": 3.0, "pitch": 64, "pitchName": "E", "quantizedEndStep": "24", "quantizedStartStep": "22", "startTime": 2.75, "velocity": 100}, {"endTime": 3.125, "pitch": 64, "pitchName": "E", "quantizedEndStep": "25", "quantizedStartStep": "24", "startTime": 3.0, "velocity": 100}, {"endTime": 3.25, "pitch": 64, "pitchName": "E", "quantizedEndStep": "26", "quantizedStartStep": "25", "startTime": 3.125, "velocity": 100}, {"endTime": 3.375, "pitch": 72, "pitchName": "C", "quantizedEndStep": "27", "quantizedStartStep": "26", "startTime": 3.25, "velocity": 100}, {"endTime": 3.5, "pitch": 64, "pitchName": "E", "quantizedEndStep": "28", "quantizedStartStep": "27", "startTime": 3.375, "velocity": 100}, {"endTime": 3.625, "pitch": 64, "pitchName": "E", "quantizedEndStep": "29", "quantizedStartStep": "28", "startTime": 3.5, "velocity": 100}, {"endTime": 3.75, "pitch": 62, "pitchName": "D", "quantizedEndStep": "30", "quantizedStartStep": "29", "startTime": 3.625, "velocity": 100}, {"endTime": 3.875, "pitch": 74, "pitchName": "D", "quantizedEndStep": "31", "quantizedStartStep": "30", "startTime": 3.75, "velocity": 100}, {"endTime": 4.0, "pitch": 70, "pitchName": "B_FLAT", "quantizedEndStep": "32", "quantizedStartStep": "31", "startTime": 3.875, "velocity": 100}], "quantizationInfo": {"stepsPerQuarter": 4}, "tempos": [{"qpm": 120.0}], "ticksPerQuarter": 220, "timeSignatures": [{"denominator": 4, "numerator": 4}], "totalQuantizedSteps": "32", "totalTime": 4.0}, {"keySignatures": [{"key": "F", "mode": "NOT_SPECIFIED"}], "notes": [{"endTime": 0.125, "pitch": 69, "pitchName": "A", "quantizedEndStep": "1", "velocity": 100}, {"endTime": 0.25, "pitch": 69, "pitchName": "A", "quantizedEndStep": "2", "quantizedStartStep": "1", "startTime": 0.125, "velocity": 100}, {"endTime": 0.375, "pitch": 69, "pitchName": "A", "quantizedEndStep": "3", "quantizedStartStep": "2", "startTime": 0.25, "velocity": 100}, {"endTime": 0.5, "pitch": 69, "pitchName": "A", "quantizedEndStep": "4", "quantizedStartStep": "3", "startTime": 0.375, "velocity": 100}, {"endTime": 0.625, "pitch": 69, "pitchName": "A", "quantizedEndStep": "5", "quantizedStartStep": "4", "startTime": 0.5, "velocity": 100}, {"endTime": 0.75, "pitch": 67, "pitchName": "G", "quantizedEndStep": "6", "quantizedStartStep": "5", "startTime": 0.625, "velocity": 100}, {"endTime": 1.0, "pitch": 64, "pitchName": "E", "quantizedEndStep": "8", "quantizedStartStep": "7", "startTime": 0.875, "velocity": 100}, {"endTime": 1.25, "pitch": 65, "pitchName": "F", "quantizedEndStep": "10", "quantizedStartStep": "9", "startTime": 1.125, "velocity": 100}, {"endTime": 1.875, "pitch": 58, "pitchName": "B_FLAT", "quantizedEndStep": "15", "quantizedStartStep": "14", "startTime": 1.75, "velocity": 100}, {"endTime": 2.0, "pitch": 67, "pitchName": "G", "quantizedEndStep": "16", "quantizedStartStep": "15", "startTime": 1.875, "velocity": 100}, {"endTime": 2.5, "pitch": 67, "pitchName": "G", "quantizedEndStep": "20", "quantizedStartStep": "19", "startTime": 2.375, "velocity": 100}, {"endTime": 3.0, "pitch": 64, "pitchName": "E", "quantizedEndStep": "24", "quantizedStartStep": "22", "startTime": 2.75, "velocity": 100}, {"endTime": 3.125, "pitch": 64, "pitchName": "E", "quantizedEndStep": "25", "quantizedStartStep": "24", "startTime": 3.0, "velocity": 100}, {"endTime": 3.25, "pitch": 64, "pitchName": "E", "quantizedEndStep": "26", "quantizedStartStep": "25", "startTime": 3.125, "velocity": 100}, {"endTime": 3.375, "pitch": 72, "pitchName": "C", "quantizedEndStep": "27", "quantizedStartStep": "26", "startTime": 3.25, "velocity": 100}, {"endTime": 3.5, "pitch": 64, "pitchName": "E", "quantizedEndStep": "28", "quantizedStartStep": "27", "startTime": 3.375, "velocity": 100}, {"endTime": 3.625, "pitch": 64, "pitchName": "E", "quantizedEndStep": "29", "quantizedStartStep": "28", "startTime": 3.5, "velocity": 100}, {"endTime": 3.75, "pitch": 62, "pitchName": "D", "quantizedEndStep": "30", "quantizedStartStep": "29", "startTime": 3.625, "velocity": 100}, {"endTime": 3.875, "pitch": 74, "pitchName": "D", "quantizedEndStep": "31", "quantizedStartStep": "30", "startTime": 3.75, "velocity": 100}, {"endTime": 4.0, "pitch": 70, "pitchName": "B_FLAT", "quantizedEndStep": "32", "quantizedStartStep": "31", "startTime": 3.875, "velocity": 100}], "quantizationInfo": {"stepsPerQuarter": 4}, "tempos": [{"qpm": 120.0}], "ticksPerQuarter": 220, "timeSignatures": [{"denominator": 4, "numerator": 4}], "totalQuantizedSteps": "32", "totalTime": 4.0}, {"keySignatures": [{"key": "F", "mode": "NOT_SPECIFIED"}], "notes": [{"endTime": 0.125, "pitch": 69, "pitchName": "A", "quantizedEndStep": "1", "velocity": 100}, {"endTime": 0.25, "pitch": 69, "pitchName": "A", "quantizedEndStep": "2", "quantizedStartStep": "1", "startTime": 0.125, "velocity": 100}, {"endTime": 0.375, "pitch": 69, "pitchName": "A", "quantizedEndStep": "3", "quantizedStartStep": "2", "startTime": 0.25, "velocity": 100}, {"endTime": 0.5, "pitch": 69, "pitchName": "A", "quantizedEndStep": "4", "quantizedStartStep": "3", "startTime": 0.375, "velocity": 100}, {"endTime": 0.625, "pitch": 69, "pitchName": "A", "quantizedEndStep": "5", "quantizedStartStep": "4", "startTime": 0.5, "velocity": 100}, {"endTime": 0.75, "pitch": 67, "pitchName": "G", "quantizedEndStep": "6", "quantizedStartStep": "5", "startTime": 0.625, "velocity": 100}, {"endTime": 1.0, "pitch": 64, "pitchName": "E", "quantizedEndStep": "8", "quantizedStartStep": "7", "startTime": 0.875, "velocity": 100}, {"endTime": 1.25, "pitch": 65, "pitchName": "F", "quantizedEndStep": "10", "quantizedStartStep": "9", "startTime": 1.125, "velocity": 100}, {"endTime": 1.875, "pitch": 58, "pitchName": "B_FLAT", "quantizedEndStep": "15", "quantizedStartStep": "14", "startTime": 1.75, "velocity": 100}, {"endTime": 2.0, "pitch": 67, "pitchName": "G", "quantizedEndStep": "16", "quantizedStartStep": "15", "startTime": 1.875, "velocity": 100}, {"endTime": 2.5, "pitch": 67, "pitchName": "G", "quantizedEndStep": "20", "quantizedStartStep": "19", "startTime": 2.375, "velocity": 100}, {"endTime": 3.0, "pitch": 64, "pitchName": "E", "quantizedEndStep": "24", "quantizedStartStep": "22", "startTime": 2.75, "velocity": 100}, {"endTime": 3.125, "pitch": 64, "pitchName": "E", "quantizedEndStep": "25", "quantizedStartStep": "24", "startTime": 3.0, "velocity": 100}, {"endTime": 3.25, "pitch": 64, "pitchName": "E", "quantizedEndStep": "26", "quantizedStartStep": "25", "startTime": 3.125, "velocity": 100}, {"endTime": 3.375, "pitch": 72, "pitchName": "C", "quantizedEndStep": "27", "quantizedStartStep": "26", "startTime": 3.25, "velocity": 100}, {"endTime": 3.5, "pitch": 64, "pitchName": "E", "quantizedEndStep": "28", "quantizedStartStep": "27", "startTime": 3.375, "velocity": 100}, {"endTime": 3.625, "pitch": 64, "pitchName": "E", "quantizedEndStep": "29", "quantizedStartStep": "28", "startTime": 3.5, "velocity": 100}, {"endTime": 3.75, "pitch": 62, "pitchName": "D", "quantizedEndStep": "30", "quantizedStartStep": "29", "startTime": 3.625, "velocity": 100}, {"endTime": 3.875, "pitch": 74, "pitchName": "D", "quantizedEndStep": "31", "quantizedStartStep": "30", "startTime": 3.75, "velocity": 100}, {"endTime": 4.0, "pitch": 70, "pitchName": "B_FLAT", "quantizedEndStep": "32", "quantizedStartStep": "31", "startTime": 3.875, "velocity": 100}], "quantizationInfo": {"stepsPerQuarter": 4}, "tempos": [{"qpm": 120.0}], "ticksPerQuarter": 220, "timeSignatures": [{"denominator": 4, "numerator": 4}], "totalQuantizedSteps": "32", "totalTime": 4.0}, {"keySignatures": [{"key": "F", "mode": "NOT_SPECIFIED"}], "notes": [{"endTime": 0.125, "pitch": 69, "pitchName": "A", "quantizedEndStep": "1", "velocity": 100}, {"endTime": 0.25, "pitch": 69, "pitchName": "A", "quantizedEndStep": "2", "quantizedStartStep": "1", "startTime": 0.125, "velocity": 100}, {"endTime": 0.375, "pitch": 69, "pitchName": "A", "quantizedEndStep": "3", "quantizedStartStep": "2", "startTime": 0.25, "velocity": 100}, {"endTime": 0.5, "pitch": 69, "pitchName": "A", "quantizedEndStep": "4", "quantizedStartStep": "3", "startTime": 0.375, "velocity": 100}, {"endTime": 0.625, "pitch": 69, "pitchName": "A", "quantizedEndStep": "5", "quantizedStartStep": "4", "startTime": 0.5, "velocity": 100}, {"endTime": 0.75, "pitch": 67, "pitchName": "G", "quantizedEndStep": "6", "quantizedStartStep": "5", "startTime": 0.625, "velocity": 100}, {"endTime": 1.0, "pitch": 64, "pitchName": "E", "quantizedEndStep": "8", "quantizedStartStep": "7", "startTime": 0.875, "velocity": 100}, {"endTime": 1.125, "pitch": 72, "pitchName": "C", "quantizedEndStep": "9", "quantizedStartStep": "8", "startTime": 1.0, "velocity": 100}, {"endTime": 1.25, "pitch": 65, "pitchName": "F", "quantizedEndStep": "10", "quantizedStartStep": "9", "startTime": 1.125, "velocity": 100}, {"endTime": 1.375, "pitch": 74, "pitchName": "D", "quantizedEndStep": "11", "quantizedStartStep": "10", "startTime": 1.25, "velocity": 100}, {"endTime": 1.5, "pitch": 72, "pitchName": "C", "quantizedEndStep": "12", "quantizedStartStep": "11", "startTime": 1.375, "velocity": 100}, {"endTime": 1.75, "pitch": 74, "pitchName": "D", "quantizedEndStep": "14", "quantizedStartStep": "12", "startTime": 1.5, "velocity": 100}, {"endTime": 1.875, "pitch": 58, "pitchName": "B_FLAT", "quantizedEndStep": "15", "quantizedStartStep": "14", "startTime": 1.75, "velocity": 100}, {"endTime": 2.0, "pitch": 67, "pitchName": "G", "quantizedEndStep": "16", "quantizedStartStep": "15", "startTime": 1.875, "velocity": 100}, {"endTime": 2.125, "pitch": 70, "pitchName": "B_FLAT", "quantizedEndStep": "17", "quantizedStartStep": "16", "startTime": 2.0, "velocity": 100}, {"endTime": 2.25, "pitch": 72, "pitchName": "C", "quantizedEndStep": "18", "quantizedStartStep": "17", "startTime": 2.125, "velocity": 100}, {"endTime": 2.5, "pitch": 67, "pitchName": "G", "quantizedEndStep": "20", "quantizedStartStep": "19", "startTime": 2.375, "velocity": 100}, {"endTime": 2.75, "pitch": 72, "pitchName": "C", "quantizedEndStep": "22", "quantizedStartStep": "21", "startTime": 2.625, "velocity": 100}, {"endTime": 2.875, "pitch": 64, "pitchName": "E", "quantizedEndStep": "23", "quantizedStartStep": "22", "startTime": 2.75, "velocity": 100}, {"endTime": 3.0, "pitch": 70, "pitchName": "B_FLAT", "quantizedEndStep": "24", "quantizedStartStep": "23", "startTime": 2.875, "velocity": 100}, {"endTime": 3.125, "pitch": 64, "pitchName": "E", "quantizedEndStep": "25", "quantizedStartStep": "24", "startTime": 3.0, "velocity": 100}, {"endTime": 3.25, "pitch": 64, "pitchName": "E", "quantizedEndStep": "26", "quantizedStartStep": "25", "startTime": 3.125, "velocity": 100}, {"endTime": 3.375, "pitch": 72, "pitchName": "C", "quantizedEndStep": "27", "quantizedStartStep": "26", "startTime": 3.25, "velocity": 100}, {"endTime": 3.5, "pitch": 64, "pitchName": "E", "quantizedEndStep": "28", "quantizedStartStep": "27", "startTime": 3.375, "velocity": 100}, {"endTime": 3.625, "pitch": 64, "pitchName": "E", "quantizedEndStep": "29", "quantizedStartStep": "28", "startTime": 3.5, "velocity": 100}, {"endTime": 3.75, "pitch": 62, "pitchName": "D", "quantizedEndStep": "30", "quantizedStartStep": "29", "startTime": 3.625, "velocity": 100}, {"endTime": 3.875, "pitch": 74, "pitchName": "D", "quantizedEndStep": "31", "quantizedStartStep": "30", "startTime": 3.75, "velocity": 100}, {"endTime": 4.0, "pitch": 70, "pitchName": "B_FLAT", "quantizedEndStep": "32", "quantizedStartStep": "31", "startTime": 3.875, "velocity": 100}], "quantizationInfo": {"stepsPerQuarter": 4}, "tempos": [{"qpm": 120.0}], "ticksPerQuarter": 220, "timeSignatures": [{"denominator": 4, "numerator": 4}], "totalQuantizedSteps": "32", "totalTime": 4.0}, {"keySignatures": [{"key": "F", "mode": "NOT_SPECIFIED"}], "notes": [{"endTime": 0.125, "pitch": 69, "pitchName": "A", "quantizedEndStep": "1", "velocity": 100}, {"endTime": 0.25, "pitch": 69, "pitchName": "A", "quantizedEndStep": "2", "quantizedStartStep": "1", "startTime": 0.125, "velocity": 100}, {"endTime": 0.375, "pitch": 69, "pitchName": "A", "quantizedEndStep": "3", "quantizedStartStep": "2", "startTime": 0.25, "velocity": 100}, {"endTime": 0.5, "pitch": 69, "pitchName": "A", "quantizedEndStep": "4", "quantizedStartStep": "3", "startTime": 0.375, "velocity": 100}, {"endTime": 0.625, "pitch": 69, "pitchName": "A", "quantizedEndStep": "5", "quantizedStartStep": "4", "startTime": 0.5, "velocity": 100}, {"endTime": 0.75, "pitch": 67, "pitchName": "G", "quantizedEndStep": "6", "quantizedStartStep": "5", "startTime": 0.625, "velocity": 100}, {"endTime": 1.0, "pitch": 64, "pitchName": "E", "quantizedEndStep": "8", "quantizedStartStep": "7", "startTime": 0.875, "velocity": 100}, {"endTime": 1.125, "pitch": 72, "pitchName": "C", "quantizedEndStep": "9", "quantizedStartStep": "8", "startTime": 1.0, "velocity": 100}, {"endTime": 1.25, "pitch": 65, "pitchName": "F", "quantizedEndStep": "10", "quantizedStartStep": "9", "startTime": 1.125, "velocity": 100}, {"endTime": 1.375, "pitch": 74, "pitchName": "D", "quantizedEndStep": "11", "quantizedStartStep": "10", "startTime": 1.25, "velocity": 100}, {"endTime": 1.5, "pitch": 72, "pitchName": "C", "quantizedEndStep": "12", "quantizedStartStep": "11", "startTime": 1.375, "velocity": 100}, {"endTime": 1.75, "pitch": 74, "pitchName": "D", "quantizedEndStep": "14", "quantizedStartStep": "12", "startTime": 1.5, "velocity": 100}, {"endTime": 1.875, "pitch": 58, "pitchName": "B_FLAT", "quantizedEndStep": "15", "quantizedStartStep": "14", "startTime": 1.75, "velocity": 100}, {"endTime": 2.0, "pitch": 67, "pitchName": "G", "quantizedEndStep": "16", "quantizedStartStep": "15", "startTime": 1.875, "velocity": 100}, {"endTime": 2.125, "pitch": 70, "pitchName": "B_FLAT", "quantizedEndStep": "17", "quantizedStartStep": "16", "startTime": 2.0, "velocity": 100}, {"endTime": 2.25, "pitch": 72, "pitchName": "C", "quantizedEndStep": "18", "quantizedStartStep": "17", "startTime": 2.125, "velocity": 100}, {"endTime": 2.5, "pitch": 67, "pitchName": "G", "quantizedEndStep": "20", "quantizedStartStep": "19", "startTime": 2.375, "velocity": 100}, {"endTime": 2.75, "pitch": 72, "pitchName": "C", "quantizedEndStep": "22", "quantizedStartStep": "21", "startTime": 2.625, "velocity": 100}, {"endTime": 2.875, "pitch": 64, "pitchName": "E", "quantizedEndStep": "23", "quantizedStartStep": "22", "startTime": 2.75, "velocity": 100}, {"endTime": 3.0, "pitch": 70, "pitchName": "B_FLAT", "quantizedEndStep": "24", "quantizedStartStep": "23", "startTime": 2.875, "velocity": 100}, {"endTime": 3.125, "pitch": 64, "pitchName": "E", "quantizedEndStep": "25", "quantizedStartStep": "24", "startTime": 3.0, "velocity": 100}, {"endTime": 3.25, "pitch": 64, "pitchName": "E", "quantizedEndStep": "26", "quantizedStartStep": "25", "startTime": 3.125, "velocity": 100}, {"endTime": 3.375, "pitch": 72, "pitchName": "C", "quantizedEndStep": "27", "quantizedStartStep": "26", "startTime": 3.25, "velocity": 100}, {"endTime": 3.5, "pitch": 64, "pitchName": "E", "quantizedEndStep": "28", "quantizedStartStep": "27", "startTime": 3.375, "velocity": 100}, {"endTime": 3.625, "pitch": 64, "pitchName": "E", "quantizedEndStep": "29", "quantizedStartStep": "28", "startTime": 3.5, "velocity": 100}, {"endTime": 3.75, "pitch": 62, "pitchName": "D", "quantizedEndStep": "30", "quantizedStartStep": "29", "startTime": 3.625, "velocity": 100}, {"endTime": 3.875, "pitch": 74, "pitchName": "D", "quantizedEndStep": "31", "quantizedStartStep": "30", "startTime": 3.75, "velocity": 100}, {"endTime": 4.0, "pitch": 70, "pitchName": "B_FLAT", "quantizedEndStep": "32", "quantizedStartStep": "31", "startTime": 3.875, "velocity": 100}], "quantizationInfo": {"stepsPerQuarter": 4}, "tempos": [{"qpm": 120.0}], "ticksPerQuarter": 220, "timeSignatures": [{"denominator": 4, "numerator": 4}], "totalQuantizedSteps": "32", "totalTime": 4.0}, {"keySignatures": [{"key": "F", "mode": "NOT_SPECIFIED"}], "notes": [{"endTime": 0.125, "pitch": 67, "pitchName": "G", "quantizedEndStep": "1", "velocity": 100}, {"endTime": 0.25, "pitch": 69, "pitchName": "A", "quantizedEndStep": "2", "quantizedStartStep": "1", "startTime": 0.125, "velocity": 100}, {"endTime": 1.0, "pitch": 58, "pitchName": "B_FLAT", "quantizedEndStep": "8", "quantizedStartStep": "7", "startTime": 0.875, "velocity": 100}, {"endTime": 2.0, "pitch": 81, "pitchName": "A", "quantizedEndStep": "16", "quantizedStartStep": "12", "startTime": 1.5, "velocity": 100}, {"endTime": 2.25, "pitch": 79, "pitchName": "G", "quantizedEndStep": "18", "quantizedStartStep": "17", "startTime": 2.125, "velocity": 100}, {"endTime": 2.5, "pitch": 69, "pitchName": "A", "quantizedEndStep": "20", "quantizedStartStep": "19", "startTime": 2.375, "velocity": 100}, {"endTime": 3.75, "pitch": 70, "pitchName": "B_FLAT", "quantizedEndStep": "30", "quantizedStartStep": "29", "startTime": 3.625, "velocity": 100}], "quantizationInfo": {"stepsPerQuarter": 4}, "tempos": [{"qpm": 120.0}], "ticksPerQuarter": 220, "timeSignatures": [{"denominator": 4, "numerator": 4}], "totalQuantizedSteps": "30", "totalTime": 3.75}], "key_sig": ["8", "11", "11", "11", "11", "11", "11", "11"], "loops_listened": [7, 2, 10, 0, 3, 4, 3, 4], "output_sequence": [{"keySignatures": [{"key": "G_SHARP", "mode": "NOT_SPECIFIED"}], "notes": [{"endTime": 0.5, "pitch": 73, "quantizedEndStep": "2", "velocity": 100}, {"endTime": 1.0, "pitch": 72, "quantizedEndStep": "4", "quantizedStartStep": "2", "startTime": 0.5, "velocity": 100}, {"endTime": 2.0, "pitch": 70, "quantizedEndStep": "8", "quantizedStartStep": "4", "startTime": 1.0, "velocity": 100}, {"endTime": 3.0, "pitch": 67, "quantizedEndStep": "12", "quantizedStartStep": "8", "startTime": 2.0, "velocity": 100}, {"endTime": 4.0, "pitch": 73, "quantizedEndStep": "16", "quantizedStartStep": "12", "startTime": 3.0, "velocity": 100}, {"endTime": 4.5, "pitch": 72, "quantizedEndStep": "18", "quantizedStartStep": "16", "startTime": 4.0, "velocity": 100}, {"endTime": 5.0, "pitch": 63, "quantizedEndStep": "20", "quantizedStartStep": "18", "startTime": 4.5, "velocity": 100}, {"endTime": 5.5, "pitch": 68, "quantizedEndStep": "22", "quantizedStartStep": "20", "startTime": 5.0, "velocity": 100}, {"endTime": 6.0, "pitch": 75, "quantizedEndStep": "24", "quantizedStartStep": "22", "startTime": 5.5, "velocity": 100}, {"endTime": 7.0, "pitch": 70, "quantizedEndStep": "28", "quantizedStartStep": "24", "startTime": 6.0, "velocity": 100}, {"endTime": 7.5, "pitch": 67, "quantizedEndStep": "30", "quantizedStartStep": "28", "startTime": 7.0, "velocity": 100}, {"endTime": 8.0, "pitch": 70, "quantizedEndStep": "32", "quantizedStartStep": "30", "startTime": 7.5, "velocity": 100}, {"endTime": 1.0, "instrument": 1, "pitch": 65, "quantizedEndStep": "4", "velocity": 100}, {"endTime": 1.75, "instrument": 1, "pitch": 63, "quantizedEndStep": "7", "quantizedStartStep": "4", "startTime": 1.0, "velocity": 100}, {"endTime": 2.0, "instrument": 1, "pitch": 62, "quantizedEndStep": "8", "quantizedStartStep": "7", "startTime": 1.75, "velocity": 100}, {"endTime": 4.0, "instrument": 1, "pitch": 63, "quantizedEndStep": "16", "quantizedStartStep": "8", "startTime": 2.0, "velocity": 100}, {"endTime": 6.0, "instrument": 1, "pitch": 63, "quantizedEndStep": "24", "quantizedStartStep": "16", "startTime": 4.0, "velocity": 100}, {"endTime": 7.0, "instrument": 1, "pitch": 65, "quantizedEndStep": "28", "quantizedStartStep": "24", "startTime": 6.0, "velocity": 100}, {"endTime": 8.0, "instrument": 1, "pitch": 62, "quantizedEndStep": "32", "quantizedStartStep": "28", "startTime": 7.0, "velocity": 100}, {"endTime": 1.0, "instrument": 2, "pitch": 60, "quantizedEndStep": "4", "velocity": 100}, {"endTime": 3.0, "instrument": 2, "pitch": 58, "quantizedEndStep": "12", "quantizedStartStep": "4", "startTime": 1.0, "velocity": 100}, {"endTime": 3.5, "instrument": 2, "pitch": 56, "quantizedEndStep": "14", "quantizedStartStep": "12", "startTime": 3.0, "velocity": 100}, {"endTime": 4.0, "instrument": 2, "pitch": 55, "quantizedEndStep": "16", "quantizedStartStep": "14", "startTime": 3.5, "velocity": 100}, {"endTime": 5.5, "instrument": 2, "pitch": 56, "quantizedEndStep": "22", "quantizedStartStep": "16", "startTime": 4.0, "velocity": 100}, {"endTime": 6.0, "instrument": 2, "pitch": 55, "quantizedEndStep": "24", "quantizedStartStep": "22", "startTime": 5.5, "velocity": 100}, {"endTime": 7.0, "instrument": 2, "pitch": 53, "quantizedEndStep": "28", "quantizedStartStep": "24", "startTime": 6.0, "velocity": 100}, {"endTime": 8.0, "instrument": 2, "pitch": 58, "quantizedEndStep": "32", "quantizedStartStep": "28", "startTime": 7.0, "velocity": 100}, {"endTime": 1.0, "instrument": 3, "pitch": 56, "quantizedEndStep": "4", "velocity": 100}, {"endTime": 1.5, "instrument": 3, "pitch": 55, "quantizedEndStep": "6", "quantizedStartStep": "4", "startTime": 1.0, "velocity": 100}, {"endTime": 2.0, "instrument": 3, "pitch": 53, "quantizedEndStep": "8", "quantizedStartStep": "6", "startTime": 1.5, "velocity": 100}, {"endTime": 2.5, "instrument": 3, "pitch": 51, "quantizedEndStep": "10", "quantizedStartStep": "8", "startTime": 2.0, "velocity": 100}, {"endTime": 3.0, "instrument": 3, "pitch": 49, "quantizedEndStep": "12", "quantizedStartStep": "10", "startTime": 2.5, "velocity": 100}, {"endTime": 3.5, "instrument": 3, "pitch": 48, "quantizedEndStep": "14", "quantizedStartStep": "12", "startTime": 3.0, "velocity": 100}, {"endTime": 4.0, "instrument": 3, "pitch": 46, "quantizedEndStep": "16", "quantizedStartStep": "14", "startTime": 3.5, "velocity": 100}, {"endTime": 4.5, "instrument": 3, "pitch": 44, "quantizedEndStep": "18", "quantizedStartStep": "16", "startTime": 4.0, "velocity": 100}, {"endTime": 5.0, "instrument": 3, "pitch": 46, "quantizedEndStep": "20", "quantizedStartStep": "18", "startTime": 4.5, "velocity": 100}, {"endTime": 6.0, "instrument": 3, "pitch": 48, "quantizedEndStep": "24", "quantizedStartStep": "20", "startTime": 5.0, "velocity": 100}, {"endTime": 7.0, "instrument": 3, "pitch": 50, "quantizedEndStep": "28", "quantizedStartStep": "24", "startTime": 6.0, "velocity": 100}, {"endTime": 7.5, "instrument": 3, "pitch": 51, "quantizedEndStep": "30", "quantizedStartStep": "28", "startTime": 7.0, "velocity": 100}, {"endTime": 8.0, "instrument": 3, "pitch": 53, "quantizedEndStep": "32", "quantizedStartStep": "30", "startTime": 7.5, "velocity": 100}], "quantizationInfo": {"stepsPerQuarter": 4}, "tempos": [{"qpm": 60.0}], "ticksPerQuarter": 220, "timeSignatures": [{"denominator": 4, "numerator": 4}], "totalQuantizedSteps": "32", "totalTime": 8.0}, {"keySignatures": [{"key": "F", "mode": "NOT_SPECIFIED"}], "notes": [{"endTime": 0.25, "pitch": 81, "quantizedEndStep": "1", "velocity": 100}, {"endTime": 0.5, "pitch": 79, "quantizedEndStep": "2", "quantizedStartStep": "1", "startTime": 0.25, "velocity": 100}, {"endTime": 1.0, "pitch": 81, "quantizedEndStep": "4", "quantizedStartStep": "2", "startTime": 0.5, "velocity": 100}, {"endTime": 1.25, "pitch": 77, "quantizedEndStep": "5", "quantizedStartStep": "4", "startTime": 1.0, "velocity": 100}, {"endTime": 1.75, "pitch": 79, "quantizedEndStep": "7", "quantizedStartStep": "5", "startTime": 1.25, "velocity": 100}, {"endTime": 2.0, "pitch": 77, "quantizedEndStep": "8", "quantizedStartStep": "7", "startTime": 1.75, "velocity": 100}, {"endTime": 2.25, "pitch": 76, "quantizedEndStep": "9", "quantizedStartStep": "8", "startTime": 2.0, "velocity": 100}, {"endTime": 2.5, "pitch": 74, "quantizedEndStep": "10", "quantizedStartStep": "9", "startTime": 2.25, "velocity": 100}, {"endTime": 3.0, "pitch": 73, "quantizedEndStep": "12", "quantizedStartStep": "10", "startTime": 2.5, "velocity": 100}, {"endTime": 4.0, "pitch": 74, "quantizedEndStep": "16", "quantizedStartStep": "12", "startTime": 3.0, "velocity": 100}, {"endTime": 4.25, "pitch": 69, "quantizedEndStep": "17", "quantizedStartStep": "16", "startTime": 4.0, "velocity": 100}, {"endTime": 4.5, "pitch": 67, "quantizedEndStep": "18", "quantizedStartStep": "17", "startTime": 4.25, "velocity": 100}, {"endTime": 5.0, "pitch": 69, "quantizedEndStep": "20", "quantizedStartStep": "18", "startTime": 4.5, "velocity": 100}, {"endTime": 6.0, "pitch": 64, "quantizedEndStep": "24", "quantizedStartStep": "20", "startTime": 5.0, "velocity": 100}, {"endTime": 6.5, "pitch": 65, "quantizedEndStep": "26", "quantizedStartStep": "24", "startTime": 6.0, "velocity": 100}, {"endTime": 7.0, "pitch": 61, "quantizedEndStep": "28", "quantizedStartStep": "26", "startTime": 6.5, "velocity": 100}, {"endTime": 8.0, "pitch": 62, "quantizedEndStep": "32", "quantizedStartStep": "28", "startTime": 7.0, "velocity": 100}, {"endTime": 1.0, "instrument": 1, "pitch": 70, "quantizedEndStep": "4", "velocity": 100}, {"endTime": 2.0, "instrument": 1, "pitch": 69, "quantizedEndStep": "8", "quantizedStartStep": "4", "startTime": 1.0, "velocity": 100}, {"endTime": 3.0, "instrument": 1, "pitch": 67, "quantizedEndStep": "12", "quantizedStartStep": "8", "startTime": 2.0, "velocity": 100}, {"endTime": 3.5, "instrument": 1, "pitch": 65, "quantizedEndStep": "14", "quantizedStartStep": "12", "startTime": 3.0, "velocity": 100}, {"endTime": 4.0, "instrument": 1, "pitch": 64, "quantizedEndStep": "16", "quantizedStartStep": "14", "startTime": 3.5, "velocity": 100}, {"endTime": 5.25, "instrument": 1, "pitch": 62, "quantizedEndStep": "21", "quantizedStartStep": "16", "startTime": 4.0, "velocity": 100}, {"endTime": 5.5, "instrument": 1, "pitch": 61, "quantizedEndStep": "22", "quantizedStartStep": "21", "startTime": 5.25, "velocity": 100}, {"endTime": 6.5, "instrument": 1, "pitch": 62, "quantizedEndStep": "26", "quantizedStartStep": "22", "startTime": 5.5, "velocity": 100}, {"endTime": 7.0, "instrument": 1, "pitch": 61, "quantizedEndStep": "28", "quantizedStartStep": "26", "startTime": 6.5, "velocity": 100}, {"endTime": 8.0, "instrument": 1, "pitch": 57, "quantizedEndStep": "32", "quantizedStartStep": "28", "startTime": 7.0, "velocity": 100}, {"endTime": 0.5, "instrument": 2, "pitch": 64, "quantizedEndStep": "2", "velocity": 100}, {"endTime": 2.25, "instrument": 2, "pitch": 62, "quantizedEndStep": "9", "quantizedStartStep": "2", "startTime": 0.5, "velocity": 100}, {"endTime": 2.5, "instrument": 2, "pitch": 64, "quantizedEndStep": "10", "quantizedStartStep": "9", "startTime": 2.25, "velocity": 100}, {"endTime": 3.0, "instrument": 2, "pitch": 65, "quantizedEndStep": "12", "quantizedStartStep": "10", "startTime": 2.5, "velocity": 100}, {"endTime": 4.0, "instrument": 2, "pitch": 58, "quantizedEndStep": "16", "quantizedStartStep": "12", "startTime": 3.0, "velocity": 100}, {"endTime": 6.75, "instrument": 2, "pitch": 57, "quantizedEndStep": "27", "quantizedStartStep": "16", "startTime": 4.0, "velocity": 100}, {"endTime": 7.0, "instrument": 2, "pitch": 55, "quantizedEndStep": "28", "quantizedStartStep": "27", "startTime": 6.75, "velocity": 100}, {"endTime": 8.0, "instrument": 2, "pitch": 53, "quantizedEndStep": "32", "quantizedStartStep": "28", "startTime": 7.0, "velocity": 100}, {"endTime": 0.5, "instrument": 3, "pitch": 49, "quantizedEndStep": "2", "velocity": 100}, {"endTime": 1.0, "instrument": 3, "pitch": 50, "quantizedEndStep": "4", "quantizedStartStep": "2", "startTime": 0.5, "velocity": 100}, {"endTime": 1.5, "instrument": 3, "pitch": 52, "quantizedEndStep": "6", "quantizedStartStep": "4", "startTime": 1.0, "velocity": 100}, {"endTime": 2.0, "instrument": 3, "pitch": 53, "quantizedEndStep": "8", "quantizedStartStep": "6", "startTime": 1.5, "velocity": 100}, {"endTime": 2.5, "instrument": 3, "pitch": 55, "quantizedEndStep": "10", "quantizedStartStep": "8", "startTime": 2.0, "velocity": 100}, {"endTime": 3.0, "instrument": 3, "pitch": 57, "quantizedEndStep": "12", "quantizedStartStep": "10", "startTime": 2.5, "velocity": 100}, {"endTime": 3.75, "instrument": 3, "pitch": 58, "quantizedEndStep": "15", "quantizedStartStep": "12", "startTime": 3.0, "velocity": 100}, {"endTime": 4.0, "instrument": 3, "pitch": 55, "quantizedEndStep": "16", "quantizedStartStep": "15", "startTime": 3.75, "velocity": 100}, {"endTime": 4.5, "instrument": 3, "pitch": 53, "quantizedEndStep": "18", "quantizedStartStep": "16", "startTime": 4.0, "velocity": 100}, {"endTime": 5.0, "instrument": 3, "pitch": 55, "quantizedEndStep": "20", "quantizedStartStep": "18", "startTime": 4.5, "velocity": 100}, {"endTime": 6.25, "instrument": 3, "pitch": 57, "quantizedEndStep": "25", "quantizedStartStep": "20", "startTime": 5.0, "velocity": 100}, {"endTime": 6.5, "instrument": 3, "pitch": 50, "quantizedEndStep": "26", "quantizedStartStep": "25", "startTime": 6.25, "velocity": 100}, {"endTime": 7.0, "instrument": 3, "pitch": 45, "quantizedEndStep": "28", "quantizedStartStep": "26", "startTime": 6.5, "velocity": 100}, {"endTime": 8.0, "instrument": 3, "pitch": 50, "quantizedEndStep": "32", "quantizedStartStep": "28", "startTime": 7.0, "velocity": 100}], "quantizationInfo": {"stepsPerQuarter": 4}, "tempos": [{"qpm": 60.0}], "ticksPerQuarter": 220, "timeSignatures": [{"denominator": 4, "numerator": 4}], "totalQuantizedSteps": "32", "totalTime": 8.0}, {"keySignatures": [{"key": "F", "mode": "NOT_SPECIFIED"}], "notes": [{"endTime": 0.625, "pitch": 69, "quantizedEndStep": "5", "velocity": 100}, {"endTime": 0.75, "pitch": 67, "quantizedEndStep": "6", "quantizedStartStep": "5", "startTime": 0.625, "velocity": 100}, {"endTime": 1.125, "pitch": 64, "quantizedEndStep": "9", "quantizedStartStep": "6", "startTime": 0.75, "velocity": 100}, {"endTime": 1.25, "pitch": 65, "quantizedEndStep": "10", "quantizedStartStep": "9", "startTime": 1.125, "velocity": 100}, {"endTime": 1.625, "pitch": 69, "quantizedEndStep": "13", "quantizedStartStep": "10", "startTime": 1.25, "velocity": 100}, {"endTime": 1.75, "pitch": 67, "quantizedEndStep": "14", "quantizedStartStep": "13", "startTime": 1.625, "velocity": 100}, {"endTime": 1.875, "pitch": 58, "quantizedEndStep": "15", "quantizedStartStep": "14", "startTime": 1.75, "velocity": 100}, {"endTime": 2.0, "pitch": 67, "quantizedEndStep": "16", "quantizedStartStep": "15", "startTime": 1.875, "velocity": 100}, {"endTime": 2.125, "pitch": 67, "quantizedEndStep": "17", "quantizedStartStep": "16", "startTime": 2.0, "velocity": 100}, {"endTime": 2.375, "pitch": 69, "quantizedEndStep": "19", "quantizedStartStep": "17", "startTime": 2.125, "velocity": 100}, {"endTime": 2.625, "pitch": 67, "quantizedEndStep": "21", "quantizedStartStep": "19", "startTime": 2.375, "velocity": 100}, {"endTime": 3.25, "pitch": 64, "quantizedEndStep": "26", "quantizedStartStep": "21", "startTime": 2.625, "velocity": 100}, {"endTime": 3.375, "pitch": 72, "quantizedEndStep": "27", "quantizedStartStep": "26", "startTime": 3.25, "velocity": 100}, {"endTime": 3.625, "pitch": 64, "quantizedEndStep": "29", "quantizedStartStep": "27", "startTime": 3.375, "velocity": 100}, {"endTime": 3.75, "pitch": 62, "quantizedEndStep": "30", "quantizedStartStep": "29", "startTime": 3.625, "velocity": 100}, {"endTime": 3.875, "pitch": 74, "quantizedEndStep": "31", "quantizedStartStep": "30", "startTime": 3.75, "velocity": 100}, {"endTime": 4.0, "pitch": 70, "quantizedEndStep": "32", "quantizedStartStep": "31", "startTime": 3.875, "velocity": 100}, {"endTime": 0.625, "instrument": 1, "pitch": 64, "quantizedEndStep": "5", "velocity": 100}, {"endTime": 1.125, "instrument": 1, "pitch": 61, "quantizedEndStep": "9", "quantizedStartStep": "5", "startTime": 0.625, "velocity": 100}, {"endTime": 1.375, "instrument": 1, "pitch": 64, "quantizedEndStep": "11", "quantizedStartStep": "9", "startTime": 1.125, "velocity": 100}, {"endTime": 1.875, "instrument": 1, "pitch": 65, "quantizedEndStep": "15", "quantizedStartStep": "11", "startTime": 1.375, "velocity": 100}, {"endTime": 2.0, "instrument": 1, "pitch": 64, "quantizedEndStep": "16", "quantizedStartStep": "15", "startTime": 1.875, "velocity": 100}, {"endTime": 2.125, "instrument": 1, "pitch": 57, "quantizedEndStep": "17", "quantizedStartStep": "16", "startTime": 2.0, "velocity": 100}, {"endTime": 2.625, "instrument": 1, "pitch": 62, "quantizedEndStep": "21", "quantizedStartStep": "17", "startTime": 2.125, "velocity": 100}, {"endTime": 2.875, "instrument": 1, "pitch": 61, "quantizedEndStep": "23", "quantizedStartStep": "21", "startTime": 2.625, "velocity": 100}, {"endTime": 3.125, "instrument": 1, "pitch": 64, "quantizedEndStep": "25", "quantizedStartStep": "23", "startTime": 2.875, "velocity": 100}, {"endTime": 3.625, "instrument": 1, "pitch": 61, "quantizedEndStep": "29", "quantizedStartStep": "25", "startTime": 3.125, "velocity": 100}, {"endTime": 4.0, "instrument": 1, "pitch": 62, "quantizedEndStep": "32", "quantizedStartStep": "29", "startTime": 3.625, "velocity": 100}, {"endTime": 0.625, "instrument": 2, "pitch": 61, "quantizedEndStep": "5", "velocity": 100}, {"endTime": 1.125, "instrument": 2, "pitch": 57, "quantizedEndStep": "9", "quantizedStartStep": "5", "startTime": 0.625, "velocity": 100}, {"endTime": 1.625, "instrument": 2, "pitch": 61, "quantizedEndStep": "13", "quantizedStartStep": "9", "startTime": 1.125, "velocity": 100}, {"endTime": 1.875, "instrument": 2, "pitch": 62, "quantizedEndStep": "15", "quantizedStartStep": "13", "startTime": 1.625, "velocity": 100}, {"endTime": 2.0, "instrument": 2, "pitch": 64, "quantizedEndStep": "16", "quantizedStartStep": "15", "startTime": 1.875, "velocity": 100}, {"endTime": 2.125, "instrument": 2, "pitch": 64, "quantizedEndStep": "17", "quantizedStartStep": "16", "startTime": 2.0, "velocity": 100}, {"endTime": 2.375, "instrument": 2, "pitch": 65, "quantizedEndStep": "19", "quantizedStartStep": "17", "startTime": 2.125, "velocity": 100}, {"endTime": 2.625, "instrument": 2, "pitch": 62, "quantizedEndStep": "21", "quantizedStartStep": "19", "startTime": 2.375, "velocity": 100}, {"endTime": 2.875, "instrument": 2, "pitch": 57, "quantizedEndStep": "23", "quantizedStartStep": "21", "startTime": 2.625, "velocity": 100}, {"endTime": 3.125, "instrument": 2, "pitch": 59, "quantizedEndStep": "25", "quantizedStartStep": "23", "startTime": 2.875, "velocity": 100}, {"endTime": 3.375, "instrument": 2, "pitch": 57, "quantizedEndStep": "27", "quantizedStartStep": "25", "startTime": 3.125, "velocity": 100}, {"endTime": 3.625, "instrument": 2, "pitch": 55, "quantizedEndStep": "29", "quantizedStartStep": "27", "startTime": 3.375, "velocity": 100}, {"endTime": 3.875, "instrument": 2, "pitch": 54, "quantizedEndStep": "31", "quantizedStartStep": "29", "startTime": 3.625, "velocity": 100}, {"endTime": 4.0, "instrument": 2, "pitch": 55, "quantizedEndStep": "32", "quantizedStartStep": "31", "startTime": 3.875, "velocity": 100}, {"endTime": 1.625, "instrument": 3, "pitch": 57, "quantizedEndStep": "13", "velocity": 100}, {"endTime": 1.875, "instrument": 3, "pitch": 58, "quantizedEndStep": "15", "quantizedStartStep": "13", "startTime": 1.625, "velocity": 100}, {"endTime": 2.0, "instrument": 3, "pitch": 60, "quantizedEndStep": "16", "quantizedStartStep": "15", "startTime": 1.875, "velocity": 100}, {"endTime": 2.125, "instrument": 3, "pitch": 60, "quantizedEndStep": "17", "quantizedStartStep": "16", "startTime": 2.0, "velocity": 100}, {"endTime": 2.375, "instrument": 3, "pitch": 62, "quantizedEndStep": "19", "quantizedStartStep": "17", "startTime": 2.125, "velocity": 100}, {"endTime": 2.625, "instrument": 3, "pitch": 52, "quantizedEndStep": "21", "quantizedStartStep": "19", "startTime": 2.375, "velocity": 100}, {"endTime": 3.125, "instrument": 3, "pitch": 57, "quantizedEndStep": "25", "quantizedStartStep": "21", "startTime": 2.625, "velocity": 100}, {"endTime": 3.375, "instrument": 3, "pitch": 53, "quantizedEndStep": "27", "quantizedStartStep": "25", "startTime": 3.125, "velocity": 100}, {"endTime": 3.625, "instrument": 3, "pitch": 52, "quantizedEndStep": "29", "quantizedStartStep": "27", "startTime": 3.375, "velocity": 100}, {"endTime": 3.875, "instrument": 3, "pitch": 50, "quantizedEndStep": "31", "quantizedStartStep": "29", "startTime": 3.625, "velocity": 100}, {"endTime": 4.0, "instrument": 3, "pitch": 52, "quantizedEndStep": "32", "quantizedStartStep": "31", "startTime": 3.875, "velocity": 100}], "quantizationInfo": {"stepsPerQuarter": 4}, "tempos": [{"qpm": 120.0}], "ticksPerQuarter": 220, "timeSignatures": [{"denominator": 4, "numerator": 4}], "totalQuantizedSteps": "32", "totalTime": 4.0}, {"keySignatures": [{"key": "F", "mode": "NOT_SPECIFIED"}], "notes": [{"endTime": 0.625, "pitch": 69, "quantizedEndStep": "5", "velocity": 100}, {"endTime": 0.875, "pitch": 67, "quantizedEndStep": "7", "quantizedStartStep": "5", "startTime": 0.625, "velocity": 100}, {"endTime": 1.125, "pitch": 64, "quantizedEndStep": "9", "quantizedStartStep": "7", "startTime": 0.875, "velocity": 100}, {"endTime": 1.625, "pitch": 65, "quantizedEndStep": "13", "quantizedStartStep": "9", "startTime": 1.125, "velocity": 100}, {"endTime": 1.75, "pitch": 67, "quantizedEndStep": "14", "quantizedStartStep": "13", "startTime": 1.625, "velocity": 100}, {"endTime": 1.875, "pitch": 58, "quantizedEndStep": "15", "quantizedStartStep": "14", "startTime": 1.75, "velocity": 100}, {"endTime": 2.0, "pitch": 67, "quantizedEndStep": "16", "quantizedStartStep": "15", "startTime": 1.875, "velocity": 100}, {"endTime": 2.625, "pitch": 67, "quantizedEndStep": "21", "quantizedStartStep": "16", "startTime": 2.0, "velocity": 100}, {"endTime": 3.25, "pitch": 64, "quantizedEndStep": "26", "quantizedStartStep": "21", "startTime": 2.625, "velocity": 100}, {"endTime": 3.375, "pitch": 72, "quantizedEndStep": "27", "quantizedStartStep": "26", "startTime": 3.25, "velocity": 100}, {"endTime": 3.625, "pitch": 64, "quantizedEndStep": "29", "quantizedStartStep": "27", "startTime": 3.375, "velocity": 100}, {"endTime": 3.75, "pitch": 62, "quantizedEndStep": "30", "quantizedStartStep": "29", "startTime": 3.625, "velocity": 100}, {"endTime": 3.875, "pitch": 74, "quantizedEndStep": "31", "quantizedStartStep": "30", "startTime": 3.75, "velocity": 100}, {"endTime": 4.0, "pitch": 70, "quantizedEndStep": "32", "quantizedStartStep": "31", "startTime": 3.875, "velocity": 100}, {"endTime": 0.125, "instrument": 1, "pitch": 67, "quantizedEndStep": "1", "velocity": 100}, {"endTime": 0.625, "instrument": 1, "pitch": 60, "quantizedEndStep": "5", "quantizedStartStep": "1", "startTime": 0.125, "velocity": 100}, {"endTime": 0.875, "instrument": 1, "pitch": 58, "quantizedEndStep": "7", "quantizedStartStep": "5", "startTime": 0.625, "velocity": 100}, {"endTime": 1.125, "instrument": 1, "pitch": 61, "quantizedEndStep": "9", "quantizedStartStep": "7", "startTime": 0.875, "velocity": 100}, {"endTime": 2.0, "instrument": 1, "pitch": 62, "quantizedEndStep": "16", "quantizedStartStep": "9", "startTime": 1.125, "velocity": 100}, {"endTime": 2.875, "instrument": 1, "pitch": 62, "quantizedEndStep": "23", "quantizedStartStep": "16", "startTime": 2.0, "velocity": 100}, {"endTime": 3.125, "instrument": 1, "pitch": 59, "quantizedEndStep": "25", "quantizedStartStep": "23", "startTime": 2.875, "velocity": 100}, {"endTime": 3.625, "instrument": 1, "pitch": 60, "quantizedEndStep": "29", "quantizedStartStep": "25", "startTime": 3.125, "velocity": 100}, {"endTime": 3.875, "instrument": 1, "pitch": 58, "quantizedEndStep": "31", "quantizedStartStep": "29", "startTime": 3.625, "velocity": 100}, {"endTime": 4.0, "instrument": 1, "pitch": 65, "quantizedEndStep": "32", "quantizedStartStep": "31", "startTime": 3.875, "velocity": 100}, {"endTime": 0.125, "instrument": 2, "pitch": 64, "quantizedEndStep": "1", "velocity": 100}, {"endTime": 0.625, "instrument": 2, "pitch": 65, "quantizedEndStep": "5", "quantizedStartStep": "1", "startTime": 0.125, "velocity": 100}, {"endTime": 1.125, "instrument": 2, "pitch": 58, "quantizedEndStep": "9", "quantizedStartStep": "5", "startTime": 0.625, "velocity": 100}, {"endTime": 1.625, "instrument": 2, "pitch": 57, "quantizedEndStep": "13", "quantizedStartStep": "9", "startTime": 1.125, "velocity": 100}, {"endTime": 1.875, "instrument": 2, "pitch": 62, "quantizedEndStep": "15", "quantizedStartStep": "13", "startTime": 1.625, "velocity": 100}, {"endTime": 2.0, "instrument": 2, "pitch": 60, "quantizedEndStep": "16", "quantizedStartStep": "15", "startTime": 1.875, "velocity": 100}, {"endTime": 2.125, "instrument": 2, "pitch": 60, "quantizedEndStep": "17", "quantizedStartStep": "16", "startTime": 2.0, "velocity": 100}, {"endTime": 2.875, "instrument": 2, "pitch": 58, "quantizedEndStep": "23", "quantizedStartStep": "17", "startTime": 2.125, "velocity": 100}, {"endTime": 3.125, "instrument": 2, "pitch": 56, "quantizedEndStep": "25", "quantizedStartStep": "23", "startTime": 2.875, "velocity": 100}, {"endTime": 3.625, "instrument": 2, "pitch": 55, "quantizedEndStep": "29", "quantizedStartStep": "25", "startTime": 3.125, "velocity": 100}, {"endTime": 4.0, "instrument": 2, "pitch": 53, "quantizedEndStep": "32", "quantizedStartStep": "29", "startTime": 3.625, "velocity": 100}, {"endTime": 0.125, "instrument": 3, "pitch": 52, "quantizedEndStep": "1", "velocity": 100}, {"endTime": 0.375, "instrument": 3, "pitch": 53, "quantizedEndStep": "3", "quantizedStartStep": "1", "startTime": 0.125, "velocity": 100}, {"endTime": 1.125, "instrument": 3, "pitch": 55, "quantizedEndStep": "9", "quantizedStartStep": "3", "startTime": 0.375, "velocity": 100}, {"endTime": 1.375, "instrument": 3, "pitch": 62, "quantizedEndStep": "11", "quantizedStartStep": "9", "startTime": 1.125, "velocity": 100}, {"endTime": 1.625, "instrument": 3, "pitch": 60, "quantizedEndStep": "13", "quantizedStartStep": "11", "startTime": 1.375, "velocity": 100}, {"endTime": 1.875, "instrument": 3, "pitch": 58, "quantizedEndStep": "15", "quantizedStartStep": "13", "startTime": 1.625, "velocity": 100}, {"endTime": 2.0, "instrument": 3, "pitch": 57, "quantizedEndStep": "16", "quantizedStartStep": "15", "startTime": 1.875, "velocity": 100}, {"endTime": 2.125, "instrument": 3, "pitch": 57, "quantizedEndStep": "17", "quantizedStartStep": "16", "startTime": 2.0, "velocity": 100}, {"endTime": 2.375, "instrument": 3, "pitch": 55, "quantizedEndStep": "19", "quantizedStartStep": "17", "startTime": 2.125, "velocity": 100}, {"endTime": 2.625, "instrument": 3, "pitch": 57, "quantizedEndStep": "21", "quantizedStartStep": "19", "startTime": 2.375, "velocity": 100}, {"endTime": 2.875, "instrument": 3, "pitch": 55, "quantizedEndStep": "23", "quantizedStartStep": "21", "startTime": 2.625, "velocity": 100}, {"endTime": 3.125, "instrument": 3, "pitch": 53, "quantizedEndStep": "25", "quantizedStartStep": "23", "startTime": 2.875, "velocity": 100}, {"endTime": 3.625, "instrument": 3, "pitch": 52, "quantizedEndStep": "29", "quantizedStartStep": "25", "startTime": 3.125, "velocity": 100}, {"endTime": 4.0, "instrument": 3, "pitch": 50, "quantizedEndStep": "32", "quantizedStartStep": "29", "startTime": 3.625, "velocity": 100}], "quantizationInfo": {"stepsPerQuarter": 4}, "tempos": [{"qpm": 120.0}], "ticksPerQuarter": 220, "timeSignatures": [{"denominator": 4, "numerator": 4}], "totalQuantizedSteps": "32", "totalTime": 4.0}, {"keySignatures": [{"key": "F", "mode": "NOT_SPECIFIED"}], "notes": [{"endTime": 0.625, "pitch": 69, "quantizedEndStep": "5", "velocity": 100}, {"endTime": 0.875, "pitch": 67, "quantizedEndStep": "7", "quantizedStartStep": "5", "startTime": 0.625, "velocity": 100}, {"endTime": 1.0, "pitch": 64, "quantizedEndStep": "8", "quantizedStartStep": "7", "startTime": 0.875, "velocity": 100}, {"endTime": 1.125, "pitch": 67, "quantizedEndStep": "9", "quantizedStartStep": "8", "startTime": 1.0, "velocity": 100}, {"endTime": 1.625, "pitch": 65, "quantizedEndStep": "13", "quantizedStartStep": "9", "startTime": 1.125, "velocity": 100}, {"endTime": 1.75, "pitch": 67, "quantizedEndStep": "14", "quantizedStartStep": "13", "startTime": 1.625, "velocity": 100}, {"endTime": 1.875, "pitch": 58, "quantizedEndStep": "15", "quantizedStartStep": "14", "startTime": 1.75, "velocity": 100}, {"endTime": 2.0, "pitch": 67, "quantizedEndStep": "16", "quantizedStartStep": "15", "startTime": 1.875, "velocity": 100}, {"endTime": 2.25, "pitch": 67, "quantizedEndStep": "18", "quantizedStartStep": "16", "startTime": 2.0, "velocity": 100}, {"endTime": 2.375, "pitch": 69, "quantizedEndStep": "19", "quantizedStartStep": "18", "startTime": 2.25, "velocity": 100}, {"endTime": 2.625, "pitch": 67, "quantizedEndStep": "21", "quantizedStartStep": "19", "startTime": 2.375, "velocity": 100}, {"endTime": 3.25, "pitch": 64, "quantizedEndStep": "26", "quantizedStartStep": "21", "startTime": 2.625, "velocity": 100}, {"endTime": 3.375, "pitch": 72, "quantizedEndStep": "27", "quantizedStartStep": "26", "startTime": 3.25, "velocity": 100}, {"endTime": 3.625, "pitch": 64, "quantizedEndStep": "29", "quantizedStartStep": "27", "startTime": 3.375, "velocity": 100}, {"endTime": 3.75, "pitch": 62, "quantizedEndStep": "30", "quantizedStartStep": "29", "startTime": 3.625, "velocity": 100}, {"endTime": 3.875, "pitch": 74, "quantizedEndStep": "31", "quantizedStartStep": "30", "startTime": 3.75, "velocity": 100}, {"endTime": 4.0, "pitch": 70, "quantizedEndStep": "32", "quantizedStartStep": "31", "startTime": 3.875, "velocity": 100}, {"endTime": 0.125, "instrument": 1, "pitch": 61, "quantizedEndStep": "1", "velocity": 100}, {"endTime": 0.625, "instrument": 1, "pitch": 60, "quantizedEndStep": "5", "quantizedStartStep": "1", "startTime": 0.125, "velocity": 100}, {"endTime": 0.875, "instrument": 1, "pitch": 62, "quantizedEndStep": "7", "quantizedStartStep": "5", "startTime": 0.625, "velocity": 100}, {"endTime": 1.375, "instrument": 1, "pitch": 64, "quantizedEndStep": "11", "quantizedStartStep": "7", "startTime": 0.875, "velocity": 100}, {"endTime": 1.625, "instrument": 1, "pitch": 62, "quantizedEndStep": "13", "quantizedStartStep": "11", "startTime": 1.375, "velocity": 100}, {"endTime": 2.0, "instrument": 1, "pitch": 64, "quantizedEndStep": "16", "quantizedStartStep": "13", "startTime": 1.625, "velocity": 100}, {"endTime": 2.625, "instrument": 1, "pitch": 64, "quantizedEndStep": "21", "quantizedStartStep": "16", "startTime": 2.0, "velocity": 100}, {"endTime": 3.125, "instrument": 1, "pitch": 62, "quantizedEndStep": "25", "quantizedStartStep": "21", "startTime": 2.625, "velocity": 100}, {"endTime": 3.625, "instrument": 1, "pitch": 60, "quantizedEndStep": "29", "quantizedStartStep": "25", "startTime": 3.125, "velocity": 100}, {"endTime": 3.875, "instrument": 1, "pitch": 59, "quantizedEndStep": "31", "quantizedStartStep": "29", "startTime": 3.625, "velocity": 100}, {"endTime": 4.0, "instrument": 1, "pitch": 57, "quantizedEndStep": "32", "quantizedStartStep": "31", "startTime": 3.875, "velocity": 100}, {"endTime": 0.125, "instrument": 2, "pitch": 60, "quantizedEndStep": "1", "velocity": 100}, {"endTime": 0.625, "instrument": 2, "pitch": 65, "quantizedEndStep": "5", "quantizedStartStep": "1", "startTime": 0.125, "velocity": 100}, {"endTime": 1.125, "instrument": 2, "pitch": 58, "quantizedEndStep": "9", "quantizedStartStep": "5", "startTime": 0.625, "velocity": 100}, {"endTime": 1.375, "instrument": 2, "pitch": 57, "quantizedEndStep": "11", "quantizedStartStep": "9", "startTime": 1.125, "velocity": 100}, {"endTime": 1.625, "instrument": 2, "pitch": 59, "quantizedEndStep": "13", "quantizedStartStep": "11", "startTime": 1.375, "velocity": 100}, {"endTime": 1.875, "instrument": 2, "pitch": 61, "quantizedEndStep": "15", "quantizedStartStep": "13", "startTime": 1.625, "velocity": 100}, {"endTime": 2.0, "instrument": 2, "pitch": 62, "quantizedEndStep": "16", "quantizedStartStep": "15", "startTime": 1.875, "velocity": 100}, {"endTime": 2.125, "instrument": 2, "pitch": 62, "quantizedEndStep": "17", "quantizedStartStep": "16", "startTime": 2.0, "velocity": 100}, {"endTime": 2.625, "instrument": 2, "pitch": 61, "quantizedEndStep": "21", "quantizedStartStep": "17", "startTime": 2.125, "velocity": 100}, {"endTime": 3.375, "instrument": 2, "pitch": 57, "quantizedEndStep": "27", "quantizedStartStep": "21", "startTime": 2.625, "velocity": 100}, {"endTime": 3.625, "instrument": 2, "pitch": 55, "quantizedEndStep": "29", "quantizedStartStep": "27", "startTime": 3.375, "velocity": 100}, {"endTime": 4.0, "instrument": 2, "pitch": 53, "quantizedEndStep": "32", "quantizedStartStep": "29", "startTime": 3.625, "velocity": 100}, {"endTime": 0.125, "instrument": 3, "pitch": 52, "quantizedEndStep": "1", "velocity": 100}, {"endTime": 0.625, "instrument": 3, "pitch": 53, "quantizedEndStep": "5", "quantizedStartStep": "1", "startTime": 0.125, "velocity": 100}, {"endTime": 0.875, "instrument": 3, "pitch": 55, "quantizedEndStep": "7", "quantizedStartStep": "5", "startTime": 0.625, "velocity": 100}, {"endTime": 1.125, "instrument": 3, "pitch": 58, "quantizedEndStep": "9", "quantizedStartStep": "7", "startTime": 0.875, "velocity": 100}, {"endTime": 1.625, "instrument": 3, "pitch": 57, "quantizedEndStep": "13", "quantizedStartStep": "9", "startTime": 1.125, "velocity": 100}, {"endTime": 2.0, "instrument": 3, "pitch": 58, "quantizedEndStep": "16", "quantizedStartStep": "13", "startTime": 1.625, "velocity": 100}, {"endTime": 2.125, "instrument": 3, "pitch": 58, "quantizedEndStep": "17", "quantizedStartStep": "16", "startTime": 2.0, "velocity": 100}, {"endTime": 2.625, "instrument": 3, "pitch": 57, "quantizedEndStep": "21", "quantizedStartStep": "17", "startTime": 2.125, "velocity": 100}, {"endTime": 3.375, "instrument": 3, "pitch": 53, "quantizedEndStep": "27", "quantizedStartStep": "21", "startTime": 2.625, "velocity": 100}, {"endTime": 3.625, "instrument": 3, "pitch": 52, "quantizedEndStep": "29", "quantizedStartStep": "27", "startTime": 3.375, "velocity": 100}, {"endTime": 4.0, "instrument": 3, "pitch": 50, "quantizedEndStep": "32", "quantizedStartStep": "29", "startTime": 3.625, "velocity": 100}], "quantizationInfo": {"stepsPerQuarter": 4}, "tempos": [{"qpm": 120.0}], "ticksPerQuarter": 220, "timeSignatures": [{"denominator": 4, "numerator": 4}], "totalQuantizedSteps": "32", "totalTime": 4.0}, {"keySignatures": [{"key": "F", "mode": "NOT_SPECIFIED"}], "notes": [{"endTime": 0.625, "pitch": 69, "quantizedEndStep": "5", "velocity": 100}, {"endTime": 0.875, "pitch": 67, "quantizedEndStep": "7", "quantizedStartStep": "5", "startTime": 0.625, "velocity": 100}, {"endTime": 1.0, "pitch": 64, "quantizedEndStep": "8", "quantizedStartStep": "7", "startTime": 0.875, "velocity": 100}, {"endTime": 1.125, "pitch": 72, "quantizedEndStep": "9", "quantizedStartStep": "8", "startTime": 1.0, "velocity": 100}, {"endTime": 1.25, "pitch": 65, "quantizedEndStep": "10", "quantizedStartStep": "9", "startTime": 1.125, "velocity": 100}, {"endTime": 1.375, "pitch": 74, "quantizedEndStep": "11", "quantizedStartStep": "10", "startTime": 1.25, "velocity": 100}, {"endTime": 1.5, "pitch": 72, "quantizedEndStep": "12", "quantizedStartStep": "11", "startTime": 1.375, "velocity": 100}, {"endTime": 1.75, "pitch": 74, "quantizedEndStep": "14", "quantizedStartStep": "12", "startTime": 1.5, "velocity": 100}, {"endTime": 1.875, "pitch": 58, "quantizedEndStep": "15", "quantizedStartStep": "14", "startTime": 1.75, "velocity": 100}, {"endTime": 2.0, "pitch": 67, "quantizedEndStep": "16", "quantizedStartStep": "15", "startTime": 1.875, "velocity": 100}, {"endTime": 2.125, "pitch": 70, "quantizedEndStep": "17", "quantizedStartStep": "16", "startTime": 2.0, "velocity": 100}, {"endTime": 2.375, "pitch": 72, "quantizedEndStep": "19", "quantizedStartStep": "17", "startTime": 2.125, "velocity": 100}, {"endTime": 2.625, "pitch": 67, "quantizedEndStep": "21", "quantizedStartStep": "19", "startTime": 2.375, "velocity": 100}, {"endTime": 2.75, "pitch": 72, "quantizedEndStep": "22", "quantizedStartStep": "21", "startTime": 2.625, "velocity": 100}, {"endTime": 2.875, "pitch": 64, "quantizedEndStep": "23", "quantizedStartStep": "22", "startTime": 2.75, "velocity": 100}, {"endTime": 3.0, "pitch": 70, "quantizedEndStep": "24", "quantizedStartStep": "23", "startTime": 2.875, "velocity": 100}, {"endTime": 3.25, "pitch": 64, "quantizedEndStep": "26", "quantizedStartStep": "24", "startTime": 3.0, "velocity": 100}, {"endTime": 3.375, "pitch": 72, "quantizedEndStep": "27", "quantizedStartStep": "26", "startTime": 3.25, "velocity": 100}, {"endTime": 3.625, "pitch": 64, "quantizedEndStep": "29", "quantizedStartStep": "27", "startTime": 3.375, "velocity": 100}, {"endTime": 3.75, "pitch": 62, "quantizedEndStep": "30", "quantizedStartStep": "29", "startTime": 3.625, "velocity": 100}, {"endTime": 3.875, "pitch": 74, "quantizedEndStep": "31", "quantizedStartStep": "30", "startTime": 3.75, "velocity": 100}, {"endTime": 4.0, "pitch": 70, "quantizedEndStep": "32", "quantizedStartStep": "31", "startTime": 3.875, "velocity": 100}, {"endTime": 0.125, "instrument": 1, "pitch": 62, "quantizedEndStep": "1", "velocity": 100}, {"endTime": 0.375, "instrument": 1, "pitch": 64, "quantizedEndStep": "3", "quantizedStartStep": "1", "startTime": 0.125, "velocity": 100}, {"endTime": 0.875, "instrument": 1, "pitch": 62, "quantizedEndStep": "7", "quantizedStartStep": "3", "startTime": 0.375, "velocity": 100}, {"endTime": 1.125, "instrument": 1, "pitch": 64, "quantizedEndStep": "9", "quantizedStartStep": "7", "startTime": 0.875, "velocity": 100}, {"endTime": 2.0, "instrument": 1, "pitch": 65, "quantizedEndStep": "16", "quantizedStartStep": "9", "startTime": 1.125, "velocity": 100}, {"endTime": 2.125, "instrument": 1, "pitch": 65, "quantizedEndStep": "17", "quantizedStartStep": "16", "startTime": 2.0, "velocity": 100}, {"endTime": 2.375, "instrument": 1, "pitch": 64, "quantizedEndStep": "19", "quantizedStartStep": "17", "startTime": 2.125, "velocity": 100}, {"endTime": 2.625, "instrument": 1, "pitch": 62, "quantizedEndStep": "21", "quantizedStartStep": "19", "startTime": 2.375, "velocity": 100}, {"endTime": 2.875, "instrument": 1, "pitch": 64, "quantizedEndStep": "23", "quantizedStartStep": "21", "startTime": 2.625, "velocity": 100}, {"endTime": 3.375, "instrument": 1, "pitch": 65, "quantizedEndStep": "27", "quantizedStartStep": "23", "startTime": 2.875, "velocity": 100}, {"endTime": 3.625, "instrument": 1, "pitch": 64, "quantizedEndStep": "29", "quantizedStartStep": "27", "startTime": 3.375, "velocity": 100}, {"endTime": 3.875, "instrument": 1, "pitch": 65, "quantizedEndStep": "31", "quantizedStartStep": "29", "startTime": 3.625, "velocity": 100}, {"endTime": 4.0, "instrument": 1, "pitch": 64, "quantizedEndStep": "32", "quantizedStartStep": "31", "startTime": 3.875, "velocity": 100}, {"endTime": 0.625, "instrument": 2, "pitch": 57, "quantizedEndStep": "5", "velocity": 100}, {"endTime": 1.125, "instrument": 2, "pitch": 55, "quantizedEndStep": "9", "quantizedStartStep": "5", "startTime": 0.625, "velocity": 100}, {"endTime": 1.625, "instrument": 2, "pitch": 57, "quantizedEndStep": "13", "quantizedStartStep": "9", "startTime": 1.125, "velocity": 100}, {"endTime": 1.875, "instrument": 2, "pitch": 62, "quantizedEndStep": "15", "quantizedStartStep": "13", "startTime": 1.625, "velocity": 100}, {"endTime": 2.0, "instrument": 2, "pitch": 58, "quantizedEndStep": "16", "quantizedStartStep": "15", "startTime": 1.875, "velocity": 100}, {"endTime": 2.125, "instrument": 2, "pitch": 58, "quantizedEndStep": "17", "quantizedStartStep": "16", "startTime": 2.0, "velocity": 100}, {"endTime": 2.375, "instrument": 2, "pitch": 60, "quantizedEndStep": "19", "quantizedStartStep": "17", "startTime": 2.125, "velocity": 100}, {"endTime": 2.625, "instrument": 2, "pitch": 57, "quantizedEndStep": "21", "quantizedStartStep": "19", "startTime": 2.375, "velocity": 100}, {"endTime": 2.875, "instrument": 2, "pitch": 55, "quantizedEndStep": "23", "quantizedStartStep": "21", "startTime": 2.625, "velocity": 100}, {"endTime": 3.125, "instrument": 2, "pitch": 53, "quantizedEndStep": "25", "quantizedStartStep": "23", "startTime": 2.875, "velocity": 100}, {"endTime": 3.375, "instrument": 2, "pitch": 55, "quantizedEndStep": "27", "quantizedStartStep": "25", "startTime": 3.125, "velocity": 100}, {"endTime": 3.625, "instrument": 2, "pitch": 60, "quantizedEndStep": "29", "quantizedStartStep": "27", "startTime": 3.375, "velocity": 100}, {"endTime": 3.875, "instrument": 2, "pitch": 62, "quantizedEndStep": "31", "quantizedStartStep": "29", "startTime": 3.625, "velocity": 100}, {"endTime": 4.0, "instrument": 2, "pitch": 58, "quantizedEndStep": "32", "quantizedStartStep": "31", "startTime": 3.875, "velocity": 100}, {"endTime": 0.875, "instrument": 3, "pitch": 53, "quantizedEndStep": "7", "velocity": 100}, {"endTime": 1.125, "instrument": 3, "pitch": 52, "quantizedEndStep": "9", "quantizedStartStep": "7", "startTime": 0.875, "velocity": 100}, {"endTime": 1.625, "instrument": 3, "pitch": 50, "quantizedEndStep": "13", "quantizedStartStep": "9", "startTime": 1.125, "velocity": 100}, {"endTime": 1.875, "instrument": 3, "pitch": 58, "quantizedEndStep": "15", "quantizedStartStep": "13", "startTime": 1.625, "velocity": 100}, {"endTime": 2.0, "instrument": 3, "pitch": 55, "quantizedEndStep": "16", "quantizedStartStep": "15", "startTime": 1.875, "velocity": 100}, {"endTime": 2.125, "instrument": 3, "pitch": 55, "quantizedEndStep": "17", "quantizedStartStep": "16", "startTime": 2.0, "velocity": 100}, {"endTime": 2.375, "instrument": 3, "pitch": 57, "quantizedEndStep": "19", "quantizedStartStep": "17", "startTime": 2.125, "velocity": 100}, {"endTime": 2.625, "instrument": 3, "pitch": 58, "quantizedEndStep": "21", "quantizedStartStep": "19", "startTime": 2.375, "velocity": 100}, {"endTime": 3.0, "instrument": 3, "pitch": 60, "quantizedEndStep": "24", "quantizedStartStep": "21", "startTime": 2.625, "velocity": 100}, {"endTime": 3.125, "instrument": 3, "pitch": 62, "quantizedEndStep": "25", "quantizedStartStep": "24", "startTime": 3.0, "velocity": 100}, {"endTime": 3.625, "instrument": 3, "pitch": 36, "quantizedEndStep": "29", "quantizedStartStep": "25", "startTime": 3.125, "velocity": 100}, {"endTime": 4.0, "instrument": 3, "pitch": 62, "quantizedEndStep": "32", "quantizedStartStep": "29", "startTime": 3.625, "velocity": 100}], "quantizationInfo": {"stepsPerQuarter": 4}, "tempos": [{"qpm": 120.0}], "ticksPerQuarter": 220, "timeSignatures": [{"denominator": 4, "numerator": 4}], "totalQuantizedSteps": "32", "totalTime": 4.0}, {"keySignatures": [{"key": "F", "mode": "NOT_SPECIFIED"}], "notes": [{"endTime": 0.625, "pitch": 69, "quantizedEndStep": "5", "velocity": 100}, {"endTime": 0.875, "pitch": 67, "quantizedEndStep": "7", "quantizedStartStep": "5", "startTime": 0.625, "velocity": 100}, {"endTime": 1.0, "pitch": 64, "quantizedEndStep": "8", "quantizedStartStep": "7", "startTime": 0.875, "velocity": 100}, {"endTime": 1.125, "pitch": 72, "quantizedEndStep": "9", "quantizedStartStep": "8", "startTime": 1.0, "velocity": 100}, {"endTime": 1.25, "pitch": 65, "quantizedEndStep": "10", "quantizedStartStep": "9", "startTime": 1.125, "velocity": 100}, {"endTime": 1.375, "pitch": 74, "quantizedEndStep": "11", "quantizedStartStep": "10", "startTime": 1.25, "velocity": 100}, {"endTime": 1.5, "pitch": 72, "quantizedEndStep": "12", "quantizedStartStep": "11", "startTime": 1.375, "velocity": 100}, {"endTime": 1.75, "pitch": 74, "quantizedEndStep": "14", "quantizedStartStep": "12", "startTime": 1.5, "velocity": 100}, {"endTime": 1.875, "pitch": 58, "quantizedEndStep": "15", "quantizedStartStep": "14", "startTime": 1.75, "velocity": 100}, {"endTime": 2.0, "pitch": 67, "quantizedEndStep": "16", "quantizedStartStep": "15", "startTime": 1.875, "velocity": 100}, {"endTime": 2.125, "pitch": 70, "quantizedEndStep": "17", "quantizedStartStep": "16", "startTime": 2.0, "velocity": 100}, {"endTime": 2.375, "pitch": 72, "quantizedEndStep": "19", "quantizedStartStep": "17", "startTime": 2.125, "velocity": 100}, {"endTime": 2.5, "pitch": 67, "quantizedEndStep": "20", "quantizedStartStep": "19", "startTime": 2.375, "velocity": 100}, {"endTime": 2.75, "pitch": 72, "quantizedEndStep": "22", "quantizedStartStep": "20", "startTime": 2.5, "velocity": 100}, {"endTime": 2.875, "pitch": 64, "quantizedEndStep": "23", "quantizedStartStep": "22", "startTime": 2.75, "velocity": 100}, {"endTime": 3.0, "pitch": 70, "quantizedEndStep": "24", "quantizedStartStep": "23", "startTime": 2.875, "velocity": 100}, {"endTime": 3.25, "pitch": 64, "quantizedEndStep": "26", "quantizedStartStep": "24", "startTime": 3.0, "velocity": 100}, {"endTime": 3.375, "pitch": 72, "quantizedEndStep": "27", "quantizedStartStep": "26", "startTime": 3.25, "velocity": 100}, {"endTime": 3.625, "pitch": 64, "quantizedEndStep": "29", "quantizedStartStep": "27", "startTime": 3.375, "velocity": 100}, {"endTime": 3.75, "pitch": 62, "quantizedEndStep": "30", "quantizedStartStep": "29", "startTime": 3.625, "velocity": 100}, {"endTime": 3.875, "pitch": 74, "quantizedEndStep": "31", "quantizedStartStep": "30", "startTime": 3.75, "velocity": 100}, {"endTime": 4.0, "pitch": 70, "quantizedEndStep": "32", "quantizedStartStep": "31", "startTime": 3.875, "velocity": 100}, {"endTime": 0.125, "instrument": 1, "pitch": 62, "quantizedEndStep": "1", "velocity": 100}, {"endTime": 0.625, "instrument": 1, "pitch": 60, "quantizedEndStep": "5", "quantizedStartStep": "1", "startTime": 0.125, "velocity": 100}, {"endTime": 0.875, "instrument": 1, "pitch": 59, "quantizedEndStep": "7", "quantizedStartStep": "5", "startTime": 0.625, "velocity": 100}, {"endTime": 1.125, "instrument": 1, "pitch": 61, "quantizedEndStep": "9", "quantizedStartStep": "7", "startTime": 0.875, "velocity": 100}, {"endTime": 1.375, "instrument": 1, "pitch": 62, "quantizedEndStep": "11", "quantizedStartStep": "9", "startTime": 1.125, "velocity": 100}, {"endTime": 1.625, "instrument": 1, "pitch": 64, "quantizedEndStep": "13", "quantizedStartStep": "11", "startTime": 1.375, "velocity": 100}, {"endTime": 1.75, "instrument": 1, "pitch": 65, "quantizedEndStep": "14", "quantizedStartStep": "13", "startTime": 1.625, "velocity": 100}, {"endTime": 1.875, "instrument": 1, "pitch": 64, "quantizedEndStep": "15", "quantizedStartStep": "14", "startTime": 1.75, "velocity": 100}, {"endTime": 2.0, "instrument": 1, "pitch": 65, "quantizedEndStep": "16", "quantizedStartStep": "15", "startTime": 1.875, "velocity": 100}, {"endTime": 2.375, "instrument": 1, "pitch": 65, "quantizedEndStep": "19", "quantizedStartStep": "16", "startTime": 2.0, "velocity": 100}, {"endTime": 2.875, "instrument": 1, "pitch": 64, "quantizedEndStep": "23", "quantizedStartStep": "19", "startTime": 2.375, "velocity": 100}, {"endTime": 3.125, "instrument": 1, "pitch": 62, "quantizedEndStep": "25", "quantizedStartStep": "23", "startTime": 2.875, "velocity": 100}, {"endTime": 3.625, "instrument": 1, "pitch": 60, "quantizedEndStep": "29", "quantizedStartStep": "25", "startTime": 3.125, "velocity": 100}, {"endTime": 3.875, "instrument": 1, "pitch": 69, "quantizedEndStep": "31", "quantizedStartStep": "29", "startTime": 3.625, "velocity": 100}, {"endTime": 4.0, "instrument": 1, "pitch": 67, "quantizedEndStep": "32", "quantizedStartStep": "31", "startTime": 3.875, "velocity": 100}, {"endTime": 0.125, "instrument": 2, "pitch": 60, "quantizedEndStep": "1", "velocity": 100}, {"endTime": 0.625, "instrument": 2, "pitch": 57, "quantizedEndStep": "5", "quantizedStartStep": "1", "startTime": 0.125, "velocity": 100}, {"endTime": 1.125, "instrument": 2, "pitch": 55, "quantizedEndStep": "9", "quantizedStartStep": "5", "startTime": 0.625, "velocity": 100}, {"endTime": 1.625, "instrument": 2, "pitch": 57, "quantizedEndStep": "13", "quantizedStartStep": "9", "startTime": 1.125, "velocity": 100}, {"endTime": 1.875, "instrument": 2, "pitch": 58, "quantizedEndStep": "15", "quantizedStartStep": "13", "startTime": 1.625, "velocity": 100}, {"endTime": 2.0, "instrument": 2, "pitch": 59, "quantizedEndStep": "16", "quantizedStartStep": "15", "startTime": 1.875, "velocity": 100}, {"endTime": 2.125, "instrument": 2, "pitch": 59, "quantizedEndStep": "17", "quantizedStartStep": "16", "startTime": 2.0, "velocity": 100}, {"endTime": 2.875, "instrument": 2, "pitch": 60, "quantizedEndStep": "23", "quantizedStartStep": "17", "startTime": 2.125, "velocity": 100}, {"endTime": 3.125, "instrument": 2, "pitch": 57, "quantizedEndStep": "25", "quantizedStartStep": "23", "startTime": 2.875, "velocity": 100}, {"endTime": 3.625, "instrument": 2, "pitch": 55, "quantizedEndStep": "29", "quantizedStartStep": "25", "startTime": 3.125, "velocity": 100}, {"endTime": 3.875, "instrument": 2, "pitch": 54, "quantizedEndStep": "31", "quantizedStartStep": "29", "startTime": 3.625, "velocity": 100}, {"endTime": 4.0, "instrument": 2, "pitch": 53, "quantizedEndStep": "32", "quantizedStartStep": "31", "startTime": 3.875, "velocity": 100}, {"endTime": 0.625, "instrument": 3, "pitch": 53, "quantizedEndStep": "5", "velocity": 100}, {"endTime": 0.875, "instrument": 3, "pitch": 52, "quantizedEndStep": "7", "quantizedStartStep": "5", "startTime": 0.625, "velocity": 100}, {"endTime": 1.375, "instrument": 3, "pitch": 53, "quantizedEndStep": "11", "quantizedStartStep": "7", "startTime": 0.875, "velocity": 100}, {"endTime": 1.625, "instrument": 3, "pitch": 52, "quantizedEndStep": "13", "quantizedStartStep": "11", "startTime": 1.375, "velocity": 100}, {"endTime": 2.0, "instrument": 3, "pitch": 50, "quantizedEndStep": "16", "quantizedStartStep": "13", "startTime": 1.625, "velocity": 100}, {"endTime": 2.125, "instrument": 3, "pitch": 50, "quantizedEndStep": "17", "quantizedStartStep": "16", "startTime": 2.0, "velocity": 100}, {"endTime": 2.375, "instrument": 3, "pitch": 45, "quantizedEndStep": "19", "quantizedStartStep": "17", "startTime": 2.125, "velocity": 100}, {"endTime": 2.875, "instrument": 3, "pitch": 48, "quantizedEndStep": "23", "quantizedStartStep": "19", "startTime": 2.375, "velocity": 100}, {"endTime": 3.375, "instrument": 3, "pitch": 46, "quantizedEndStep": "27", "quantizedStartStep": "23", "startTime": 2.875, "velocity": 100}, {"endTime": 3.625, "instrument": 3, "pitch": 45, "quantizedEndStep": "29", "quantizedStartStep": "27", "startTime": 3.375, "velocity": 100}, {"endTime": 4.0, "instrument": 3, "pitch": 50, "quantizedEndStep": "32", "quantizedStartStep": "29", "startTime": 3.625, "velocity": 100}], "quantizationInfo": {"stepsPerQuarter": 4}, "tempos": [{"qpm": 120.0}], "ticksPerQuarter": 220, "timeSignatures": [{"denominator": 4, "numerator": 4}], "totalQuantizedSteps": "32", "totalTime": 4.0}, {"keySignatures": [{"key": "F", "mode": "NOT_SPECIFIED"}], "notes": [{"endTime": 0.125, "pitch": 67, "quantizedEndStep": "1", "velocity": 100}, {"endTime": 0.625, "pitch": 69, "quantizedEndStep": "5", "quantizedStartStep": "1", "startTime": 0.125, "velocity": 100}, {"endTime": 0.875, "pitch": 77, "quantizedEndStep": "7", "quantizedStartStep": "5", "startTime": 0.625, "velocity": 100}, {"endTime": 1.0, "pitch": 58, "quantizedEndStep": "8", "quantizedStartStep": "7", "startTime": 0.875, "velocity": 100}, {"endTime": 1.5, "pitch": 79, "quantizedEndStep": "12", "quantizedStartStep": "8", "startTime": 1.0, "velocity": 100}, {"endTime": 2.0, "pitch": 81, "quantizedEndStep": "16", "quantizedStartStep": "12", "startTime": 1.5, "velocity": 100}, {"endTime": 2.125, "pitch": 81, "quantizedEndStep": "17", "quantizedStartStep": "16", "startTime": 2.0, "velocity": 100}, {"endTime": 2.375, "pitch": 79, "quantizedEndStep": "19", "quantizedStartStep": "17", "startTime": 2.125, "velocity": 100}, {"endTime": 2.5, "pitch": 69, "quantizedEndStep": "20", "quantizedStartStep": "19", "startTime": 2.375, "velocity": 100}, {"endTime": 2.625, "pitch": 79, "quantizedEndStep": "21", "quantizedStartStep": "20", "startTime": 2.5, "velocity": 100}, {"endTime": 3.625, "pitch": 69, "quantizedEndStep": "29", "quantizedStartStep": "21", "startTime": 2.625, "velocity": 100}, {"endTime": 4.0, "pitch": 70, "quantizedEndStep": "32", "quantizedStartStep": "29", "startTime": 3.625, "velocity": 100}, {"endTime": 0.125, "instrument": 1, "pitch": 67, "quantizedEndStep": "1", "velocity": 100}, {"endTime": 0.375, "instrument": 1, "pitch": 65, "quantizedEndStep": "3", "quantizedStartStep": "1", "startTime": 0.125, "velocity": 100}, {"endTime": 0.5, "instrument": 1, "pitch": 63, "quantizedEndStep": "4", "quantizedStartStep": "3", "startTime": 0.375, "velocity": 100}, {"endTime": 0.625, "instrument": 1, "pitch": 64, "quantizedEndStep": "5", "quantizedStartStep": "4", "startTime": 0.5, "velocity": 100}, {"endTime": 1.125, "instrument": 1, "pitch": 62, "quantizedEndStep": "9", "quantizedStartStep": "5", "startTime": 0.625, "velocity": 100}, {"endTime": 1.625, "instrument": 1, "pitch": 60, "quantizedEndStep": "13", "quantizedStartStep": "9", "startTime": 1.125, "velocity": 100}, {"endTime": 2.0, "instrument": 1, "pitch": 65, "quantizedEndStep": "16", "quantizedStartStep": "13", "startTime": 1.625, "velocity": 100}, {"endTime": 2.125, "instrument": 1, "pitch": 65, "quantizedEndStep": "17", "quantizedStartStep": "16", "startTime": 2.0, "velocity": 100}, {"endTime": 2.625, "instrument": 1, "pitch": 64, "quantizedEndStep": "21", "quantizedStartStep": "17", "startTime": 2.125, "velocity": 100}, {"endTime": 3.625, "instrument": 1, "pitch": 65, "quantizedEndStep": "29", "quantizedStartStep": "21", "startTime": 2.625, "velocity": 100}, {"endTime": 4.0, "instrument": 1, "pitch": 67, "quantizedEndStep": "32", "quantizedStartStep": "29", "startTime": 3.625, "velocity": 100}, {"endTime": 0.125, "instrument": 2, "pitch": 58, "quantizedEndStep": "1", "velocity": 100}, {"endTime": 0.625, "instrument": 2, "pitch": 60, "quantizedEndStep": "5", "quantizedStartStep": "1", "startTime": 0.125, "velocity": 100}, {"endTime": 1.125, "instrument": 2, "pitch": 58, "quantizedEndStep": "9", "quantizedStartStep": "5", "startTime": 0.625, "velocity": 100}, {"endTime": 1.625, "instrument": 2, "pitch": 55, "quantizedEndStep": "13", "quantizedStartStep": "9", "startTime": 1.125, "velocity": 100}, {"endTime": 2.0, "instrument": 2, "pitch": 60, "quantizedEndStep": "16", "quantizedStartStep": "13", "startTime": 1.625, "velocity": 100}, {"endTime": 3.625, "instrument": 2, "pitch": 60, "quantizedEndStep": "29", "quantizedStartStep": "16", "startTime": 2.0, "velocity": 100}, {"endTime": 4.0, "instrument": 2, "pitch": 61, "quantizedEndStep": "32", "quantizedStartStep": "29", "startTime": 3.625, "velocity": 100}, {"endTime": 0.125, "instrument": 3, "pitch": 55, "quantizedEndStep": "1", "velocity": 100}, {"endTime": 0.375, "instrument": 3, "pitch": 57, "quantizedEndStep": "3", "quantizedStartStep": "1", "startTime": 0.125, "velocity": 100}, {"endTime": 0.625, "instrument": 3, "pitch": 53, "quantizedEndStep": "5", "quantizedStartStep": "3", "startTime": 0.375, "velocity": 100}, {"endTime": 1.125, "instrument": 3, "pitch": 58, "quantizedEndStep": "9", "quantizedStartStep": "5", "startTime": 0.625, "velocity": 100}, {"endTime": 1.625, "instrument": 3, "pitch": 52, "quantizedEndStep": "13", "quantizedStartStep": "9", "startTime": 1.125, "velocity": 100}, {"endTime": 2.0, "instrument": 3, "pitch": 53, "quantizedEndStep": "16", "quantizedStartStep": "13", "startTime": 1.625, "velocity": 100}, {"endTime": 2.125, "instrument": 3, "pitch": 53, "quantizedEndStep": "17", "quantizedStartStep": "16", "startTime": 2.0, "velocity": 100}, {"endTime": 2.625, "instrument": 3, "pitch": 48, "quantizedEndStep": "21", "quantizedStartStep": "17", "startTime": 2.125, "velocity": 100}, {"endTime": 3.125, "instrument": 3, "pitch": 41, "quantizedEndStep": "25", "quantizedStartStep": "21", "startTime": 2.625, "velocity": 100}, {"endTime": 3.625, "instrument": 3, "pitch": 53, "quantizedEndStep": "29", "quantizedStartStep": "25", "startTime": 3.125, "velocity": 100}, {"endTime": 4.0, "instrument": 3, "pitch": 52, "quantizedEndStep": "32", "quantizedStartStep": "29", "startTime": 3.625, "velocity": 100}], "quantizationInfo": {"stepsPerQuarter": 4}, "tempos": [{"qpm": 120.0}], "ticksPerQuarter": 220, "timeSignatures": [{"denominator": 4, "numerator": 4}], "totalQuantizedSteps": "32", "totalTime": 4.0}], "request_id": [0, 1, 2, 3, 4, 5, 6, 7], "session_id": "0048c672ceee44ef91de72a04c1dc16c"}
,{"backend": ["r", "r"], "composition_time": [23570, 64539], "country": ["by", "by"], "feedback": ["2", ""], "input_sequence": [{"notes": [{"endTime": 0.5, "pitch": 74, "pitchName": "D", "quantizedEndStep": "2", "velocity": 100}, {"endTime": 1.0, "pitch": 69, "pitchName": "A", "quantizedEndStep": "4", "quantizedStartStep": "2", "startTime": 0.5, "velocity": 100}, {"endTime": 1.5, "pitch": 69, "pitchName": "A", "quantizedEndStep": "6", "quantizedStartStep": "4", "startTime": 1.0, "velocity": 100}, {"endTime": 2.0, "pitch": 74, "pitchName": "D", "quantizedEndStep": "8", "quantizedStartStep": "6", "startTime": 1.5, "velocity": 100}, {"endTime": 2.5, "pitch": 64, "pitchName": "E", "quantizedEndStep": "10", "quantizedStartStep": "8", "startTime": 2.0, "velocity": 100}, {"endTime": 3.0, "pitch": 64, "pitchName": "E", "quantizedEndStep": "12", "quantizedStartStep": "10", "startTime": 2.5, "velocity": 100}, {"endTime": 3.5, "pitch": 65, "pitchName": "F", "quantizedEndStep": "14", "quantizedStartStep": "12", "startTime": 3.0, "velocity": 100}, {"endTime": 4.0, "pitch": 71, "pitchName": "B", "quantizedEndStep": "16", "quantizedStartStep": "14", "startTime": 3.5, "velocity": 100}, {"endTime": 4.5, "pitch": 65, "pitchName": "F", "quantizedEndStep": "18", "quantizedStartStep": "16", "startTime": 4.0, "velocity": 100}, {"endTime": 5.0, "pitch": 65, "pitchName": "F", "quantizedEndStep": "20", "quantizedStartStep": "18", "startTime": 4.5, "velocity": 100}, {"endTime": 5.5, "pitch": 71, "pitchName": "B", "quantizedEndStep": "22", "quantizedStartStep": "20", "startTime": 5.0, "velocity": 100}, {"endTime": 6.0, "pitch": 76, "pitchName": "E", "quantizedEndStep": "24", "quantizedStartStep": "22", "startTime": 5.5, "velocity": 100}, {"endTime": 6.5, "pitch": 65, "pitchName": "F", "quantizedEndStep": "26", "quantizedStartStep": "24", "startTime": 6.0, "velocity": 100}, {"endTime": 7.0, "pitch": 69, "pitchName": "A", "quantizedEndStep": "28", "quantizedStartStep": "26", "startTime": 6.5, "velocity": 100}, {"endTime": 7.5, "pitch": 65, "pitchName": "F", "quantizedEndStep": "30", "quantizedStartStep": "28", "startTime": 7.0, "velocity": 100}, {"endTime": 8.0, "pitch": 65, "pitchName": "F", "quantizedEndStep": "32", "quantizedStartStep": "30", "startTime": 7.5, "velocity": 100}], "quantizationInfo": {"stepsPerQuarter": 4}, "tempos": [{"qpm": 60.0}], "ticksPerQuarter": 220, "timeSignatures": [{"denominator": 4, "numerator": 4}], "totalQuantizedSteps": "32", "totalTime": 8.0}, {"keySignatures": [{"key": "D", "mode": "NOT_SPECIFIED"}], "notes": [{"endTime": 0.25, "pitch": 67, "pitchName": "G", "quantizedEndStep": "1", "velocity": 100}, {"endTime": 0.5, "pitch": 76, "pitchName": "E", "quantizedEndStep": "2", "quantizedStartStep": "1", "startTime": 0.25, "velocity": 100}, {"endTime": 2.0, "pitch": 71, "pitchName": "B", "quantizedEndStep": "8", "quantizedStartStep": "4", "startTime": 1.0, "velocity": 100}, {"endTime": 3.0, "pitch": 67, "pitchName": "G", "quantizedEndStep": "12", "quantizedStartStep": "8", "startTime": 2.0, "velocity": 100}, {"endTime": 3.5, "pitch": 69, "pitchName": "A", "quantizedEndStep": "14", "quantizedStartStep": "13", "startTime": 3.25, "velocity": 100}, {"endTime": 5.0, "pitch": 76, "pitchName": "E", "quantizedEndStep": "20", "quantizedStartStep": "16", "startTime": 4.0, "velocity": 100}, {"endTime": 5.75, "pitch": 73, "pitchName": "C_SHARP", "quantizedEndStep": "23", "quantizedStartStep": "20", "startTime": 5.0, "velocity": 100}, {"endTime": 6.0, "pitch": 67, "pitchName": "G", "quantizedEndStep": "24", "quantizedStartStep": "23", "startTime": 5.75, "velocity": 100}, {"endTime": 7.0, "pitch": 78, "pitchName": "F_SHARP", "quantizedEndStep": "28", "quantizedStartStep": "26", "startTime": 6.5, "velocity": 100}, {"endTime": 7.75, "pitch": 67, "pitchName": "G", "quantizedEndStep": "31", "quantizedStartStep": "28", "startTime": 7.0, "velocity": 100}, {"endTime": 8.0, "pitch": 76, "pitchName": "E", "quantizedEndStep": "32", "quantizedStartStep": "31", "startTime": 7.75, "velocity": 100}], "quantizationInfo": {"stepsPerQuarter": 4}, "tempos": [{"qpm": 60.0}], "ticksPerQuarter": 220, "timeSignatures": [{"denominator": 4, "numerator": 4}], "totalQuantizedSteps": "32", "totalTime": 8.0}], "key_sig": ["", "2"], "loops_listened": [3, 2], "output_sequence": [{"notes": [{"endTime": 0.5, "pitch": 74, "quantizedEndStep": "2", "velocity": 100}, {"endTime": 1.5, "pitch": 69, "quantizedEndStep": "6", "quantizedStartStep": "2", "startTime": 0.5, "velocity": 100}, {"endTime": 2.0, "pitch": 74, "quantizedEndStep": "8", "quantizedStartStep": "6", "startTime": 1.5, "velocity": 100}, {"endTime": 3.0, "pitch": 64, "quantizedEndStep": "12", "quantizedStartStep": "8", "startTime": 2.0, "velocity": 100}, {"endTime": 3.5, "pitch": 65, "quantizedEndStep": "14", "quantizedStartStep": "12", "startTime": 3.0, "velocity": 100}, {"endTime": 4.0, "pitch": 71, "quantizedEndStep": "16", "quantizedStartStep": "14", "startTime": 3.5, "velocity": 100}, {"endTime": 5.0, "pitch": 65, "quantizedEndStep": "20", "quantizedStartStep": "16", "startTime": 4.0, "velocity": 100}, {"endTime": 5.5, "pitch": 71, "quantizedEndStep": "22", "quantizedStartStep": "20", "startTime": 5.0, "velocity": 100}, {"endTime": 6.0, "pitch": 76, "quantizedEndStep": "24", "quantizedStartStep": "22", "startTime": 5.5, "velocity": 100}, {"endTime": 6.5, "pitch": 65, "quantizedEndStep": "26", "quantizedStartStep": "24", "startTime": 6.0, "velocity": 100}, {"endTime": 7.0, "pitch": 69, "quantizedEndStep": "28", "quantizedStartStep": "26", "startTime": 6.5, "velocity": 100}, {"endTime": 8.0, "pitch": 65, "quantizedEndStep": "32", "quantizedStartStep": "28", "startTime": 7.0, "velocity": 100}, {"endTime": 1.0, "instrument": 1, "pitch": 66, "quantizedEndStep": "4", "velocity": 100}, {"endTime": 1.5, "instrument": 1, "pitch": 64, "quantizedEndStep": "6", "quantizedStartStep": "4", "startTime": 1.0, "velocity": 100}, {"endTime": 2.0, "instrument": 1, "pitch": 62, "quantizedEndStep": "8", "quantizedStartStep": "6", "startTime": 1.5, "velocity": 100}, {"endTime": 3.0, "instrument": 1, "pitch": 61, "quantizedEndStep": "12", "quantizedStartStep": "8", "startTime": 2.0, "velocity": 100}, {"endTime": 4.0, "instrument": 1, "pitch": 62, "quantizedEndStep": "16", "quantizedStartStep": "12", "startTime": 3.0, "velocity": 100}, {"endTime": 5.0, "instrument": 1, "pitch": 62, "quantizedEndStep": "20", "quantizedStartStep": "16", "startTime": 4.0, "velocity": 100}, {"endTime": 6.0, "instrument": 1, "pitch": 64, "quantizedEndStep": "24", "quantizedStartStep": "20", "startTime": 5.0, "velocity": 100}, {"endTime": 6.5, "instrument": 1, "pitch": 62, "quantizedEndStep": "26", "quantizedStartStep": "24", "startTime": 6.0, "velocity": 100}, {"endTime": 7.0, "instrument": 1, "pitch": 61, "quantizedEndStep": "28", "quantizedStartStep": "26", "startTime": 6.5, "velocity": 100}, {"endTime": 8.0, "instrument": 1, "pitch": 62, "quantizedEndStep": "32", "quantizedStartStep": "28", "startTime": 7.0, "velocity": 100}, {"endTime": 1.5, "instrument": 2, "pitch": 62, "quantizedEndStep": "6", "velocity": 100}, {"endTime": 4.0, "instrument": 2, "pitch": 57, "quantizedEndStep": "16", "quantizedStartStep": "6", "startTime": 1.5, "velocity": 100}, {"endTime": 5.0, "instrument": 2, "pitch": 57, "quantizedEndStep": "20", "quantizedStartStep": "16", "startTime": 4.0, "velocity": 100}, {"endTime": 7.0, "instrument": 2, "pitch": 56, "quantizedEndStep": "28", "quantizedStartStep": "20", "startTime": 5.0, "velocity": 100}, {"endTime": 8.0, "instrument": 2, "pitch": 57, "quantizedEndStep": "32", "quantizedStartStep": "28", "startTime": 7.0, "velocity": 100}, {"endTime": 1.0, "instrument": 3, "pitch": 50, "quantizedEndStep": "4", "velocity": 100}, {"endTime": 2.5, "instrument": 3, "pitch": 45, "quantizedEndStep": "10", "quantizedStartStep": "4", "startTime": 1.0, "velocity": 100}, {"endTime": 3.0, "instrument": 3, "pitch": 57, "quantizedEndStep": "12", "quantizedStartStep": "10", "startTime": 2.5, "velocity": 100}, {"endTime": 4.0, "instrument": 3, "pitch": 41, "quantizedEndStep": "16", "quantizedStartStep": "12", "startTime": 3.0, "velocity": 100}, {"endTime": 5.0, "instrument": 3, "pitch": 50, "quantizedEndStep": "20", "quantizedStartStep": "16", "startTime": 4.0, "velocity": 100}, {"endTime": 6.0, "instrument": 3, "pitch": 52, "quantizedEndStep": "24", "quantizedStartStep": "20", "startTime": 5.0, "velocity": 100}, {"endTime": 6.5, "instrument": 3, "pitch": 50, "quantizedEndStep": "26", "quantizedStartStep": "24", "startTime": 6.0, "velocity": 100}, {"endTime": 7.0, "instrument": 3, "pitch": 52, "quantizedEndStep": "28", "quantizedStartStep": "26", "startTime": 6.5, "velocity": 100}, {"endTime": 7.5, "instrument": 3, "pitch": 49, "quantizedEndStep": "30", "quantizedStartStep": "28", "startTime": 7.0, "velocity": 100}, {"endTime": 8.0, "instrument": 3, "pitch": 47, "quantizedEndStep": "32", "quantizedStartStep": "30", "startTime": 7.5, "velocity": 100}], "quantizationInfo": {"stepsPerQuarter": 4}, "tempos": [{"qpm": 60.0}], "ticksPerQuarter": 220, "timeSignatures": [{"denominator": 4, "numerator": 4}], "totalQuantizedSteps": "32", "totalTime": 8.0}, {"keySignatures": [{"key": "D", "mode": "NOT_SPECIFIED"}], "notes": [{"endTime": 1.0, "pitch": 76, "quantizedEndStep": "4", "velocity": 100}, {"endTime": 2.0, "pitch": 71, "quantizedEndStep": "8", "quantizedStartStep": "4", "startTime": 1.0, "velocity": 100}, {"endTime": 3.0, "pitch": 67, "quantizedEndStep": "12", "quantizedStartStep": "8", "startTime": 2.0, "velocity": 100}, {"endTime": 4.0, "pitch": 69, "quantizedEndStep": "16", "quantizedStartStep": "12", "startTime": 3.0, "velocity": 100}, {"endTime": 5.0, "pitch": 76, "quantizedEndStep": "20", "quantizedStartStep": "16", "startTime": 4.0, "velocity": 100}, {"endTime": 5.75, "pitch": 73, "quantizedEndStep": "23", "quantizedStartStep": "20", "startTime": 5.0, "velocity": 100}, {"endTime": 6.0, "pitch": 67, "quantizedEndStep": "24", "quantizedStartStep": "23", "startTime": 5.75, "velocity": 100}, {"endTime": 7.0, "pitch": 78, "quantizedEndStep": "28", "quantizedStartStep": "24", "startTime": 6.0, "velocity": 100}, {"endTime": 7.75, "pitch": 67, "quantizedEndStep": "31", "quantizedStartStep": "28", "startTime": 7.0, "velocity": 100}, {"endTime": 8.0, "pitch": 76, "quantizedEndStep": "32", "quantizedStartStep": "31", "startTime": 7.75, "velocity": 100}, {"endTime": 1.0, "instrument": 1, "pitch": 71, "quantizedEndStep": "4", "velocity": 100}, {"endTime": 1.5, "instrument": 1, "pitch": 64, "quantizedEndStep": "6", "quantizedStartStep": "4", "startTime": 1.0, "velocity": 100}, {"endTime": 2.0, "instrument": 1, "pitch": 63, "quantizedEndStep": "8", "quantizedStartStep": "6", "startTime": 1.5, "velocity": 100}, {"endTime": 3.5, "instrument": 1, "pitch": 64, "quantizedEndStep": "14", "quantizedStartStep": "8", "startTime": 2.0, "velocity": 100}, {"endTime": 4.0, "instrument": 1, "pitch": 62, "quantizedEndStep": "16", "quantizedStartStep": "14", "startTime": 3.5, "velocity": 100}, {"endTime": 5.0, "instrument": 1, "pitch": 69, "quantizedEndStep": "20", "quantizedStartStep": "16", "startTime": 4.0, "velocity": 100}, {"endTime": 5.5, "instrument": 1, "pitch": 67, "quantizedEndStep": "22", "quantizedStartStep": "20", "startTime": 5.0, "velocity": 100}, {"endTime": 6.0, "instrument": 1, "pitch": 64, "quantizedEndStep": "24", "quantizedStartStep": "22", "startTime": 5.5, "velocity": 100}, {"endTime": 6.5, "instrument": 1, "pitch": 66, "quantizedEndStep": "26", "quantizedStartStep": "24", "startTime": 6.0, "velocity": 100}, {"endTime": 7.0, "instrument": 1, "pitch": 63, "quantizedEndStep": "28", "quantizedStartStep": "26", "startTime": 6.5, "velocity": 100}, {"endTime": 8.0, "instrument": 1, "pitch": 64, "quantizedEndStep": "32", "quantizedStartStep": "28", "startTime": 7.0, "velocity": 100}, {"endTime": 1.0, "instrument": 2, "pitch": 68, "quantizedEndStep": "4", "velocity": 100}, {"endTime": 1.5, "instrument": 2, "pitch": 59, "quantizedEndStep": "6", "quantizedStartStep": "4", "startTime": 1.0, "velocity": 100}, {"endTime": 1.75, "instrument": 2, "pitch": 57, "quantizedEndStep": "7", "quantizedStartStep": "6", "startTime": 1.5, "velocity": 100}, {"endTime": 2.5, "instrument": 2, "pitch": 59, "quantizedEndStep": "10", "quantizedStartStep": "7", "startTime": 1.75, "velocity": 100}, {"endTime": 3.0, "instrument": 2, "pitch": 61, "quantizedEndStep": "12", "quantizedStartStep": "10", "startTime": 2.5, "velocity": 100}, {"endTime": 4.0, "instrument": 2, "pitch": 62, "quantizedEndStep": "16", "quantizedStartStep": "12", "startTime": 3.0, "velocity": 100}, {"endTime": 4.5, "instrument": 2, "pitch": 62, "quantizedEndStep": "18", "quantizedStartStep": "16", "startTime": 4.0, "velocity": 100}, {"endTime": 5.0, "instrument": 2, "pitch": 60, "quantizedEndStep": "20", "quantizedStartStep": "18", "startTime": 4.5, "velocity": 100}, {"endTime": 6.0, "instrument": 2, "pitch": 59, "quantizedEndStep": "24", "quantizedStartStep": "20", "startTime": 5.0, "velocity": 100}, {"endTime": 7.0, "instrument": 2, "pitch": 57, "quantizedEndStep": "28", "quantizedStartStep": "24", "startTime": 6.0, "velocity": 100}, {"endTime": 8.0, "instrument": 2, "pitch": 59, "quantizedEndStep": "32", "quantizedStartStep": "28", "startTime": 7.0, "velocity": 100}, {"endTime": 0.5, "instrument": 3, "pitch": 52, "quantizedEndStep": "2", "velocity": 100}, {"endTime": 1.0, "instrument": 3, "pitch": 54, "quantizedEndStep": "4", "quantizedStartStep": "2", "startTime": 0.5, "velocity": 100}, {"endTime": 1.5, "instrument": 3, "pitch": 55, "quantizedEndStep": "6", "quantizedStartStep": "4", "startTime": 1.0, "velocity": 100}, {"endTime": 2.0, "instrument": 3, "pitch": 54, "quantizedEndStep": "8", "quantizedStartStep": "6", "startTime": 1.5, "velocity": 100}, {"endTime": 2.5, "instrument": 3, "pitch": 52, "quantizedEndStep": "10", "quantizedStartStep": "8", "startTime": 2.0, "velocity": 100}, {"endTime": 3.0, "instrument": 3, "pitch": 50, "quantizedEndStep": "12", "quantizedStartStep": "10", "startTime": 2.5, "velocity": 100}, {"endTime": 3.5, "instrument": 3, "pitch": 49, "quantizedEndStep": "14", "quantizedStartStep": "12", "startTime": 3.0, "velocity": 100}, {"endTime": 4.0, "instrument": 3, "pitch": 47, "quantizedEndStep": "16", "quantizedStartStep": "14", "startTime": 3.5, "velocity": 100}, {"endTime": 4.5, "instrument": 3, "pitch": 45, "quantizedEndStep": "18", "quantizedStartStep": "16", "startTime": 4.0, "velocity": 100}, {"endTime": 5.0, "instrument": 3, "pitch": 57, "quantizedEndStep": "20", "quantizedStartStep": "18", "startTime": 4.5, "velocity": 100}, {"endTime": 5.5, "instrument": 3, "pitch": 52, "quantizedEndStep": "22", "quantizedStartStep": "20", "startTime": 5.0, "velocity": 100}, {"endTime": 5.75, "instrument": 3, "pitch": 49, "quantizedEndStep": "23", "quantizedStartStep": "22", "startTime": 5.5, "velocity": 100}, {"endTime": 6.0, "instrument": 3, "pitch": 52, "quantizedEndStep": "24", "quantizedStartStep": "23", "startTime": 5.75, "velocity": 100}, {"endTime": 7.0, "instrument": 3, "pitch": 54, "quantizedEndStep": "28", "quantizedStartStep": "24", "startTime": 6.0, "velocity": 100}, {"endTime": 8.0, "instrument": 3, "pitch": 52, "quantizedEndStep": "32", "quantizedStartStep": "28", "startTime": 7.0, "velocity": 100}], "quantizationInfo": {"stepsPerQuarter": 4}, "tempos": [{"qpm": 60.0}], "ticksPerQuarter": 220, "timeSignatures": [{"denominator": 4, "numerator": 4}], "totalQuantizedSteps": "32", "totalTime": 8.0}], "request_id": [0, 1], "session_id": "c9f04d46b3cb4f08a09c50c022445386"}
,{"backend": ["r"], "composition_time": [24126], "country": ["ar"], "feedback": ["2"], "input_sequence": [{"notes": [{"endTime": 0.5, "pitch": 71, "pitchName": "B", "quantizedEndStep": "2", "velocity": 100}, {"endTime": 1.0, "pitch": 65, "pitchName": "F", "quantizedEndStep": "4", "quantizedStartStep": "2", "startTime": 0.5, "velocity": 100}, {"endTime": 1.5, "pitch": 62, "pitchName": "D", "quantizedEndStep": "6", "quantizedStartStep": "4", "startTime": 1.0, "velocity": 100}, {"endTime": 2.0, "pitch": 64, "pitchName": "E", "quantizedEndStep": "8", "quantizedStartStep": "6", "startTime": 1.5, "velocity": 100}, {"endTime": 2.5, "pitch": 71, "pitchName": "B", "quantizedEndStep": "10", "quantizedStartStep": "8", "startTime": 2.0, "velocity": 100}, {"endTime": 3.0, "pitch": 74, "pitchName": "D", "quantizedEndStep": "12", "quantizedStartStep": "10", "startTime": 2.5, "velocity": 100}, {"endTime": 3.5, "pitch": 77, "pitchName": "F", "quantizedEndStep": "14", "quantizedStartStep": "12", "startTime": 3.0, "velocity": 100}, {"endTime": 4.0, "pitch": 77, "pitchName": "F", "quantizedEndStep": "16", "quantizedStartStep": "14", "startTime": 3.5, "velocity": 100}, {"endTime": 4.5, "pitch": 64, "pitchName": "E", "quantizedEndStep": "18", "quantizedStartStep": "16", "startTime": 4.0, "velocity": 100}, {"endTime": 5.0, "pitch": 69, "pitchName": "A", "quantizedEndStep": "20", "quantizedStartStep": "18", "startTime": 4.5, "velocity": 100}, {"endTime": 5.5, "pitch": 67, "pitchName": "G", "quantizedEndStep": "22", "quantizedStartStep": "20", "startTime": 5.0, "velocity": 100}, {"endTime": 6.0, "pitch": 76, "pitchName": "E", "quantizedEndStep": "24", "quantizedStartStep": "22", "startTime": 5.5, "velocity": 100}, {"endTime": 6.5, "pitch": 76, "pitchName": "E", "quantizedEndStep": "26", "quantizedStartStep": "24", "startTime": 6.0, "velocity": 100}, {"endTime": 7.0, "pitch": 69, "pitchName": "A", "quantizedEndStep": "28", "quantizedStartStep": "26", "startTime": 6.5, "velocity": 100}, {"endTime": 8.0, "pitch": 67, "pitchName": "G", "quantizedEndStep": "32", "quantizedStartStep": "28", "startTime": 7.0, "velocity": 100}], "quantizationInfo": {"stepsPerQuarter": 4}, "tempos": [{"qpm": 60.0}], "ticksPerQuarter": 220, "timeSignatures": [{"denominator": 4, "numerator": 4}], "totalQuantizedSteps": "32", "totalTime": 8.0}], "key_sig": [""], "loops_listened": [4], "output_sequence": [{"notes": [{"endTime": 0.5, "pitch": 71, "quantizedEndStep": "2", "velocity": 100}, {"endTime": 1.0, "pitch": 65, "quantizedEndStep": "4", "quantizedStartStep": "2", "startTime": 0.5, "velocity": 100}, {"endTime": 1.5, "pitch": 62, "quantizedEndStep": "6", "quantizedStartStep": "4", "startTime": 1.0, "velocity": 100}, {"endTime": 2.0, "pitch": 64, "quantizedEndStep": "8", "quantizedStartStep": "6", "startTime": 1.5, "velocity": 100}, {"endTime": 2.5, "pitch": 71, "quantizedEndStep": "10", "quantizedStartStep": "8", "startTime": 2.0, "velocity": 100}, {"endTime": 3.0, "pitch": 74, "quantizedEndStep": "12", "quantizedStartStep": "10", "startTime": 2.5, "velocity": 100}, {"endTime": 4.0, "pitch": 77, "quantizedEndStep": "16", "quantizedStartStep": "12", "startTime": 3.0, "velocity": 100}, {"endTime": 4.5, "pitch": 64, "quantizedEndStep": "18", "quantizedStartStep": "16", "startTime": 4.0, "velocity": 100}, {"endTime": 5.0, "pitch": 69, "quantizedEndStep": "20", "quantizedStartStep": "18", "startTime": 4.5, "velocity": 100}, {"endTime": 5.5, "pitch": 67, "quantizedEndStep": "22", "quantizedStartStep": "20", "startTime": 5.0, "velocity": 100}, {"endTime": 6.5, "pitch": 76, "quantizedEndStep": "26", "quantizedStartStep": "22", "startTime": 5.5, "velocity": 100}, {"endTime": 7.0, "pitch": 69, "quantizedEndStep": "28", "quantizedStartStep": "26", "startTime": 6.5, "velocity": 100}, {"endTime": 8.0, "pitch": 67, "quantizedEndStep": "32", "quantizedStartStep": "28", "startTime": 7.0, "velocity": 100}, {"endTime": 0.5, "instrument": 1, "pitch": 65, "quantizedEndStep": "2", "velocity": 100}, {"endTime": 1.0, "instrument": 1, "pitch": 64, "quantizedEndStep": "4", "quantizedStartStep": "2", "startTime": 0.5, "velocity": 100}, {"endTime": 1.5, "instrument": 1, "pitch": 59, "quantizedEndStep": "6", "quantizedStartStep": "4", "startTime": 1.0, "velocity": 100}, {"endTime": 2.0, "instrument": 1, "pitch": 57, "quantizedEndStep": "8", "quantizedStartStep": "6", "startTime": 1.5, "velocity": 100}, {"endTime": 2.5, "instrument": 1, "pitch": 64, "quantizedEndStep": "10", "quantizedStartStep": "8", "startTime": 2.0, "velocity": 100}, {"endTime": 3.0, "instrument": 1, "pitch": 65, "quantizedEndStep": "12", "quantizedStartStep": "10", "startTime": 2.5, "velocity": 100}, {"endTime": 3.5, "instrument": 1, "pitch": 64, "quantizedEndStep": "14", "quantizedStartStep": "12", "startTime": 3.0, "velocity": 100}, {"endTime": 4.0, "instrument": 1, "pitch": 62, "quantizedEndStep": "16", "quantizedStartStep": "14", "startTime": 3.5, "velocity": 100}, {"endTime": 4.5, "instrument": 1, "pitch": 64, "quantizedEndStep": "18", "quantizedStartStep": "16", "startTime": 4.0, "velocity": 100}, {"endTime": 5.0, "instrument": 1, "pitch": 65, "quantizedEndStep": "20", "quantizedStartStep": "18", "startTime": 4.5, "velocity": 100}, {"endTime": 6.0, "instrument": 1, "pitch": 67, "quantizedEndStep": "24", "quantizedStartStep": "20", "startTime": 5.0, "velocity": 100}, {"endTime": 6.5, "instrument": 1, "pitch": 64, "quantizedEndStep": "26", "quantizedStartStep": "24", "startTime": 6.0, "velocity": 100}, {"endTime": 7.0, "instrument": 1, "pitch": 65, "quantizedEndStep": "28", "quantizedStartStep": "26", "startTime": 6.5, "velocity": 100}, {"endTime": 8.0, "instrument": 1, "pitch": 62, "quantizedEndStep": "32", "quantizedStartStep": "28", "startTime": 7.0, "velocity": 100}, {"endTime": 1.0, "instrument": 2, "pitch": 62, "quantizedEndStep": "4", "velocity": 100}, {"endTime": 1.5, "instrument": 2, "pitch": 55, "quantizedEndStep": "6", "quantizedStartStep": "4", "startTime": 1.0, "velocity": 100}, {"endTime": 2.0, "instrument": 2, "pitch": 59, "quantizedEndStep": "8", "quantizedStartStep": "6", "startTime": 1.5, "velocity": 100}, {"endTime": 2.5, "instrument": 2, "pitch": 55, "quantizedEndStep": "10", "quantizedStartStep": "8", "startTime": 2.0, "velocity": 100}, {"endTime": 3.5, "instrument": 2, "pitch": 60, "quantizedEndStep": "14", "quantizedStartStep": "10", "startTime": 2.5, "velocity": 100}, {"endTime": 4.0, "instrument": 2, "pitch": 59, "quantizedEndStep": "16", "quantizedStartStep": "14", "startTime": 3.5, "velocity": 100}, {"endTime": 4.5, "instrument": 2, "pitch": 59, "quantizedEndStep": "18", "quantizedStartStep": "16", "startTime": 4.0, "velocity": 100}, {"endTime": 5.0, "instrument": 2, "pitch": 57, "quantizedEndStep": "20", "quantizedStartStep": "18", "startTime": 4.5, "velocity": 100}, {"endTime": 5.5, "instrument": 2, "pitch": 55, "quantizedEndStep": "22", "quantizedStartStep": "20", "startTime": 5.0, "velocity": 100}, {"endTime": 6.0, "instrument": 2, "pitch": 59, "quantizedEndStep": "24", "quantizedStartStep": "22", "startTime": 5.5, "velocity": 100}, {"endTime": 7.0, "instrument": 2, "pitch": 60, "quantizedEndStep": "28", "quantizedStartStep": "24", "startTime": 6.0, "velocity": 100}, {"endTime": 8.0, "instrument": 2, "pitch": 55, "quantizedEndStep": "32", "quantizedStartStep": "28", "startTime": 7.0, "velocity": 100}, {"endTime": 0.5, "instrument": 3, "pitch": 50, "quantizedEndStep": "2", "velocity": 100}, {"endTime": 1.0, "instrument": 3, "pitch": 48, "quantizedEndStep": "4", "quantizedStartStep": "2", "startTime": 0.5, "velocity": 100}, {"endTime": 1.5, "instrument": 3, "pitch": 47, "quantizedEndStep": "6", "quantizedStartStep": "4", "startTime": 1.0, "velocity": 100}, {"endTime": 2.0, "instrument": 3, "pitch": 45, "quantizedEndStep": "8", "quantizedStartStep": "6", "startTime": 1.5, "velocity": 100}, {"endTime": 2.5, "instrument": 3, "pitch": 52, "quantizedEndStep": "10", "quantizedStartStep": "8", "startTime": 2.0, "velocity": 100}, {"endTime": 3.0, "instrument": 3, "pitch": 50, "quantizedEndStep": "12", "quantizedStartStep": "10", "startTime": 2.5, "velocity": 100}, {"endTime": 3.5, "instrument": 3, "pitch": 48, "quantizedEndStep": "14", "quantizedStartStep": "12", "startTime": 3.0, "velocity": 100}, {"endTime": 4.0, "instrument": 3, "pitch": 47, "quantizedEndStep": "16", "quantizedStartStep": "14", "startTime": 3.5, "velocity": 100}, {"endTime": 4.5, "instrument": 3, "pitch": 48, "quantizedEndStep": "18", "quantizedStartStep": "16", "startTime": 4.0, "velocity": 100}, {"endTime": 5.0, "instrument": 3, "pitch": 50, "quantizedEndStep": "20", "quantizedStartStep": "18", "startTime": 4.5, "velocity": 100}, {"endTime": 5.5, "instrument": 3, "pitch": 52, "quantizedEndStep": "22", "quantizedStartStep": "20", "startTime": 5.0, "velocity": 100}, {"endTime": 6.0, "instrument": 3, "pitch": 50, "quantizedEndStep": "24", "quantizedStartStep": "22", "startTime": 5.5, "velocity": 100}, {"endTime": 7.0, "instrument": 3, "pitch": 48, "quantizedEndStep": "28", "quantizedStartStep": "24", "startTime": 6.0, "velocity": 100}, {"endTime": 8.0, "instrument": 3, "pitch": 47, "quantizedEndStep": "32", "quantizedStartStep": "28", "startTime": 7.0, "velocity": 100}], "quantizationInfo": {"stepsPerQuarter": 4}, "tempos": [{"qpm": 60.0}], "ticksPerQuarter": 220, "timeSignatures": [{"denominator": 4, "numerator": 4}], "totalQuantizedSteps": "32", "totalTime": 8.0}], "request_id": [0], "session_id": "3eebcb27f3e34763bc53525aeac21170"}
,{"backend": ["r"], "composition_time": [11165], "country": ["us"], "feedback": ["2"], "input_sequence": [{"notes": [{"endTime": 0.5, "pitch": 72, "pitchName": "C", "quantizedEndStep": "2", "velocity": 100}, {"endTime": 1.0, "pitch": 81, "pitchName": "A", "quantizedEndStep": "4", "quantizedStartStep": "2", "startTime": 0.5, "velocity": 100}, {"endTime": 1.5, "pitch": 77, "pitchName": "F", "quantizedEndStep": "6", "quantizedStartStep": "4", "startTime": 1.0, "velocity": 100}, {"endTime": 2.0, "pitch": 67, "pitchName": "G", "quantizedEndStep": "8", "quantizedStartStep": "6", "startTime": 1.5, "velocity": 100}, {"endTime": 2.5, "pitch": 76, "pitchName": "E", "quantizedEndStep": "10", "quantizedStartStep": "8", "startTime": 2.0, "velocity": 100}, {"endTime": 3.0, "pitch": 76, "pitchName": "E", "quantizedEndStep": "12", "quantizedStartStep": "10", "startTime": 2.5, "velocity": 100}, {"endTime": 3.5, "pitch": 79, "pitchName": "G", "quantizedEndStep": "14", "quantizedStartStep": "12", "startTime": 3.0, "velocity": 100}, {"endTime": 4.0, "pitch": 81, "pitchName": "A", "quantizedEndStep": "16", "quantizedStartStep": "14", "startTime": 3.5, "velocity": 100}, {"endTime": 4.5, "pitch": 79, "pitchName": "G", "quantizedEndStep": "18", "quantizedStartStep": "16", "startTime": 4.0, "velocity": 100}, {"endTime": 5.0, "pitch": 77, "pitchName": "F", "quantizedEndStep": "20", "quantizedStartStep": "18", "startTime": 4.5, "velocity": 100}, {"endTime": 5.5, "pitch": 79, "pitchName": "G", "quantizedEndStep": "22", "quantizedStartStep": "20", "startTime": 5.0, "velocity": 100}, {"endTime": 6.0, "pitch": 76, "pitchName": "E", "quantizedEndStep": "24", "quantizedStartStep": "22", "startTime": 5.5, "velocity": 100}, {"endTime": 7.0, "pitch": 69, "pitchName": "A", "quantizedEndStep": "28", "quantizedStartStep": "24", "startTime": 6.0, "velocity": 100}, {"endTime": 8.0, "pitch": 67, "pitchName": "G", "quantizedEndStep": "32", "quantizedStartStep": "28", "startTime": 7.0, "velocity": 100}], "quantizationInfo": {"stepsPerQuarter": 4}, "tempos": [{"qpm": 60.0}], "ticksPerQuarter": 220, "timeSignatures": [{"denominator": 4, "numerator": 4}], "totalQuantizedSteps": "32", "totalTime": 8.0}], "key_sig": [""], "loops_listened": [3], "output_sequence": [{"notes": [{"endTime": 0.5, "pitch": 72, "quantizedEndStep": "2", "velocity": 100}, {"endTime": 1.0, "pitch": 81, "quantizedEndStep": "4", "quantizedStartStep": "2", "startTime": 0.5, "velocity": 100}, {"endTime": 1.5, "pitch": 77, "quantizedEndStep": "6", "quantizedStartStep": "4", "startTime": 1.0, "velocity": 100}, {"endTime": 2.0, "pitch": 67, "quantizedEndStep": "8", "quantizedStartStep": "6", "startTime": 1.5, "velocity": 100}, {"endTime": 3.0, "pitch": 76, "quantizedEndStep": "12", "quantizedStartStep": "8", "startTime": 2.0, "velocity": 100}, {"endTime": 3.75, "pitch": 79, "quantizedEndStep": "15", "quantizedStartStep": "12", "startTime": 3.0, "velocity": 100}, {"endTime": 4.0, "pitch": 81, "quantizedEndStep": "16", "quantizedStartStep": "15", "startTime": 3.75, "velocity": 100}, {"endTime": 4.5, "pitch": 79, "quantizedEndStep": "18", "quantizedStartStep": "16", "startTime": 4.0, "velocity": 100}, {"endTime": 5.0, "pitch": 77, "quantizedEndStep": "20", "quantizedStartStep": "18", "startTime": 4.5, "velocity": 100}, {"endTime": 5.5, "pitch": 79, "quantizedEndStep": "22", "quantizedStartStep": "20", "startTime": 5.0, "velocity": 100}, {"endTime": 6.0, "pitch": 76, "quantizedEndStep": "24", "quantizedStartStep": "22", "startTime": 5.5, "velocity": 100}, {"endTime": 7.0, "pitch": 69, "quantizedEndStep": "28", "quantizedStartStep": "24", "startTime": 6.0, "velocity": 100}, {"endTime": 8.0, "pitch": 67, "quantizedEndStep": "32", "quantizedStartStep": "28", "startTime": 7.0, "velocity": 100}, {"endTime": 1.0, "instrument": 1, "pitch": 69, "quantizedEndStep": "4", "velocity": 100}, {"endTime": 2.0, "instrument": 1, "pitch": 74, "quantizedEndStep": "8", "quantizedStartStep": "4", "startTime": 1.0, "velocity": 100}, {"endTime": 2.5, "instrument": 1, "pitch": 67, "quantizedEndStep": "10", "quantizedStartStep": "8", "startTime": 2.0, "velocity": 100}, {"endTime": 3.0, "instrument": 1, "pitch": 69, "quantizedEndStep": "12", "quantizedStartStep": "10", "startTime": 2.5, "velocity": 100}, {"endTime": 4.0, "instrument": 1, "pitch": 70, "quantizedEndStep": "16", "quantizedStartStep": "12", "startTime": 3.0, "velocity": 100}, {"endTime": 5.0, "instrument": 1, "pitch": 69, "quantizedEndStep": "20", "quantizedStartStep": "16", "startTime": 4.0, "velocity": 100}, {"endTime": 6.5, "instrument": 1, "pitch": 67, "quantizedEndStep": "26", "quantizedStartStep": "20", "startTime": 5.0, "velocity": 100}, {"endTime": 7.0, "instrument": 1, "pitch": 65, "quantizedEndStep": "28", "quantizedStartStep": "26", "startTime": 6.5, "velocity": 100}, {"endTime": 8.0, "instrument": 1, "pitch": 64, "quantizedEndStep": "32", "quantizedStartStep": "28", "startTime": 7.0, "velocity": 100}, {"endTime": 0.5, "instrument": 2, "pitch": 65, "quantizedEndStep": "2", "velocity": 100}, {"endTime": 1.0, "instrument": 2, "pitch": 64, "quantizedEndStep": "4", "quantizedStartStep": "2", "startTime": 0.5, "velocity": 100}, {"endTime": 2.5, "instrument": 2, "pitch": 62, "quantizedEndStep": "10", "quantizedStartStep": "4", "startTime": 1.0, "velocity": 100}, {"endTime": 3.5, "instrument": 2, "pitch": 60, "quantizedEndStep": "14", "quantizedStartStep": "10", "startTime": 2.5, "velocity": 100}, {"endTime": 4.0, "instrument": 2, "pitch": 67, "quantizedEndStep": "16", "quantizedStartStep": "14", "startTime": 3.5, "velocity": 100}, {"endTime": 8.0, "instrument": 2, "pitch": 60, "quantizedEndStep": "32", "quantizedStartStep": "16", "startTime": 4.0, "velocity": 100}, {"endTime": 1.0, "instrument": 3, "pitch": 53, "quantizedEndStep": "4", "velocity": 100}, {"endTime": 2.0, "instrument": 3, "pitch": 58, "quantizedEndStep": "8", "quantizedStartStep": "4", "startTime": 1.0, "velocity": 100}, {"endTime": 3.0, "instrument": 3, "pitch": 60, "quantizedEndStep": "12", "quantizedStartStep": "8", "startTime": 2.0, "velocity": 100}, {"endTime": 4.0, "instrument": 3, "pitch": 52, "quantizedEndStep": "16", "quantizedStartStep": "12", "startTime": 3.0, "velocity": 100}, {"endTime": 5.0, "instrument": 3, "pitch": 53, "quantizedEndStep": "20", "quantizedStartStep": "16", "startTime": 4.0, "velocity": 100}, {"endTime": 6.0, "instrument": 3, "pitch": 52, "quantizedEndStep": "24", "quantizedStartStep": "20", "startTime": 5.0, "velocity": 100}, {"endTime": 7.0, "instrument": 3, "pitch": 53, "quantizedEndStep": "28", "quantizedStartStep": "24", "startTime": 6.0, "velocity": 100}, {"endTime": 8.0, "instrument": 3, "pitch": 55, "quantizedEndStep": "32", "quantizedStartStep": "28", "startTime": 7.0, "velocity": 100}], "quantizationInfo": {"stepsPerQuarter": 4}, "tempos": [{"qpm": 60.0}], "ticksPerQuarter": 220, "timeSignatures": [{"denominator": 4, "numerator": 4}], "totalQuantizedSteps": "32", "totalTime": 8.0}], "request_id": [0], "session_id": "fed31e9907e04b1c9ccd8ebf7f315315"}
,{"backend": ["r"], "composition_time": [66040], "country": ["ru"], "feedback": ["2"], "input_sequence": [{"notes": [{"endTime": 1.0, "pitch": 74, "pitchName": "D", "quantizedEndStep": "4", "velocity": 100}, {"endTime": 1.5, "pitch": 65, "pitchName": "F", "quantizedEndStep": "6", "quantizedStartStep": "4", "startTime": 1.0, "velocity": 100}, {"endTime": 2.0, "pitch": 72, "pitchName": "C", "quantizedEndStep": "8", "quantizedStartStep": "6", "startTime": 1.5, "velocity": 100}, {"endTime": 2.5, "pitch": 60, "pitchName": "C", "quantizedEndStep": "10", "quantizedStartStep": "8", "startTime": 2.0, "velocity": 100}, {"endTime": 3.0, "pitch": 74, "pitchName": "D", "quantizedEndStep": "12", "quantizedStartStep": "10", "startTime": 2.5, "velocity": 100}, {"endTime": 3.5, "pitch": 64, "pitchName": "E", "quantizedEndStep": "14", "quantizedStartStep": "12", "startTime": 3.0, "velocity": 100}, {"endTime": 4.0, "pitch": 76, "pitchName": "E", "quantizedEndStep": "16", "quantizedStartStep": "14", "startTime": 3.5, "velocity": 100}, {"endTime": 4.5, "pitch": 62, "pitchName": "D", "quantizedEndStep": "18", "quantizedStartStep": "16", "startTime": 4.0, "velocity": 100}, {"endTime": 5.0, "pitch": 72, "pitchName": "C", "quantizedEndStep": "20", "quantizedStartStep": "18", "startTime": 4.5, "velocity": 100}, {"endTime": 5.5, "pitch": 65, "pitchName": "F", "quantizedEndStep": "22", "quantizedStartStep": "20", "startTime": 5.0, "velocity": 100}, {"endTime": 6.0, "pitch": 72, "pitchName": "C", "quantizedEndStep": "24", "quantizedStartStep": "22", "startTime": 5.5, "velocity": 100}, {"endTime": 6.5, "pitch": 64, "pitchName": "E", "quantizedEndStep": "26", "quantizedStartStep": "24", "startTime": 6.0, "velocity": 100}, {"endTime": 7.0, "pitch": 72, "pitchName": "C", "quantizedEndStep": "28", "quantizedStartStep": "26", "startTime": 6.5, "velocity": 100}, {"endTime": 7.5, "pitch": 79, "pitchName": "G", "quantizedEndStep": "30", "quantizedStartStep": "28", "startTime": 7.0, "velocity": 100}, {"endTime": 8.0, "pitch": 76, "pitchName": "E", "quantizedEndStep": "32", "quantizedStartStep": "30", "startTime": 7.5, "velocity": 100}], "quantizationInfo": {"stepsPerQuarter": 4}, "tempos": [{"qpm": 60.0}], "ticksPerQuarter": 220, "timeSignatures": [{"denominator": 4, "numerator": 4}], "totalQuantizedSteps": "32", "totalTime": 8.0}], "key_sig": [""], "loops_listened": [2], "output_sequence": [{"notes": [{"endTime": 1.0, "pitch": 74, "quantizedEndStep": "4", "velocity": 100}, {"endTime": 1.5, "pitch": 65, "quantizedEndStep": "6", "quantizedStartStep": "4", "startTime": 1.0, "velocity": 100}, {"endTime": 2.0, "pitch": 72, "quantizedEndStep": "8", "quantizedStartStep": "6", "startTime": 1.5, "velocity": 100}, {"endTime": 2.5, "pitch": 60, "quantizedEndStep": "10", "quantizedStartStep": "8", "startTime": 2.0, "velocity": 100}, {"endTime": 3.0, "pitch": 74, "quantizedEndStep": "12", "quantizedStartStep": "10", "startTime": 2.5, "velocity": 100}, {"endTime": 3.5, "pitch": 64, "quantizedEndStep": "14", "quantizedStartStep": "12", "startTime": 3.0, "velocity": 100}, {"endTime": 4.0, "pitch": 76, "quantizedEndStep": "16", "quantizedStartStep": "14", "startTime": 3.5, "velocity": 100}, {"endTime": 4.5, "pitch": 62, "quantizedEndStep": "18", "quantizedStartStep": "16", "startTime": 4.0, "velocity": 100}, {"endTime": 5.0, "pitch": 72, "quantizedEndStep": "20", "quantizedStartStep": "18", "startTime": 4.5, "velocity": 100}, {"endTime": 5.5, "pitch": 65, "quantizedEndStep": "22", "quantizedStartStep": "20", "startTime": 5.0, "velocity": 100}, {"endTime": 6.0, "pitch": 72, "quantizedEndStep": "24", "quantizedStartStep": "22", "startTime": 5.5, "velocity": 100}, {"endTime": 6.5, "pitch": 64, "quantizedEndStep": "26", "quantizedStartStep": "24", "startTime": 6.0, "velocity": 100}, {"endTime": 7.0, "pitch": 72, "quantizedEndStep": "28", "quantizedStartStep": "26", "startTime": 6.5, "velocity": 100}, {"endTime": 7.5, "pitch": 79, "quantizedEndStep": "30", "quantizedStartStep": "28", "startTime": 7.0, "velocity": 100}, {"endTime": 8.0, "pitch": 76, "quantizedEndStep": "32", "quantizedStartStep": "30", "startTime": 7.5, "velocity": 100}, {"endTime": 0.5, "instrument": 1, "pitch": 65, "quantizedEndStep": "2", "velocity": 100}, {"endTime": 1.0, "instrument": 1, "pitch": 64, "quantizedEndStep": "4", "quantizedStartStep": "2", "startTime": 0.5, "velocity": 100}, {"endTime": 1.5, "instrument": 1, "pitch": 62, "quantizedEndStep": "6", "quantizedStartStep": "4", "startTime": 1.0, "velocity": 100}, {"endTime": 2.0, "instrument": 1, "pitch": 67, "quantizedEndStep": "8", "quantizedStartStep": "6", "startTime": 1.5, "velocity": 100}, {"endTime": 3.0, "instrument": 1, "pitch": 69, "quantizedEndStep": "12", "quantizedStartStep": "8", "startTime": 2.0, "velocity": 100}, {"endTime": 3.5, "instrument": 1, "pitch": 55, "quantizedEndStep": "14", "quantizedStartStep": "12", "startTime": 3.0, "velocity": 100}, {"endTime": 4.0, "instrument": 1, "pitch": 67, "quantizedEndStep": "16", "quantizedStartStep": "14", "startTime": 3.5, "velocity": 100}, {"endTime": 4.5, "instrument": 1, "pitch": 69, "quantizedEndStep": "18", "quantizedStartStep": "16", "startTime": 4.0, "velocity": 100}, {"endTime": 5.0, "instrument": 1, "pitch": 67, "quantizedEndStep": "20", "quantizedStartStep": "18", "startTime": 4.5, "velocity": 100}, {"endTime": 6.0, "instrument": 1, "pitch": 65, "quantizedEndStep": "24", "quantizedStartStep": "20", "startTime": 5.0, "velocity": 100}, {"endTime": 6.5, "instrument": 1, "pitch": 64, "quantizedEndStep": "26", "quantizedStartStep": "24", "startTime": 6.0, "velocity": 100}, {"endTime": 7.0, "instrument": 1, "pitch": 62, "quantizedEndStep": "28", "quantizedStartStep": "26", "startTime": 6.5, "velocity": 100}, {"endTime": 7.5, "instrument": 1, "pitch": 64, "quantizedEndStep": "30", "quantizedStartStep": "28", "startTime": 7.0, "velocity": 100}, {"endTime": 8.0, "instrument": 1, "pitch": 65, "quantizedEndStep": "32", "quantizedStartStep": "30", "startTime": 7.5, "velocity": 100}, {"endTime": 1.5, "instrument": 2, "pitch": 58, "quantizedEndStep": "6", "velocity": 100}, {"endTime": 2.0, "instrument": 2, "pitch": 55, "quantizedEndStep": "8", "quantizedStartStep": "6", "startTime": 1.5, "velocity": 100}, {"endTime": 2.5, "instrument": 2, "pitch": 57, "quantizedEndStep": "10", "quantizedStartStep": "8", "startTime": 2.0, "velocity": 100}, {"endTime": 3.0, "instrument": 2, "pitch": 59, "quantizedEndStep": "12", "quantizedStartStep": "10", "startTime": 2.5, "velocity": 100}, {"endTime": 4.0, "instrument": 2, "pitch": 60, "quantizedEndStep": "16", "quantizedStartStep": "12", "startTime": 3.0, "velocity": 100}, {"endTime": 4.5, "instrument": 2, "pitch": 60, "quantizedEndStep": "18", "quantizedStartStep": "16", "startTime": 4.0, "velocity": 100}, {"endTime": 5.5, "instrument": 2, "pitch": 57, "quantizedEndStep": "22", "quantizedStartStep": "18", "startTime": 4.5, "velocity": 100}, {"endTime": 7.0, "instrument": 2, "pitch": 55, "quantizedEndStep": "28", "quantizedStartStep": "22", "startTime": 5.5, "velocity": 100}, {"endTime": 8.0, "instrument": 2, "pitch": 57, "quantizedEndStep": "32", "quantizedStartStep": "28", "startTime": 7.0, "velocity": 100}, {"endTime": 0.5, "instrument": 3, "pitch": 58, "quantizedEndStep": "2", "velocity": 100}, {"endTime": 1.0, "instrument": 3, "pitch": 52, "quantizedEndStep": "4", "quantizedStartStep": "2", "startTime": 0.5, "velocity": 100}, {"endTime": 1.5, "instrument": 3, "pitch": 50, "quantizedEndStep": "6", "quantizedStartStep": "4", "startTime": 1.0, "velocity": 100}, {"endTime": 2.0, "instrument": 3, "pitch": 52, "quantizedEndStep": "8", "quantizedStartStep": "6", "startTime": 1.5, "velocity": 100}, {"endTime": 2.5, "instrument": 3, "pitch": 53, "quantizedEndStep": "10", "quantizedStartStep": "8", "startTime": 2.0, "velocity": 100}, {"endTime": 3.0, "instrument": 3, "pitch": 47, "quantizedEndStep": "12", "quantizedStartStep": "10", "startTime": 2.5, "velocity": 100}, {"endTime": 3.5, "instrument": 3, "pitch": 48, "quantizedEndStep": "14", "quantizedStartStep": "12", "startTime": 3.0, "velocity": 100}, {"endTime": 4.0, "instrument": 3, "pitch": 55, "quantizedEndStep": "16", "quantizedStartStep": "14", "startTime": 3.5, "velocity": 100}, {"endTime": 4.5, "instrument": 3, "pitch": 53, "quantizedEndStep": "18", "quantizedStartStep": "16", "startTime": 4.0, "velocity": 100}, {"endTime": 5.0, "instrument": 3, "pitch": 52, "quantizedEndStep": "20", "quantizedStartStep": "18", "startTime": 4.5, "velocity": 100}, {"endTime": 5.5, "instrument": 3, "pitch": 50, "quantizedEndStep": "22", "quantizedStartStep": "20", "startTime": 5.0, "velocity": 100}, {"endTime": 6.5, "instrument": 3, "pitch": 48, "quantizedEndStep": "26", "quantizedStartStep": "22", "startTime": 5.5, "velocity": 100}, {"endTime": 7.0, "instrument": 3, "pitch": 47, "quantizedEndStep": "28", "quantizedStartStep": "26", "startTime": 6.5, "velocity": 100}, {"endTime": 7.5, "instrument": 3, "pitch": 48, "quantizedEndStep": "30", "quantizedStartStep": "28", "startTime": 7.0, "velocity": 100}, {"endTime": 8.0, "instrument": 3, "pitch": 50, "quantizedEndStep": "32", "quantizedStartStep": "30", "startTime": 7.5, "velocity": 100}], "quantizationInfo": {"stepsPerQuarter": 4}, "tempos": [{"qpm": 60.0}], "ticksPerQuarter": 220, "timeSignatures": [{"denominator": 4, "numerator": 4}], "totalQuantizedSteps": "32", "totalTime": 8.0}], "request_id": [0], "session_id": "52b6cefedee84c1baad5a845fe742320"}
]
